<?xml version="1.0" encoding="utf-8"?>
<svg width="37" height="37" viewBox="0 0 37 37" fill="none" xmlns="http://www.w3.org/2000/svg">
  <g>
    <g transform="translate(0.74 2.146)">
      <path d="M33.9923 3.5286e-07C33.9923 3.5286e-07 1.52774 3.5286e-07 1.52774 3.5286e-07C0.687409 3.5286e-07 0 0.687503 0 1.52774C0 1.52774 0 24.6196 0 24.6196C0 25.4675 0.687409 26.1473 1.52774 26.1473C1.52774 26.1473 19.5093 26.1473 19.5093 26.1473C19.2648 25.8036 19.1426 25.3911 19.1426 24.9709C19.1426 24.9709 19.1579 23.6648 19.1579 23.6648C19.1579 23.6648 5.3471 23.6648 5.3471 23.6648C5.03388 23.6648 4.77419 23.405 4.77419 23.0919C4.77419 22.1447 4.00268 21.3731 3.05548 21.3731C2.74227 21.3731 2.48258 21.1134 2.48258 20.8002C2.48258 20.8002 2.48258 5.3471 2.48258 5.3471C2.48258 5.03393 2.74227 4.77419 3.05548 4.77419C4.00268 4.77419 4.77419 4.00272 4.77419 3.05548C4.77419 2.74232 5.03388 2.48258 5.3471 2.48258C5.3471 2.48258 30.1729 2.48258 30.1729 2.48258C30.486 2.48258 30.7458 2.74232 30.7458 3.05548C30.7458 4.00272 31.5173 4.77419 32.4645 4.77419C32.7776 4.77419 33.0374 5.03393 33.0374 5.3471C33.0374 5.3471 33.0374 19.2725 33.0374 19.2725C33.4117 19.6544 33.6103 20.1509 33.6103 20.6856C33.6103 21.2357 33.3964 21.7551 32.9992 22.137C32.9992 22.137 31.8075 23.2981 31.8075 23.2981C31.8075 23.2981 31.8304 24.9709 31.8304 24.9709C31.8381 25.3911 31.7083 25.8036 31.4714 26.1473C31.4714 26.1473 33.9923 26.1473 33.9923 26.1473C34.8401 26.1473 35.52 25.4675 35.52 24.6196C35.52 24.6196 35.52 1.52774 35.52 1.52774C35.52 0.687503 34.8401 0 33.9923 0C33.9923 0 33.9923 3.5286e-07 33.9923 3.5286e-07Z" fill="#B8B8B8" fill-rule="evenodd" />
      <path d="M15.5371 14.4372C15.5371 14.4372 15.5218 12.7719 15.5218 12.7719C15.5142 12.2219 15.7204 11.7102 16.1024 11.3206C16.4919 10.931 17.0038 10.7171 17.5461 10.7171C17.5461 10.7171 19.2419 10.7324 19.2419 10.7324C19.2419 10.7324 20.403 9.54079 20.403 9.54079C20.7925 9.14356 21.3043 8.92965 21.862 8.92965C22.4119 8.92965 22.9238 9.14356 23.3134 9.54079C23.3134 9.54079 24.4745 10.7324 24.4745 10.7324C24.4745 10.7324 26.1473 10.7171 26.1473 10.7171C26.7202 10.7171 27.2319 10.931 27.6139 11.3206C27.9881 11.7025 28.2632 12.2067 28.2632 12.749C28.2632 12.749 28.2632 2.23814 28.2632 2.23814C27.1404 2.00898 26.2542 1.12291 26.025 0C26.025 0 2.23044 0 2.23044 0C2.00889 1.12291 1.12287 2.00898 0 2.23814C0 2.23814 0 16.66 0 16.66C1.12287 16.8816 2.00889 17.7676 2.23044 18.8906C2.23044 18.8906 14.7351 18.8906 14.7351 18.8906C14.7351 18.8906 14.3455 18.5086 14.3455 18.5086C13.9483 18.1267 13.7344 17.6073 13.7344 17.0572C13.7344 16.4996 13.9483 15.9878 14.3455 15.5983C14.3455 15.5983 15.5371 14.4372 15.5371 14.4372ZM8.14273 2.84961C8.14273 2.84961 20.1279 2.84961 20.1279 2.84961C20.4411 2.84961 20.7008 3.1093 20.7008 3.42251C20.7008 3.74333 20.4411 3.99542 20.1279 3.99542C20.1279 3.99542 8.14273 3.99542 8.14273 3.99542C7.82961 3.99542 7.56982 3.74333 7.56982 3.42251C7.56982 3.1093 7.82961 2.84961 8.14273 2.84961C8.14273 2.84961 8.14273 2.84961 8.14273 2.84961ZM11.7408 16.0413C11.7408 16.0413 4.3312 16.0413 4.3312 16.0413C4.01808 16.0413 3.7583 15.7816 3.7583 15.4684C3.7583 15.1552 4.01808 14.8955 4.3312 14.8955C4.3312 14.8955 11.7408 14.8955 11.7408 14.8955C12.054 14.8955 12.3137 15.1552 12.3137 15.4684C12.3137 15.7816 12.054 16.0413 11.7408 16.0413C11.7408 16.0413 11.7408 16.0413 11.7408 16.0413ZM11.7408 12.0232C11.7408 12.0232 4.3312 12.0232 4.3312 12.0232C4.01808 12.0232 3.7583 11.7712 3.7583 11.4503C3.7583 11.1371 4.01808 10.8774 4.3312 10.8774C4.3312 10.8774 11.7408 10.8774 11.7408 10.8774C12.054 10.8774 12.3137 11.1371 12.3137 11.4503C12.3137 11.7712 12.054 12.0232 11.7408 12.0232C11.7408 12.0232 11.7408 12.0232 11.7408 12.0232ZM4.3312 8.01299C4.01808 8.01299 3.7583 7.75326 3.7583 7.44009C3.7583 7.11923 4.01808 6.86719 4.3312 6.86719C4.3312 6.86719 23.9322 6.86719 23.9322 6.86719C24.253 6.86719 24.5051 7.11923 24.5051 7.44009C24.5051 7.75326 24.253 8.01299 23.9322 8.01299C23.9322 8.01299 4.3312 8.01299 4.3312 8.01299Z" fill="#B8B8B8" transform="translate(3.628 3.628)" />
      <path d="M3.18249 0C3.18249 0 1.5173 0.0228939 1.50965 0.0228939C1.44084 0.0228939 1.37211 0.0228939 1.30339 0.0152454C1.30339 0.0152454 0.0276947 3.23116 0.0276947 3.23116C-0.0869045 3.50614 0.172876 3.78877 0.463058 3.69711C0.463058 3.69711 2.18941 3.14714 2.18941 3.14714C2.34989 3.09367 2.52557 3.16244 2.60958 3.30753C2.60958 3.30753 3.48805 4.89639 3.48805 4.89639C3.63324 5.16377 4.01517 5.13319 4.12968 4.85821C4.12968 4.85821 5.35959 1.76454 5.35959 1.76454C4.97001 1.67288 4.62621 1.48191 4.34359 1.19164C4.34359 1.19164 3.18249 0 3.18249 0Z" fill="#B8B8B8" fill-rule="evenodd" transform="translate(19.688 27.003)" />
      <path d="M4.07914 0C4.07914 0 4.07149 0 4.07149 0C3.89582 0.0534763 3.7125 0.0763702 3.52153 0.0763702C3.52153 0.0763702 1.82576 0.0534763 1.82576 0.0534763C1.82576 0.0534763 0.664658 1.24511 0.664658 1.24511C0.47369 1.44373 0.244492 1.59646 0 1.70342C0 1.70342 1.5201 5.53807 1.5201 5.53807C1.62714 5.81305 2.00908 5.83599 2.15417 5.57625C2.15417 5.57625 3.04019 3.98739 3.04019 3.98739C3.11666 3.84225 3.29233 3.77353 3.45271 3.827C3.45271 3.827 5.18672 4.37696 5.18672 4.37696C5.46935 4.46863 5.72903 4.186 5.62217 3.90337C5.62217 3.90337 4.07914 0 4.07914 0Z" fill="#B8B8B8" fill-rule="evenodd" transform="translate(26.277 26.949)" />
      <path d="M9.50442 12.1551C9.50442 12.1551 11.2767 12.178 11.2767 12.178C11.7807 12.1857 12.1856 11.7808 12.178 11.2843C12.178 11.2843 12.155 9.50446 12.155 9.50446C12.1474 9.26001 12.2468 9.02322 12.4225 8.85519C12.4225 8.85519 13.6904 7.61772 13.6904 7.61772C14.0495 7.26632 14.0495 6.69342 13.6904 6.34967C13.6904 6.34967 12.4225 5.10455 12.4225 5.10455C12.2468 4.93652 12.1474 4.70737 12.155 4.46293C12.155 4.46293 12.178 2.6831 12.178 2.6831C12.1856 2.18661 11.7807 1.78173 11.2767 1.78938C11.2767 1.78938 9.50442 1.80467 9.50442 1.80467C9.26003 1.81227 9.02327 1.71297 8.85515 1.54494C8.85515 1.54494 7.61768 0.269284 7.61768 0.269284C7.26633 -0.0897608 6.69343 -0.0897608 6.34972 0.269284C6.34972 0.269284 5.10452 1.54494 5.10452 1.54494C4.93649 1.71297 4.69964 1.81227 4.46289 1.80467C4.46289 1.80467 2.68311 1.78938 2.68311 1.78938C2.18657 1.78173 1.7817 2.18661 1.78934 2.6831C1.78934 2.6831 1.80463 4.46293 1.80463 4.46293C1.81228 4.70737 1.71297 4.93652 1.5373 5.10455C1.5373 5.10455 0.269247 6.34967 0.269247 6.34967C-0.0897484 6.69342 -0.0897484 7.26632 0.269247 7.61772C0.269247 7.61772 1.5373 8.85519 1.5373 8.85519C1.71297 9.02322 1.81228 9.26001 1.80463 9.50446C1.80463 9.50446 1.7817 11.2843 1.7817 11.2843C1.7817 11.7808 2.18657 12.1857 2.68311 12.178C2.68311 12.178 4.46289 12.1551 4.46289 12.1551C4.69964 12.1551 4.93649 12.2468 5.10452 12.4225C5.10452 12.4225 6.34972 13.6981 6.34972 13.6981C6.69343 14.0495 7.26633 14.0495 7.61768 13.6981C7.61768 13.6981 8.85515 12.4225 8.85515 12.4225C9.02327 12.2468 9.26003 12.1551 9.50442 12.1551C9.50442 12.1551 9.50442 12.1551 9.50442 12.1551ZM6.98359 9.83272C5.40998 9.83272 4.13428 8.55708 4.13428 6.9835C4.13428 5.40993 5.40998 4.13428 6.98359 4.13428C8.55712 4.13428 9.82517 5.40993 9.82517 6.9835C9.82517 8.55708 8.55712 9.83272 6.98359 9.83272C6.98359 9.83272 6.98359 9.83272 6.98359 9.83272Z" fill="#B8B8B8" transform="translate(18.506 13.702)" />
    </g>
  </g>
</svg>