<?xml version="1.0" encoding="utf-8"?>
<svg width="10.306" height="10.315" viewBox="0 0 10.306 10.315" fill="none" xmlns="http://www.w3.org/2000/svg">
  <path d="M7.3949 5.16278C7.3949 5.16278 9.84363 2.70566 9.8457 2.70375C10.4825 2.06502 10.45 0.992554 9.78064 0.391602C9.15332 -0.170303 8.177 -0.121811 7.55811 0.500412C7.55811 0.500412 5.15051 2.91364 5.15051 2.91364C5.15051 2.91364 2.74487 0.500412 2.74487 0.500412C2.12549 -0.121811 1.14954 -0.170303 0.523438 0.391571C-0.145752 0.992325 -0.179199 2.06723 0.457031 2.7036C0.457031 2.7036 2.90857 5.16246 2.90857 5.16246C2.90857 5.16246 0.460938 7.61783 0.457031 7.62149C-0.164673 8.2442 -0.138062 9.32791 0.507324 9.91991C1.12378 10.4859 2.13403 10.4379 2.75781 9.81219C2.75781 9.81219 5.15051 7.41177 5.15051 7.41177C5.15051 7.41177 7.54651 9.81221 7.54651 9.81221C8.1604 10.4296 9.20557 10.4981 9.84192 9.87444C10.4646 9.26691 10.4548 8.23222 9.8457 7.62149C9.8457 7.62149 7.3949 5.16278 7.3949 5.16278Z" fill="#EC1E24" fill-rule="evenodd" transform="scale(1 1)" />
</svg>