<?xml version="1.0" encoding="utf-8"?>
<svg width="34" height="34" viewBox="0 0 34 34" fill="none" xmlns="http://www.w3.org/2000/svg">
  <g>
    <path d="M0.673857 3.98326C1.0092 3.98326 1.28094 3.71091 1.28094 3.37582C1.28094 3.37582 1.28094 0.576689 1.28094 0.576689C1.28277 0.380329 1.24981 0.184887 1.18377 0C1.18377 0 0 0.309587 0 0.309587C0.0440693 0.391868 0.0670185 0.483721 0.0667744 0.576689C0.0667744 0.576689 0.0667744 3.37582 0.0667744 3.37582C0.0667744 3.71091 0.338636 3.98326 0.673857 3.98326C0.673857 3.98326 0.673857 3.98326 0.673857 3.98326Z" fill="#B8B8B8" fill-rule="evenodd" transform="translate(24.218 3.906)" />
    <path d="M0 2.37136C0.0606699 2.43693 0.0806894 2.42348 0.0922861 2.41745C0.0922861 2.41745 1.20998 1.57822 1.20998 1.57822C1.57253 1.30737 2.0701 1.30737 2.43265 1.57822C2.43265 1.57822 3.55034 2.41673 3.55034 2.41673C3.56755 2.43103 3.5916 2.43286 3.61113 2.42217C3.61113 2.42217 3.63652 0 3.63652 0L0 0C0 0 0 2.37136 0 2.37136Z" fill="#B8B8B8" fill-rule="evenodd" transform="translate(15.178 31.571)" />
    <path d="M14.2947 1.20532C10.0556 1.16067 5.8274 0.762505 1.6543 0.015276C1.59534 0.00563812 1.53565 0.000196457 1.47583 0.000131607C1.08472 -0.00563812 0.732667 0.236946 0.598023 0.604168C0.184815 1.77376 -0.0172119 3.00734 0.0012207 4.24741C-0.0174561 5.48774 0.184815 6.72138 0.598633 7.89071C0.745118 8.3052 1.16687 8.55579 1.60095 8.48642C5.79163 7.73316 10.0379 7.33086 14.2953 7.28359C14.9224 6.39933 15.2335 5.32999 15.1787 4.24741C15.2346 3.16298 14.9232 2.09102 14.2947 1.20532C14.2947 1.20532 14.2947 1.20532 14.2947 1.20532Z" fill="#B8B8B8" fill-rule="evenodd" transform="translate(0 23.077)" />
    <path d="M3.66384 0.607121C2.75014 0.607252 1.8484 0.399742 1.02662 0C1.02662 0 0 0 0 0C0 0 2.75319 3.78801 2.75319 3.78801C2.97353 4.06633 3.30898 4.2284 3.66384 4.2284C4.01882 4.2284 4.35427 4.06633 4.57449 3.78801C4.57449 3.78801 7.32829 0 7.32829 0C7.32829 0 6.29325 0 6.29325 0C5.47391 0.398497 4.57498 0.606136 3.66384 0.607121C3.66384 0.607121 3.66384 0.607121 3.66384 0.607121Z" fill="#B8B8B8" fill-rule="evenodd" transform="translate(13.335 16.39)" />
    <path d="M12.749 6.66406C15.3866 6.6573 18.0218 6.49989 20.6414 6.19213C20.6414 6.19213 20.6414 5.4495 20.6414 5.4495C20.6377 2.54989 18.3704 0.157942 15.4756 0C15.4756 0 12.213 4.48591 12.213 4.48591C11.7726 5.09132 11.0692 5.44917 10.3207 5.44917C9.57216 5.44917 8.86879 5.09132 8.42836 4.48591C8.42836 4.48591 5.16639 0 5.16639 0C2.27137 0.15781 0.00378418 2.54969 0 5.4495C0 5.4495 0 6.19141 0 6.19141C2.61963 6.49989 5.25465 6.6575 7.89235 6.66406C7.89235 6.66406 12.749 6.66406 12.749 6.66406Z" fill="#B8B8B8" fill-rule="evenodd" transform="translate(6.679 16.406)" />
    <path d="M0.038208 2.4741L9.09252 4.85216L13.7903 3.62127C13.7903 3.62127 9.03124 3.02726 9.03124 3.02726C8.69823 2.98609 8.46202 2.682 8.50365 2.34907C8.54515 2.01595 8.84887 1.77959 9.18175 1.82148C9.18175 1.82148 16.9526 2.79294 16.9526 2.79294C16.9526 2.79294 18.1716 2.47351 18.1716 2.47351C18.1942 2.46794 18.2105 2.46309 18.2105 2.42421C18.2105 2.38546 18.1942 2.38133 18.1716 2.37523C18.1716 2.37523 9.11986 0 9.11986 0C9.11986 0 0.0388184 2.37589 0.0388184 2.37589C0.0157471 2.38199 0 2.38592 0 2.42493C0 2.46381 0.0157471 2.46866 0.038208 2.4741C0.038208 2.4741 0.038208 2.4741 0.038208 2.4741Z" fill="#B8B8B8" fill-rule="evenodd" transform="translate(7.894 0)" />
    <path d="M9.7136 0C8.11387 0.311035 6.48631 0.457438 4.8568 0.435278C3.22716 0.457438 1.59973 0.311035 0 0C0 0 0 2.25717 0 2.25717C0.00439453 4.93859 2.17626 7.11125 4.8568 7.11459C7.53782 7.11276 9.71054 4.93912 9.7136 2.25717C9.7136 2.25717 9.7136 0 9.7136 0Z" fill="#B8B8B8" fill-rule="evenodd" transform="translate(12.143 8.669)" />
    <path d="M9.71359 0C9.71359 0 5.17857 1.19149 5.17857 1.19149C4.96751 1.24637 4.74596 1.24637 4.53502 1.19149C4.53502 1.19149 0 0 0 0C0 0 0 2.58787 0 2.58787C1.59631 2.9254 3.22545 3.08183 4.8568 3.05423C6.48802 3.08177 8.11728 2.9252 9.71359 2.58787C9.71359 2.58787 9.71359 0 9.71359 0Z" fill="#B8B8B8" fill-rule="evenodd" transform="translate(12.143 4.835)" />
    <path d="M0 0C0.898561 1.92429 0.898561 4.14794 0 6.07203C0 6.07203 3.43494 6.07203 3.43494 6.07203C4.06068 5.18764 4.37122 4.1183 4.31654 3.03651C4.3711 1.95379 4.06068 0.884518 3.43494 0C3.43494 0 0 0 0 0Z" fill="#B8B8B8" fill-rule="evenodd" transform="translate(15.719 24.284)" />
    <path d="M12.8298 0.60659C12.683 0.192886 12.2618 -0.0577602 11.828 0.0114727C7.92165 0.710506 3.96742 1.10854 0 1.2023C0.905031 3.13247 0.905031 5.36535 0 7.2956C3.94935 7.38771 7.88577 7.78273 11.7746 8.47705C12.2231 8.5689 12.6713 8.31969 12.8304 7.89052C13.2442 6.72107 13.4464 5.48756 13.4278 4.24744C13.4462 3.00771 13.2437 1.77486 12.8298 0.60659C12.8298 0.60659 12.8298 0.60659 12.8298 0.60659Z" fill="#B8B8B8" fill-rule="evenodd" transform="translate(20.571 23.074)" />
  </g>
</svg>