<?xml version="1.0" encoding="utf-8"?>
<svg width="41" height="41" viewBox="0 0 41 41" fill="none" xmlns="http://www.w3.org/2000/svg">
  <g>
    <path d="M0 3.74765L0 13.136L20.7883 13.136L20.7883 3.74765L17.0413 0L12.621 0L12.7113 1.99939C12.7113 1.99939 14.1207 7.13912 14.1207 7.13912C14.1788 7.3512 14.1242 7.57829 13.9759 7.74067C13.9759 7.74067 10.865 11.1475 10.865 11.1475C10.7436 11.2802 10.5721 11.3558 10.3922 11.3558C10.2124 11.3558 10.0408 11.2802 9.91943 11.1475C9.91943 11.1475 6.80856 7.74067 6.80856 7.74067C6.66025 7.5783 6.60559 7.3512 6.66378 7.13913C6.66378 7.13913 8.07636 1.99939 8.07636 1.99939L8.16669 1.90735e-06L3.74637 1.90735e-06L0 3.74765ZM15.1346 6.40039C15.1346 6.04658 15.4214 5.75977 15.7752 5.75977C15.7752 5.75977 19.2173 5.75977 19.2173 5.75977C19.5711 5.75977 19.8579 6.04658 19.8579 6.40039C19.8579 6.40039 19.8579 8.99428 19.8579 8.99428C19.872 9.84729 19.4249 10.6416 18.6885 11.0722C17.952 11.5028 17.0405 11.5028 16.3041 11.0722C15.5676 10.6416 15.1206 9.84729 15.1346 8.99428C15.1346 8.99428 15.1346 6.40039 15.1346 6.40039Z" fill="#B8B8B8" transform="translate(10.106 24.462)" />
    <path d="M1.08073 3.034C1.67731 3.03329 2.16076 2.54985 2.16147 1.95327C2.16147 1.95327 2.16147 0 2.16147 0L0 0C0 0 0 1.95327 0 1.95327C0.000289917 2.54988 0.483894 3.03358 1.08062 3.034C1.08062 3.034 1.08073 3.034 1.08073 3.034Z" fill="#B8B8B8" fill-rule="evenodd" transform="translate(26.522 31.502)" />
    <path d="M0 4.68553L35.875 4.68553L35.875 0L0 0L0 4.68553ZM9.14163 2.1196C9.17251 2.03963 9.22063 1.96745 9.28257 1.90819C9.34148 1.85041 9.41112 1.80471 9.48757 1.77366C9.6044 1.72247 9.7343 1.70903 9.85913 1.73522C9.94119 1.75303 10.0193 1.78559 10.0898 1.83131C10.1233 1.85496 10.1554 1.88063 10.1859 1.90819C10.2443 1.97028 10.292 2.04174 10.3268 2.1196C10.3576 2.19699 10.3729 2.27972 10.3716 2.36303C10.3737 2.40614 10.3694 2.44932 10.3588 2.49116C10.3511 2.53036 10.3404 2.56892 10.3268 2.60647C10.3079 2.64623 10.2865 2.68474 10.2627 2.72178C10.2411 2.75683 10.2153 2.7891 10.1859 2.81788C10.1554 2.84543 10.1233 2.8711 10.0898 2.89475C10.0193 2.94047 9.94119 2.97303 9.85913 2.99085C9.8168 2.99828 9.77397 3.00256 9.73101 3.00366C9.51668 3.00584 9.31575 2.89962 9.19685 2.72127C9.07796 2.54293 9.05718 2.3166 9.14163 2.1196C9.14163 2.1196 9.14163 2.1196 9.14163 2.1196ZM6.57908 2.12013C6.61147 2.04095 6.6594 1.96907 6.72002 1.90872C6.74778 1.87817 6.78021 1.85222 6.81611 1.83184C6.84879 1.80644 6.88564 1.78693 6.92502 1.77419C6.96317 1.75468 7.0043 1.74169 7.04674 1.73575C7.17161 1.71024 7.3013 1.72365 7.4183 1.77419C7.49475 1.80524 7.56439 1.85094 7.6233 1.90872C7.68177 1.97081 7.72941 2.04227 7.76424 2.12013C7.79509 2.19752 7.81033 2.28025 7.80908 2.36356C7.81118 2.40667 7.80686 2.44985 7.79627 2.49169C7.78858 2.5309 7.77787 2.56945 7.76424 2.607C7.74535 2.64676 7.72396 2.68528 7.70018 2.72231C7.67856 2.75736 7.65274 2.78963 7.6233 2.81841C7.56439 2.87618 7.49475 2.92189 7.4183 2.95294C7.33889 2.98526 7.25418 3.00263 7.16846 3.00419C7.12761 3.00309 7.08692 2.99881 7.04674 2.99138C7.00431 2.98544 6.96317 2.97244 6.92502 2.95294C6.88564 2.94019 6.84879 2.92068 6.81611 2.89528C6.78022 2.8749 6.74778 2.84895 6.72002 2.81841C6.69045 2.78799 6.66265 2.7559 6.63674 2.72231C6.63674 2.72231 6.57908 2.607 6.57908 2.607C6.57908 2.607 6.54064 2.49169 6.54064 2.49169C6.53321 2.44935 6.52892 2.40653 6.52783 2.36356C6.52884 2.27985 6.54626 2.19714 6.57908 2.12012C6.57908 2.12012 6.57908 2.12013 6.57908 2.12013ZM4.01658 2.1197C4.04898 2.04053 4.0969 1.96865 4.15752 1.9083C4.40907 1.66403 4.80925 1.66403 5.0608 1.9083C5.11928 1.97039 5.16692 2.04185 5.20174 2.1197C5.2326 2.1971 5.24784 2.27983 5.24658 2.36314C5.24868 2.40625 5.24436 2.44943 5.23377 2.49127C5.22608 2.53047 5.21538 2.56902 5.20174 2.60658C5.20174 2.60658 5.14408 2.72189 5.14408 2.72189C5.11818 2.75548 5.09037 2.78757 5.0608 2.81799C5.00189 2.87576 4.93225 2.92147 4.8558 2.95252C4.77639 2.98484 4.69168 3.00221 4.60596 3.00377C4.43802 3.00245 4.27719 2.93582 4.15752 2.81799C4.12795 2.78757 4.10015 2.75548 4.07424 2.72189C4.05248 2.68478 4.03322 2.64626 4.01658 2.60658C4.0009 2.56916 3.98806 2.53061 3.97814 2.49127C3.97071 2.44894 3.96642 2.40611 3.96533 2.36314C3.96634 2.27943 3.98376 2.19672 4.01658 2.11971C4.01658 2.11971 4.01658 2.1197 4.01658 2.1197ZM1.45413 2.1196C1.48502 2.03963 1.53314 1.96745 1.59507 1.90819C1.65398 1.85041 1.72362 1.80471 1.80007 1.77366C1.9169 1.72247 2.0468 1.70903 2.17163 1.73522C2.25369 1.75303 2.33183 1.78559 2.40226 1.83131C2.43582 1.85496 2.46791 1.88063 2.49835 1.90819C2.55683 1.97028 2.60447 2.04174 2.63929 2.11959C2.67015 2.19699 2.68539 2.27972 2.68413 2.36303C2.68623 2.40614 2.68192 2.44932 2.67132 2.49116C2.66363 2.53036 2.65293 2.56892 2.63929 2.60647C2.62041 2.64623 2.59901 2.68474 2.57523 2.72178C2.55361 2.75682 2.5278 2.78909 2.49835 2.81787C2.46791 2.84543 2.43582 2.8711 2.40226 2.89475C2.33183 2.94047 2.25369 2.97303 2.17163 2.99084C2.1293 2.99828 2.08648 3.00256 2.04351 3.00366C1.82918 3.00584 1.62825 2.89961 1.50935 2.72127C1.39046 2.54293 1.36969 2.3166 1.45413 2.11959C1.45413 2.11959 1.45413 2.1196 1.45413 2.1196Z" fill="#B8B8B8" transform="translate(2.563 3.402)" />
    <path d="M0 4.74127C0 2.12274 2.12274 0 4.74127 0C7.35979 0 9.48253 2.12274 9.48253 4.74127C9.48253 7.35979 7.35979 9.48253 4.74127 9.48253C2.12274 9.48253 0 7.35979 0 4.74127Z" fill="#B8B8B8" fill-rule="evenodd" transform="translate(15.759 11.476)" />
    <path d="M9.77516e-05 19.3378L6.26221 19.3378C6.26221 19.3378 6.26221 18.5748 6.26221 18.5748C6.26221 18.4051 6.32969 18.2421 6.44981 18.122C6.44981 18.122 10.5703 13.9989 10.5703 13.9989C10.6904 13.8788 10.8533 13.8113 11.0232 13.8112C11.0232 13.8112 24.8498 13.8112 24.8498 13.8112C25.0197 13.8113 25.1827 13.8788 25.3028 13.9989C25.3028 13.9989 29.4252 18.122 29.4252 18.122C29.5453 18.2421 29.6129 18.405 29.6129 18.5749C29.6129 18.5749 29.6129 19.3379 29.6129 19.3379L35.875 19.3379L35.875 0L0 0L9.77516e-05 19.3378ZM17.9374 0.82373C21.2632 0.82373 23.9593 3.51982 23.9593 6.84561C23.9593 10.1714 21.2632 12.8675 17.9374 12.8675C14.6116 12.8675 11.9155 10.1714 11.9155 6.84561C11.9209 3.52227 14.6144 0.830085 17.9376 0.826292C17.9376 0.826292 17.9374 0.82373 17.9374 0.82373Z" fill="#B8B8B8" transform="translate(2.563 9.369)" />
    <path d="M0 4.39725L2.39914 7.02509L4.79828 4.39725L3.58942 0L1.20886 0L0 4.39725Z" fill="#B8B8B8" fill-rule="evenodd" transform="translate(18.101 27.202)" />
    <path d="M0.0653439 0L0 1.45934L2.01669 1.45934L1.95134 0L0.0653439 0Z" fill="#B8B8B8" fill-rule="evenodd" transform="translate(19.492 24.462)" />
  </g>
</svg>