<?xml version="1.0" encoding="utf-8"?>
<svg width="24.625" height="35" viewBox="0 0 24.625 35" fill="none" xmlns="http://www.w3.org/2000/svg">
  <g>
    <path d="M4.40832 6.16139C4.3263 6.16139 4.22378 6.14089 4.14177 6.07938C4.14177 6.07938 2.41945 4.62361 2.41945 4.62361C2.41945 4.62361 0.676626 6.07938 0.676626 6.07938C0.553602 6.1819 0.389572 6.2024 0.246046 6.12039C0.102518 6.05888 0 5.91535 0 5.75132C0 5.75132 0 2.08114 0 2.08114C0 1.97862 0.061512 1.85559 0.16403 1.77358C0.16403 1.77358 2.1529 0.092267 2.1529 0.092267C2.29642 -0.030756 2.52197 -0.030756 2.686 0.092267C2.686 0.092267 4.67487 1.77358 4.67487 1.77358C4.77739 1.85559 4.81839 1.97862 4.81839 2.08114C4.81839 2.08114 4.81839 5.75132 4.81839 5.75132C4.81839 5.91535 4.71587 6.05888 4.57235 6.14089C4.53134 6.16139 4.46983 6.16139 4.40832 6.16139C4.40832 6.16139 4.40832 6.16139 4.40832 6.16139Z" fill="#B8B8B8" fill-rule="evenodd" transform="translate(19.807 8.95)" />
    <path d="M8.44757 7.60691C8.20152 7.60691 7.95548 7.5454 7.72993 7.44288C7.72993 7.44288 0.943175 4.18278 0.943175 4.18278C0.348565 3.89572 0 3.34212 0 2.686C0 2.686 0 0 0 0L16.8746 0C16.8746 0 16.8746 2.686 16.8746 2.686C16.8746 3.34212 16.5261 3.89572 15.952 4.18278C15.952 4.18278 9.1652 7.44288 9.1652 7.44288C8.93966 7.5454 8.69361 7.60691 8.44757 7.60691C8.44757 7.60691 8.44757 7.60691 8.44757 7.60691Z" fill="#B8B8B8" fill-rule="evenodd" transform="translate(3.691 4.203)" />
    <path d="M0.410076 7.09432C0.184534 7.09432 0 6.90978 0 6.68424C0 6.68424 0 0.410076 0 0.410076C0 0.184534 0.184534 0 0.410076 0C0.635618 0 0.820152 0.184534 0.820152 0.410076C0.820152 0.410076 0.820152 6.68424 0.820152 6.68424C0.820152 6.90978 0.635618 7.09432 0.410076 7.09432C0.410076 7.09432 0.410076 7.09432 0.410076 7.09432Z" fill="#B8B8B8" fill-rule="evenodd" transform="translate(21.816 2.686)" />
    <path d="M23.8662 14.8858L15.4186 14.8858L13.7783 4.10076C13.7783 4.10076 15.0701 0.820152 15.0701 0.820152C15.5416 0.59461 15.9722 0.32806 16.3618 0C16.3618 0 19.1503 0 19.1503 0C21.9798 0 24.2763 2.29643 24.2763 5.12595C24.2763 5.12595 24.2763 14.4757 24.2763 14.4757C24.2763 14.7012 24.0917 14.8858 23.8662 14.8858C23.8662 14.8858 23.8662 14.8858 23.8662 14.8858ZM14.5991 14.8857L9.67822 14.8857L11.2775 4.46973L12.9998 4.46973L14.5991 14.8857ZM11.1951 3.64967C11.1951 3.64967 10.2109 1.23022 10.2109 1.23022C10.8261 1.41476 11.4617 1.49677 12.1383 1.49677C12.7944 1.49677 13.43 1.41476 14.0246 1.23022C14.0246 1.23022 13.0815 3.64967 13.0815 3.64967L11.1951 3.64967ZM8.83714 14.8858C8.83714 14.8858 0.410076 14.8858 0.410076 14.8858C0.184534 14.8858 0 14.7012 0 14.4757C0 14.4757 0 5.12595 0 5.12595C0 2.29643 2.29643 0 5.12595 0C5.12595 0 7.89397 0 7.89397 0C8.28354 0.307556 8.71412 0.59461 9.1652 0.820152C9.1652 0.820152 10.4979 4.10076 10.4979 4.10076L8.83714 14.8858Z" fill="#B8B8B8" fill-rule="evenodd" transform="translate(0 20.114)" />
    <path d="M6.04862 10.2724C2.7065 10.2724 0 7.56591 0 4.22378C0 2.62449 0.615114 1.12771 1.72232 0C1.72232 0 5.04394 1.5993 5.04394 1.5993C5.35149 1.74282 5.70006 1.82484 6.04862 1.82484C6.39719 1.82484 6.74575 1.74282 7.05331 1.5993C7.05331 1.5993 10.3749 0 10.3749 0C11.4616 1.10721 12.0972 2.62449 12.0972 4.22378C12.0972 7.56591 9.37024 10.2724 6.04862 10.2724C6.04862 10.2724 6.04862 10.2724 6.04862 10.2724Z" fill="#B8B8B8" fill-rule="evenodd" transform="translate(6.09 10.662)" />
    <path d="M23.3333 3.50615C23.3333 3.50615 0.410076 3.50615 0.410076 3.50615C0.184534 3.50615 0 3.32162 0 3.09608C0 3.09608 0 0.410076 0 0.410076C0 0.184534 0.184534 0 0.410076 0C0.410076 0 23.3333 0 23.3333 0C23.5589 0 23.7434 0.184534 23.7434 0.410076C23.7434 0.410076 23.7434 3.09608 23.7434 3.09608C23.7434 3.32162 23.5589 3.50615 23.3333 3.50615C23.3333 3.50615 23.3333 3.50615 23.3333 3.50615Z" fill="#B8B8B8" fill-rule="evenodd" transform="translate(0.267 0)" />
  </g>
</svg>