<?xml version="1.0" encoding="utf-8"?>
<svg width="31.641" height="36" viewBox="0 0 31.641 36" fill="none" xmlns="http://www.w3.org/2000/svg">
  <g>
    <path d="M0 0L10.5469 0L10.5469 3.16406L0 3.16406L0 0Z" fill="#B8B8B8" fill-rule="evenodd" transform="translate(21.094 22.289)" />
    <path d="M0 0L10.5469 0L10.5469 3.16406L0 3.16406L0 0Z" fill="#B8B8B8" fill-rule="evenodd" transform="translate(21.094 32.836)" />
    <path d="M0 0L10.5469 0L10.5469 3.16406L0 3.16406L0 0Z" fill="#B8B8B8" fill-rule="evenodd" transform="translate(18.984 27.563)" />
    <path d="M0 0L0 36L18.9844 36L18.9844 32.8359L16.875 32.8359L16.875 29.6719L6.32813 29.6719L6.32813 27.5625L16.875 27.5625L16.875 25.4531L6.32813 25.4531L6.32813 23.3438L16.875 23.3438L16.875 25.4531L18.9844 25.4523L18.9844 20.1797L27.4219 20.1797L27.4219 6.32813L21.0938 6.32813L21.0938 0L0 0ZM16.875 21.2344L6.32813 21.2344L6.32813 19.125L16.875 19.125L16.875 21.2344ZM21.0938 14.7656L6.32813 14.7656L6.32813 12.6563L8.4375 12.6563L8.4375 10.5469L10.5469 10.5469L10.5469 12.6563L12.6563 12.6563L12.6563 8.4375L14.7656 8.4375L14.7656 12.6563L16.875 12.6563L16.875 6.32813L18.9844 6.32813L18.9844 12.6563L21.0938 12.6563L21.0938 14.7656Z" fill="#B8B8B8" />
    <path d="M0 0L0 4.11191C0 4.11191 4.11191 4.11191 4.11191 4.11191C3.69168 2.04868 2.06323 0.420227 0 1.49012e-08C0 1.49012e-08 0 0 0 0Z" fill="#B8B8B8" fill-rule="evenodd" transform="translate(23.203 0.107)" />
  </g>
</svg>