<?xml version="1.0" encoding="utf-8"?>
<svg width="33.82" height="32.323" viewBox="0 0 33.82 32.323" fill="none" xmlns="http://www.w3.org/2000/svg">
  <path d="M16.9949 6.72432C22.2898 6.72432 26.5983 11.0328 26.5983 16.3277C26.5983 16.4527 26.5947 16.5785 26.5896 16.7042C26.9921 16.5712 27.4373 16.5069 27.9359 16.5069C29.0719 16.5069 29.9326 16.8444 30.6444 17.5685C30.966 17.8966 31.2081 18.3374 31.3628 18.8375C31.3628 18.8375 32.8782 18.7674 32.8782 18.7674C33.1282 18.7558 33.3233 18.5513 33.3233 18.3013C33.3233 18.3013 33.3233 14.3548 33.3233 14.3548C33.3233 14.1048 33.1282 13.9003 32.8782 13.8887C32.8782 13.8887 30.4941 13.7782 30.4941 13.7782C29.9131 13.7514 29.4333 13.372 29.2736 12.8127C29.0076 11.8834 28.634 10.9822 28.1628 10.1345C27.8795 9.62578 27.9504 9.01803 28.3428 8.58732C28.3428 8.58732 29.9514 6.8226 29.9514 6.8226C30.1198 6.6376 30.1133 6.35504 29.9362 6.17799C29.9362 6.17799 27.1461 3.38709 27.1461 3.38709C26.969 3.21076 26.6864 3.20353 26.5014 3.37264C26.5014 3.37264 24.7367 4.98055 24.7367 4.98055C24.306 5.37295 23.699 5.44377 23.1895 5.16049C22.3418 4.68932 21.4407 4.3157 20.5106 4.04977C19.9506 3.88934 19.5719 3.41021 19.5444 2.8292C19.5444 2.8292 19.4339 0.445156 19.4339 0.445156C19.4223 0.195117 19.2171 0 18.9678 0C18.9678 0 15.0213 0 15.0213 0C14.7713 0 14.5668 0.195117 14.5552 0.445156C14.5552 0.445156 14.4446 2.8292 14.4446 2.8292C14.4172 3.41021 14.0385 3.88934 13.4792 4.04977C12.5491 4.3157 11.648 4.68932 10.8003 5.16049C10.2908 5.44377 9.68379 5.37295 9.25309 4.98055C9.25309 4.98055 7.48764 3.37191 7.48764 3.37191C7.30264 3.20353 7.02008 3.21004 6.84303 3.38637C6.84303 3.38637 4.05213 6.17727 4.05213 6.17727C3.87508 6.35359 3.86858 6.63687 4.03695 6.82187C4.03695 6.82187 5.64558 8.5866 5.64558 8.5866C6.03799 9.0173 6.10881 9.62433 5.82553 10.1338C5.35435 10.9808 4.98074 11.8819 4.71481 12.812C4.5551 13.3713 4.07598 13.7507 3.49424 13.7774C3.49424 13.7774 1.1102 13.888 1.1102 13.888C0.860878 13.8996 0.665039 14.1041 0.665039 14.3541C0.665039 14.3541 0.665039 18.3005 0.665039 18.3005C0.665039 18.5506 0.860157 18.7551 1.1102 18.7667C1.1102 18.7667 2.45795 18.8295 2.45795 18.8295C2.61332 18.3323 2.85397 17.8944 3.1741 17.5678C3.88592 16.8437 4.74805 16.5062 5.88768 16.5062C6.45568 16.5062 6.95504 16.5907 7.40092 16.7656C7.39441 16.6196 7.39008 16.4737 7.39008 16.327C7.39152 11.0328 11.6993 6.72432 16.9949 6.72432C16.9949 6.72432 16.9949 6.72432 16.9949 6.72432ZM25.4737 21.8293C24.9512 20.5827 25.1196 18.9104 25.8408 18.1762C26.3936 17.614 27.0202 17.3741 27.9358 17.3741C28.8355 17.3741 29.4801 17.6212 30.0257 18.1762C30.7469 18.9105 30.9153 20.5827 30.3928 21.8293C30.0727 22.5931 29.3862 23.5037 27.9336 23.5037C26.4811 23.5037 25.7946 22.5931 25.4737 21.8293C25.4737 21.8293 25.4737 21.8293 25.4737 21.8293ZM25.978 26.2101C26.7253 27.4277 27.1184 28.8123 27.1184 30.2562C27.1184 30.2562 27.1184 32.323 27.1184 32.323C27.1184 32.323 32.9531 32.323 32.9531 32.323C33.4315 32.323 33.8203 31.9342 33.8203 31.4558C33.8203 31.4558 33.8203 30.8632 33.8203 30.8632C33.8203 28.2862 31.8843 26.1898 29.5039 26.1898C29.5039 26.1898 26.3625 26.1898 26.3625 26.1898C26.2338 26.1898 26.1059 26.1978 25.978 26.2101C25.978 26.2101 25.978 26.2101 25.978 26.2101ZM16.5955 26.012L15.8049 28.8976L16.9099 30.9499L18.0285 28.873C18.0285 28.873 17.2293 26.0185 17.2293 26.0185C17.0876 25.5126 17.178 24.9981 17.4829 24.571C17.4829 24.571 18.3588 23.3454 18.3588 23.3454L15.4609 23.3454C15.4609 23.3454 16.339 24.5746 16.339 24.5746C16.6425 24.9974 16.7335 25.5083 16.5955 26.012C16.5955 26.012 16.5955 26.012 16.5955 26.012ZM12.0654 23.7804C12.0654 23.7804 16.5279 32.0693 16.5279 32.0693C16.6037 32.2095 16.7497 32.2976 16.9094 32.2976C17.0691 32.2976 17.2158 32.2102 17.291 32.0693C17.291 32.0693 21.7534 23.7804 21.7534 23.7804C24.4576 24.7892 26.2505 27.3481 26.2505 30.2561C26.2505 30.2561 26.2505 32.3229 26.2505 32.3229L23.0917 32.3229C23.0917 32.3229 23.0917 30.0314 23.0917 30.0314C23.0917 29.7922 22.8973 29.5978 22.6581 29.5978C22.4182 29.5978 22.2246 29.7922 22.2246 30.0314C22.2246 30.0314 22.2246 32.3229 22.2246 32.3229L11.5943 32.3229C11.5943 32.3229 11.5943 30.0314 11.5943 30.0314C11.5943 29.7922 11.3999 29.5978 11.1607 29.5978C10.9215 29.5978 10.7271 29.7922 10.7271 30.0314C10.7271 30.0314 10.7271 32.3229 10.7271 32.3229L7.56836 32.3229C7.56836 32.3229 7.56836 30.2561 7.56836 30.2561C7.56908 27.3481 9.36127 24.7892 12.0654 23.7804C12.0654 23.7804 12.0654 23.7804 12.0654 23.7804ZM4.31643 26.1898C1.93672 26.1898 0 28.2862 0 30.8632C0 30.8632 0 31.4558 0 31.4558C0 31.9335 0.38879 32.323 0.867188 32.323C0.867188 32.323 6.70191 32.323 6.70191 32.323C6.70191 32.323 6.70191 30.2562 6.70191 30.2562C6.70191 28.8123 7.09504 27.4277 7.84227 26.2101C7.71436 26.1978 7.58644 26.1898 7.45781 26.1898C7.45781 26.1898 4.31643 26.1898 4.31643 26.1898ZM8.34644 21.83C8.02631 22.5938 7.33978 23.5044 5.88725 23.5044C4.43398 23.5044 3.74746 22.5938 3.42732 21.83C2.90484 20.5834 3.07322 18.9112 3.79443 18.177C4.34726 17.6147 4.97381 17.3748 5.89014 17.3748C6.78984 17.3748 7.43517 17.622 7.98006 18.177C8.70055 18.9105 8.86893 20.5834 8.34644 21.83C8.34644 21.83 8.34644 21.83 8.34644 21.83ZM20.0842 12.8632C21.1985 13.9964 21.4551 16.4686 20.6565 18.3728C20.2576 19.3245 19.2409 20.9201 16.911 20.9201C14.5804 20.9201 13.563 19.3238 13.164 18.3721C12.3655 16.4679 12.6228 13.9971 13.7371 12.8632C14.5674 12.0185 15.5474 11.6412 16.9146 11.6412C18.2754 11.6412 19.2531 12.0177 20.0842 12.8632C20.0842 12.8632 20.0842 12.8632 20.0842 12.8632Z" fill="#B8B8B8" fill-rule="evenodd" transform="translate(0 -0)" />
</svg>