<?xml version="1.0" encoding="utf-8"?>
<svg width="50" height="33" viewBox="0 0 50 33" fill="none" xmlns="http://www.w3.org/2000/svg">
  <g>
    <path d="M24.6452 0L0 8.21457C0 8.21457 8.53553 10.9603 8.53553 10.9603C8.59229 10.968 8.64765 10.9838 8.69971 11.008C8.69971 11.008 24.6452 16.1676 24.6452 16.1676C24.6452 16.1676 40.5909 11.008 40.5909 11.008C40.6425 10.9829 40.6979 10.967 40.7549 10.9603C40.7549 10.9603 49.2904 8.19077 49.2904 8.19077L24.6452 0Z" fill="#B8B8B8" fill-rule="evenodd" />
    <path d="M15.4218 4.94624C15.3363 4.95791 15.2495 4.95791 15.1639 4.94624C15.1639 4.94624 0 0 0 0C0 0 0 9.18019 0 9.18019C5.85828 9.43982 11.3878 11.9936 15.4218 16.3021C19.4573 12.0004 24.9817 9.44795 30.8358 9.18019C30.8358 9.18019 30.8358 0 30.8358 0C30.8358 0 15.6876 4.91444 15.6876 4.91444C15.6008 4.93725 15.5114 4.94801 15.4218 4.94624C15.4218 4.94624 15.4218 4.94624 15.4218 4.94624Z" fill="#B8B8B8" fill-rule="evenodd" transform="translate(9.223 13.034)" />
    <path d="M4.53969 16.9196C4.99965 16.3481 5.16384 15.5891 4.98171 14.8753C4.7997 14.1615 4.29311 13.5774 3.61732 13.3031C3.61732 13.3031 3.61732 0 3.61732 0L1.8899 0.554009C1.8899 0.554009 1.8899 13.3031 1.8899 13.3031C1.03333 13.6665 0.469238 14.5075 0.45166 15.4475C0.450439 15.9831 0.635868 16.5013 0.975468 16.9117C0.975468 16.9117 0.0140381 21.9293 0.0140381 21.9293C-0.0275879 22.126 0.0245361 22.331 0.154663 22.4831C0.278442 22.6389 0.465332 22.729 0.662846 22.728C0.662846 22.728 4.79774 22.728 4.79774 22.728C4.99514 22.729 5.18215 22.6389 5.30581 22.4831C5.43593 22.331 5.48806 22.126 5.44643 21.9292C5.44643 21.9292 4.53969 16.9196 4.53969 16.9196Z" fill="#B8B8B8" fill-rule="evenodd" transform="translate(44.54 10.272)" />
  </g>
</svg>