<?xml version="1.0" encoding="utf-8"?>
<svg width="35" height="35" viewBox="0 0 35 35" fill="none" xmlns="http://www.w3.org/2000/svg">
  <defs>
    <clipPath id="clip_path_1">
      <rect width="35" height="35" />
    </clipPath>
  </defs>
  <g clip-path="url(#clip_path_1)">
    <g>
      <path d="M13.3301 0C12.7633 0 12.3047 0.458623 12.3047 1.02539C12.3047 1.02539 12.3047 2.05078 12.3047 2.05078C12.3047 2.05078 5.12695 2.05078 5.12695 2.05078C4.74496 2.05078 4.42511 2.2683 4.24874 2.57776C4.23883 2.59451 0.108145 10.889 0.108145 10.889C0.0370507 11.0313 0 11.1884 0 11.3477C0 14.1745 2.30009 16.4746 5.12695 16.4746C7.95382 16.4746 10.2539 14.1745 10.2539 11.3477C10.2539 11.1884 10.2169 11.0312 10.1458 10.889C10.1458 10.889 6.78617 4.10156 6.78617 4.10156L12.3047 4.10156L12.3047 16.4746C12.3047 16.4746 11.2793 16.4746 11.2793 16.4746C8.80359 16.4746 6.73251 18.2389 6.25611 20.5762C6.25611 20.5762 20.404 20.5762 20.404 20.5762C19.9276 18.2389 17.8566 16.4746 15.3809 16.4746C15.3809 16.4746 14.3555 16.4746 14.3555 16.4746L14.3555 4.10156L19.874 4.10156C19.874 4.10156 16.5144 10.889 16.5144 10.889C16.4433 11.0312 16.4063 11.1884 16.4063 11.3477C16.4063 14.1745 18.7063 16.4746 21.5332 16.4746C24.3601 16.4746 26.6602 14.1745 26.6602 11.3477C26.6602 11.1884 26.6231 11.0312 26.552 10.889C26.552 10.889 22.4213 2.59451 22.4114 2.57776C22.235 2.26837 21.9152 2.05078 21.5332 2.05078C21.5332 2.05078 14.3555 2.05078 14.3555 2.05078C14.3555 2.05078 14.3555 1.02539 14.3555 1.02539C14.3555 0.458623 13.8968 0 13.3301 0C13.3301 0 13.3301 0 13.3301 0ZM7.56945 10.3221L2.68408 10.3221L5.12677 5.36914L7.56945 10.3221ZM23.9757 10.3221L19.0903 10.3221L21.533 5.36914L23.9757 10.3221Z" fill="#B8B8B8" transform="translate(4.17 0)" />
      <path d="M0 6.2207C0 6.59921 0.20829 6.94668 0.541748 7.12496C0.87418 7.30318 1.28078 7.28315 1.59421 7.0739C1.59421 7.0739 3.07617 6.08556 3.07617 6.08556C3.07617 6.08556 4.5582 7.0739 4.5582 7.0739C4.87614 7.28581 5.28179 7.30133 5.61066 7.12496C5.94412 6.94675 6.15241 6.59928 6.15241 6.2207C6.15241 6.2207 6.15241 0 6.15241 0L6.67572e-05 0L6.67572e-05 6.2207C6.67572e-05 6.2207 0 6.2207 0 6.2207Z" fill="#B8B8B8" fill-rule="evenodd" transform="translate(19.551 27.754)" />
      <path d="M4.10156 8.20313L17.5 8.20313L17.5 5.12695C17.5 5.12695 5.12695 5.12695 5.12695 5.12695C4.56066 5.12695 4.10156 4.66785 4.10156 4.10156C4.10156 3.53514 4.56066 3.07617 5.12695 3.07617C5.12695 3.07617 34.2177 3.07617 34.2177 3.07617C34.3468 2.57735 34.5385 2.07204 34.8508 1.55812C35.043 1.24168 35.05 0.846151 34.8688 0.522745C34.6866 0.200293 34.3451 0 33.9746 0C33.9746 0 4.10156 0 4.10156 0C1.83948 0 0 1.83948 0 4.10156C0 6.36364 1.83948 8.20313 4.10156 8.20313C4.10156 8.20313 4.10156 8.20313 4.10156 8.20313Z" fill="#B8B8B8" fill-rule="evenodd" transform="translate(0 22.627)" />
      <path d="M7.11491 2.55343C7.29613 2.23002 7.28916 1.83442 7.09686 1.51806C6.7846 1.00413 6.59278 0.498817 6.46379 0C6.46379 0 0 0 0 0L0 3.07617C0 3.07617 6.2207 3.07617 6.2207 3.07617C6.59121 3.0761 6.93267 2.87588 7.11491 2.55343C7.11491 2.55343 7.11491 2.55343 7.11491 2.55343Z" fill="#B8B8B8" fill-rule="evenodd" transform="translate(27.754 27.754)" />
    </g>
  </g>
</svg>