<?xml version="1.0" encoding="utf-8"?>
<svg width="28.632" height="34.729" viewBox="0 0 28.632 34.729" fill="none" xmlns="http://www.w3.org/2000/svg">
  <g>
    <path d="M27.2659 0C27.2659 0 1.36651 0 1.36651 0C0.611798 0 0 0.611839 0 1.36655C0 2.12126 0.611798 2.7331 1.36651 2.7331C1.36651 2.7331 27.2659 2.7331 27.2659 2.7331C28.0206 2.7331 28.6324 2.12126 28.6324 1.36655C28.6324 0.611839 28.0206 0 27.2659 0C27.2659 0 27.2659 0 27.2659 0Z" fill="#B8B8B8" fill-rule="evenodd" transform="translate(0 17.212)" />
    <path d="M0 0C0.205778 1.29716 1.04144 2.37601 2.17642 2.89984C1.87706 2.02055 1.73365 0.929201 1.69002 0C1.69002 0 0 0 0 0Z" fill="#B8B8B8" fill-rule="evenodd" transform="translate(10.61 28.586)" />
    <path d="M0 2.8998C0 2.8998 1.69002 2.8998 1.69002 2.8998C1.73365 1.96437 1.87706 0.87306 2.17642 0C1.04144 0.517603 0.205778 1.60267 0 2.8998C0 2.8998 0 2.8998 0 2.8998Z" fill="#B8B8B8" fill-rule="evenodd" transform="translate(10.61 24.439)" />
    <path d="M0.76078 3.19916C1.01027 2.93728 1.44057 1.8584 1.52788 0C1.52788 0 0 0 0 0C0.0810728 1.8584 0.517562 2.93728 0.76078 3.19916C0.76078 3.19916 0.76078 3.19916 0.76078 3.19916Z" fill="#B8B8B8" fill-rule="evenodd" transform="translate(13.554 28.586)" />
    <path d="M0 3.19916C0 3.19916 1.52788 3.19916 1.52788 3.19916C1.44057 1.33456 1.01027 0.255726 0.76078 0C0.517562 0.255726 0.0810728 1.33456 0 3.19916C0 3.19916 0 3.19916 0 3.19916Z" fill="#B8B8B8" fill-rule="evenodd" transform="translate(13.554 24.14)" />
    <path d="M0 2.89984C1.13498 2.37601 1.9706 1.29716 2.17642 0C2.17642 0 0.486437 0 0.486437 0C0.442804 0.929201 0.305592 2.02055 0 2.89984C0 2.89984 0 2.89984 0 2.89984Z" fill="#B8B8B8" fill-rule="evenodd" transform="translate(15.843 28.586)" />
    <path d="M0 0C0.305592 0.87306 0.442804 1.96437 0.486437 2.8998C0.486437 2.8998 2.17642 2.8998 2.17642 2.8998C1.9706 1.60267 1.13498 0.517603 0 0C0 0 0 0 0 0Z" fill="#B8B8B8" fill-rule="evenodd" transform="translate(15.843 24.439)" />
    <path d="M0 0L1.77729 11.5432L1.40936 11.5432L1.40936 13.5387L25.3126 13.5387L25.3126 11.5432L24.9446 11.5432L26.7219 0L0 0ZM13.3582 11.8799C10.6018 11.8799 8.35059 9.585 8.35059 6.77246C8.35059 3.95374 10.6018 1.66504 13.3582 1.66504C16.1208 1.66504 18.3659 3.95374 18.3659 6.77246C18.3659 9.585 16.1208 11.8799 13.3582 11.8799C13.3582 11.8799 13.3582 11.8799 13.3582 11.8799Z" fill="#B8B8B8" transform="translate(0.957 21.19)" />
    <path d="M1.2733 0.477784L0 5.76991L7.20876 5.76991C7.20876 5.76991 8.41181 0.769515 8.41181 0.769515C8.50616 0.377274 8.20894 0 7.8055 0C7.8055 0 1.8796 0 1.8796 0C1.5914 0 1.34072 0.197536 1.2733 0.477784C1.2733 0.477784 1.2733 0.477784 1.2733 0.477784Z" fill="#B8B8B8" fill-rule="evenodd" transform="translate(11.146 10.195)" />
    <path d="M0 3.51391C0 1.57323 1.57323 0 3.51391 0C5.45458 0 7.02781 1.57323 7.02781 3.51391C7.02781 5.45458 5.45458 7.02781 3.51391 7.02781C1.57323 7.02781 0 5.45458 0 3.51391Z" fill="#B8B8B8" fill-rule="evenodd" transform="translate(6.626 0)" />
    <path d="M2.66285 8.31281L6.1177 8.31281L6.69144 5.91192C6.69144 5.91192 3.16799 5.91192 3.16799 5.91192C2.81877 5.91192 2.54438 5.63126 2.54438 5.28831C2.54438 4.94528 2.81877 4.6647 3.16799 4.6647C3.16799 4.6647 6.99703 4.6647 6.99703 4.6647C6.99703 4.6647 7.45849 2.73146 7.45849 2.73146C7.66427 1.88333 8.41263 1.29712 9.27941 1.29712C9.27941 1.29712 11.406 1.29712 11.406 1.29712C10.589 0.49267 9.46653 0 8.22551 0C8.22551 0 4.56489 0 4.56489 0C2.04548 0 0 2.03925 0 4.55865C0 4.55865 0 5.64996 0 5.64996C0 7.12174 1.19739 8.31281 2.66285 8.31281C2.66285 8.31281 2.66285 8.31281 2.66285 8.31281Z" fill="#B8B8B8" fill-rule="evenodd" transform="translate(3.744 7.651)" />
    <path d="M2.909 2.97613C2.909 2.97613 2.909 7.79941 2.909 7.79941C2.909 8.14379 3.18793 8.42301 3.53261 8.42301C3.87732 8.42301 4.15626 8.14379 4.15626 7.79941C4.15626 7.79941 4.15626 2.65061 4.15626 2.65061C4.15626 2.44659 4.05636 2.25566 3.88888 2.13907C3.88888 2.13907 0.979694 0.112294 0.979694 0.112294C0.696493 -0.0853233 0.308598 -0.0149946 0.111883 0.267304C-0.0848331 0.54985 -0.0154057 0.938728 0.267179 1.1354C0.267179 1.1354 2.909 2.97613 2.909 2.97613Z" fill="#B8B8B8" fill-rule="evenodd" transform="translate(21.281 7.542)" />
  </g>
</svg>