<?xml version="1.0" encoding="utf-8"?>
<svg width="34.453" height="34.457" viewBox="0 0 34.453 34.457" fill="none" xmlns="http://www.w3.org/2000/svg">
  <path d="M27.398 2.17673C27.398 1.77869 27.3155 1.38818 27.167 1.02466C27.167 1.02466 31.8361 5.69376 31.8361 5.69376C31.4726 5.54526 31.0821 5.46277 30.684 5.46277C30.684 5.46277 27.398 5.46277 27.398 5.46277C27.398 5.46277 27.398 2.17673 27.398 2.17673ZM28.7438 30.1076L32.8617 30.1076L32.8617 31.8696C32.8617 31.8696 15.3743 31.8696 15.3743 31.8696C15.3743 31.8696 15.3743 17.4715 15.3743 17.4715C15.3743 15.7437 13.9641 14.3336 12.2364 14.3336C12.2364 14.3336 7.90088 14.3336 7.90088 14.3336L7.90088 0C7.90088 0 24.3241 0 24.3241 0C25.4533 0 26.4143 1.07965 26.4143 2.177C26.4143 2.177 26.4143 5.95511 26.4143 5.95511C26.4143 6.22632 26.6355 6.44751 26.9067 6.44751C26.9067 6.44751 30.6848 6.44751 30.6848 6.44751C31.7822 6.44751 32.8618 7.40854 32.8618 8.53784C32.8618 8.53784 32.8618 14.227 32.8618 14.227C32.8618 14.227 28.7438 14.227 28.7438 14.227C28.2557 14.227 27.8137 14.4295 27.4975 14.7549C27.1814 14.4295 26.7393 14.227 26.2513 14.227C26.2513 14.227 21.2955 14.227 21.2955 14.227C20.3375 14.227 19.5571 15.0074 19.5571 15.9654C19.5571 15.9654 19.5571 20.9211 19.5571 20.9211C19.5571 21.4092 19.7596 21.8512 20.0851 22.1674C19.7596 22.4836 19.5571 22.9255 19.5571 23.4136C19.5571 23.4136 19.5571 28.3693 19.5571 28.3693C19.5571 29.3273 20.3375 30.1078 21.2955 30.1078C21.2955 30.1078 26.2513 30.1078 26.2513 30.1078C26.7393 30.1078 27.1813 29.9052 27.4975 29.5798C27.8137 29.9052 28.2556 30.1078 28.7438 30.1078C28.7438 30.1078 28.7438 30.1076 28.7438 30.1076ZM23.6142 6.79175C23.6142 6.51993 23.3939 6.29956 23.122 6.29956C23.122 6.29956 22.2378 6.29956 22.2378 6.29956C21.966 6.29956 21.7456 6.51993 21.7456 6.79175C21.7456 7.06357 21.966 7.28394 22.2378 7.28394C22.2378 7.28394 23.122 7.28394 23.122 7.28394C23.3939 7.28394 23.6142 7.06357 23.6142 6.79175C23.6142 6.79175 23.6142 6.79175 23.6142 6.79175ZM13.4914 4.11499C13.4914 4.11499 23.9865 4.11499 23.9865 4.11499C24.2583 4.11499 24.4787 3.89462 24.4787 3.6228C24.4787 3.35098 24.2583 3.13062 23.9865 3.13062C23.9865 3.13062 13.1145 3.13062 13.1145 3.13062C12.8972 3.13046 12.6983 3.27603 12.6396 3.49588C12.6396 3.49588 11.5602 7.52417 11.5602 7.52417C11.5602 7.52417 10.8535 6.30017 10.8535 6.30017C10.7176 6.06552 10.4171 5.98544 10.1825 6.12137C9.94787 6.25726 9.86778 6.55771 10.0037 6.79236C10.0037 6.79236 11.3031 9.04297 11.3031 9.04297C11.5241 9.42444 12.0918 9.33957 12.2029 8.9238C12.2029 8.9238 13.4914 4.11499 13.4914 4.11499ZM16.4556 7.44592L15.8015 6.79181C15.8015 6.79181 16.4556 6.1377 16.4556 6.1377C16.6478 5.94553 16.6478 5.63388 16.4556 5.44174C16.2634 5.24957 15.9518 5.24957 15.7596 5.44174C15.7596 5.44174 15.1055 6.09586 15.1055 6.09586C15.1055 6.09586 14.4514 5.44174 14.4514 5.44174C14.2592 5.24957 13.9476 5.24957 13.7554 5.44174C13.5633 5.63388 13.5633 5.94553 13.7554 6.1377C13.7554 6.1377 14.4096 6.79181 14.4096 6.79181C14.4096 6.79181 13.7554 7.44592 13.7554 7.44592C13.5633 7.63809 13.5633 7.94971 13.7554 8.14188C13.9476 8.33405 14.2592 8.33405 14.4514 8.14188C14.4514 8.14188 15.1055 7.48776 15.1055 7.48776C15.1055 7.48776 15.7596 8.14188 15.7596 8.14188C15.9518 8.33405 16.2634 8.33405 16.4556 8.14188C16.6478 7.94971 16.6478 7.63809 16.4556 7.44592C16.4556 7.44592 16.4556 7.44592 16.4556 7.44592ZM18.663 6.79175C18.663 6.51993 18.4426 6.29956 18.1708 6.29956C18.1708 6.29956 17.2866 6.29956 17.2866 6.29956C17.0148 6.29956 16.7944 6.51993 16.7944 6.79175C16.7944 7.06357 17.0148 7.28394 17.2866 7.28394C17.2866 7.28394 18.1708 7.28394 18.1708 7.28394C18.4426 7.28394 18.663 7.06357 18.663 6.79175C18.663 6.79175 18.663 6.79175 18.663 6.79175ZM19.7622 7.28394C19.7622 7.28394 20.6464 7.28394 20.6464 7.28394C20.9182 7.28394 21.1386 7.06357 21.1386 6.79175C21.1386 6.51993 20.9182 6.29956 20.6464 6.29956C20.6464 6.29956 19.7622 6.29956 19.7622 6.29956C19.4904 6.29956 19.27 6.51993 19.27 6.79175C19.27 7.06357 19.4904 7.28394 19.7622 7.28394C19.7622 7.28394 19.7622 7.28394 19.7622 7.28394ZM27.4614 22.1674C27.4735 22.1791 27.4855 22.1911 27.4972 22.2032C27.509 22.1911 27.5209 22.1791 27.533 22.1674C27.5209 22.1556 27.509 22.1437 27.4972 22.1316C27.4855 22.1437 27.4735 22.1556 27.4614 22.1674C27.4614 22.1674 27.4614 22.1674 27.4614 22.1674ZM14.3894 17.4716C14.3894 17.4716 14.3894 32.3035 14.3894 32.3035C14.3894 33.488 13.4203 34.457 12.2359 34.457C12.2359 34.457 2.15353 34.457 2.15353 34.457C0.969116 34.457 0 33.488 0 32.3035C0 32.3035 0 17.4716 0 17.4716C0 16.2872 0.969048 15.3181 2.15353 15.3181C2.15353 15.3181 12.2359 15.3181 12.2359 15.3181C13.4203 15.3181 14.3895 16.2872 14.3895 17.4716C14.3895 17.4716 14.3894 17.4716 14.3894 17.4716ZM4.58189 30.3188C4.58189 30.0868 4.39204 29.897 4.16001 29.897C4.16001 29.897 2.44678 29.897 2.44678 29.897C2.21474 29.897 2.0249 30.0868 2.0249 30.3188C2.0249 30.3188 2.0249 31.0093 2.0249 31.0093C2.0249 31.2414 2.21474 31.4312 2.44678 31.4312C2.44678 31.4312 4.16001 31.4312 4.16001 31.4312C4.39204 31.4312 4.58189 31.2414 4.58189 31.0093C4.58189 31.0093 4.58189 30.3188 4.58189 30.3188ZM4.58189 27.4202C4.58189 27.1881 4.39204 26.9983 4.16001 26.9983C4.16001 26.9983 2.44678 26.9983 2.44678 26.9983C2.21474 26.9983 2.0249 27.1881 2.0249 27.4202C2.0249 27.4202 2.0249 28.1106 2.0249 28.1106C2.0249 28.3427 2.21474 28.5325 2.44678 28.5325C2.44678 28.5325 4.16001 28.5325 4.16001 28.5325C4.39204 28.5325 4.58189 28.3427 4.58189 28.1106C4.58189 28.1106 4.58189 27.4202 4.58189 27.4202ZM4.58189 24.5217C4.58189 24.2897 4.39204 24.0999 4.16001 24.0999C4.16001 24.0999 2.44678 24.0999 2.44678 24.0999C2.21474 24.0999 2.0249 24.2897 2.0249 24.5217C2.0249 24.5217 2.0249 25.2122 2.0249 25.2122C2.0249 25.4442 2.21474 25.6341 2.44678 25.6341C2.44678 25.6341 4.16001 25.6341 4.16001 25.6341C4.39204 25.6341 4.58189 25.4442 4.58189 25.2122C4.58189 25.2122 4.58189 24.5217 4.58189 24.5217ZM8.473 30.3188C8.473 30.0868 8.28316 29.897 8.05112 29.897C8.05112 29.897 6.33789 29.897 6.33789 29.897C6.10586 29.897 5.91602 30.0868 5.91602 30.3188C5.91602 30.3188 5.91602 31.0093 5.91602 31.0093C5.91602 31.2414 6.10586 31.4312 6.33789 31.4312C6.33789 31.4312 8.05112 31.4312 8.05112 31.4312C8.28316 31.4312 8.473 31.2414 8.473 31.0093C8.473 31.0093 8.473 30.3188 8.473 30.3188ZM8.473 27.4202C8.473 27.1881 8.28316 26.9983 8.05112 26.9983C8.05112 26.9983 6.33789 26.9983 6.33789 26.9983C6.10586 26.9983 5.91602 27.1881 5.91602 27.4202C5.91602 27.4202 5.91602 28.1106 5.91602 28.1106C5.91602 28.3427 6.10586 28.5325 6.33789 28.5325C6.33789 28.5325 8.05112 28.5325 8.05112 28.5325C8.28316 28.5325 8.473 28.3427 8.473 28.1106C8.473 28.1106 8.473 27.4202 8.473 27.4202ZM8.473 24.5217C8.473 24.2897 8.28316 24.0999 8.05112 24.0999C8.05112 24.0999 6.33789 24.0999 6.33789 24.0999C6.10586 24.0999 5.91602 24.2897 5.91602 24.5217C5.91602 24.5217 5.91602 25.2122 5.91602 25.2122C5.91602 25.4442 6.10586 25.6341 6.33789 25.6341C6.33789 25.6341 8.05112 25.6341 8.05112 25.6341C8.28316 25.6341 8.473 25.4442 8.473 25.2122C8.473 25.2122 8.473 24.5217 8.473 24.5217ZM12.3651 30.3188C12.3651 30.0868 12.1752 29.897 11.9432 29.897C11.9432 29.897 10.23 29.897 10.23 29.897C9.99795 29.897 9.80811 30.0868 9.80811 30.3188C9.80811 30.3188 9.80811 31.0093 9.80811 31.0093C9.80811 31.2414 9.99795 31.4312 10.23 31.4312C10.23 31.4312 11.9432 31.4312 11.9432 31.4312C12.1752 31.4312 12.3651 31.2414 12.3651 31.0093C12.3651 31.0093 12.3651 30.3188 12.3651 30.3188ZM12.3651 27.4202C12.3651 27.1881 12.1752 26.9983 11.9432 26.9983C11.9432 26.9983 10.23 26.9983 10.23 26.9983C9.99795 26.9983 9.80811 27.1881 9.80811 27.4202C9.80811 27.4202 9.80811 28.1106 9.80811 28.1106C9.80811 28.3427 9.99795 28.5325 10.23 28.5325C10.23 28.5325 11.9432 28.5325 11.9432 28.5325C12.1752 28.5325 12.3651 28.3427 12.3651 28.1106C12.3651 28.1106 12.3651 27.4202 12.3651 27.4202ZM12.3651 24.5217C12.3651 24.2897 12.1752 24.0999 11.9432 24.0999C11.9432 24.0999 10.23 24.0999 10.23 24.0999C9.99795 24.0999 9.80811 24.2897 9.80811 24.5217C9.80811 24.5217 9.80811 25.2122 9.80811 25.2122C9.80811 25.4442 9.99795 25.6341 10.23 25.6341C10.23 25.6341 11.9432 25.6341 11.9432 25.6341C12.1752 25.6341 12.3651 25.4442 12.3651 25.2122C12.3651 25.2122 12.3651 24.5217 12.3651 24.5217ZM12.3655 18.9272C12.3655 18.6062 12.1028 18.3435 11.7818 18.3435C11.7818 18.3435 2.60863 18.3435 2.60863 18.3435C2.28759 18.3435 2.0249 18.6062 2.0249 18.9272C2.0249 18.9272 2.0249 21.6602 2.0249 21.6602C2.0249 21.9812 2.28759 22.2439 2.60863 22.2439C2.60863 22.2439 11.7817 22.2439 11.7817 22.2439C12.1027 22.2439 12.3654 21.9812 12.3654 21.6602C12.3654 21.6602 12.3654 18.9272 12.3654 18.9272C12.3654 18.9272 12.3655 18.9272 12.3655 18.9272ZM5.13135 1.2959C5.13135 0.638489 4.59346 0.100586 3.93604 0.100586C3.27861 0.100586 2.74072 0.638489 2.74072 1.2959C2.74072 1.2959 2.74072 1.76987 2.74072 1.76987L5.13128 1.76987L5.13128 1.2959C5.13128 1.2959 5.13135 1.2959 5.13135 1.2959ZM3.93627 13.9388C3.9902 13.9388 4.03597 13.9056 4.0527 13.8543C4.0527 13.8543 4.95889 11.0847 4.95889 11.0847L2.91357 11.0847C2.91357 11.0847 3.81976 13.8543 3.81976 13.8543C3.83649 13.9056 3.88234 13.9388 3.93627 13.9388C3.93627 13.9388 3.93627 13.9388 3.93627 13.9388ZM5.13177 2.75415L2.74121 2.75415L2.74121 10.1005L5.13184 10.1005L5.13184 2.75415L5.13177 2.75415ZM34.4532 23.4135C34.4532 23.4135 34.4532 28.3692 34.4532 28.3692C34.4532 28.784 34.1138 29.1233 33.6991 29.1233C33.6991 29.1233 28.7434 29.1233 28.7434 29.1233C28.3286 29.1233 27.9893 28.784 27.9893 28.3692C27.9893 28.3692 27.9893 23.4135 27.9893 23.4135C27.9893 22.9987 28.3286 22.6594 28.7434 22.6594C28.7434 22.6594 33.6991 22.6594 33.6991 22.6594C34.1138 22.6594 34.4532 22.9987 34.4532 23.4135C34.4532 23.4135 34.4532 23.4135 34.4532 23.4135ZM30.7153 24.426C30.7153 24.6978 30.9357 24.9182 31.2075 24.9182C31.2075 24.9182 31.2354 24.9182 31.2354 24.9182C31.5072 24.9182 31.7276 24.6978 31.7276 24.426C31.7276 24.1542 31.5072 23.9338 31.2354 23.9338C31.2354 23.9338 31.2075 23.9338 31.2075 23.9338C30.9357 23.9338 30.7153 24.1542 30.7153 24.426C30.7153 24.426 30.7153 24.426 30.7153 24.426ZM31.7276 27.3567C31.7276 27.0849 31.5072 26.8645 31.2354 26.8645C31.2354 26.8645 31.2075 26.8645 31.2075 26.8645C30.9357 26.8645 30.7153 27.0849 30.7153 27.3567C30.7153 27.6285 30.9357 27.8489 31.2075 27.8489C31.2075 27.8489 31.2354 27.8489 31.2354 27.8489C31.5072 27.8489 31.7276 27.6285 31.7276 27.3567C31.7276 27.3567 31.7276 27.3567 31.7276 27.3567ZM33.1465 25.8914C33.1465 25.6195 32.9261 25.3992 32.6543 25.3992C32.6543 25.3992 29.7876 25.3992 29.7876 25.3992C29.5158 25.3992 29.2954 25.6195 29.2954 25.8914C29.2954 26.1632 29.5158 26.3835 29.7876 26.3835C29.7876 26.3835 32.6543 26.3835 32.6543 26.3835C32.9261 26.3835 33.1465 26.1632 33.1465 25.8914C33.1465 25.8914 33.1465 25.8914 33.1465 25.8914ZM27.0049 20.9207C27.0049 21.3355 26.6656 21.6748 26.2508 21.6748C26.2508 21.6748 21.2951 21.6748 21.2951 21.6748C20.8803 21.6748 20.541 21.3355 20.541 20.9207C20.541 20.9207 20.541 15.965 20.541 15.965C20.541 15.5503 20.8803 15.2109 21.2951 15.2109C21.2951 15.2109 26.2508 15.2109 26.2508 15.2109C26.6656 15.2109 27.0049 15.5503 27.0049 15.965C27.0049 15.965 27.0049 20.9207 27.0049 20.9207ZM25.6987 18.4433C25.6987 18.1715 25.4783 17.9511 25.2065 17.9511C25.2065 17.9511 24.2654 17.9511 24.2654 17.9511C24.2654 17.9511 24.2654 17.01 24.2654 17.01C24.2654 16.7382 24.045 16.5178 23.7732 16.5178C23.5013 16.5178 23.281 16.7382 23.281 17.01C23.281 17.01 23.281 17.9511 23.281 17.9511C23.281 17.9511 22.3398 17.9511 22.3398 17.9511C22.068 17.9511 21.8477 18.1715 21.8477 18.4433C21.8477 18.7151 22.068 18.9355 22.3398 18.9355C22.3398 18.9355 23.281 18.9355 23.281 18.9355C23.281 18.9355 23.281 19.8766 23.281 19.8766C23.281 20.1485 23.5013 20.3688 23.7732 20.3688C24.045 20.3688 24.2654 20.1485 24.2654 19.8766C24.2654 19.8766 24.2654 18.9355 24.2654 18.9355C24.2654 18.9355 25.2065 18.9355 25.2065 18.9355C25.4783 18.9355 25.6987 18.7151 25.6987 18.4433C25.6987 18.4433 25.6987 18.4433 25.6987 18.4433ZM27.0049 23.4135C27.0049 23.4135 27.0049 28.3692 27.0049 28.3692C27.0049 28.784 26.6656 29.1233 26.2508 29.1233C26.2508 29.1233 21.2951 29.1233 21.2951 29.1233C20.8803 29.1233 20.541 28.784 20.541 28.3692C20.541 28.3692 20.541 23.4135 20.541 23.4135C20.541 22.9987 20.8803 22.6594 21.2951 22.6594C21.2951 22.6594 26.2508 22.6594 26.2508 22.6594C26.6656 22.6594 27.0049 22.9987 27.0049 23.4135C27.0049 23.4135 27.0049 23.4135 27.0049 23.4135ZM25.6987 25.8914C25.6987 25.6195 25.4784 25.3992 25.2066 25.3992C25.2066 25.3992 22.3398 25.3992 22.3398 25.3992C22.068 25.3992 21.8477 25.6195 21.8477 25.8914C21.8477 26.1632 22.068 26.3835 22.3398 26.3835C22.3398 26.3835 25.2066 26.3835 25.2066 26.3835C25.4784 26.3835 25.6987 26.1632 25.6987 25.8914C25.6987 25.8914 25.6987 25.8914 25.6987 25.8914ZM34.4532 15.9653C34.4532 15.9653 34.4532 20.921 34.4532 20.921C34.4532 21.3358 34.1138 21.6751 33.6991 21.6751C33.6991 21.6751 28.7434 21.6751 28.7434 21.6751C28.3286 21.6751 27.9893 21.3358 27.9893 20.921C27.9893 20.921 27.9893 15.9653 27.9893 15.9653C27.9893 15.5505 28.3286 15.2112 28.7434 15.2112C28.7434 15.2112 33.6991 15.2112 33.6991 15.2112C34.1138 15.2112 34.4532 15.5505 34.4532 15.9653C34.4532 15.9653 34.4532 15.9653 34.4532 15.9653ZM32.583 19.1088L31.9174 18.4433C31.9174 18.4433 32.5829 17.7778 32.5829 17.7778C32.7751 17.5857 32.7751 17.274 32.5829 17.0819C32.3908 16.8897 32.0791 16.8897 31.887 17.0819C31.887 17.0819 31.2215 17.7474 31.2215 17.7474C31.2215 17.7474 30.556 17.0819 30.556 17.0819C30.3638 16.8897 30.0522 16.8897 29.86 17.0819C29.6678 17.274 29.6678 17.5857 29.86 17.7778C29.86 17.7778 30.5255 18.4433 30.5255 18.4433C30.5255 18.4433 29.8599 19.1088 29.8599 19.1088C29.6678 19.301 29.6678 19.6126 29.8599 19.8048C30.0521 19.9969 30.3637 19.9969 30.5559 19.8048C30.5559 19.8048 31.2215 19.1392 31.2215 19.1392C31.2215 19.1392 31.8871 19.8048 31.8871 19.8048C32.0792 19.9969 32.3908 19.9969 32.583 19.8048C32.7752 19.6126 32.7752 19.301 32.583 19.1088C32.583 19.1088 32.583 19.1088 32.583 19.1088Z" fill="#B8B8B8" />
</svg>