<?xml version="1.0" encoding="utf-8"?>
<svg width="38" height="33" viewBox="0 0 38 33" fill="none" xmlns="http://www.w3.org/2000/svg">
  <g>
    <path d="M36.2414 25.2618C36.2414 25.2618 1.73638 25.2618 1.73638 25.2618C0.779145 25.2618 0 24.4744 0 23.5072C0 23.5072 0 20.1779 0 20.1779C0 20.1779 0 1.7546 0 1.7546C0 0.787321 0.779145 0 1.73638 0C1.73638 0 36.2414 0 36.2414 0C37.2209 0 38 0.787321 38 1.7546C38 1.7546 38 20.1779 38 20.1779C38 20.1779 38 23.5072 38 23.5072C38 24.4744 37.2209 25.2618 36.2414 25.2618C36.2414 25.2618 36.2414 25.2618 36.2414 25.2618ZM34.9949 22.945C34.9949 22.945 33.1249 22.945 33.1249 22.945C32.88 22.945 32.6797 22.7425 32.6797 22.4951C32.6797 22.2476 32.88 22.0452 33.1249 22.0452C33.1249 22.0452 34.9949 22.0452 34.9949 22.0452C35.2397 22.0452 35.4401 22.2476 35.4401 22.4951C35.4401 22.7425 35.2397 22.945 34.9949 22.945C34.9949 22.945 34.9949 22.945 34.9949 22.945ZM30.8095 22.945C30.8095 22.945 28.9618 22.945 28.9618 22.945C28.717 22.945 28.5166 22.7425 28.5166 22.4951C28.5166 22.2476 28.717 22.0452 28.9618 22.0452C28.9618 22.0452 30.8095 22.0452 30.8095 22.0452C31.0544 22.0452 31.2547 22.2476 31.2547 22.4951C31.2547 22.7425 31.0544 22.945 30.8095 22.945C30.8095 22.945 30.8095 22.945 30.8095 22.945ZM26.6467 22.945C26.6467 22.945 24.7768 22.945 24.7768 22.945C24.5319 22.945 24.3315 22.7425 24.3315 22.4951C24.3315 22.2476 24.5319 22.0452 24.7768 22.0452C24.7768 22.0452 26.6467 22.0452 26.6467 22.0452C26.8916 22.0452 27.0919 22.2476 27.0919 22.4951C27.0919 22.7425 26.8916 22.945 26.6467 22.945C26.6467 22.945 26.6467 22.945 26.6467 22.945ZM0.890137 19.7279L37.1092 19.7279C37.1092 19.7279 37.1092 1.75446 37.1092 1.75446C37.1092 1.28207 36.7085 0.899658 36.2411 0.899658C36.2411 0.899658 1.73607 0.899658 1.73607 0.899658C1.26858 0.899658 0.890137 1.28207 0.890137 1.75446C0.890137 1.75446 0.890137 19.7279 0.890137 19.7279Z" fill="#B8B8B8" fill-rule="evenodd" />
    <path d="M0 1.93456L0 0L4.96427 0L4.96427 1.93456L0 1.93456Z" fill="#B8B8B8" fill-rule="evenodd" transform="translate(16.518 26.027)" />
    <path d="M21.9719 4.27403C21.9719 4.27403 0.445226 4.27403 0.445226 4.27403C0.200352 4.27403 0 4.07158 0 3.82413C0 3.82413 0 0.449898 0 0.449898C0 0.202454 0.200352 0 0.445226 0C0.445226 0 21.9719 0 21.9719 0C22.2168 0 22.4171 0.202454 22.4171 0.449898C22.4171 0.449898 22.4171 3.82413 22.4171 3.82413C22.4171 4.07158 22.2168 4.27403 21.9719 4.27403C21.9719 4.27403 21.9719 4.27403 21.9719 4.27403Z" fill="#B8B8B8" fill-rule="evenodd" transform="translate(7.792 28.726)" />
    <g transform="translate(12.934 1.378)">
      <path d="M11.6874 7.71575L7.92523 7.71575L7.10156 2.27198C7.10156 2.27198 7.85845 0.472393 7.85845 0.472393C8.10332 0.337423 8.32593 0.179959 8.52629 0C8.52629 0 9.41674 0 9.41674 0C10.9082 0 12.1326 1.23722 12.1326 2.74438C12.1326 2.74438 12.1326 7.26585 12.1326 7.26585C12.1326 7.51329 11.9323 7.71575 11.6874 7.71575C11.6874 7.71575 11.6874 7.71575 11.6874 7.71575ZM7.03477 7.71586L5.03125 7.71586L5.85492 2.677L6.25562 2.677L7.03477 7.71586ZM5.76565 1.77703C5.76565 1.77703 5.38721 0.854736 5.38721 0.854736C5.60982 0.877232 5.83243 0.899726 6.05505 0.899726C6.27766 0.899726 6.50027 0.877232 6.72288 0.854736C6.72288 0.854736 6.34444 1.77703 6.34444 1.77703L5.76565 1.77703ZM4.1406 7.71575C4.1406 7.71575 0.445226 7.71575 0.445226 7.71575C0.17809 7.71575 0 7.51329 0 7.26585C0 7.26585 0 2.74438 0 2.74438C0 1.23722 1.20211 0 2.69362 0C2.69362 0 3.58407 0 3.58407 0C3.78442 0.179959 4.00703 0.337423 4.25191 0.449898C4.25191 0.449898 5.03105 2.27198 5.03105 2.27198L4.1406 7.71575Z" fill="#B8B8B8" fill-rule="evenodd" transform="translate(0 10.14)" />
      <path d="M3.13884 5.47751C1.40246 5.47751 0 4.06033 0 2.30573C0 1.72086 0.133568 1.18098 0.422964 0.686094C0.467487 0.596115 0.556532 0.52863 0.645577 0.506135C2.42648 -0.168712 3.87346 -0.168712 5.6321 0.506135C5.72115 0.52863 5.81019 0.596115 5.85472 0.686094C6.14411 1.18098 6.27768 1.72086 6.27768 2.30573C6.27768 4.03783 4.87522 5.47751 3.13884 5.47751C3.13884 5.47751 3.13884 5.47751 3.13884 5.47751Z" fill="#B8B8B8" fill-rule="evenodd" transform="translate(2.916 4.82)" />
      <path d="M1.69186 3.90849C1.69186 3.90849 0.556532 3.43609 0.556532 3.43609C0.222613 3.30113 0 3.00869 0 2.64877C0 2.31135 0.222613 1.99642 0.556532 1.86145C0.556532 1.86145 4.94201 0.0843558 4.94201 0.0843558C5.18688 -0.0281186 5.45401 -0.0281186 5.69889 0.0843558C5.69889 0.0843558 10.0844 1.86145 10.0844 1.86145C10.4405 1.99642 10.6409 2.31135 10.6409 2.64877C10.6409 3.00869 10.4405 3.30113 10.0844 3.43609C10.0844 3.43609 8.94904 3.90849 8.94904 3.90849C8.94904 3.77352 8.92678 3.66104 8.92678 3.54857C8.88225 3.21115 8.72642 2.89622 8.45929 2.69376C6.96778 1.54652 3.69537 1.54652 2.18161 2.69376C1.91447 2.89622 1.75864 3.21115 1.73638 3.54857C1.71412 3.66104 1.71412 3.77352 1.69186 3.90849C1.69186 3.90849 1.69186 3.90849 1.69186 3.90849Z" fill="#B8B8B8" fill-rule="evenodd" transform="translate(0.734 0)" />
      <path d="M0 2.10327C0 1.60839 0.0222614 1.15849 0.0445225 1.02352C0.0445225 0.888548 0.111306 0.776074 0.222613 0.708589C1.44698 -0.236196 4.34095 -0.236196 5.58758 0.708589C5.67663 0.776074 5.74341 0.888548 5.76567 1.02352C5.76567 1.15849 5.8102 1.60839 5.8102 2.10327C5.74341 2.05828 5.69889 2.03579 5.65437 2.01329C3.71763 1.29346 2.09256 1.29346 0.155829 2.01329C0.089045 2.03579 0.0445225 2.05828 0 2.10327C0 2.10327 0 2.10327 0 2.10327Z" fill="#B8B8B8" fill-rule="evenodd" transform="translate(3.161 2.593)" />
      <path d="M0.445226 3.48671C0.200352 3.48671 0 3.28425 0 3.03681C0 3.03681 0 0.449898 0 0.449898C0 0.202454 0.200352 0 0.445226 0C0.6901 0 0.890451 0.202454 0.890451 0.449898C0.890451 0.449898 0.890451 3.03681 0.890451 3.03681C0.890451 3.28425 0.6901 3.48671 0.445226 3.48671C0.445226 3.48671 0.445226 3.48671 0.445226 3.48671Z" fill="#B8B8B8" fill-rule="evenodd" transform="translate(10.485 2.199)" />
      <path d="M1.26889 3.64417C0.556532 3.64417 0 2.85685 0 1.82209C0 0.809816 0.556532 0 1.26889 0C1.98125 0 2.56005 0.809816 2.56005 1.82209C2.56005 2.85685 1.98125 3.64417 1.26889 3.64417C1.26889 3.64417 1.26889 3.64417 1.26889 3.64417Z" fill="#B8B8B8" fill-rule="evenodd" transform="translate(9.662 4.786)" />
    </g>
  </g>
</svg>