<?xml version="1.0" encoding="utf-8"?>
<svg width="34" height="34" viewBox="0 0 34 34" fill="none" xmlns="http://www.w3.org/2000/svg">
  <g>
    <path d="M0.673887 3.98326C1.00918 3.98326 1.28099 3.71141 1.28099 3.37606C1.28099 3.37606 1.28099 0.576854 1.28099 0.576854C1.28282 0.38034 1.24994 0.185059 1.18385 0C1.18385 0 0 0.309673 0 0.309673C0.0440578 0.391816 0.0670052 0.483626 0.066782 0.576842C0.066782 0.576842 0.066782 3.37605 0.066782 3.37605C0.066782 3.7114 0.338589 3.98325 0.673882 3.98325C0.673882 3.98325 0.673887 3.98326 0.673887 3.98326Z" fill="#EC1E24" transform="translate(24.218 3.906)" />
    <path d="M9.53674e-07 2.37112C0.0607109 2.4367 0.0807447 2.42334 0.0922804 2.41727C0.0922804 2.41727 1.20995 1.57812 1.20995 1.57812C1.57254 1.3073 2.07005 1.3073 2.43264 1.57812C2.43264 1.57812 3.55031 2.41666 3.55031 2.41666C3.56749 2.43082 3.59159 2.43299 3.61102 2.42213C3.61102 2.42213 3.63652 0 3.63652 0L0 0C0 0 9.53674e-07 2.37112 9.53674e-07 2.37112Z" fill="#EC1E24" transform="translate(15.178 31.571)" />
    <path d="M14.2947 1.20539C10.0555 1.16043 5.82744 0.762348 1.65432 0.0152683C1.59535 0.00522041 1.53565 0.000141144 1.47583 8.7738e-05C1.08466 -0.00529671 0.732712 0.236917 0.597964 0.604252C0.184802 1.7737 -0.017267 3.00729 0.00118494 4.24747C-0.0174939 5.48776 0.184798 6.72142 0.598587 7.89072C0.745165 8.30521 1.16685 8.55581 1.60091 8.48639C5.7916 7.73325 10.0378 7.33091 14.2953 7.28352C14.9223 6.39946 15.2335 5.33002 15.1787 4.24751C15.2346 3.16289 14.9232 2.0911 14.2947 1.20542C14.2947 1.20542 14.2947 1.20539 14.2947 1.20539Z" fill="#EC1E24" transform="translate(0 23.077)" />
    <path d="M3.66384 0.607203C2.75012 0.607269 1.84833 0.399641 1.0266 0C1.0266 0 0 0 0 0C0 0 2.75319 3.78773 2.75319 3.78773C2.97347 4.06608 3.30892 4.2284 3.66384 4.2284C4.01877 4.2284 4.35421 4.06608 4.57449 3.78773C4.57449 3.78773 7.32829 0 7.32829 0C7.32829 0 6.29319 0 6.29319 0C5.47389 0.398577 4.57491 0.606182 3.66384 0.607203C3.66384 0.607203 3.66384 0.607203 3.66384 0.607203Z" fill="#EC1E24" transform="translate(13.336 16.39)" />
    <path d="M12.749 6.66406C15.3867 6.6576 18.0218 6.50008 20.6414 6.19225C20.6414 6.19225 20.6414 5.44964 20.6414 5.44964C20.6376 2.55005 18.3703 0.158178 15.4756 0C15.4756 0 12.213 4.48601 12.213 4.48601C11.7726 5.09134 11.0692 5.44944 10.3207 5.44944C9.57217 5.44944 8.8688 5.09134 8.42836 4.48601C8.42836 4.48601 5.16642 0 5.16642 0C2.2714 0.157873 0.00375223 2.54984 0 5.44964C0 5.44964 0 6.19164 0 6.19164C2.61958 6.50003 5.25469 6.65776 7.89235 6.66405C7.89235 6.66405 12.749 6.66406 12.749 6.66406Z" fill="#EC1E24" transform="translate(6.679 16.406)" />
    <path d="M0.0382481 2.47435L9.09253 4.85216L13.7903 3.62196C13.7903 3.62196 9.03121 3.02751 9.03121 3.02751C8.69826 2.98593 8.46206 2.68227 8.50364 2.34927C8.54522 2.01627 8.84882 1.78002 9.18177 1.82161C9.18177 1.82161 16.9526 2.79313 16.9526 2.79313C16.9526 2.79313 18.1717 2.47374 18.1717 2.47374C18.1942 2.46828 18.2105 2.46342 18.2105 2.42456C18.2105 2.3857 18.1942 2.38145 18.1717 2.37538C18.1717 2.37538 9.11984 1.44768e-07 9.11984 1.44768e-07C9.11984 1.44768e-07 0.0388546 2.37598 0.0388546 2.37598C0.0157847 2.38206 0 2.38631 0 2.42517C0 2.46403 0.0157847 2.46889 0.0382471 2.47435C0.0382471 2.47435 0.0382481 2.47435 0.0382481 2.47435Z" fill="#EC1E24" transform="translate(7.894 0)" />
    <path d="M9.7136 4.76837e-06C8.11388 0.311325 6.48638 0.457214 4.85681 0.435368C3.22723 0.457215 1.59972 0.311326 0 0C0 0 0 2.25697 0 2.25697C0.00434113 4.93795 2.17626 7.11024 4.85678 7.11459C7.53787 7.11158 9.71057 4.93851 9.71358 2.25697C9.71358 2.25697 9.7136 4.76837e-06 9.7136 4.76837e-06Z" fill="#EC1E24" transform="translate(12.143 8.669)" />
    <path d="M9.71358 0C9.71358 0 5.17855 1.19133 5.17855 1.19133C4.96757 1.24637 4.74601 1.24637 4.53503 1.19133C4.53503 1.19133 0 0 0 0C0 0 0 2.5879 0 2.5879C1.59628 2.92529 3.22549 3.08172 4.8568 3.05423C6.4881 3.0816 8.11729 2.92518 9.71359 2.5879C9.71359 2.5879 9.71358 0 9.71358 0Z" fill="#EC1E24" transform="translate(12.143 4.836)" />
    <path d="M0 3.8147e-06C0.898529 1.92426 0.898529 4.14778 0 6.07203C0 6.07203 3.43497 6.07203 3.43497 6.07203C4.06072 5.18745 4.37117 4.11824 4.31647 3.03602C4.37112 1.9538 4.06068 0.8846 3.43497 0C3.43497 0 0 3.8147e-06 0 3.8147e-06Z" fill="#EC1E24" transform="translate(15.719 24.284)" />
    <path d="M12.8298 0.606501C12.6831 0.192516 12.2618 -0.0577335 11.8281 0.0114422C7.92168 0.710424 3.96736 1.1085 0 1.20216C0.904991 3.13241 0.904991 5.36519 1.90735e-06 7.29544C3.94933 7.38759 7.88577 7.78263 11.7747 8.47706C12.2231 8.5688 12.6714 8.31974 12.8304 7.8905C13.2442 6.72119 13.4465 5.48753 13.4278 4.24728C13.4463 3.00782 13.2438 1.77495 12.8298 0.606522C12.8298 0.606522 12.8298 0.606501 12.8298 0.606501Z" fill="#EC1E24" transform="translate(20.571 23.074)" />
  </g>
</svg>