<?xml version="1.0" encoding="utf-8"?>
<svg width="35" height="35" viewBox="0 0 35 35" fill="none" xmlns="http://www.w3.org/2000/svg">
  <g transform="scale(1 1)">
    <path d="M0 1.64064C0 1.64064 0 3.28129 0 3.28129C0 4.18599 0.737638 4.92193 1.64384 4.92193C2.5503 4.92193 3.28767 4.18599 3.28767 3.28129C3.28767 3.28129 3.28767 1.64064 3.28767 1.64064C3.28767 0.736207 2.5503 0 1.64384 0C0.737638 0 0 0.736207 0 1.64064C0 1.64064 0 1.64064 0 1.64064ZM2.19183 1.64063C2.19183 1.64063 2.19183 3.28128 2.19183 3.28128C2.19183 3.58275 1.94595 3.82816 1.64389 3.82816C1.34209 3.82816 1.09594 3.58275 1.09594 3.28128C1.09594 3.28128 1.09594 1.64063 1.09594 1.64063C1.09594 1.33942 1.34209 1.09375 1.64389 1.09375C1.94595 1.09375 2.19183 1.33942 2.19183 1.64063C2.19183 1.64063 2.19183 1.64063 2.19183 1.64063Z" fill="#EC1E24" transform="translate(27.432 8.203)" />
    <path d="M0 0L1.09589 0L1.09589 1.64065L0 1.64065L0 0Z" fill="#EC1E24" fill-rule="evenodd" transform="translate(28.528 13.671)" />
    <path d="M0 0.546615L0.949005 0L1.77092 1.42088L0.82165 1.96776L0 0.546615Z" fill="#EC1E24" fill-rule="evenodd" transform="translate(29.835 12.962)" />
    <path d="M0 1.42088L0.821917 0L1.77092 0.546882L0.949272 1.96776L0 1.42088Z" fill="#EC1E24" fill-rule="evenodd" transform="translate(26.546 12.96)" />
    <path d="M2.99952 0.714844C2.90374 0.575455 2.78788 0.453421 2.65812 0.351147C2.65759 0.350613 2.65705 0.350613 2.65652 0.350079C2.48823 0.218431 2.29532 0.120432 2.08984 0.0619507C2.08877 0.0614166 2.0877 0.0614166 2.08663 0.0608826C2.05533 0.0520706 2.02403 0.0443268 1.99299 0.037384C1.99246 0.037384 1.99246 0.037384 1.99192 0.037384C1.97881 0.0344467 1.9649 0.0317764 1.95125 0.0291061C1.94082 0.0269699 1.93092 0.0253677 1.92048 0.0237656C1.9047 0.0208282 1.88891 0.018158 1.87286 0.0160217C1.85761 0.0138855 1.84236 0.0114822 1.82684 0.00988007C1.81855 0.00881195 1.80999 0.00827789 1.80169 0.00720978C1.77922 0.00507355 1.75728 0.00347137 1.7348 0.00240326C1.72945 0.0018692 1.72383 0.0018692 1.71848 0.0018692C1.69387 0.000801086 1.66898 0 1.64384 0C1.61815 0 1.59193 0.000801086 1.56651 0.00240326C1.56277 0.00240326 1.55956 0.00240326 1.55554 0.00293732C1.53039 0.00400543 1.50578 0.00614166 1.48116 0.00827789C1.47795 0.00881195 1.47394 0.00881195 1.47073 0.00934601C1.3902 0.0176239 1.3118 0.0317764 1.23555 0.0515366C1.23448 0.0515366 1.23395 0.0520706 1.23288 0.0520706C1.20719 0.0587463 1.18151 0.0656891 1.15609 0.073967C1.13201 0.0817108 1.10846 0.0891895 1.08492 0.0980015C1.08278 0.0990696 1.08011 0.0996037 1.07796 0.100672C1.05763 0.108416 1.03783 0.116159 1.0175 0.12417C1.00894 0.128176 1.00011 0.13138 0.991813 0.135118C0.981378 0.139658 0.970944 0.144464 0.960509 0.149538C0.70794 0.266499 0.485606 0.448614 0.314105 0.686539C0.3026 0.702293 0.290025 0.717514 0.276649 0.732468C0.101937 0.992825 0 1.30499 0 1.64064C0 2.54535 0.737639 3.28129 1.64384 3.28129C2.5503 3.28129 3.28767 2.54535 3.28767 1.64064C3.28767 1.30285 3.18466 0.988285 3.00835 0.72686C3.0054 0.722588 3.00219 0.718849 2.99952 0.714844C2.99952 0.714844 2.99952 0.714844 2.99952 0.714844Z" fill="#EC1E24" fill-rule="evenodd" transform="translate(15.925 30.625)" />
    <path d="M2.41037 0.622986L1.16251 0.000534058L0 1.93491L3.1456 5.07414L6.29147 1.93438L5.12869 0C5.12869 0 3.8811 0.622986 3.8811 0.622986C3.42064 0.852633 2.87109 0.853167 2.41037 0.622986C2.41037 0.622986 2.41037 0.622986 2.41037 0.622986Z" fill="#EC1E24" fill-rule="evenodd" transform="translate(14.423 22.043)" />
    <path d="M13.0702 0.786409L10.3922 0C10.3922 0 6.78671 3.59826 6.78671 3.59826C6.67996 3.7056 6.53949 3.75901 6.3993 3.75901C6.2591 3.75901 6.1189 3.7056 6.01188 3.59879C6.01188 3.59879 2.41358 0.00747681 2.41358 0.00747681L0 0.786943C0 0.786943 4.61205 5.51688 4.61205 5.51688C5.06234 5.12915 5.63998 4.88455 6.27274 4.85624C6.2805 4.85571 6.28746 4.85571 6.29522 4.85518C6.30779 4.85464 6.3209 4.85411 6.33348 4.85411C6.35542 4.85357 6.37736 4.85277 6.3993 4.85277C6.42177 4.85277 6.44478 4.85357 6.46725 4.85411C6.47501 4.85411 6.48331 4.85464 6.4908 4.85518C6.50444 4.85571 6.51889 4.85624 6.53254 4.85678C6.54725 4.85731 6.56143 4.85838 6.57588 4.85945C6.58176 4.85998 6.58792 4.85998 6.59434 4.86052C6.61253 4.86158 6.62992 4.86319 6.64812 4.86506C6.65133 4.86559 6.654 4.86559 6.65748 4.86612C6.67728 4.86773 6.69681 4.86986 6.71661 4.872C6.71661 4.872 6.71822 4.872 6.71822 4.872C7.18777 4.92674 7.6212 5.10004 7.98828 5.36093C8.0022 5.37081 8.01584 5.38069 8.02949 5.39058C8.03216 5.39271 8.03564 5.39485 8.03885 5.39698C8.10627 5.44745 8.17129 5.50032 8.23389 5.5572C8.23389 5.5572 13.0702 0.786409 13.0702 0.786409Z" fill="#EC1E24" fill-rule="evenodd" transform="translate(11.17 24.678)" />
    <path d="M16.4065 8.68602C16.4065 8.68602 14.2297 2.60249 14.2297 2.60249C13.8188 1.45372 12.8724 0.562101 11.6998 0.21763C11.6998 0.21763 10.9589 0 10.9589 0C10.9589 0 10.9589 6.68221 10.9589 6.68221C10.9589 6.88969 10.8417 7.07875 10.656 7.17168C10.5787 7.21013 10.4942 7.22909 10.411 7.22909C10.2948 7.22909 10.1793 7.19197 10.0821 7.11987C10.0821 7.11987 8.21918 5.72516 8.21918 5.72516C8.21918 5.72516 6.35622 7.11987 6.35622 7.11987C6.18953 7.24404 5.96773 7.26434 5.78259 7.17168C5.59664 7.07875 5.47945 6.88969 5.47945 6.68221C5.47945 6.68221 5.47945 2.59395 5.47945 2.59395C5.47945 2.59395 2.48983 5.54198 2.48983 5.54198C2.65036 5.88939 2.73973 6.27552 2.73973 6.68221C2.73973 8.19014 1.51086 9.41661 0 9.41661C0 9.41661 15.8904 9.41661 15.8904 9.41661C16.0686 9.41661 16.2355 9.33036 16.338 9.18483C16.441 9.0393 16.4664 8.85344 16.4065 8.68602C16.4065 8.68602 16.4065 8.68602 16.4065 8.68602Z" fill="#EC1E24" fill-rule="evenodd" transform="translate(17.569 25.583)" />
    <path d="M0.321867 5.41921L6.0282 8.00809C6.0282 8.00809 6.0282 4.92147 6.0282 4.92147C6.0282 4.68034 6.18659 4.46778 6.41722 4.39835C6.41722 4.39835 8.38934 3.8026 8.38934 3.8026C10.7569 3.08802 13.2617 3.08242 15.6328 3.78631C15.6328 3.78631 17.6913 4.39755 17.6913 4.39755C17.9235 4.46591 18.083 4.6798 18.083 4.92147C18.083 4.92147 18.083 8.00809 18.083 8.00809L23.0145 5.77089L23.0145 7.65587L24.1104 7.65587L24.1104 4.92147C24.1104 4.92147 24.1099 4.92147 24.1099 4.92147C24.1099 4.91612 24.1099 4.90998 24.1099 4.90464C24.1029 4.68434 23.9635 4.48887 23.757 4.4109C23.757 4.4109 12.2501 0.035849 12.2501 0.035849C12.1246 -0.0119497 11.986 -0.0119497 11.86 0.035849C11.86 0.035849 0.353171 4.4109 0.353171 4.4109C0.146621 4.48968 0.00749445 4.68434 0.000270844 4.90464C-0.00668573 5.12494 0.120936 5.32789 0.321867 5.41921C0.321867 5.41921 0.321867 5.41921 0.321867 5.41921Z" fill="#EC1E24" fill-rule="evenodd" transform="translate(5.513 -0)" />
    <path d="M1.5831 0.480124L0 0.958111L0 3.74219L4.93151 5.44265L9.86302 3.74219L9.86302 0.960247C9.86302 0.960247 8.19617 0.465437 8.19617 0.465437C7.30629 0.201342 6.39555 0.0469975 5.48159 0.00160217C5.48159 0.00160217 5.47945 3.83351 5.47945 3.83351L4.38356 3.83351C4.38356 3.83351 4.3857 0 4.3857 0C3.44178 0.0437932 2.5008 0.203478 1.5831 0.480124C1.5831 0.480124 1.5831 0.480124 1.5831 0.480124Z" fill="#EC1E24" fill-rule="evenodd" transform="translate(12.637 4.369)" />
    <path d="M2.49492 1.69886C2.67016 1.61127 2.87992 1.62382 3.04393 1.7325C3.04393 1.7325 6.0274 3.71842 6.0274 3.71842C6.0274 3.71842 9.01113 1.7333 9.01113 1.7333C9.14464 1.64412 9.31079 1.61768 9.4657 1.66254C9.4657 1.66254 12.0548 2.18806 12.0548 2.18806C12.0548 2.18806 12.0543 1.12447 12.0543 1.12447C12.0548 1.11459 12.0548 1.10471 12.0548 1.0943C12.0548 1.0943 12.0548 0.000534058 12.0548 0.000534058C12.0548 0.000534058 11.9951 0.000534058 11.9951 0.000534058C11.932 0.123636 11.8231 0.221637 11.6861 0.269168C11.6861 0.269168 6.20666 2.15869 6.20666 2.15869C6.1486 2.17845 6.0876 2.18806 6.0274 2.18806C5.9672 2.18806 5.90646 2.17845 5.84814 2.15815C5.84814 2.15815 0.368686 0.268634 0.368686 0.268634C0.2317 0.221637 0.122807 0.123102 0.0596638 0C0.0596638 0 0 0 0 0L0.000535011 1.12394L0 2.18806C0 2.18806 2.49492 1.69886 2.49492 1.69886Z" fill="#EC1E24" fill-rule="evenodd" transform="translate(11.541 8.749)" />
    <path d="M1.97266 5.32275L3.28767 6.30703L3.28767 0.397076L1.936 0C1.936 0 1.6829 0.252613 1.6829 0.252613C1.70965 0.425383 1.65266 0.601624 1.52665 0.726326C1.52665 0.726326 0 2.23185 0 2.23185L0 6.30703C0 6.30703 1.31502 5.32275 1.31502 5.32275C1.50953 5.17722 1.77815 5.17722 1.97266 5.32275C1.97266 5.32275 1.97266 5.32275 1.97266 5.32275Z" fill="#EC1E24" fill-rule="evenodd" transform="translate(24.144 24.865)" />
    <path d="M13.6985 7.33964C13.6985 6.91159 13.7978 6.5057 13.9746 6.1444C13.9746 6.1444 8.63833 0.671051 8.63833 0.671051C8.52221 0.552488 8.4679 0.388264 8.48716 0.225908C8.48984 0.203478 8.49358 0.180513 8.4992 0.158083C8.4992 0.158083 8.14737 0 8.14737 0C8.14737 0 4.63603 1.13382 4.63603 1.13382C3.51124 1.49698 2.63073 2.34027 2.21977 3.44658C2.21977 3.44658 0.0338774 9.33757 0.0338774 9.33757C-0.027927 9.50553 -0.00438249 9.69299 0.0980897 9.83959C0.200562 9.98619 0.368584 10.074 0.547844 10.074C0.547844 10.074 16.4383 10.074 16.4383 10.074C14.9277 10.074 13.6985 8.84757 13.6985 7.33964C13.6985 7.33964 13.6985 7.33964 13.6985 7.33964Z" fill="#EC1E24" fill-rule="evenodd" transform="translate(1.131 24.926)" />
    <path d="M10.4241 7.76609L10.9078 0.527121L9.05849 0C9.05849 0 5.75343 2.32077 5.75343 2.32077C5.66139 2.38166 5.5549 2.4121 5.44922 2.4121C5.34354 2.4121 5.23732 2.38166 5.14528 2.32024C5.14528 2.32024 2.2592 0.217631 2.2592 0.217631L0 0.659035C0 0.659035 0.474904 7.76609 0.474904 7.76609C0.488281 7.95915 0.603864 8.13272 0.776969 8.21951C0.776969 8.21951 3.49904 9.5779 3.49904 9.5779C3.50011 9.57843 3.50144 9.57924 3.50251 9.57977C3.50251 9.57977 5.20387 10.4289 5.20387 10.4289C5.35772 10.5061 5.54126 10.5061 5.69376 10.4289C5.69376 10.4289 7.39565 9.57977 7.39565 9.57977C7.39726 9.57924 7.39886 9.5779 7.39993 9.57737C7.39993 9.57737 10.1215 8.21951 10.1215 8.21951C10.2954 8.13272 10.411 7.95915 10.4241 7.76609C10.4241 7.76609 10.4241 7.76609 10.4241 7.76609Z" fill="#EC1E24" fill-rule="evenodd" transform="translate(12.12 11.259)" />
    <path d="M2.0449 3.82817C2.0449 3.82817 2.0449 1.64064 2.0449 1.64064C2.0449 0.736207 1.30752 0 0.40106 0C0.40106 0 0.365475 0 0.365475 0L0 5.46881C0 5.46881 0.40106 5.46881 0.40106 5.46881C1.30752 5.46881 2.0449 4.73287 2.0449 3.82817C2.0449 3.82817 2.0449 3.82817 2.0449 3.82817Z" fill="#EC1E24" fill-rule="evenodd" transform="translate(23.743 12.031)" />
    <path d="M1.64384 0C0.737639 0 0 0.736207 0 1.64064C0 1.64064 0 3.82817 0 3.82817C0 4.73287 0.737639 5.46881 1.64384 5.46881C1.64384 5.46881 2.04436 5.46881 2.04436 5.46881L1.67889 0C1.67889 0 1.64384 0 1.64384 0Z" fill="#EC1E24" fill-rule="evenodd" transform="translate(9.349 12.031)" />
  </g>
</svg>