<?xml version="1.0" encoding="utf-8"?>
<svg width="41" height="41" viewBox="0 0 41 41" fill="none" xmlns="http://www.w3.org/2000/svg">
  <g>
    <rect width="41" height="41" fill="#EC1E24" fill-rule="evenodd" />
    <path d="M0 3.74765L0 13.136L20.7883 13.136L20.7883 3.74765L17.0413 0L12.621 0L12.7113 1.99939C12.7113 1.99939 14.1207 7.13912 14.1207 7.13912C14.1788 7.3512 14.1242 7.57829 13.9759 7.74067C13.9759 7.74067 10.865 11.1475 10.865 11.1475C10.7436 11.2802 10.5721 11.3558 10.3922 11.3558C10.2124 11.3558 10.0408 11.2802 9.91943 11.1475C9.91943 11.1475 6.80856 7.74067 6.80856 7.74067C6.66025 7.5783 6.60559 7.3512 6.66378 7.13913C6.66378 7.13913 8.07636 1.99939 8.07636 1.99939L8.16669 1.90735e-06L3.74637 1.90735e-06L0 3.74765ZM15.1348 6.40062C15.1348 6.04681 15.4216 5.75999 15.7754 5.75999C15.7754 5.75999 19.2175 5.75999 19.2175 5.75999C19.5713 5.75999 19.8581 6.04681 19.8581 6.40062C19.8581 6.40062 19.8581 8.99451 19.8581 8.99451C19.8721 9.84752 19.4251 10.6418 18.6886 11.0724C17.9522 11.503 17.0407 11.503 16.3042 11.0724C15.5678 10.6418 15.1207 9.84752 15.1348 8.99451C15.1348 8.99451 15.1348 6.40062 15.1348 6.40062Z" fill="#FFFFFF" transform="translate(10.106 24.462)" />
    <path d="M1.08073 3.034C1.67731 3.03329 2.16076 2.54985 2.16147 1.95327C2.16147 1.95327 2.16147 0 2.16147 0L0 0C0 0 0 1.95327 0 1.95327C0.000289917 2.54988 0.483894 3.03358 1.08062 3.034C1.08062 3.034 1.08073 3.034 1.08073 3.034Z" fill="#FFFFFF" fill-rule="evenodd" transform="translate(26.522 31.503)" />
    <path d="M0 4.68553L35.875 4.68553L35.875 0L0 0L0 4.68553ZM9.14173 2.11973C9.17261 2.03977 9.22073 1.96759 9.28267 1.90833C9.34158 1.85055 9.41122 1.80485 9.48767 1.7738C9.6045 1.7226 9.7344 1.70916 9.85923 1.73536C9.94129 1.75317 10.0194 1.78573 10.0899 1.83145C10.1234 1.8551 10.1555 1.88077 10.186 1.90833C10.2444 1.97042 10.2921 2.04188 10.3269 2.11973C10.3577 2.19713 10.373 2.27986 10.3717 2.36317C10.3738 2.40628 10.3695 2.44946 10.3589 2.4913C10.3512 2.5305 10.3405 2.56905 10.3269 2.60661C10.308 2.64637 10.2866 2.68488 10.2628 2.72192C10.2412 2.75696 10.2154 2.78923 10.186 2.81801C10.1555 2.84557 10.1234 2.87124 10.0899 2.89489C10.0194 2.94061 9.94129 2.97317 9.85923 2.99098C9.8169 2.99842 9.77407 3.0027 9.73111 3.0038C9.51678 3.00598 9.31585 2.89975 9.19695 2.72141C9.07805 2.54307 9.05728 2.31674 9.14173 2.11973C9.14173 2.11973 9.14173 2.11973 9.14173 2.11973ZM6.57918 2.11991C6.61157 2.04074 6.65949 1.96886 6.72012 1.90851C6.74788 1.87796 6.78031 1.85201 6.81621 1.83163C6.84889 1.80623 6.88574 1.78672 6.92512 1.77398C6.96326 1.75447 7.0044 1.74148 7.04684 1.73554C7.17171 1.71002 7.3014 1.72344 7.4184 1.77397C7.49485 1.80503 7.56449 1.85073 7.6234 1.90851C7.68187 1.97059 7.72951 2.04206 7.76434 2.11991C7.79519 2.19731 7.81043 2.28004 7.80918 2.36335C7.81128 2.40646 7.80696 2.44964 7.79637 2.49148C7.78868 2.53068 7.77797 2.56923 7.76434 2.60679C7.74545 2.64655 7.72406 2.68506 7.70027 2.7221C7.67866 2.75714 7.65284 2.78941 7.6234 2.81819C7.56449 2.87597 7.49485 2.92167 7.4184 2.95272C7.33898 2.98504 7.25428 3.00242 7.16856 3.00397C7.12771 3.00288 7.08702 2.99859 7.04684 2.99116C7.00441 2.98522 6.96327 2.97223 6.92512 2.95272C6.88574 2.93998 6.84889 2.92047 6.81621 2.89507C6.78032 2.87469 6.74788 2.84874 6.72012 2.81819C6.69055 2.78777 6.66275 2.75569 6.63684 2.7221C6.63684 2.7221 6.57918 2.60679 6.57918 2.60679C6.57918 2.60679 6.54074 2.49147 6.54074 2.49147C6.53331 2.44914 6.52902 2.40631 6.52793 2.36335C6.52894 2.27963 6.54635 2.19693 6.57918 2.11991C6.57918 2.11991 6.57918 2.11991 6.57918 2.11991ZM4.01668 2.11973C4.04908 2.04056 4.097 1.96867 4.15762 1.90832C4.40917 1.66405 4.80935 1.66405 5.0609 1.90832C5.11938 1.97041 5.16702 2.04187 5.20184 2.11973C5.2327 2.19712 5.24794 2.27985 5.24668 2.36316C5.24878 2.40627 5.24446 2.44945 5.23387 2.49129C5.22618 2.5305 5.21547 2.56905 5.20184 2.6066C5.20184 2.6066 5.14418 2.72191 5.14418 2.72191C5.11828 2.75551 5.09047 2.78759 5.0609 2.81801C5.00199 2.87579 4.93235 2.92149 4.8559 2.95254C4.77648 2.98486 4.69178 3.00224 4.60606 3.00379C4.43812 3.00247 4.27729 2.93584 4.15762 2.81801C4.12805 2.78759 4.10025 2.75551 4.07434 2.72192C4.05258 2.6848 4.03332 2.64628 4.01668 2.6066C4.001 2.56918 3.98815 2.53063 3.97824 2.49129C3.97081 2.44896 3.96652 2.40613 3.96543 2.36317C3.96644 2.27945 3.98385 2.19675 4.01668 2.11973C4.01668 2.11973 4.01668 2.11973 4.01668 2.11973ZM1.45423 2.11973C1.48512 2.03977 1.53324 1.96759 1.59517 1.90833C1.65408 1.85055 1.72372 1.80485 1.80017 1.7738C1.917 1.7226 2.0469 1.70916 2.17173 1.73536C2.25379 1.75317 2.33193 1.78573 2.40236 1.83145C2.43592 1.8551 2.46801 1.88077 2.49845 1.90833C2.55693 1.97041 2.60457 2.04188 2.63939 2.11973C2.67025 2.19713 2.68549 2.27986 2.68423 2.36317C2.68633 2.40628 2.68201 2.44946 2.67142 2.49129C2.66373 2.5305 2.65302 2.56905 2.63939 2.60661C2.6205 2.64637 2.59911 2.68488 2.57533 2.72192C2.55371 2.75696 2.52789 2.78923 2.49845 2.81801C2.46801 2.84557 2.43592 2.87124 2.40236 2.89489C2.33193 2.94061 2.25379 2.97317 2.17173 2.99098C2.1294 2.99842 2.08657 3.0027 2.04361 3.00379C1.82928 3.00598 1.62835 2.89975 1.50945 2.72141C1.39056 2.54307 1.36978 2.31674 1.45423 2.11973C1.45423 2.11973 1.45423 2.11973 1.45423 2.11973Z" fill="#FFFFFF" transform="translate(2.563 3.402)" />
    <path d="M0 4.74127C0 2.12274 2.12274 0 4.74127 0C7.35979 0 9.48253 2.12274 9.48253 4.74127C9.48253 7.35979 7.35979 9.48253 4.74127 9.48253C2.12274 9.48253 0 7.35979 0 4.74127Z" fill="#FFFFFF" fill-rule="evenodd" transform="translate(15.759 11.476)" />
    <path d="M9.77516e-05 19.3378L6.26221 19.3378C6.26221 19.3378 6.26221 18.5748 6.26221 18.5748C6.26221 18.4051 6.32969 18.2421 6.44981 18.122C6.44981 18.122 10.5703 13.9989 10.5703 13.9989C10.6904 13.8788 10.8533 13.8113 11.0232 13.8112C11.0232 13.8112 24.8498 13.8112 24.8498 13.8112C25.0197 13.8113 25.1827 13.8788 25.3028 13.9989C25.3028 13.9989 29.4252 18.122 29.4252 18.122C29.5453 18.2421 29.6129 18.405 29.6129 18.5749C29.6129 18.5749 29.6129 19.3379 29.6129 19.3379L35.875 19.3379L35.875 0L0 0L9.77516e-05 19.3378ZM17.9376 0.823616C21.2634 0.823616 23.9594 3.5197 23.9594 6.84549C23.9594 10.1713 21.2634 12.8674 17.9376 12.8674C14.6118 12.8674 11.9157 10.1713 11.9157 6.84549C11.9211 3.52215 14.6145 0.82997 17.9377 0.826178C17.9377 0.826178 17.9376 0.823616 17.9376 0.823616Z" fill="#FFFFFF" transform="translate(2.563 9.369)" />
    <path d="M0 4.39725L2.39914 7.02509L4.79828 4.39725L3.58942 0L1.20886 0L0 4.39725Z" fill="#FFFFFF" fill-rule="evenodd" transform="translate(18.101 27.202)" />
    <path d="M0.0653439 0L0 1.45934L2.01669 1.45934L1.95134 0L0.0653439 0Z" fill="#FFFFFF" fill-rule="evenodd" transform="translate(19.492 24.462)" />
  </g>
</svg>