<?xml version="1.0" encoding="utf-8"?>
<svg width="38.843" height="33.701" viewBox="0 0 38.843 33.701" fill="none" xmlns="http://www.w3.org/2000/svg">
  <g transform="translate(0 -0)">
    <path d="M0 0L1.25 0L1.25 7.23937L0 7.23937L0 0Z" fill="#EC1E24" fill-rule="evenodd" transform="translate(29.38 26.462)" />
    <path d="M2.71549 4.79313C2.71549 4.79313 2.71549 3.28296 2.71549 3.28296C2.71549 2.96947 2.97097 2.715 3.28473 2.715C3.28473 2.715 15.7947 2.715 15.7947 2.715C16.109 2.715 16.3633 2.96947 16.3633 3.28296C16.3633 3.28296 16.3633 4.79313 16.3633 4.79313L19.0787 4.79313C19.0787 4.79313 19.0787 1.88366 19.0787 1.88366C19.0787 0.843475 18.2355 0 17.1953 0C17.1953 0 1.88341 0 1.88341 0C0.843172 0 0 0.843475 0 1.88366C0 1.88366 0 4.79313 0 4.79313L2.71549 4.79313Z" fill="#EC1E24" fill-rule="evenodd" transform="translate(6.353 0)" />
    <path d="M0 0.00531769L0.0434799 5.13525C0.0434799 5.13525 1.24775 5.13525 1.24775 5.13525C1.25457 3.41179 1.42587 1.69081 1.76367 0C1.76367 0 0 0.00531769 0 0.00531769Z" fill="#EC1E24" fill-rule="evenodd" transform="translate(22.191 16.164)" />
    <path d="M0.587282 0.452088C0.852312 0.656153 1.10519 0.874296 1.35313 1.10188C1.35313 1.10188 1.35313 0 1.35313 0L0 0C0 0 0.587282 0.452088 0.587282 0.452088Z" fill="#EC1E24" fill-rule="evenodd" transform="translate(30.181 6.043)" />
    <path d="M0 0.629078L0 0.313902C0 0.22732 0.0305319 0.153543 0.0931711 0.0920506C0.15356 0.030859 0.227977 0 0.315597 0L2.43175 0C2.51952 0 2.59394 0.030859 2.65403 0.0920506C2.71667 0.153543 2.7475 0.22732 2.7475 0.313902L2.7475 4.81617C2.7475 4.90253 2.71667 4.97646 2.65403 5.03795C2.59394 5.09914 2.51952 5.13 2.43175 5.13L0.315597 5.13C0.227977 5.13 0.15356 5.09914 0.0931711 5.03795C0.0305319 4.97646 0 4.90253 0 4.81617L0 0.629078Z" fill="#EC1E24" fill-rule="evenodd" transform="translate(6.708 16.169)" />
    <path d="M5.35916 11C5.35916 11 5.35916 9.51826 5.35916 9.51826C5.36265 8.7318 6.06766 8.09587 6.939 8.09361C6.939 8.09361 9.08033 8.09361 9.08033 8.09361C9.95441 8.09614 10.6573 8.73207 10.6599 9.51826C10.6599 9.51826 10.6599 11 10.6599 11L21.056 11C21.056 11 21.056 9.19083 21.056 9.19083C21.056 8.58359 21.6005 8.09068 22.2754 8.0902C22.2754 8.0902 24.3611 8.0902 24.3611 8.0902C24.5658 7.36247 24.7933 6.64138 25.0727 5.94002C25.9038 3.76203 27.4076 1.84414 29.4067 0.412115C29.4067 0.412115 30 0 30 0L0 0L0 6.58762L4.65325 11L5.35916 11Z" fill="#EC1E24" fill-rule="evenodd" transform="translate(0 6.021)" />
    <path d="M19.1476 12.3101C19.1476 12.3101 22.8125 8.64322 22.8125 8.64322C22.7467 8.03164 22.702 7.41863 22.6766 6.80382C22.6766 6.80382 21.4028 6.80382 21.4028 6.80382C20.7379 6.80322 20.1982 6.26347 20.1977 5.59848C20.1977 5.59848 20.1977 3.61452 20.1977 3.61452L9.91943 3.61452C9.91943 3.61452 9.91943 5.24075 9.91943 5.24075C9.91733 6.10206 9.21967 6.8 8.35755 6.8015C8.35755 6.8015 6.23606 6.8015 6.23606 6.8015C5.37341 6.8 4.67575 6.10243 4.6738 5.24075C4.6738 5.24075 4.6738 3.61452 4.6738 3.61452C4.6738 3.61452 3.70399 3.61452 3.70399 3.61452C3.53286 3.61475 3.36817 3.54516 3.24863 3.42068C3.24863 3.42068 0 0 0 0L0 13.495L19.1476 13.495L19.1476 12.3101Z" fill="#EC1E24" fill-rule="evenodd" transform="translate(0.788 15.744)" />
    <path d="M2.87992 1.33779C2.7808 0.895653 2.70559 0.447977 2.62873 0C2.62873 0 0 2.63093 0 2.63093L0 6.1925L3.96562 6.1925C3.96562 6.1925 2.87992 1.33779 2.87992 1.33779Z" fill="#EC1E24" fill-rule="evenodd" transform="translate(21.185 25.942)" />
    <path d="M1.33399 0C1.25892 0.452335 1.1831 0.905121 1.08546 1.35116C1.08546 1.35116 0 6.20437 0 6.20437L3.98 6.20437L3.98 2.6421C3.98 2.6421 1.33399 0 1.33399 0Z" fill="#EC1E24" fill-rule="evenodd" transform="translate(34.863 25.929)" />
    <path d="M6.18501 3.78488C5.42974 2.31523 4.36687 1.02289 3.06779 0C1.79616 1.00251 0.750246 2.26167 0 3.69611C0 3.69611 0.00817299 3.70023 0.00817299 3.70023C1.92124 4.76328 4.24179 4.79541 6.18501 3.78488C6.18501 3.78488 6.18501 3.78488 6.18501 3.78488Z" fill="#EC1E24" fill-rule="evenodd" transform="translate(26.935 7.486)" />
    <path d="M2.17563 0L0 0L0.475447 2.12687L2.17563 2.12687L2.17563 0Z" fill="#EC1E24" fill-rule="evenodd" transform="translate(25.955 30.006)" />
    <path d="M0 0L2.905 0L2.905 2.905L0 2.905L0 0Z" fill="#EC1E24" fill-rule="evenodd" transform="translate(28.553 17.805)" />
    <path d="M9.20836 0.675626C9.13711 0.477501 9.05648 0.286251 8.97711 0.093751C6.69448 1.26691 3.97865 1.2318 1.72711 0C1.63336 0.222501 1.53961 0.445624 1.45898 0.675625C-0.136209 5.17735 -0.430159 10.0376 0.610859 14.6987C0.610859 14.6987 1.00211 16.4487 1.00211 16.4487L3.45711 16.4487L3.45711 12.9037L7.20711 12.9037L7.20711 16.4481L9.66273 16.4481C9.66273 16.4481 10.054 14.6981 10.054 14.6981C11.0954 10.0373 10.8023 5.17746 9.20835 0.675615C9.20835 0.675615 9.20836 0.675626 9.20836 0.675626ZM8.03746 9.02564C8.03746 9.37082 7.75764 9.65064 7.41246 9.65064C7.41246 9.65064 3.25683 9.65064 3.25683 9.65064C2.91166 9.65064 2.63184 9.37082 2.63184 9.02564C2.63184 9.02564 2.63184 4.87189 2.63184 4.87189C2.63184 4.52671 2.91166 4.24689 3.25683 4.24689C3.25683 4.24689 7.41246 4.24689 7.41246 4.24689C7.75764 4.24689 8.03746 4.52671 8.03746 4.87189C8.03746 4.87189 8.03746 9.02564 8.03746 9.02564Z" fill="#EC1E24" transform="translate(24.671 12.308)" />
    <path d="M0 0L0 2.12687L1.70033 2.12687L2.17562 0L0 0Z" fill="#EC1E24" fill-rule="evenodd" transform="translate(31.88 30.006)" />
  </g>
</svg>