<?xml version="1.0" encoding="utf-8"?>
<svg width="50" height="33" viewBox="0 0 50 33" fill="none" xmlns="http://www.w3.org/2000/svg">
  <g>
    <path d="M24.6452 0L0 8.21435C0 8.21435 8.53555 10.9604 8.53555 10.9604C8.59231 10.9678 8.64764 10.9838 8.69969 11.0079C8.69969 11.0079 24.6452 16.1676 24.6452 16.1676C24.6452 16.1676 40.5908 11.0079 40.5908 11.0079C40.6424 10.9828 40.6979 10.9667 40.7549 10.9604C40.7549 10.9604 49.2904 8.19061 49.2904 8.19061L24.6452 0Z" fill="#EC1E24" fill-rule="evenodd" />
    <path d="M15.4218 4.94602C15.3362 4.95766 15.2495 4.95766 15.1639 4.94602C15.1639 4.94602 0 0 0 0C0 0 0 9.17982 0 9.17982C5.85828 9.43968 11.3878 11.9934 15.4218 16.3021C19.4573 12 24.9817 9.44743 30.8358 9.17982C30.8358 9.17982 30.8358 1.90735e-06 30.8358 1.90735e-06C30.8358 1.90735e-06 15.6876 4.91437 15.6876 4.91437C15.6008 4.93701 15.5114 4.94767 15.4218 4.94602C15.4218 4.94602 15.4218 4.94602 15.4218 4.94602Z" fill="#EC1E24" fill-rule="evenodd" transform="translate(9.223 13.034)" />
    <path d="M4.53967 16.9193C4.99968 16.3478 5.1638 15.5888 4.98174 14.875C4.79968 14.1611 4.29315 13.5774 3.61733 13.3028C3.61733 13.3028 3.61733 4.76837e-06 3.61733 4.76837e-06L1.8899 0.55396C1.8899 0.55396 1.8899 13.3028 1.8899 13.3028C1.03331 13.6662 0.469288 14.5073 0.451675 15.4474C0.450424 15.9828 0.635921 16.5012 0.975441 16.9115C0.975441 16.9115 0.014019 21.9288 0.014019 21.9288C-0.027565 22.1255 0.0245323 22.3307 0.154716 22.4827C0.278389 22.6385 0.465385 22.7288 0.662785 22.728C0.662785 22.728 4.79768 22.728 4.79768 22.728C4.99508 22.7288 5.18208 22.6385 5.30575 22.4827C5.43594 22.3306 5.48803 22.1255 5.44645 21.9287C5.44645 21.9287 4.53967 16.9193 4.53967 16.9193Z" fill="#EC1E24" fill-rule="evenodd" transform="translate(44.54 10.272)" />
  </g>
</svg>