<?xml version="1.0" encoding="utf-8"?>
<svg width="38.438" height="35.554" viewBox="0 0 38.438 35.554" fill="none" xmlns="http://www.w3.org/2000/svg">
  <path d="M38.4068 22.8328C38.4068 22.8328 31.2252 22.8328 31.2252 22.8328C31.155 19.2873 30.5873 15.7386 29.5322 12.2607C34.3688 13.494 38.0239 17.7142 38.4068 22.8328C38.4068 22.8328 38.4068 22.8328 38.4068 22.8328ZM28.2435 12.0091C27.7096 11.9349 27.1653 11.896 26.6117 11.8961C26.0582 11.8961 25.5138 11.9349 24.9808 12.0091C23.8424 15.562 23.2362 19.1767 23.1636 22.8327C23.1636 22.8327 30.0605 22.8327 30.0605 22.8327C29.9881 19.1767 29.3818 15.562 28.2435 12.0091C28.2435 12.0091 28.2435 12.0091 28.2435 12.0091ZM14.8174 22.8328C15.2001 17.7142 18.8553 13.494 23.6917 12.2607C22.6367 15.7385 22.0691 19.2873 21.999 22.8328C21.999 22.8328 14.8174 22.8328 14.8174 22.8328ZM6.75439 0.703644C6.75439 0.315994 7.06943 0 7.45715 0C7.45715 0 16.6698 0 16.6698 0C17.0576 0 17.3735 0.315994 17.3735 0.703644C17.3735 0.703644 17.3735 3.5545 17.3735 3.5545L16.2351 3.5545C16.2351 3.5545 16.2351 2.83604 16.2351 2.83604C16.2351 2.0862 15.6255 1.47664 14.8756 1.47664C14.8756 1.47664 9.2514 1.47664 9.2514 1.47664C8.5025 1.47664 7.8927 2.08627 7.8927 2.83612C7.8927 2.83612 7.8927 3.55458 7.8927 3.55458L6.75439 3.55458C6.75439 3.55458 6.75439 0.703644 6.75439 0.703644ZM0.744965 4.70941C0.744965 4.70941 23.383 4.70941 23.383 4.70941C23.7937 4.70941 24.1279 5.0435 24.1279 5.45438C24.1279 5.45438 24.1279 10.9804 24.1279 10.9804C23.1232 11.1759 22.1595 11.4869 21.2522 11.8994C21.2522 11.8994 15.4786 11.8994 15.4786 11.8994C15.308 11.8994 15.1453 11.9753 15.0356 12.1065C14.9261 12.2384 14.8797 12.4117 14.9102 12.58C14.9409 12.7491 14.9564 12.9231 14.9564 13.0972C14.9565 14.6917 13.6588 15.9893 12.0634 15.9893C10.4689 15.9893 9.17126 14.6917 9.17126 13.0972C9.17136 12.9231 9.18616 12.7491 9.21747 12.5792C9.24725 12.4108 9.20178 12.2376 9.09207 12.1065C8.98236 11.9753 8.81979 11.8994 8.64908 11.8994C8.64908 11.8994 0 11.8994 0 11.8994C0 11.8994 0 5.45438 0 5.45438C0.000152588 5.04358 0.334167 4.70949 0.744965 4.70941C0.744965 4.70941 0.744965 4.70941 0.744965 4.70941ZM0 22.4747C-9.15527e-05 22.8847 0.334076 23.2188 0.744812 23.2188C0.744812 23.2188 13.639 23.2188 13.639 23.2188C13.8007 19.011 15.9745 15.3112 19.2236 13.0543C19.2236 13.0543 16.1112 13.0543 16.1112 13.0543C16.1112 13.0543 16.1112 13.0972 16.1112 13.0972C16.1112 15.3286 14.2956 17.1442 12.0634 17.1442C9.832 17.1442 8.01645 15.3285 8.01639 13.0972C8.01639 13.0824 8.01645 13.0683 8.01645 13.0543C8.01645 13.0543 0 13.0543 0 13.0543C0 13.0543 0 22.4747 0 22.4747ZM14.7866 23.9875C14.7866 23.9875 21.9938 23.9875 21.9938 23.9875C22.0334 27.6658 22.6082 31.4299 23.707 35.1923C18.6662 33.9145 14.9053 29.3924 14.7866 23.9875C14.7866 23.9875 14.7866 23.9875 14.7866 23.9875ZM24.9882 35.4414C25.5193 35.5149 26.0613 35.5536 26.6115 35.5536C27.1625 35.5536 27.7047 35.5149 28.2357 35.4414C29.4137 31.5991 30.0234 27.7731 30.0639 23.9875C30.0639 23.9875 23.1602 23.9875 23.1602 23.9875C23.2005 27.7731 23.8102 31.599 24.9882 35.4414C24.9882 35.4414 24.9882 35.4414 24.9882 35.4414ZM29.5176 35.1923C30.6163 31.4299 31.1912 27.6659 31.2308 23.9875C31.2308 23.9875 38.4381 23.9875 38.4381 23.9875C38.3193 29.3924 34.5585 33.9146 29.5176 35.1923C29.5176 35.1923 29.5176 35.1923 29.5176 35.1923Z" fill="#EC1E24" fill-rule="evenodd" transform="translate(0 -0)" />
</svg>