<?xml version="1.0" encoding="utf-8"?>
<svg width="29" height="34" viewBox="0 0 29 34" fill="none" xmlns="http://www.w3.org/2000/svg">
  <g>
    <path d="M22.4908 2.93813C22.4908 2.51101 22.6017 2.11471 22.7924 1.76687C22.5602 1.56149 22.3065 1.37533 22.0404 1.21347C21.3115 0.762413 20.4961 0.474871 19.6494 0.353981C19.6494 0.353981 17.1624 0 17.1624 0C17.1624 0 17.1624 0.480227 17.1624 0.480227C17.1624 1.67021 16.5836 2.77522 15.6073 3.43049C14.6652 4.07325 13.565 4.40948 12.4286 4.40948C11.2912 4.40948 10.1907 4.07325 9.25151 3.43049C8.27335 2.77522 7.69467 1.67021 7.69467 0.480227C7.69467 0.480227 7.69467 0 7.69467 0C7.69467 0 5.20819 0.353981 5.20819 0.353981C4.36194 0.474871 3.54532 0.762413 2.818 1.21347C1.07121 2.28308 0 4.2047 0 6.27765C0 6.27765 0 8.9452 0 8.9452C0 8.9452 22.8094 8.9452 22.8094 8.9452C22.608 8.59118 22.4908 8.18271 22.4908 7.74353C22.4908 7.74353 22.4908 2.93813 22.4908 2.93813Z" fill="#EC1E24" fill-rule="evenodd" transform="translate(0 25.055)" />
    <path d="M8.06312 9.08086C10.988 9.0446 13.3189 8.34823 14.7807 7.78331C14.7807 7.78331 17.5915 4.49726 15.6801 1.91367C13.7693 -0.669073 11.4849 0.35197 8.18785 2.20732C7.79012 2.4305 7.40559 2.58019 7.03471 2.67693C7.05211 2.18395 6.98619 1.00086 6.03225 0.147484C5.7837 -0.0685365 5.41087 -0.0446798 5.19876 0.202089C4.97886 0.454101 5.00819 0.832887 5.24991 1.04857C5.96212 1.6857 5.84332 2.7194 5.84332 2.73685C5.84332 2.73685 5.84332 2.81494 5.84332 2.81494C3.70685 2.80318 1.99682 1.4872 0.494106 3.31964C-0.731709 4.81549 0.688058 7.45871 0.860486 7.77746C2.37648 8.35969 4.88414 9.11711 8.05217 9.07479C8.05217 9.07479 8.06312 9.08086 8.06312 9.08086Z" fill="#EC1E24" fill-rule="evenodd" transform="translate(4.365 0)" />
    <path d="M1.78143 8.05008C1.78143 8.05008 1.79327 8.05008 1.79327 8.05008C1.87612 11.0238 3.53327 13.6191 5.92429 14.9347C5.92429 14.9347 5.92429 17.0073 5.92429 17.0073C5.92429 17.7943 6.30898 18.5212 6.95408 18.9597C7.71755 19.4764 8.59939 19.7347 9.47531 19.7347C10.3512 19.7347 11.2331 19.4764 11.9965 18.9597C12.6416 18.5212 13.0263 17.7943 13.0263 17.0073C13.0263 17.0073 13.0263 14.9828 13.0263 14.9828C13.6951 14.6283 14.3106 14.1778 14.8669 13.6251C16.3525 12.1472 17.1692 10.1647 17.1692 8.05008C17.6604 8.05008 18.1043 7.84583 18.4239 7.52142C18.7435 7.19701 18.9447 6.74645 18.9447 6.24782C18.9447 5.46084 18.4535 4.794 17.761 4.5537C17.761 4.5537 17.761 3.24406 17.761 3.24406C17.761 2.09663 17.5302 0.997249 17.1218 0C17.11 0.0120153 17.0922 0.0360451 17.0863 0.0420523C17.0863 0.0420523 16.891 0.270338 16.891 0.270338C16.891 0.270338 16.6129 0.378473 16.6129 0.378473C14.3284 1.26158 11.9255 1.72416 9.48714 1.7542C9.48714 1.7542 9.23857 1.7542 9.23857 1.7542C6.71143 1.7542 4.22571 1.29162 1.85837 0.378473C1.85837 0.378473 1.71041 0.318398 1.71041 0.318398C1.37898 1.23154 1.18367 2.21677 1.18367 3.24406C1.18367 3.24406 1.18367 4.5537 1.18367 4.5537C0.491225 4.794 0 5.46084 0 6.24782C0 6.74645 0.201225 7.19701 0.520816 7.52142C0.840408 7.84582 1.28429 8.05008 1.77551 8.05008C1.77551 8.05008 1.78143 8.05008 1.78143 8.05008ZM6.4867 3.989C7.53425 3.68261 8.54038 3.23205 9.47548 2.64331C11.3457 3.82078 13.5 4.44557 15.7016 4.44557C15.7016 4.44557 15.9857 4.44557 15.9857 4.44557C15.9857 4.44557 15.9857 8.05008 15.9857 8.05008C15.9857 9.84032 15.2932 11.5104 14.0385 12.766C12.7838 14.0156 11.1445 14.6824 9.35711 14.6584C5.83568 14.5923 2.97119 11.5224 2.97119 7.80978C2.97119 7.80978 2.97119 4.44557 2.97119 4.44557C2.97119 4.44557 3.25527 4.44557 3.25527 4.44557C4.35609 4.44557 5.44507 4.28937 6.49262 3.989C6.49262 3.989 6.4867 3.989 6.4867 3.989Z" fill="#EC1E24" transform="translate(2.954 8.528)" />
    <path d="M0.800066 6.7407C0.800066 6.7407 0.800066 9.82286 0.800066 9.82286C0.98938 9.76829 1.18447 9.74413 1.39335 9.74413C1.39335 9.74413 3.16817 9.74413 3.16817 9.74413C3.58234 9.74413 3.97889 9.81638 4.35234 9.95447C4.35234 9.95447 4.35234 6.7407 4.35234 6.7407C5.67761 3.26268 4.15073 3.5684 3.26137 2.07322C2.75423 1.21964 2.8469 0 2.8469 0C2.61748 0.282354 0.362432 1.38189 0.0317898 3.98892C-0.152426 5.43732 0.511333 6.39172 0.800066 6.73374C0.800066 6.73374 0.800066 6.7407 0.800066 6.7407Z" fill="#EC1E24" fill-rule="evenodd" transform="translate(23.464 15.845)" />
    <path d="M2.95978 0C2.95978 0 1.18327 0 1.18327 0C0.532654 0 0 0.540821 0 1.20149C0 1.20149 0 6.0075 0 6.0075C0 6.66828 0.532654 7.20903 1.18327 7.20903C1.18327 7.20903 2.95978 7.20903 2.95978 7.20903C4.26692 7.20903 5.32653 6.13372 5.32653 4.80552C5.32653 4.80552 5.32653 2.40358 5.32653 2.40358C5.32653 1.07531 4.26692 0 2.95978 0C2.95978 0 2.95978 0 2.95978 0Z" fill="#EC1E24" fill-rule="evenodd" transform="translate(23.673 26.791)" />
  </g>
</svg>