<?xml version="1.0" encoding="utf-8"?>
<svg width="32.924" height="33.941" viewBox="0 0 32.924 33.941" fill="none" xmlns="http://www.w3.org/2000/svg">
  <g transform="translate(0 -0)">
    <g>
      <path d="M8.8524 18.8857C9.26073 19.6653 10.2259 19.9676 11.0054 19.5592C11.785 19.1509 12.0873 18.1857 11.6789 17.4062C11.6789 17.4062 3.00846 0.855431 3.00846 0.855431C2.60013 0.0758859 1.63498 -0.226387 0.855432 0.181947C0.0758867 0.59028 -0.226386 1.55543 0.181947 2.33498C0.181947 2.33498 8.8524 18.8857 8.8524 18.8857Z" fill="#EC1E24" fill-rule="evenodd" transform="translate(15.041 0)" />
      <path d="M10.7785 7.58255C10.7785 7.58255 7.09819 0.550735 7.09819 0.550735C6.83304 0.0469475 6.21789 -0.143961 5.7141 0.115888C5.7141 0.115888 0.548947 2.82043 0.548947 2.82043C0.0451587 3.08559 -0.14575 3.70074 0.119401 4.20452C0.119401 4.20452 3.7997 11.2363 3.7997 11.2363C4.06486 11.7401 4.68001 11.931 5.18379 11.6659C5.18379 11.6659 10.3489 8.96135 10.3489 8.96135C10.8474 8.7015 11.0436 8.08104 10.7785 7.58256C10.7785 7.58256 10.7785 7.58255 10.7785 7.58255Z" fill="#EC1E24" fill-rule="evenodd" transform="translate(0 12.109)" />
      <path d="M0.0778332 2.7423C0.178589 2.90139 0.348286 2.98624 0.523287 2.98624C0.618742 2.98624 0.714197 2.95973 0.799046 2.9067C0.799046 2.9067 3.89602 0.965789 3.89602 0.965789C4.13996 0.812002 4.2142 0.488517 4.06041 0.244577C3.90662 0.000638008 3.58314 -0.0736046 3.3392 0.0801835C3.3392 0.0801835 0.242228 2.02109 0.242228 2.02109C-0.00171089 2.17488 -0.070652 2.49306 0.0778332 2.7423C0.0778332 2.7423 0.0778332 2.7423 0.0778332 2.7423Z" fill="#EC1E24" fill-rule="evenodd" transform="translate(26.26 4.116)" />
      <path d="M0.280437 4.21424C0.359983 4.25667 0.439528 4.27258 0.524376 4.27258C0.709982 4.27258 0.890284 4.17182 0.985739 3.99682C0.985739 3.99682 2.69862 0.767272 2.69862 0.767272C2.83119 0.512727 2.73574 0.194545 2.48119 0.0619692C2.22665 -0.0759096 1.90846 0.024848 1.77589 0.279393C1.77589 0.279393 0.0630112 3.50894 0.0630112 3.50894C-0.0748672 3.76348 0.020586 4.07636 0.280436 4.21424C0.280436 4.21424 0.280437 4.21424 0.280437 4.21424Z" fill="#EC1E24" fill-rule="evenodd" transform="translate(24.371 1.069)" />
      <path d="M0.000356674 0.673841C0.0109615 0.954901 0.244295 1.17763 0.520052 1.17763C0.520052 1.17763 0.541265 1.17763 0.541265 1.17763C0.541265 1.17763 4.18975 1.04505 4.18975 1.04505C4.47612 1.03445 4.70415 0.790507 4.69354 0.504144C4.68293 0.217779 4.43899 -0.0102501 4.15263 0.000354767C4.15263 0.000354767 0.504145 0.132931 0.504145 0.132931C0.217781 0.143538 -0.0102501 0.387476 0.000356674 0.673841C0.000356674 0.673841 0.000356674 0.673841 0.000356674 0.673841Z" fill="#EC1E24" fill-rule="evenodd" transform="translate(27.016 8.391)" />
      <path d="M7.90681 0C7.90681 0 5.23409 0 5.23409 0C5.06969 0 4.92121 0.0742416 4.82045 0.206818C4.82045 0.206818 2.9803 2.60379 2.9803 2.60379C2.14773 1.98333 1.11894 1.61212 0 1.61212C0 1.61212 0 5.89697 0 5.89697C0 6.28939 0.31818 6.60758 0.710606 6.60758C0.710606 6.60758 4.99545 6.60758 4.99545 6.60758C4.99545 5.34546 4.52348 4.1947 3.74924 3.3144C3.74924 3.3144 5.49393 1.0447 5.49393 1.0447C5.49393 1.0447 7.90681 1.0447 7.90681 1.0447C8.19318 1.0447 8.42651 0.811367 8.42651 0.525003C8.43181 0.233337 8.19318 1.90735e-06 7.90681 1.90735e-06C7.90681 1.90735e-06 7.90681 0 7.90681 0Z" fill="#EC1E24" fill-rule="evenodd" transform="translate(24.498 19.151)" />
      <path d="M1.65985 3.8147e-06C1.65985 3.8147e-06 0.519697 3.8147e-06 0.519697 3.8147e-06C0.233332 3.8147e-06 0 0.233334 0 0.519703C0 0.806065 0.228031 1.0447 0.519697 1.0447C0.519697 1.0447 1.65985 1.0447 1.65985 1.0447C1.94621 1.0447 2.17954 0.811367 2.17954 0.525002C2.17954 0.238636 1.94621 0 1.65985 0C1.65985 0 1.65985 3.8147e-06 1.65985 3.8147e-06Z" fill="#EC1E24" fill-rule="evenodd" transform="translate(16.071 32.896)" />
      <path d="M0 0.519695C0 0.806061 0.233334 1.03939 0.519697 1.03939C0.519697 1.03939 1.65985 1.03939 1.65985 1.03939C1.94621 1.03939 2.17955 0.806061 2.17955 0.519695C2.17955 0.233332 1.94621 0 1.65985 0C1.65985 0 0.519697 0 0.519697 0C0.233334 0 0 0.233332 0 0.519695C0 0.519695 0 0.519695 0 0.519695Z" fill="#EC1E24" fill-rule="evenodd" transform="translate(30.739 17.13)" />
      <path d="M7.38182 4.17348C7.38182 4.17348 7.38182 0 7.38182 0C5.12273 0.482576 3.43106 2.48712 3.43106 4.88939C3.43106 6.05076 3.82879 7.11136 4.49166 7.95985C4.49166 7.95985 2.93258 9.99091 2.93258 9.99091C2.93258 9.99091 0.519697 9.99091 0.519697 9.99091C0.233332 9.99091 0 10.2242 0 10.5106C0 10.797 0.233332 11.0303 0.519697 11.0303C0.519697 11.0303 3.19242 11.0303 3.19242 11.0303C3.35682 11.0303 3.5053 10.9561 3.60606 10.8288C3.60606 10.8288 5.22879 8.71818 5.22879 8.71818C6.09318 9.44469 7.21212 9.87954 8.43182 9.87954C10.8341 9.87954 12.8386 8.18258 13.3159 5.92348C13.3159 5.92348 9.13712 5.92348 9.13712 5.92348C8.16667 5.92879 7.38182 5.13864 7.38182 4.17348C7.38182 4.17348 7.38182 4.17348 7.38182 4.17348Z" fill="#EC1E24" fill-rule="evenodd" transform="translate(16.071 20.874)" />
      <path d="M7.25455 3.66439L4.76212 0.763636L4.10985 0L0 2.15303C0 2.15303 4.82576 7.76894 4.82576 7.76894C5.17045 8.16667 5.62652 8.42121 6.1144 8.51667C6.60758 8.60682 7.12197 8.54318 7.58864 8.29924C8.87727 7.62576 9.20606 5.92879 8.25152 4.82576C8.25152 4.82576 7.25455 3.66439 7.25455 3.66439Z" fill="#EC1E24" fill-rule="evenodd" transform="translate(6.621 22.052)" />
      <path d="M3.72273 14.7795C3.73864 14.8061 3.74394 14.8379 3.75455 14.8644C7.25455 14.0689 10.6962 13.422 14.1432 13.3424C14.1432 13.3424 7.16439 0 7.16439 0C5.13333 2.78409 2.64091 5.25 0 7.67349C0.0159097 7.7 0.0318174 7.72652 0.0477276 7.75303C0.0477276 7.75303 3.72273 14.7795 3.72273 14.7795Z" fill="#EC1E24" fill-rule="evenodd" transform="translate(7.979 4.424)" />
      <path d="M3.8553 1.97812C3.10227 0.535697 1.52197 -0.201424 0 0.0478182C0 0.0478182 3.25076 6.25767 3.25076 6.25767C4.32197 5.13873 4.61364 3.42585 3.8553 1.97812C3.8553 1.97812 3.8553 1.97812 3.8553 1.97812Z" fill="#EC1E24" fill-rule="evenodd" transform="translate(21.687 5.495)" />
    </g>
  </g>
</svg>