<?xml version="1.0" encoding="utf-8"?>
<svg width="42" height="34.233" viewBox="0 0 42 34.233" fill="none" xmlns="http://www.w3.org/2000/svg">
  <g>
    <path d="M0.718678 5.96046e-07C0.718678 5.96046e-07 31.7315 5.96046e-07 31.7315 5.96046e-07C31.0958 0.995039 30.7226 2.18359 30.7226 3.45507C30.7226 6.99308 33.5972 9.85392 37.1214 9.85392C37.1214 9.85392 37.1214 17.621 37.1214 17.621L0 17.621C0 17.621 0 0.718676 0 0.718676C0 0.331652 0.317871 0 0.718676 0C0.718676 0 0.718678 5.96046e-07 0.718678 5.96046e-07ZM3.67611 3.48267C3.67611 3.48267 23.6327 3.48267 23.6327 3.48267C24.6416 3.48267 24.6277 5.00287 23.6327 5.00287C23.6327 5.00287 3.67611 5.00287 3.67611 5.00287C2.66721 5.00287 2.66721 3.48267 3.67611 3.48267C3.67611 3.48267 3.67611 3.48267 3.67611 3.48267ZM3.67611 6.52319C3.67611 6.52319 13.6544 6.52319 13.6544 6.52319C14.6633 6.52319 14.6633 8.05726 13.6544 8.05726C13.6544 8.05726 3.67611 8.05726 3.67611 8.05726C2.66721 8.05726 2.66721 6.52319 3.67611 6.52319C3.67611 6.52319 3.67611 6.52319 3.67611 6.52319ZM3.67611 9.57739C3.67611 9.57739 23.6327 9.57739 23.6327 9.57739C24.6416 9.57739 24.6277 11.0976 23.6327 11.0976C23.6327 11.0976 3.67611 11.0976 3.67611 11.0976C2.66721 11.0977 2.66721 9.57739 3.67611 9.57739C3.67611 9.57739 3.67611 9.57739 3.67611 9.57739ZM3.67611 12.6316C3.67611 12.6316 13.6544 12.6316 13.6544 12.6316C14.6633 12.6316 14.6633 14.1518 13.6544 14.1518C13.6544 14.1518 3.67611 14.1518 3.67611 14.1518C2.66721 14.1519 2.66721 12.6316 3.67611 12.6316C3.67611 12.6316 3.67611 12.6316 3.67611 12.6316Z" fill="#EC1E24" fill-rule="evenodd" transform="translate(0 1.424)" />
    <path d="M18.5604 1.1333C18.9888 1.1333 19.3205 1.47882 19.3205 1.8934C19.3205 2.30799 18.9888 2.6535 18.5604 2.6535C18.1458 2.6535 17.8003 2.30799 17.8003 1.8934C17.8003 1.47882 18.1458 1.1333 18.5604 1.1333C18.5604 1.1333 18.5604 1.1333 18.5604 1.1333ZM37.1214 0C37.1214 0 37.1214 3.08191 37.1214 3.08191C37.1214 3.46886 36.8036 3.78673 36.4166 3.78673C36.4166 3.78673 0.718676 3.78673 0.718676 3.78673C0.317871 3.78673 0 3.46886 0 3.08191C0 3.08191 0 0 0 0L37.1214 0Z" fill="#EC1E24" fill-rule="evenodd" transform="translate(0 20.578)" />
    <path d="M4.86478 3.12924e-07C7.55975 3.12924e-07 9.74334 2.18359 9.74334 4.87856C9.74334 7.57354 7.55975 9.75713 4.86478 9.75713C2.18367 9.75713 0 7.57354 0 4.87856C0 2.18359 2.18359 0 4.86478 0C4.86478 0 4.86478 3.12924e-07 4.86478 3.12924e-07ZM4.86502 7.76705C4.35364 7.76705 2.66757 6.48178 2.39121 6.31591C1.49289 5.73546 2.36356 4.3534 3.27575 4.93385C3.27575 4.93385 4.04971 5.43137 4.04971 5.43137C4.04971 5.43137 4.04971 2.80555 4.04971 2.80555C4.04971 1.72758 5.6805 1.72758 5.6805 2.80555C5.6805 2.80555 5.6805 5.43145 5.6805 5.43145C5.6805 5.43145 6.46824 4.93393 6.46824 4.93393C7.36657 4.35348 8.25103 5.73554 7.3527 6.316C6.9519 6.56463 5.3349 7.76705 4.86502 7.76705C4.86502 7.76705 4.86502 7.76705 4.86502 7.76705Z" fill="#EC1E24" fill-rule="evenodd" transform="translate(32.256 0)" />
    <path d="M4.87084 0L11.9469 0C11.9469 0 11.9469 2.55675 11.9469 2.55675C11.9469 5.16879 13.8402 6.78579 16.245 7.02073C17.0604 7.0898 17.0051 8.33364 16.1897 8.33364C16.1897 8.33364 0.641806 8.33364 0.641806 8.33364C-0.173585 8.33364 -0.228873 7.0898 0.572736 7.02073C2.97748 6.78579 4.87084 5.16879 4.87084 2.55675C4.87084 2.55675 4.87084 0 4.87084 0Z" fill="#EC1E24" fill-rule="evenodd" transform="translate(10.152 25.899)" />
  </g>
</svg>