<?xml version="1.0" encoding="utf-8"?>
<svg width="34.138" height="34.688" viewBox="0 0 34.138 34.688" fill="none" xmlns="http://www.w3.org/2000/svg">
  <g>
    <path d="M1.76314 19.8814C1.76314 19.8814 0.405016 20.3262 0.405016 20.3262C0.10176 20.4265 -0.0637407 20.7527 0.03457 21.0554C0.03457 21.0554 1.08764 24.2813 1.08764 24.2813C1.08764 24.2813 6.08162 22.5472 6.08162 22.5472C3.68031 17.4474 5.10661 11.3633 9.52421 7.86188C13.9414 4.3598 20.1889 4.3598 24.6059 7.86188C29.0247 11.3633 30.4507 17.4474 28.0495 22.5472C28.0495 22.5472 33.0562 24.2813 33.0562 24.2813C33.0562 24.2813 34.1092 21.0554 34.1092 21.0554C34.2076 20.7527 34.0421 20.4265 33.7379 20.3262C33.7379 20.3262 32.381 19.8814 32.381 19.8814C32.1125 19.7948 31.9477 19.5288 31.9882 19.2517C32.1493 17.985 32.1493 16.7025 31.9882 15.4358C31.9477 15.1587 32.1125 14.8928 32.381 14.8056C32.381 14.8056 33.7382 14.3603 33.7382 14.3603C34.0421 14.2616 34.2076 13.9361 34.1092 13.6325C34.1092 13.6325 33.0339 10.3366 33.0339 10.3366C32.9873 10.1911 32.884 10.0681 32.7476 9.99788C32.6107 9.92725 32.4507 9.91377 32.3049 9.96163C32.3049 9.96163 30.9408 10.4055 30.9408 10.4055C30.6744 10.4922 30.3851 10.3753 30.2531 10.1293C29.6419 9.0055 28.888 7.96569 28.0101 7.03652C27.8142 6.83354 27.7925 6.52292 27.9571 6.29529C27.9571 6.29529 28.7957 5.13931 28.7957 5.13931C28.8866 5.01542 28.924 4.86097 28.9005 4.70847C28.8767 4.55634 28.7922 4.42114 28.6688 4.32998C28.6688 4.32998 25.8583 2.31173 25.8583 2.31173C25.7351 2.22147 25.58 2.18402 25.4279 2.20694C25.2761 2.23196 25.14 2.31585 25.0503 2.43944C25.0503 2.43944 24.2102 3.59571 24.2102 3.59571C24.0454 3.82349 23.7412 3.89877 23.4893 3.77548C22.3334 3.23363 21.1127 2.84481 19.8593 2.61965C19.5783 2.57097 19.3759 2.32536 19.377 2.04073C19.377 2.04073 19.377 0.57825 19.377 0.57825C19.377 0.258789 19.1196 0 18.7996 0C18.7996 0 15.3329 0 15.3329 0C15.0129 0 14.7528 0.258789 14.7528 0.57825C14.7528 0.57825 14.7528 2.00582 14.7528 2.00582C14.7573 2.29068 14.5529 2.53576 14.2728 2.58385C13.0171 2.81567 11.796 3.21041 10.6432 3.7581C10.3901 3.88214 10.0858 3.80589 9.92053 3.57938C9.92053 3.57938 9.08208 2.42288 9.08208 2.42288C8.88801 2.16889 8.52783 2.11945 8.27265 2.31173C8.27265 2.31173 5.4688 4.32998 5.4688 4.32998C5.3453 4.42114 5.26116 4.55634 5.23701 4.70847C5.21347 4.86097 5.25111 5.01542 5.34185 5.13931C5.34185 5.13931 6.18038 6.29529 6.18038 6.29529C6.34513 6.52292 6.32331 6.83354 6.12743 7.03652C5.24984 7.96569 4.49582 9.0055 3.88451 10.1293C3.75238 10.379 3.45932 10.496 3.19184 10.4055C3.19184 10.4055 1.83266 9.96163 1.83266 9.96163C1.68665 9.91377 1.52708 9.92725 1.38985 9.99788C1.25367 10.0681 1.15033 10.1911 1.10384 10.3366C1.10384 10.3366 0.0284209 13.6325 0.0284209 13.6325C-0.0699648 13.9361 0.0952362 14.2616 0.399542 14.3603C0.399542 14.3603 1.75662 14.8056 1.75662 14.8056C2.02508 14.8928 2.18983 15.1587 2.14964 15.4358C1.98849 16.7025 1.98849 17.985 2.14964 19.2517C2.19178 19.5278 2.02681 19.7926 1.76314 19.8814C1.76314 19.8814 1.76314 19.8814 1.76314 19.8814Z" fill="#EC1E24" fill-rule="evenodd" />
    <path d="M0 2.3125C0 1.03519 1.03552 0 2.3125 0C3.58948 0 4.625 1.03519 4.625 2.3125C4.625 3.58981 3.58948 4.625 2.3125 4.625C1.03552 4.625 0 3.58981 0 2.3125Z" fill="#EC1E24" fill-rule="evenodd" transform="translate(14.753 21.969)" />
    <path d="M0 2.8901L0 8.09375L8.09375 8.09375C8.09375 8.09375 8.09375 2.8901 8.09375 2.8901C8.09375 1.29423 6.79978 0 5.20244 0C5.20244 0 2.89116 0 2.89116 0C1.29382 0 0 1.29423 0 2.8901C0 2.8901 0 2.8901 0 2.8901Z" fill="#EC1E24" fill-rule="evenodd" transform="translate(13.019 26.594)" />
    <path d="M0 1.73441C0 0.776295 0.776783 0 1.73434 0C2.69197 0 3.46875 0.776295 3.46875 1.73441C3.46875 2.69246 2.69197 3.46875 1.73434 3.46875C0.776783 3.46875 0 2.69246 0 1.73441Z" fill="#EC1E24" fill-rule="evenodd" transform="translate(23.425 24.859)" />
    <path d="M5.78125 2.3122C5.78125 1.03513 4.74488 0 3.46782 0C3.46782 0 2.31343 0 2.31343 0C1.03636 0 0 1.03513 0 2.3122C0 2.3122 0 5.78125 0 5.78125L5.78125 5.78125C5.78125 5.78125 5.78125 2.3122 5.78125 2.3122Z" fill="#EC1E24" fill-rule="evenodd" transform="translate(22.269 28.328)" />
    <path d="M0 1.73441C0 0.776295 0.776634 0 1.73441 0C2.69212 0 3.46875 0.776295 3.46875 1.73441C3.46875 2.69246 2.69212 3.46875 1.73441 3.46875C0.776634 3.46875 0 2.69246 0 1.73441Z" fill="#EC1E24" fill-rule="evenodd" transform="translate(7.238 24.859)" />
    <path d="M0 2.3122L0 5.78125L5.78125 5.78125C5.78125 5.78125 5.78125 2.3122 5.78125 2.3122C5.78125 1.03513 4.74489 0 3.46767 0C3.46767 0 2.31328 0 2.31328 0C1.03636 0 0 1.03513 0 2.3122C0 2.3122 0 2.3122 0 2.3122Z" fill="#EC1E24" fill-rule="evenodd" transform="translate(6.082 28.328)" />
    <path d="M0 1.44527C0 0.646639 0.646844 0 1.44531 0C2.24386 0 2.89063 0.646639 2.89063 1.44527C2.89063 2.24399 2.24386 2.89063 1.44531 2.89063C0.646844 2.89063 0 2.24399 0 1.44527Z" fill="#EC1E24" fill-rule="evenodd" transform="translate(1.167 26.016)" />
    <path d="M0 1.73396L0 4.625L4.625 4.625C4.625 4.625 4.625 1.73396 4.625 1.73396C4.625 0.776226 3.84887 0 2.89104 0C2.89104 0 1.73396 0 1.73396 0C0.776207 0 0 0.776226 0 1.73396C0 1.73396 0 1.73396 0 1.73396Z" fill="#EC1E24" fill-rule="evenodd" transform="translate(0.3 28.906)" />
    <path d="M0 1.44527C0 0.646639 0.646727 0 1.44531 0C2.24397 0 2.89063 0.646639 2.89063 1.44527C2.89063 2.24399 2.24397 2.89063 1.44531 2.89063C0.646727 2.89063 0 2.24399 0 1.44527Z" fill="#EC1E24" fill-rule="evenodd" transform="translate(30.074 26.016)" />
    <path d="M0 1.73396L0 4.625L4.625 4.625C4.625 4.625 4.625 1.73396 4.625 1.73396C4.625 0.776226 3.84864 0 2.89096 0C2.89096 0 1.73404 0 1.73404 0C0.776207 0 0 0.776226 0 1.73396C0 1.73396 0 1.73396 0 1.73396Z" fill="#EC1E24" fill-rule="evenodd" transform="translate(29.207 28.906)" />
    <path d="M0 0L2.3125 0L2.3125 2.3125L0 2.3125L0 0Z" fill="#EC1E24" fill-rule="evenodd" transform="translate(11.285 13.875)" />
    <path d="M0 0L2.3125 0L2.3125 4.04688L0 4.04688L0 0Z" fill="#EC1E24" fill-rule="evenodd" transform="translate(15.91 12.141)" />
    <path d="M0 0L2.3125 0L2.3125 5.78125L0 5.78125L0 0Z" fill="#EC1E24" fill-rule="evenodd" transform="translate(20.535 10.406)" />
    <path d="M0 0L15.0313 0L15.0313 1.15625L0 1.15625L0 0Z" fill="#EC1E24" fill-rule="evenodd" transform="translate(9.55 17.344)" />
  </g>
</svg>