<?xml version="1.0" encoding="utf-8"?>
<svg width="23.782" height="11" viewBox="0 0 23.782 11" fill="none" xmlns="http://www.w3.org/2000/svg">
  <g transform="matrix(-1 0 -0 -1 23.782 11)">
    <path d="M22.8208 1.92302C22.8208 1.92302 0.961511 1.92302 0.961511 1.92302C0.431983 1.92302 0 1.49104 0 0.961511C0 0.431982 0.431983 0 0.961511 0C0.961511 0 22.8208 0 22.8208 0C23.3503 0 23.7823 0.431983 23.7823 0.961511C23.7823 1.49104 23.3503 1.92302 22.8208 1.92302C22.8208 1.92302 22.8208 1.92302 22.8208 1.92302Z" fill="#FFFFFF" fill-rule="evenodd" transform="translate(0 4.539)" />
    <path d="M5.34057 11.0005C5.09438 11.0005 4.8482 10.9076 4.65775 10.7171C4.65775 10.7171 0.365792 6.39267 0.365792 6.39267C-0.121931 5.9003 -0.121931 5.10136 0.365792 4.60899C0.365792 4.60899 4.6624 0.284516 4.6624 0.284516C5.034 -0.091728 5.64249 -0.0963726 6.01873 0.27987C6.39498 0.651469 6.39962 1.25996 6.02338 1.6362C6.02338 1.6362 2.18663 5.50083 2.18663 5.50083C2.18663 5.50083 6.02338 9.36545 6.02338 9.36545C6.39498 9.7417 6.39498 10.3502 6.01873 10.7218C5.83293 10.9076 5.58675 11.0005 5.34057 11.0005C5.34057 11.0005 5.34057 11.0005 5.34057 11.0005Z" fill="#FFFFFF" fill-rule="evenodd" transform="translate(0.001 0)" />
  </g>
</svg>