<?xml version="1.0" encoding="utf-8"?>
<svg width="207" height="22" viewBox="0 0 207 22" fill="none" xmlns="http://www.w3.org/2000/svg">
  <g>
    <path d="M1.5 0C2.32854 0 3 0.67146 3 1.5L3 20.5C3 21.3285 2.32854 22 1.5 22L1.5 22C0.67146 22 0 21.3285 0 20.5L0 1.5C0 0.67146 0.67146 0 1.5 0Z" fill="#22C625" fill-opacity="0.02" />
    <path d="M1.5 0C2.32854 0 3 0.67146 3 1.5L3 20.5C3 21.3285 2.32854 22 1.5 22L1.5 22C0.67146 22 0 21.3285 0 20.5L0 1.5C0 0.67146 0.67146 0 1.5 0Z" fill="#22C625" fill-opacity="0.039" transform="translate(4 0)" />
    <path d="M1.5 0C2.32854 0 3 0.67146 3 1.5L3 20.5C3 21.3285 2.32854 22 1.5 22L1.5 22C0.67146 22 0 21.3285 0 20.5L0 1.5C0 0.67146 0.67146 0 1.5 0Z" fill="#22C625" fill-opacity="0.059" transform="translate(8 0)" />
    <path d="M1.5 0C2.32854 0 3 0.67146 3 1.5L3 20.5C3 21.3285 2.32854 22 1.5 22L1.5 22C0.67146 22 0 21.3285 0 20.5L0 1.5C0 0.67146 0.67146 0 1.5 0Z" fill="#22C625" fill-opacity="0.078" transform="translate(12 0)" />
    <path d="M1.5 0C2.32854 0 3 0.67146 3 1.5L3 20.5C3 21.3285 2.32854 22 1.5 22L1.5 22C0.671459 22 0 21.3285 0 20.5L0 1.5C0 0.67146 0.671459 0 1.5 0Z" fill="#22C625" fill-opacity="0.102" transform="translate(16 0)" />
    <path d="M1.5 0C2.32854 0 3 0.67146 3 1.5L3 20.5C3 21.3285 2.32854 22 1.5 22L1.5 22C0.671459 22 0 21.3285 0 20.5L0 1.5C0 0.67146 0.671459 0 1.5 0Z" fill="#22C625" fill-opacity="0.122" transform="translate(20 0)" />
    <path d="M1.5 0C2.32854 0 3 0.67146 3 1.5L3 20.5C3 21.3285 2.32854 22 1.5 22L1.5 22C0.671459 22 0 21.3285 0 20.5L0 1.5C0 0.67146 0.671459 0 1.5 0Z" fill="#22C625" fill-opacity="0.141" transform="translate(24 0)" />
    <path d="M1.5 0C2.32854 0 3 0.67146 3 1.5L3 20.5C3 21.3285 2.32854 22 1.5 22L1.5 22C0.671459 22 0 21.3285 0 20.5L0 1.5C0 0.67146 0.671459 0 1.5 0Z" fill="#22C625" fill-opacity="0.161" transform="translate(28 0)" />
    <path d="M1.5 0C2.32854 0 3 0.67146 3 1.5L3 20.5C3 21.3285 2.32854 22 1.5 22L1.5 22C0.671459 22 0 21.3285 0 20.5L0 1.5C0 0.67146 0.671459 0 1.5 0Z" fill="#22C625" fill-opacity="0.18" transform="translate(32 0)" />
    <path d="M1.5 0C2.32854 0 3 0.67146 3 1.5L3 20.5C3 21.3285 2.32854 22 1.5 22L1.5 22C0.671459 22 0 21.3285 0 20.5L0 1.5C0 0.67146 0.671459 0 1.5 0Z" fill="#22C625" fill-opacity="0.2" transform="translate(36 0)" />
    <path d="M1.5 0C2.32854 0 3 0.67146 3 1.5L3 20.5C3 21.3285 2.32854 22 1.5 22L1.5 22C0.671459 22 0 21.3285 0 20.5L0 1.5C0 0.67146 0.671459 0 1.5 0Z" fill="#22C625" fill-opacity="0.2" transform="translate(40 0)" />
    <path d="M1.5 0C2.32854 0 3 0.67146 3 1.5L3 20.5C3 21.3285 2.32854 22 1.5 22L1.5 22C0.671459 22 0 21.3285 0 20.5L0 1.5C0 0.67146 0.671459 0 1.5 0Z" fill="#22C625" fill-opacity="0.22" transform="translate(44 0)" />
    <path d="M1.5 0C2.32854 0 3 0.67146 3 1.5L3 20.5C3 21.3285 2.32854 22 1.5 22L1.5 22C0.671459 22 0 21.3285 0 20.5L0 1.5C0 0.67146 0.671459 0 1.5 0Z" fill="#22C625" fill-opacity="0.239" transform="translate(48 0)" />
    <path d="M1.5 0C2.32854 0 3 0.67146 3 1.5L3 20.5C3 21.3285 2.32854 22 1.5 22L1.5 22C0.671459 22 0 21.3285 0 20.5L0 1.5C0 0.67146 0.671459 0 1.5 0Z" fill="#22C625" fill-opacity="0.259" transform="translate(52 0)" />
    <path d="M1.5 0C2.32854 0 3 0.67146 3 1.5L3 20.5C3 21.3285 2.32854 22 1.5 22L1.5 22C0.671459 22 0 21.3285 0 20.5L0 1.5C0 0.67146 0.671459 0 1.5 0Z" fill="#22C625" fill-opacity="0.278" transform="translate(56 0)" />
    <path d="M1.5 0C2.32854 0 3 0.67146 3 1.5L3 20.5C3 21.3285 2.32854 22 1.5 22L1.5 22C0.671459 22 0 21.3285 0 20.5L0 1.5C0 0.67146 0.671459 0 1.5 0Z" fill="#22C625" fill-opacity="0.298" transform="translate(60 0)" />
    <path d="M1.5 0C2.32854 0 3 0.67146 3 1.5L3 20.5C3 21.3285 2.32854 22 1.5 22L1.5 22C0.671463 22 0 21.3285 0 20.5L0 1.5C0 0.67146 0.671463 0 1.5 0Z" fill="#22C625" fill-opacity="0.322" transform="translate(64 0)" />
    <path d="M1.5 0C2.32854 0 3 0.67146 3 1.5L3 20.5C3 21.3285 2.32854 22 1.5 22L1.5 22C0.671463 22 0 21.3285 0 20.5L0 1.5C0 0.67146 0.671463 0 1.5 0Z" fill="#22C625" fill-opacity="0.341" transform="translate(68 0)" />
    <path d="M1.5 0C2.32854 0 3 0.67146 3 1.5L3 20.5C3 21.3285 2.32854 22 1.5 22L1.5 22C0.671463 22 0 21.3285 0 20.5L0 1.5C0 0.67146 0.671463 0 1.5 0Z" fill="#22C625" fill-opacity="0.361" transform="translate(72 0)" />
    <path d="M1.5 0C2.32854 0 3 0.67146 3 1.5L3 20.5C3 21.3285 2.32854 22 1.5 22L1.5 22C0.671463 22 0 21.3285 0 20.5L0 1.5C0 0.67146 0.671463 0 1.5 0Z" fill="#22C625" fill-opacity="0.38" transform="translate(76 0)" />
    <path d="M1.5 0C2.32854 0 3 0.67146 3 1.5L3 20.5C3 21.3285 2.32854 22 1.5 22L1.5 22C0.671463 22 0 21.3285 0 20.5L0 1.5C0 0.67146 0.671463 0 1.5 0Z" fill="#22C625" fill-opacity="0.4" transform="translate(80 0)" />
    <path d="M1.5 0C2.32854 0 3 0.67146 3 1.5L3 20.5C3 21.3285 2.32854 22 1.5 22L1.5 22C0.671463 22 0 21.3285 0 20.5L0 1.5C0 0.67146 0.671463 0 1.5 0Z" fill="#22C625" fill-opacity="0.42" transform="translate(84 0)" />
    <path d="M1.5 0C2.32854 0 3 0.67146 3 1.5L3 20.5C3 21.3285 2.32854 22 1.5 22L1.5 22C0.671463 22 0 21.3285 0 20.5L0 1.5C0 0.67146 0.671463 0 1.5 0Z" fill="#22C625" fill-opacity="0.478" transform="translate(92 0)" />
    <path d="M1.5 0C2.32854 0 3 0.67146 3 1.5L3 20.5C3 21.3285 2.32854 22 1.5 22L1.5 22C0.671463 22 0 21.3285 0 20.5L0 1.5C0 0.67146 0.671463 0 1.5 0Z" fill="#22C625" fill-opacity="0.498" transform="translate(96 0)" />
    <path d="M1.5 0C2.32854 0 3 0.67146 3 1.5L3 20.5C3 21.3285 2.32854 22 1.5 22L1.5 22C0.671463 22 0 21.3285 0 20.5L0 1.5C0 0.67146 0.671463 0 1.5 0Z" fill="#22C625" fill-opacity="0.522" transform="translate(100 0)" />
    <path d="M1.5 0C2.32854 0 3 0.67146 3 1.5L3 20.5C3 21.3285 2.32854 22 1.5 22L1.5 22C0.671463 22 0 21.3285 0 20.5L0 1.5C0 0.67146 0.671463 0 1.5 0Z" fill="#22C625" fill-opacity="0.541" transform="translate(104 0)" />
    <path d="M1.5 0C2.32854 0 3 0.67146 3 1.5L3 20.5C3 21.3285 2.32854 22 1.5 22L1.5 22C0.671463 22 0 21.3285 0 20.5L0 1.5C0 0.67146 0.671463 0 1.5 0Z" fill="#22C625" fill-opacity="0.58" transform="translate(108 0)" />
    <path d="M1.5 0C2.32854 0 3 0.67146 3 1.5L3 20.5C3 21.3285 2.32854 22 1.5 22L1.5 22C0.671463 22 0 21.3285 0 20.5L0 1.5C0 0.67146 0.671463 0 1.5 0Z" fill="#22C625" fill-opacity="0.6" transform="translate(112 0)" />
    <path d="M1.5 0C2.32854 0 3 0.67146 3 1.5L3 20.5C3 21.3285 2.32854 22 1.5 22L1.5 22C0.671463 22 0 21.3285 0 20.5L0 1.5C0 0.67146 0.671463 0 1.5 0Z" fill="#22C625" fill-opacity="0.639" transform="translate(116 0)" />
    <path d="M1.5 0C2.32854 0 3 0.67146 3 1.5L3 20.5C3 21.3285 2.32854 22 1.5 22L1.5 22C0.671463 22 0 21.3285 0 20.5L0 1.5C0 0.67146 0.671463 0 1.5 0Z" fill="#22C625" fill-opacity="0.659" transform="translate(120 0)" />
    <path d="M1.5 0C2.32854 0 3 0.67146 3 1.5L3 20.5C3 21.3285 2.32854 22 1.5 22L1.5 22C0.671463 22 0 21.3285 0 20.5L0 1.5C0 0.67146 0.671463 0 1.5 0Z" fill="#22C625" fill-opacity="0.678" transform="translate(124 0)" />
    <path d="M1.5 0C2.32854 0 3 0.67146 3 1.5L3 20.5C3 21.3285 2.32854 22 1.5 22L1.5 22C0.671463 22 0 21.3285 0 20.5L0 1.5C0 0.67146 0.671463 0 1.5 0Z" fill="#22C625" fill-opacity="0.698" transform="translate(128 0)" />
    <path d="M1.5 0C2.32854 0 3 0.67146 3 1.5L3 20.5C3 21.3285 2.32854 22 1.5 22L1.5 22C0.671463 22 0 21.3285 0 20.5L0 1.5C0 0.67146 0.671463 0 1.5 0Z" fill="#22C625" fill-opacity="0.741" transform="translate(132 0)" />
    <path d="M1.5 0C2.32854 0 3 0.67146 3 1.5L3 20.5C3 21.3285 2.32854 22 1.5 22L1.5 22C0.671463 22 0 21.3285 0 20.5L0 1.5C0 0.67146 0.671463 0 1.5 0Z" fill="#22C625" fill-opacity="0.439" transform="translate(88 0)" />
    <path d="M1.5 0C2.32854 0 3 0.67146 3 1.5L3 20.5C3 21.3285 2.32854 22 1.5 22L1.5 22C0.671463 22 0 21.3285 0 20.5L0 1.5C0 0.67146 0.671463 0 1.5 0Z" fill="#22C625" fill-opacity="0.761" transform="translate(136 0)" />
    <path d="M1.5 0C2.32854 0 3 0.67146 3 1.5L3 20.5C3 21.3285 2.32854 22 1.5 22L1.5 22C0.671463 22 0 21.3285 0 20.5L0 1.5C0 0.67146 0.671463 0 1.5 0Z" fill="#22C625" fill-opacity="0.78" transform="translate(140 0)" />
    <path d="M1.5 0C2.32854 0 3 0.67146 3 1.5L3 20.5C3 21.3285 2.32854 22 1.5 22L1.5 22C0.671463 22 0 21.3285 0 20.5L0 1.5C0 0.67146 0.671463 0 1.5 0Z" fill="#22C625" fill-opacity="0.8" transform="translate(144 0)" />
    <path d="M1.5 0C2.32854 0 3 0.67146 3 1.5L3 20.5C3 21.3285 2.32854 22 1.5 22L1.5 22C0.671463 22 0 21.3285 0 20.5L0 1.5C0 0.67146 0.671463 0 1.5 0Z" fill="#22C625" fill-opacity="0.82" transform="translate(148 0)" />
    <path d="M1.5 0C2.32854 0 3 0.67146 3 1.5L3 20.5C3 21.3285 2.32854 22 1.5 22L1.5 22C0.671463 22 0 21.3285 0 20.5L0 1.5C0 0.67146 0.671463 0 1.5 0Z" fill="#22C625" fill-opacity="0.839" transform="translate(152 0)" />
    <path d="M1.5 0C2.32854 0 3 0.67146 3 1.5L3 20.5C3 21.3285 2.32854 22 1.5 22L1.5 22C0.671463 22 0 21.3285 0 20.5L0 1.5C0 0.67146 0.671463 0 1.5 0Z" fill="#22C625" fill-opacity="0.859" transform="translate(156 0)" />
    <path d="M1.5 0C2.32854 0 3 0.67146 3 1.5L3 20.5C3 21.3285 2.32854 22 1.5 22L1.5 22C0.671463 22 0 21.3285 0 20.5L0 1.5C0 0.67146 0.671463 0 1.5 0Z" fill="#22C625" fill-opacity="0.878" transform="translate(160 0)" />
    <path d="M1.5 0C2.32854 0 3 0.67146 3 1.5L3 20.5C3 21.3285 2.32854 22 1.5 22L1.5 22C0.671463 22 0 21.3285 0 20.5L0 1.5C0 0.67146 0.671463 0 1.5 0Z" fill="#22C625" fill-opacity="0.898" transform="translate(164 0)" />
    <path d="M1.5 0C2.32854 0 3 0.67146 3 1.5L3 20.5C3 21.3285 2.32854 22 1.5 22L1.5 22C0.671463 22 0 21.3285 0 20.5L0 1.5C0 0.67146 0.671463 0 1.5 0Z" fill="#22C625" fill-opacity="0.922" transform="translate(168 0)" />
    <path d="M1.5 0C2.32854 0 3 0.67146 3 1.5L3 20.5C3 21.3285 2.32854 22 1.5 22L1.5 22C0.671463 22 0 21.3285 0 20.5L0 1.5C0 0.67146 0.671463 0 1.5 0Z" fill="#22C625" fill-opacity="0.941" transform="translate(172 0)" />
    <path d="M1.5 0C2.32854 0 3 0.67146 3 1.5L3 20.5C3 21.3285 2.32854 22 1.5 22L1.5 22C0.671463 22 0 21.3285 0 20.5L0 1.5C0 0.67146 0.671463 0 1.5 0Z" fill="#22C625" fill-opacity="0.961" transform="translate(176 0)" />
    <path d="M1.5 0C2.32854 0 3 0.67146 3 1.5L3 20.5C3 21.3285 2.32854 22 1.5 22L1.5 22C0.671463 22 0 21.3285 0 20.5L0 1.5C0 0.67146 0.671463 0 1.5 0Z" fill="#22C625" fill-opacity="0.98" transform="translate(180 0)" />
    <path d="M1.5 0C2.32854 0 3 0.67146 3 1.5L3 20.5C3 21.3285 2.32854 22 1.5 22L1.5 22C0.671463 22 0 21.3285 0 20.5L0 1.5C0 0.67146 0.671463 0 1.5 0Z" fill="#22C625" transform="translate(184 0)" />
    <path d="M1.5 0C2.32854 0 3 0.67146 3 1.5L3 20.5C3 21.3285 2.32854 22 1.5 22L1.5 22C0.671463 22 0 21.3285 0 20.5L0 1.5C0 0.67146 0.671463 0 1.5 0Z" fill="#22C625" transform="translate(188 0)" />
    <path d="M1.5 0C2.32854 0 3 0.67146 3 1.5L3 20.5C3 21.3285 2.32854 22 1.5 22L1.5 22C0.671463 22 0 21.3285 0 20.5L0 1.5C0 0.67146 0.671463 0 1.5 0Z" fill="#14C817" transform="translate(192 0)" />
    <path d="M1.5 0C2.32854 0 3 0.67146 3 1.5L3 20.5C3 21.3285 2.32854 22 1.5 22L1.5 22C0.671463 22 0 21.3285 0 20.5L0 1.5C0 0.67146 0.671463 0 1.5 0Z" fill="#22C625" transform="translate(196 0)" />
    <path d="M1.5 0C2.32854 0 3 0.67146 3 1.5L3 20.5C3 21.3285 2.32854 22 1.5 22L1.5 22C0.671463 22 0 21.3285 0 20.5L0 1.5C0 0.67146 0.671463 0 1.5 0Z" fill="#1DBF20" transform="translate(200 0)" />
    <path d="M1.5 0C2.32854 0 3 0.67146 3 1.5L3 20.5C3 21.3285 2.32854 22 1.5 22L1.5 22C0.671463 22 0 21.3285 0 20.5L0 1.5C0 0.67146 0.671463 0 1.5 0Z" fill="#18B51B" transform="translate(204 0)" />
  </g>
</svg>