<?xml version="1.0" encoding="utf-8"?>
<svg width="120" height="120" viewBox="0 0 120 120" fill="none" xmlns="http://www.w3.org/2000/svg">
  <defs>
    <filter color-interpolation-filters="sRGB" x="-104" y="-14" width="106" height="16" id="filter_1">
      <feFlood flood-opacity="0" result="BackgroundImageFix_1" />
      <feColorMatrix type="matrix" values="0 0 0 0 0 0 0 0 0 0 0 0 0 0 0 0 0 0 1 0" in="SourceAlpha" />
      <feOffset dx="0" dy="0" />
      <feGaussianBlur stdDeviation="2" />
      <feColorMatrix type="matrix" values="0 0 0 0 0 0 0 0 0 0 0 0 0 0 0 0 0 0 0.251 0" />
      <feBlend mode="normal" in2="BackgroundImageFix_1" result="Shadow_2" />
      <feBlend mode="normal" in="SourceGraphic" in2="Shadow_2" result="Shape_3" />
    </filter>
  </defs>
  <g>
    <g>
      <g>
        <path d="M58.6387 115.817C58.6387 115.817 85.9627 105.229 85.9627 105.229C106.247 97.3094 117.932 79.2732 114.744 60.8015C114.744 60.8015 108.291 22.8006 108.291 22.8006C108.152 21.9915 107.436 21.3342 106.483 21.1405C89.0013 17.45 72.8084 10.3825 59.2149 0.510034C58.3181 -0.170011 56.9474 -0.170011 56.0506 0.510034C42.4597 10.379 26.2712 17.4443 8.79465 21.1345C7.84148 21.3282 7.12566 21.9855 6.98681 22.7946C6.98681 22.7946 0.521321 60.7955 0.521321 60.7955C-2.66947 79.2692 9.01555 97.3087 29.3027 105.229C29.3027 105.229 56.6244 115.817 56.6244 115.817C57.2626 116.065 58.0004 116.065 58.6387 115.817C58.6387 115.817 58.6387 115.817 58.6387 115.817Z" fill="#E7FEF2" fill-rule="evenodd" transform="translate(2.367 1.997)" />
        <path d="M60.7127 60.8015C60.7127 60.8015 54.2592 22.8006 54.2592 22.8006C54.1203 21.9915 53.4045 21.3342 52.4513 21.1405C34.9699 17.45 18.777 10.3825 5.18343 0.510034C4.28661 -0.170011 2.91594 -0.170011 2.01911 0.510034C1.48613 0.910044 0.792278 1.41006 0 1.96407C13.1852 11.0706 28.6375 17.619 45.2368 21.1345C46.19 21.3282 46.9058 21.9855 47.0446 22.7946C47.0446 22.7946 53.5101 60.7955 53.5101 60.7955C56.7009 79.2692 45.0159 97.3087 24.7287 105.229C24.7287 105.229 0 114.803 0 114.803C0 114.803 2.59532 115.803 2.59532 115.803C3.23289 116.051 3.96966 116.051 4.60723 115.803C4.60723 115.803 31.9313 105.229 31.9313 105.229C52.2156 97.3094 63.9001 79.2732 60.7127 60.8015C60.7127 60.8015 60.7127 60.8015 60.7127 60.8015Z" fill="#BCF1BF" fill-rule="evenodd" transform="translate(56.399 1.997)" />
        <path d="M0 8.00019L0 4.0001C0 2.8955 0.468796 1.95267 1.40639 1.1716C2.34398 0.390533 3.47575 0 4.8017 0L57.6204 0C58.9463 0 60.0781 0.390533 61.0157 1.1716C61.9533 1.95267 62.4221 2.8955 62.4221 4.0001L62.4221 36.0009C62.4221 37.1054 61.9533 38.0483 61.0157 38.8293C60.0781 39.6104 58.9463 40.0009 57.6204 40.0009L4.8017 40.0009C3.47575 40.0009 2.34398 39.6104 1.40639 38.8293C0.468796 38.0483 0 37.1054 0 36.0009L0 8.00019Z" fill="#E7FEF2" fill-rule="evenodd" transform="translate(28.789 55.999)" />
        <path d="M7.20255 0C7.20255 0 0 0 0 0C2.6519 0 4.8017 1.7909 4.8017 4.0001C4.8017 4.0001 4.8017 36.0009 4.8017 36.0009C4.8017 38.21 2.6519 40.0009 0 40.0009C0 40.0009 7.20255 40.0009 7.20255 40.0009C9.85445 40.0009 12.0042 38.21 12.0042 36.0009C12.0042 36.0009 12.0042 4.0001 12.0042 4.0001C12.0042 1.7909 9.85445 0 7.20255 0C7.20255 0 7.20255 0 7.20255 0Z" fill="#BCF1BF" fill-rule="evenodd" transform="translate(79.207 55.999)" />
        <path d="M38.4136 32.0008C38.4136 32.0008 38.4136 20.0005 38.4136 20.0005C38.4136 13.3729 31.9642 8.00019 24.0085 8.00019C16.0528 8.00019 9.60339 13.3729 9.60339 20.0005C9.60339 20.0005 9.60339 32.0008 9.60339 32.0008L0 32.0008C0 32.0008 0 20.0005 0 20.0005C0 8.95451 10.749 0 24.0085 0C37.268 0 48.017 8.95451 48.017 20.0005C48.017 20.0005 48.017 32.0008 48.017 32.0008L38.4136 32.0008Z" fill="#C5F5E3" fill-rule="evenodd" transform="translate(35.992 23.998)" />
        <path d="M3.60127 0C2.39502 0.00806808 1.19121 0.0916386 0 0.250006C11.7276 1.72622 20.4003 10.1198 20.4072 20.0005C20.4072 20.0005 20.4072 32.0008 20.4072 32.0008L27.6098 32.0008C27.6098 32.0008 27.6098 20.0005 27.6098 20.0005C27.6098 8.95451 16.8608 0 3.60127 0C3.60127 0 3.60127 0 3.60127 0Z" fill="#83FA7F" fill-rule="evenodd" transform="translate(56.399 23.998)" />
        <path d="M19.2076 8.02248C19.2198 4.23317 16.0392 0.956482 11.5887 0.17347C7.13816 -0.60955 2.63869 1.31591 0.810577 4.78574C-1.01753 8.25557 0.327232 12.3179 4.03186 14.5166C4.03186 14.5166 2.40168 24.0229 2.40168 24.0229L16.8068 24.0229C16.8068 24.0229 15.1766 14.5166 15.1766 14.5166C17.7022 13.0226 19.2041 10.603 19.2076 8.02248C19.2076 8.02248 19.2076 8.02248 19.2076 8.02248Z" fill="#C5F5E3" fill-rule="evenodd" transform="translate(50.396 63.977)" />
        <path d="M29.3027 105.229C59.0516 116.759 57.2294 116.363 58.6363 115.817C58.6363 115.817 61.1956 114.817 61.1956 114.817C57.5655 113.453 50.5622 110.669 36.5052 105.217C16.2266 97.2988 4.54324 79.2691 7.72387 60.8015C7.72387 60.8015 14.1894 22.8006 14.1894 22.8006C14.3282 21.9915 15.044 21.3342 15.9972 21.1405C32.5869 17.6104 48.0271 11.0521 61.2004 1.94007C60.4249 1.39605 59.7407 0.904043 59.2149 0.510034C58.3181 -0.170011 56.9474 -0.170011 56.0506 0.510034C42.4592 10.3783 26.2709 17.4436 8.79465 21.1345C7.84148 21.3282 7.12566 21.9855 6.98681 22.7946C6.98681 22.7946 0.521321 60.7955 0.521321 60.7955C-2.66947 79.2692 9.01555 97.3087 29.3027 105.229C29.3027 105.229 29.3027 105.229 29.3027 105.229Z" fill="#FFFFFF" fill-rule="evenodd" transform="translate(2.367 1.997)" />
        <path d="M0 15.8404L2.68895 0L7.44263 0.560015L4.75368 16.4004L0 15.8404Z" fill="#FFFFFF" fill-rule="evenodd" transform="translate(4.28 24.5)" />
        <g>
          <path d="M33.6119 0C19.0335 0.0143261 7.21975 9.85591 7.20255 22.0005C7.20255 22.0005 7.20255 32.0008 7.20255 32.0008C3.22469 32.0008 0 34.6871 0 38.0009C0 38.0009 0 70.0016 0 70.0016C0 73.3154 3.22469 76.0018 7.20255 76.0018C7.20255 76.0018 60.0212 76.0018 60.0212 76.0018C63.9991 76.0018 67.2238 73.3154 67.2238 70.0016C67.2238 70.0016 67.2238 38.0009 67.2238 38.0009C67.2238 34.6871 63.9991 32.0008 60.0212 32.0008C60.0212 32.0008 60.0212 22.0005 60.0212 22.0005C60.004 9.85591 48.1902 0.0143261 33.6119 0C33.6119 0 33.6119 0 33.6119 0ZM62.4221 38.001C62.4221 38.001 62.4221 70.0018 62.4221 70.0018C62.4221 71.1064 61.3472 72.0018 60.0213 72.0018C60.0213 72.0018 7.20261 72.0018 7.20261 72.0018C5.87666 72.0018 4.80176 71.1064 4.80176 70.0018C4.80176 70.0018 4.80176 38.001 4.80176 38.001C4.80176 36.8964 5.87666 36.001 7.20261 36.001C7.20261 36.001 60.0213 36.001 60.0213 36.001C61.3472 36.001 62.4221 36.8964 62.4221 38.001C62.4221 38.001 62.4221 38.001 62.4221 38.001ZM45.6164 32.001L21.6079 32.001C21.6079 32.001 21.6079 22.0007 21.6079 22.0007C21.6079 16.4777 26.9824 12.0005 33.6122 12.0005C40.2419 12.0005 45.6164 16.4777 45.6164 22.0007C45.6164 22.0007 45.6164 32.001 45.6164 32.001ZM50.418 32.0007C50.418 32.0007 50.418 22.0004 50.418 22.0004C50.418 14.2683 42.8937 8.0001 33.612 8.0001C24.3304 8.0001 16.8061 14.2683 16.8061 22.0004C16.8061 22.0004 16.8061 32.0007 16.8061 32.0007L12.0044 32.0007C12.0044 32.0007 12.0044 22.0004 12.0044 22.0004C12.0044 12.0591 21.6785 4 33.612 4C45.5456 4 55.2197 12.0591 55.2197 22.0004C55.2197 22.0004 55.2197 32.0007 55.2197 32.0007L50.418 32.0007Z" fill="#21C828" transform="translate(26.388 21.998)" />
          <path d="M12.0064 1.90735e-05C7.06532 -0.00798035 2.625 2.51143 0.824417 6.34459C-0.97617 10.1778 0.232239 14.5386 3.86752 17.3264C3.86752 17.3264 2.42701 25.7266 2.42701 25.7266C2.33194 26.2992 2.5389 26.8781 2.99455 27.314C3.4502 27.7499 4.10997 28.0004 4.80385 28.0007C4.80385 28.0007 19.2089 28.0007 19.2089 28.0007C19.9052 28.0008 20.5673 27.749 21.0233 27.3107C21.4794 26.8725 21.6847 26.2908 21.5858 25.7166C21.5858 25.7166 20.1453 17.3264 20.1453 17.3264C23.7805 14.5386 24.989 10.1778 23.1884 6.3446C21.3878 2.51143 16.9475 -0.00797653 12.0064 2.28882e-05C12.0064 2.28882e-05 12.0064 1.90735e-05 12.0064 1.90735e-05ZM16.1814 14.8684C15.4525 15.3029 15.0748 16.0394 15.2018 16.7784C15.2018 16.7784 16.4406 24.0006 16.4406 24.0006L7.57191 24.0006C7.57191 24.0006 8.81075 16.7784 8.81075 16.7784C8.93779 16.0394 8.56008 15.3029 7.8312 14.8684C5.27777 13.3552 4.19178 10.6403 5.14521 8.15356C6.09863 5.66684 8.87267 3.979 12.0063 3.979C15.1399 3.979 17.9139 5.66684 18.8674 8.15356C19.8208 10.6403 18.7348 13.3552 16.1814 14.8684C16.1814 14.8684 16.1814 14.8684 16.1814 14.8684Z" fill="#21C828" transform="translate(47.994 61.999)" />
          <path d="M2.41288 4.0001C1.55514 4.00367 0.760269 3.62576 0.327685 3.00873C-0.104899 2.3917 -0.109476 1.62929 0.31568 1.00868C0.740837 0.388081 1.53113 0.00357246 2.38887 0C2.38887 0 2.41288 0 2.41288 0C3.73883 0 4.81373 0.895452 4.81373 2.00005C4.81373 3.10464 3.73884 4.0001 2.41288 4.0001C2.41288 4.0001 2.41288 4.0001 2.41288 4.0001Z" fill="#21C828" fill-rule="evenodd" transform="translate(5.642 30.712)" />
          <path d="M30.6592 109.04C30.6592 109.04 57.9809 119.628 57.9809 119.628C59.2611 120.124 60.7389 120.124 62.0191 119.628C62.0191 119.628 89.3408 109.04 89.3408 109.04C110.504 100.678 122.708 81.8441 119.488 62.5166C119.488 62.5166 113.023 24.5157 113.023 24.5157C112.746 22.9016 111.321 21.5889 109.421 21.1976C92.3304 17.5696 76.4962 10.6591 63.1859 1.01913C61.3742 -0.339709 58.6234 -0.339709 56.8117 1.01913C43.5042 10.6591 27.6722 17.5697 10.5833 21.1976C8.68334 21.5889 7.25855 22.9016 6.98204 24.5157C6.79509 25.612 7.71036 26.627 9.02637 26.7827C10.3424 26.9385 11.5608 26.176 11.7477 25.0797C29.5858 21.2981 46.107 14.0764 59.9784 3.9972C73.88 14.0658 90.4182 21.2833 108.269 25.0717C108.269 25.0717 114.735 63.0726 114.735 63.0726C117.672 80.6593 106.571 97.7999 87.3145 105.412C87.3145 105.412 60 116 60 116C60 116 32.6783 105.412 32.6783 105.412C13.4255 97.8 2.32625 80.6627 5.26065 63.0786C5.26065 63.0786 9.02999 40.9161 9.02999 40.9161C9.19818 39.8303 8.28731 38.8337 6.98623 38.6799C5.68515 38.5261 4.47739 39.2722 4.27631 40.354C4.27631 40.354 0.511776 62.5166 0.511776 62.5166C-2.70827 81.8441 9.49604 100.678 30.6592 109.04C30.6592 109.04 30.6592 109.04 30.6592 109.04Z" fill="#21C828" fill-rule="evenodd" />
        </g>
      </g>
    </g>
    <path d="M98 0C102.419 0 106 3.58112 106 8L106 8C106 12.4189 102.419 16 98 16L8 16C3.58112 16 0 12.4189 0 8L0 8C0 3.58112 3.58112 0 8 0L98 0Z" fill="#FFFFFF" filter="url(#filter_1)" transform="translate(7 91)" />
    <g transform="translate(32.203 91)">
      <path d="M3.72 12.684Q2.844 12.684 2.142 12.384Q1.44 12.084 1.032 11.52Q0.624 10.956 0.612 10.188L2.412 10.188Q2.448 10.704 2.778 11.004Q3.108 11.304 3.684 11.304Q4.272 11.304 4.608 11.022Q4.944 10.74 4.944 10.284Q4.944 9.912 4.716 9.672Q4.488 9.432 4.146 9.294Q3.804 9.156 3.204 8.988Q2.388 8.748 1.878 8.514Q1.368 8.28 1.002 7.806Q0.636 7.332 0.636 6.54Q0.636 5.796 1.008 5.244Q1.38 4.692 2.052 4.398Q2.724 4.104 3.588 4.104Q4.884 4.104 5.694 4.734Q6.504 5.364 6.588 6.492L4.74 6.492Q4.716 6.06 4.374 5.778Q4.032 5.496 3.468 5.496Q2.976 5.496 2.682 5.748Q2.388 6 2.388 6.48Q2.388 6.816 2.61 7.038Q2.832 7.26 3.162 7.398Q3.492 7.536 4.092 7.716Q4.908 7.956 5.424 8.196Q5.94 8.436 6.312 8.916Q6.684 9.396 6.684 10.176Q6.684 10.848 6.336 11.424Q5.988 12 5.316 12.342Q4.644 12.684 3.72 12.684ZM14.316 9.132Q14.316 9.492 14.268 9.78L9.408 9.78Q9.468 10.5 9.912 10.908Q10.356 11.316 11.004 11.316Q11.94 11.316 12.336 10.512L14.148 10.512Q13.86 11.472 13.044 12.09Q12.228 12.708 11.04 12.708Q10.08 12.708 9.318 12.282Q8.556 11.856 8.13 11.076Q7.704 10.296 7.704 9.276Q7.704 8.244 8.124 7.464Q8.544 6.684 9.3 6.264Q10.056 5.844 11.04 5.844Q11.988 5.844 12.738 6.252Q13.488 6.66 13.902 7.41Q14.316 8.16 14.316 9.132ZM12.576 8.652Q12.564 8.004 12.108 7.614Q11.652 7.224 10.992 7.224Q10.368 7.224 9.942 7.602Q9.516 7.98 9.42 8.652L12.576 8.652ZM15.108 9.276Q15.108 8.244 15.528 7.47Q15.948 6.696 16.692 6.27Q17.436 5.844 18.396 5.844Q19.632 5.844 20.442 6.462Q21.252 7.08 21.528 8.196L19.716 8.196Q19.572 7.764 19.23 7.518Q18.888 7.272 18.384 7.272Q17.664 7.272 17.244 7.794Q16.824 8.316 16.824 9.276Q16.824 10.224 17.244 10.746Q17.664 11.268 18.384 11.268Q19.404 11.268 19.716 10.356L21.528 10.356Q21.252 11.436 20.436 12.072Q19.62 12.708 18.396 12.708Q17.436 12.708 16.692 12.282Q15.948 11.856 15.528 11.082Q15.108 10.308 15.108 9.276ZM29.04 5.952L29.04 12.6L27.348 12.6L27.348 11.76Q27.024 12.192 26.502 12.438Q25.98 12.684 25.368 12.684Q24.588 12.684 23.988 12.354Q23.388 12.024 23.046 11.382Q22.704 10.74 22.704 9.852L22.704 5.952L24.384 5.952L24.384 9.612Q24.384 10.404 24.78 10.83Q25.176 11.256 25.86 11.256Q26.556 11.256 26.952 10.83Q27.348 10.404 27.348 9.612L27.348 5.952L29.04 5.952ZM32.376 6.984Q32.7 6.456 33.222 6.156Q33.744 5.856 34.416 5.856L34.416 7.62L33.972 7.62Q33.18 7.62 32.778 7.992Q32.376 8.364 32.376 9.288L32.376 12.6L30.696 12.6L30.696 5.952L32.376 5.952L32.376 6.984ZM41.724 9.132Q41.724 9.492 41.676 9.78L36.816 9.78Q36.876 10.5 37.32 10.908Q37.764 11.316 38.412 11.316Q39.348 11.316 39.744 10.512L41.556 10.512Q41.268 11.472 40.452 12.09Q39.636 12.708 38.448 12.708Q37.488 12.708 36.726 12.282Q35.964 11.856 35.538 11.076Q35.112 10.296 35.112 9.276Q35.112 8.244 35.532 7.464Q35.952 6.684 36.708 6.264Q37.464 5.844 38.448 5.844Q39.396 5.844 40.146 6.252Q40.896 6.66 41.31 7.41Q41.724 8.16 41.724 9.132ZM39.984 8.652Q39.972 8.004 39.516 7.614Q39.06 7.224 38.4 7.224Q37.776 7.224 37.35 7.602Q36.924 7.98 36.828 8.652L39.984 8.652Z" transform="translate(13.297 0)" fill="#545454" />
      <g transform="translate(0 3.078)">
        <path d="M0.46875 1.32813L0.46875 2.03125C0.46875 2.03125 0.234375 2.03125 0.234375 2.03125C0.104934 2.03125 0 2.13618 0 2.26563C0 2.26563 0 4.60938 0 4.60938C0 4.73882 0.104934 4.84375 0.234375 4.84375C0.234375 4.84375 3.35938 4.84375 3.35938 4.84375C3.48882 4.84375 3.59375 4.73882 3.59375 4.60938C3.59375 4.60938 3.59375 2.26563 3.59375 2.26563C3.59375 2.13618 3.48882 2.03125 3.35938 2.03125C3.35938 2.03125 3.125 2.03125 3.125 2.03125C3.125 2.03125 3.125 1.32813 3.125 1.32813C3.125 0.594622 2.53038 0 1.79688 0C1.06337 0 0.46875 0.594622 0.46875 1.32813C0.46875 1.32813 0.46875 1.32813 0.46875 1.32813ZM3.125 2.5L3.125 4.375L0.46875 4.375L0.46875 2.5L3.125 2.5ZM2.65625 1.32813L2.65625 2.03125L0.9375 2.03125C0.9375 2.03125 0.9375 1.32813 0.9375 1.32813C0.9375 0.853505 1.32226 0.46875 1.79688 0.46875C2.27149 0.46875 2.65625 0.853505 2.65625 1.32813C2.65625 1.32813 2.65625 1.32813 2.65625 1.32813Z" fill="#21C828" transform="translate(2.5 2.031)" />
        <path d="M0 0.234375C0 0.104895 0.104919 0 0.234375 0C0.363831 0 0.46875 0.104895 0.46875 0.234375C0.46875 0.363855 0.363831 0.46875 0.234375 0.46875C0.104919 0.46875 0 0.363855 0 0.234375Z" fill="#21C828" fill-rule="evenodd" transform="translate(4.063 5.313)" />
        <path d="M8.23641 1.40628C6.85461 1.40499 5.51558 0.927004 4.44531 0.052997C4.44531 0.052997 4.44531 0.052997 4.44531 0.052997C4.35897 -0.0176657 4.23478 -0.0176657 4.14844 0.052997C4.14844 0.052997 4.14844 0.052997 4.14844 0.052997C3.07817 0.927005 1.73914 1.40499 0.357344 1.40628C0.357344 1.40628 0.234375 1.40628 0.234375 1.40628C0.104933 1.40628 0 1.51121 0 1.64065C0 1.64065 0 4.30847 0 4.30847C0.0035727 6.89539 1.73871 9.15958 4.23568 9.83567C4.2758 9.84644 4.31805 9.84644 4.35818 9.83567C6.85512 9.15954 8.59021 6.89533 8.59375 4.30847C8.59375 4.30847 8.59375 1.64065 8.59375 1.64065C8.59375 1.51121 8.48882 1.40628 8.35938 1.40628C8.35938 1.40628 8.23641 1.40628 8.23641 1.40628ZM8.125 4.30854C8.12185 6.66047 6.55925 8.72486 4.2967 9.3664C2.03422 8.72471 0.471767 6.66025 0.46875 4.30854C0.46875 4.30854 0.46875 1.87416 0.46875 1.87416C1.85541 1.84878 3.19729 1.3789 4.29688 0.533691C5.39646 1.3789 6.73834 1.84878 8.125 1.87416C8.125 1.87416 8.125 4.30854 8.125 4.30854Z" fill="#21C828" />
      </g>
    </g>
  </g>
</svg>