<?xml version="1.0" encoding="utf-8"?>
<svg width="30.882" height="30.91" viewBox="0 0 30.882 30.91" fill="none" xmlns="http://www.w3.org/2000/svg">
  <g transform="translate(-0 0)">
    <path d="M19.5586 6.18202L15.441 2.06067C15.441 2.06067 8.7499 2.06067 8.7499 2.06067C8.18208 2.05898 7.7222 1.59867 7.7205 1.03034C7.7205 1.03034 7.7205 0 7.7205 0L0 0C0 0 0 2.06067 0 2.06067C0 3.19875 0.921756 4.12135 2.0588 4.12135C2.0588 4.12135 10.8344 4.12135 10.8344 4.12135C9.81984 5.25347 9.26053 6.72184 9.2646 8.24269C9.2646 8.24269 9.2646 10.3034 9.2646 10.3034L29.8526 10.3034C29.8526 10.3034 29.8526 8.24269 29.8526 8.24269C29.8526 4.82845 27.0873 2.06067 23.6762 2.06067C23.6762 2.06067 19.5586 6.18202 19.5586 6.18202Z" fill="#F9F9F9" fill-rule="evenodd" transform="translate(0.514 20.092)" />
    <path d="M16.9851 11.8489C19.092 11.8899 21.1877 11.5316 23.1615 10.7928C23.5167 10.6504 23.8608 10.4816 24.1909 10.2879C24.1909 10.2879 24.1909 6.05322 24.1909 6.05322L16.9851 8.75786L9.7793 6.05322L8.7499 5.66685L16.9851 2.57584L20.588 3.93073C20.588 3.93073 20.588 1.03034 20.588 1.03034C20.5863 0.461977 20.1264 0.00168395 19.5586 0C19.5586 0 1.0294 0 1.0294 0C0.461582 0.00169754 0.00169587 0.462002 0 1.03034C0 1.03034 0 15.9702 0 15.9702C0 15.9702 11.1587 15.9702 11.1587 15.9702C10.9264 15.3081 10.8081 14.6113 10.8087 13.9095C10.8087 13.9095 10.8087 10.7928 10.8087 10.7928C12.7825 11.5316 14.8782 11.8899 16.9851 11.8489C16.9851 11.8489 16.9851 11.8489 16.9851 11.8489Z" fill="#F7C9C9" fill-rule="evenodd" transform="translate(3.09 2.06)" />
    <rect width="2.574" height="1.03" fill="#F00C0C" fill-rule="evenodd" transform="translate(10.81 19.576)" />
    <rect width="1.029" height="1.03" fill="#F00C0C" fill-rule="evenodd" transform="translate(3.09 21.636)" />
    <rect width="1.029" height="1.03" fill="#F00C0C" fill-rule="evenodd" transform="translate(5.144 21.636)" />
    <path d="M24.1909 21.6371C24.1909 21.6371 23.6247 21.6371 23.6247 21.6371C25.5763 20.4152 26.7624 18.2742 26.7644 15.9702C26.7644 15.9702 26.7644 13.1883 26.7644 13.1883C27.0304 13.0707 27.2898 12.9388 27.5416 12.7932C27.6984 12.7001 27.7943 12.531 27.7938 12.3486C27.7938 12.3486 27.7938 8.47091 27.7938 8.47091L28.4022 8.24269L28.8232 8.24269C28.8232 8.24269 28.8232 11.9437 28.8232 11.9437C28.2271 12.1525 27.8192 12.7049 27.7948 13.3366C27.7703 13.9682 28.1343 14.5506 28.7125 14.8049C28.7125 14.8049 27.8092 18.4209 27.8092 18.4209C27.7707 18.5748 27.8052 18.7379 27.9027 18.863C28.0003 18.9881 28.15 19.0612 28.3085 19.0612C28.3085 19.0612 30.3673 19.0612 30.3673 19.0612C30.5258 19.0612 30.6755 18.9881 30.7731 18.863C30.8706 18.7379 30.9051 18.5748 30.8666 18.4209C30.8666 18.4209 29.9633 14.8049 29.9633 14.8049C30.5415 14.5506 30.9055 13.9682 30.881 13.3366C30.8566 12.7049 30.4487 12.1525 29.8526 11.9437C29.8526 11.9437 29.8526 7.72752 29.8526 7.72752C29.8526 7.44301 29.6222 7.21236 29.3379 7.21236C29.3379 7.21236 28.4022 7.21236 28.4022 7.21236L25.735 6.21138C25.735 6.21138 25.735 2.57584 25.735 2.57584C25.7332 1.15371 24.5819 0.00156922 23.1613 0C23.1613 0 3.6029 0 3.6029 0C2.1823 0.00170261 1.0311 1.15395 1.0294 2.57584C1.0294 2.57584 1.0294 19.5764 1.0294 19.5764C1.0294 19.5764 0.5147 19.5764 0.5147 19.5764C0.230439 19.5764 0 19.807 0 20.0916C0 20.0916 0 22.1522 0 22.1522C0.00183507 23.5744 1.15314 24.7265 2.57374 24.7281C2.57374 24.7281 10.3264 24.7281 10.3264 24.7281C9.63343 25.8029 9.26476 27.055 9.2646 28.3343C9.2646 28.3343 9.2646 30.3949 9.2646 30.3949C9.2646 30.6794 9.49504 30.9101 9.7793 30.9101C9.7793 30.9101 30.3673 30.9101 30.3673 30.9101C30.6516 30.9101 30.882 30.6794 30.882 30.3949C30.882 30.3949 30.882 28.3343 30.882 28.3343C30.8778 24.6373 27.8846 21.6413 24.1909 21.6371C24.1909 21.6371 24.1909 21.6371 24.1909 21.6371ZM22.9502 22.6675L20.0751 25.5452L17.2 22.6675L22.9502 22.6675ZM20.0755 21.6366C16.9501 21.6329 14.4175 19.0979 14.4138 15.9697C14.4138 15.9697 14.4138 13.5933 14.4138 13.5933C16.2454 14.1673 18.1563 14.4478 20.0755 14.4242C21.9947 14.4477 23.9055 14.1673 25.7372 13.5933C25.7372 13.5933 25.7372 15.9697 25.7372 15.9697C25.7338 19.0974 23.2013 21.6326 20.076 21.6366C20.076 21.6366 20.0755 21.6366 20.0755 21.6366ZM23.162 5.24609C23.162 5.24609 20.255 4.15445 20.255 4.15445C20.1387 4.11169 20.011 4.11169 19.8947 4.15445C19.8947 4.15445 11.6595 7.24546 11.6595 7.24546C11.4582 7.3206 11.3246 7.51307 11.3246 7.72817C11.3246 7.94328 11.4582 8.13574 11.6595 8.21088C11.6595 8.21088 12.3533 8.47156 12.3533 8.47156C12.3533 8.47156 12.3533 12.3492 12.3533 12.3492C12.3532 12.5313 12.4491 12.6999 12.6055 12.7928C12.8572 12.939 13.1166 13.0713 13.3827 13.189C13.3827 13.189 13.3827 15.9709 13.3827 15.9709C13.3846 16.4915 13.4473 17.0102 13.5696 17.5164C13.5696 17.5164 3.60344 17.5164 3.60344 17.5164C3.60344 17.5164 3.60344 3.09166 3.60344 3.09166C3.60344 2.80714 3.83388 2.57649 4.11814 2.57649C4.11814 2.57649 22.6473 2.57649 22.6473 2.57649C22.9316 2.57649 23.162 2.80714 23.162 3.09166C23.162 3.09166 23.162 5.24609 23.162 5.24609ZM26.7648 12.0454C26.5334 12.1674 26.296 12.2777 26.0534 12.3756C24.1422 13.0896 22.1133 13.4352 20.0737 13.3941C18.033 13.4357 16.003 13.0901 14.0908 12.3757C13.8492 12.2783 13.6128 12.1686 13.3825 12.047C13.3825 12.047 13.3825 8.85705 13.3825 8.85705C13.3825 8.85705 19.8925 11.301 19.8925 11.301C20.0088 11.3438 20.1365 11.3438 20.2528 11.301C20.2528 11.301 26.7648 8.85705 26.7648 8.85705C26.7648 8.85705 26.7648 12.0454 26.7648 12.0454ZM29.3383 12.8786C29.6226 12.8786 29.853 13.1092 29.853 13.3937C29.853 13.6782 29.6226 13.9089 29.3383 13.9089C29.0541 13.9089 28.8236 13.6782 28.8236 13.3937C28.8236 13.1092 29.0541 12.8786 29.3383 12.8786ZM28.9676 18.0307L29.3377 16.5485L29.7078 18.0307L28.9676 18.0307ZM25.4686 8.24304L20.0741 10.2687L13.3047 7.72787L20.0741 5.18706L25.4712 7.2127L20.0741 7.2127L20.0741 8.24304L25.4686 8.24304ZM2.05855 2.57571C2.05855 1.72215 2.74987 1.03021 3.60265 1.03021C3.60265 1.03021 23.1613 1.03021 23.1613 1.03021C24.014 1.03021 24.7054 1.72215 24.7054 2.57571C24.7054 2.57571 24.7054 5.82488 24.7054 5.82488L24.1907 5.63169C24.1907 5.63169 24.1907 3.09088 24.1907 3.09088C24.1907 2.23732 23.4993 1.54537 22.6466 1.54537C22.6466 1.54537 4.11735 1.54537 4.11735 1.54537C3.26457 1.54537 2.57325 2.23732 2.57325 3.09088C2.57325 3.09088 2.57325 18.0308 2.57325 18.0308C2.57325 18.3153 2.80369 18.5459 3.08795 18.5459C3.08795 18.5459 13.8967 18.5459 13.8967 18.5459C14.4331 19.822 15.3497 20.9015 16.5216 21.6369C16.5216 21.6369 9.26435 21.6369 9.26435 21.6369C8.98009 21.6369 8.74965 21.4063 8.74965 21.1218C8.74965 21.1218 8.74965 20.0914 8.74965 20.0914C8.74965 19.8069 8.51922 19.5763 8.23495 19.5763C8.23495 19.5763 2.05855 19.5763 2.05855 19.5763C2.05855 19.5763 2.05855 2.57571 2.05855 2.57571ZM2.57143 23.6971C1.71865 23.6971 1.02733 23.0051 1.02733 22.1516C1.02733 22.1516 1.02733 20.6061 1.02733 20.6061L7.71843 20.6061C7.71843 20.6061 7.71843 21.1212 7.71843 21.1212C7.71843 21.9748 8.40975 22.6668 9.26253 22.6668C9.26253 22.6668 12.4022 22.6668 12.4022 22.6668C11.9393 22.9573 11.5136 23.3033 11.1345 23.6971C11.1345 23.6971 2.57143 23.6971 2.57143 23.6971ZM29.8553 29.8793L10.2967 29.8793C10.2967 29.8793 10.2967 28.3338 10.2967 28.3338C10.3016 25.2861 12.7128 22.7877 15.7556 22.6772C15.7556 22.6772 18.8335 25.7579 18.8335 25.7579L12.3555 25.7579L12.3555 26.7882L27.7965 26.7882L27.7965 25.7579L21.3184 25.7579C21.3184 25.7579 24.3964 22.6772 24.3964 22.6772C27.4392 22.7877 29.8503 25.2862 29.8553 28.3338C29.8553 28.3338 29.8553 29.8793 29.8553 29.8793Z" fill="#F00C0C" />
  </g>
</svg>