<?xml version="1.0" encoding="utf-8"?>
<svg width="30.882" height="30.91" viewBox="0 0 30.882 30.91" fill="none" xmlns="http://www.w3.org/2000/svg">
  <g transform="translate(-0 -0)">
    <g>
      <g transform="translate(7.58 21.664)">
        <path d="M5.23948 0L2.78876 8.46057L0 8.46057L2.45072 0L5.23948 0Z" fill="#F7C9C9" fill-rule="evenodd" />
        <path d="M0 0L2.45072 8.46057L5.23942 8.46057L2.7887 0L0 0Z" fill="#F7C9C9" fill-rule="evenodd" transform="translate(12.028 0)" />
      </g>
      <path d="M24.5419 3.88003L24.5419 15.1825L0 15.1825C0 15.1825 0 3.88003 0 3.88003C0 1.73738 1.72386 0 3.8497 0C3.8497 0 20.6922 0 20.6922 0C22.8181 -6.22272e-05 24.5419 1.73738 24.5419 3.88003C24.5419 3.88003 24.5419 3.88003 24.5419 3.88003Z" fill="#F7C9C9" fill-rule="evenodd" transform="translate(3.946 3.077)" />
      <path d="M1.68927 3.40515C1.68927 3.40515 27.0421 3.40515 27.0421 3.40515C27.9751 3.40515 28.7314 2.64287 28.7314 1.70257C28.7314 0.762283 27.9751 0 27.0421 0C27.0421 0 1.68927 0 1.68927 0C0.756325 0 0 0.762283 0 1.70257C6.17504e-05 2.64293 0.756325 3.40515 1.68927 3.40515C1.68927 3.40515 1.68927 3.40515 1.68927 3.40515Z" fill="#FFFFFF" fill-rule="evenodd" transform="translate(1.845 18.258)" />
      <path d="M9.76131 1.98911L9.76131 2.19781L0 2.19781C0 2.19781 0 1.98911 0 1.98911C0 0.890541 0.883585 0 1.97356 0C1.97356 0 7.78775 0 7.78775 0C8.87773 -6.29425e-05 9.76131 0.890543 9.76131 1.98911C9.76131 1.98911 9.76131 1.98911 9.76131 1.98911Z" fill="#FFFFFF" fill-rule="evenodd" transform="translate(16.212 16.062)" />
      <path d="M24.5419 3.88003C24.5419 3.88003 24.5419 7.09702 24.5419 7.09702C23.4364 6.82381 22.3095 6.6826 21.1856 6.62432C20.1775 6.57208 19.1602 6.58435 18.1704 6.81764C17.0222 7.09086 15.9318 7.65875 14.8202 8.12535C10.3948 9.99784 5.58271 10.3049 1.03549 9.02168C0.691337 8.9235 0.344155 8.81603 0 8.70551C0 8.70551 0 3.88003 0 3.88003C0 1.73738 1.72386 0 3.8497 0C3.8497 0 20.6922 0 20.6922 0C22.8181 -6.22272e-05 24.5419 1.73738 24.5419 3.88003C24.5419 3.88003 24.5419 3.88003 24.5419 3.88003Z" fill="#FFFFFF" fill-rule="evenodd" transform="translate(3.946 3.077)" />
      <path d="M6.56702 7.49911C5.96551 8.48249 5.34039 9.38655 4.72553 10.1792C4.1845 10.876 3.65131 11.4869 3.14858 11.9895C1.94629 13.1917 0.919137 13.7754 0.379399 13.44C-0.160339 13.1046 -0.104308 11.9175 0.421283 10.2948C0.640959 9.61642 0.943044 8.8618 1.31772 8.06166C1.74416 7.15194 2.26474 6.183 2.86626 5.19962C4.27908 2.88993 5.82249 1.01731 7.06018 0C7.06018 0 9.29234 1.38696 9.29234 1.38696C8.94657 2.95842 7.97984 5.18941 6.56702 7.49911C6.56702 7.49911 6.56702 7.49911 6.56702 7.49911Z" fill="#F7C9C9" fill-rule="evenodd" transform="translate(0.3 17.069)" />
      <path d="M4.30425 2.11743C3.76322 2.81427 3.23003 3.4252 2.72729 3.92778C1.73579 3.51168 0.814209 2.93911 0 2.23318C0.219676 1.55476 0.521761 0.800138 0.896433 0C1.8329 0.987175 3.0085 1.71764 4.30425 2.11743C4.30425 2.11743 4.30425 2.11743 4.30425 2.11743Z" fill="#FFFFFF" fill-rule="evenodd" transform="translate(0.728 25.131)" />
      <path d="M4.79721 6.54503C4.16369 7.11878 3.37771 7.35868 2.42179 7.22506C0.945526 7.01835 -0.133827 5.70523 0.0134473 4.21036C0.0155473 4.19486 0.0172153 4.18004 0.0182042 4.16472C0.119146 3.2545 0.533788 2.41309 1.14821 1.73884C1.15766 1.72788 1.16675 1.71767 1.17688 1.70715C2.59155 0.178974 4.34927 -0.130409 6.24419 0.0432415C5.60425 0.557843 5.44765 1.21222 5.58281 1.94985C5.59678 2.02855 5.6179 2.10607 5.63767 2.18284C5.84481 2.9605 5.91375 3.71861 5.81824 4.4548C5.8041 4.56277 5.78686 4.66967 5.76567 4.77695C5.63267 5.45344 5.30711 6.08403 4.79721 6.54503C4.79721 6.54503 4.79721 6.54503 4.79721 6.54503Z" fill="#FFFFFF" fill-rule="evenodd" transform="translate(6.841 11.64)" />
      <path d="M4.67003 4.45481C4.48767 4.33495 4.33329 4.16622 4.14666 4.05028C3.56115 3.68835 2.75312 3.89307 2.17254 3.52298C2.06734 3.45574 1.97004 3.36633 1.92087 3.2499C1.89455 3.18689 1.88362 3.11846 1.87225 3.05066C1.80102 2.61887 1.66233 2.12469 1.2611 1.95658C1.04741 1.86673 0.807106 1.89301 0.576495 1.89444C0.373189 1.89512 0.153081 1.86573 0 1.73884C0.00945187 1.72789 0.0185332 1.71767 0.0286641 1.70715C1.44334 0.178974 3.20105 -0.130409 5.09597 0.0432415C4.45604 0.557843 4.29943 1.21222 4.4346 1.94985C4.44856 2.02855 4.46969 2.10607 4.48946 2.18284C4.69659 2.9605 4.76553 3.71861 4.67003 4.45481C4.67003 4.45481 4.67003 4.45481 4.67003 4.45481Z" fill="#F7C9C9" fill-rule="evenodd" transform="translate(7.985 11.64)" />
      <path d="M28.8902 17.953C28.8902 17.953 28.7873 17.953 28.7873 17.953C28.7873 13.6507 28.7873 8.88844 28.7873 6.95705C28.7873 4.64941 26.9246 2.772 24.635 2.772C24.635 2.772 21.1227 2.772 21.1227 2.772C21.1227 2.772 21.1227 1.51772 21.1227 1.51772C21.1227 0.680968 20.4472 0 19.6169 0C19.6169 0 12.8104 0 12.8104 0C11.9802 0 11.3045 0.680905 11.3045 1.51772C11.3045 1.51772 11.3045 2.772 11.3045 2.772C11.3045 2.772 7.79257 2.772 7.79257 2.772C5.50277 2.772 3.63991 4.64935 3.63991 6.95705C3.63991 6.95705 3.63991 17.953 3.63991 17.953C3.63991 17.953 3.5373 17.953 3.5373 17.953C2.43892 17.953 1.54527 18.8536 1.54527 19.9606C1.54527 20.8948 2.18274 21.6787 3.04161 21.9014C2.4283 22.887 1.85304 23.9235 1.34796 25.0009C0.686583 26.4128 -0.783318 29.9567 0.524359 30.7692C1.83395 31.5818 4.31235 28.6677 5.2679 27.4367C6.46889 25.8887 7.68613 23.9494 8.62648 21.9682C8.62648 21.9682 9.62849 21.9682 9.62849 21.9682C9.62849 21.9682 7.29088 30.0382 7.29088 30.0382C7.26414 30.1303 7.28217 30.2298 7.33925 30.3067C7.39646 30.3836 7.48622 30.4289 7.58154 30.4289C7.58154 30.4289 10.3702 30.4289 10.3702 30.4289C10.5048 30.4289 10.6231 30.3394 10.6609 30.2093C10.6609 30.2093 11.5994 26.9695 11.5994 26.9695L20.8284 26.9695C20.8284 26.9695 21.7668 30.2093 21.7668 30.2093C21.8047 30.3394 21.9229 30.4289 22.0575 30.4289C22.0575 30.4289 24.8462 30.4289 24.8462 30.4289C24.9414 30.4289 25.0313 30.3835 25.0883 30.3067C25.1457 30.2298 25.1635 30.1303 25.1368 30.0382C25.1368 30.0382 22.7992 21.9682 22.7992 21.9682C22.7992 21.9682 28.8903 21.9682 28.8903 21.9682C29.9887 21.9682 30.8822 21.0677 30.8822 19.9606C30.8821 18.8535 29.9887 17.953 28.8902 17.953C28.8902 17.953 28.8902 17.953 28.8902 17.953ZM11.9077 1.51795C11.9077 1.0176 12.3116 0.610529 12.808 0.610529C12.808 0.610529 19.6145 0.610529 19.6145 0.610529C20.111 0.610529 20.5148 1.0176 20.5148 1.51795C20.5148 1.51795 20.5148 2.77192 20.5148 2.77192L11.9077 2.77192C11.9077 2.77192 11.9077 1.51795 11.9077 1.51795ZM7.14958 15.8913C7.25343 15.1064 7.49349 14.447 8.06121 13.7578C8.35934 13.8601 8.65958 13.8353 8.68985 13.8372C8.8551 13.8327 9.01195 13.8292 9.12907 13.8786C9.33899 13.9665 9.47514 14.2404 9.5591 14.7487C9.60456 15.0195 9.68728 15.2239 9.99493 15.4207C10.3458 15.6445 10.7367 15.6898 11.1149 15.7336C11.9236 15.8275 11.9275 15.9088 12.3257 16.2297C12.2011 16.9769 11.8758 17.5555 11.431 17.9578C11.431 17.9578 11.431 17.9578 11.4307 17.9578C9.79848 19.4368 6.92194 18.2015 7.14958 15.8913C7.14958 15.8913 7.14958 15.8913 7.14958 15.8913ZM12.424 11.9495C12.1055 12.4194 12.005 12.9868 12.1253 13.6433C12.1613 13.85 12.4067 14.5893 12.3954 15.499C12.0266 15.2314 11.6395 15.1799 11.1887 15.1275C10.8639 15.0897 10.5571 15.0543 10.3237 14.9053C10.179 14.8132 10.1799 14.7608 10.1596 14.6407C10.0841 14.1826 9.91955 13.547 9.36665 13.3152C9.18497 13.2386 9.00106 13.2246 8.82957 13.2246C8.79269 13.2246 8.58889 13.2289 8.57277 13.2293C9.64897 12.2524 10.9762 11.9119 12.424 11.9495C12.424 11.9495 12.424 11.9495 12.424 11.9495ZM16.519 17.9527C16.5696 17.0694 17.2983 16.3665 18.187 16.3665C18.187 16.3665 24.001 16.3665 24.001 16.3665C24.8896 16.3665 25.6183 17.0694 25.6689 17.9527C25.6689 17.9527 16.519 17.9527 16.519 17.9527ZM26.2739 17.9529C26.2226 16.7335 25.2249 15.7564 24.0025 15.7564C24.0025 15.7564 18.1885 15.7564 18.1885 15.7564C16.9661 15.7564 15.9685 16.7335 15.9171 17.9529C15.9171 17.9529 12.254 17.9529 12.254 17.9529C12.6666 17.4039 12.8689 16.8047 12.9571 16.1343C13.1265 14.8296 12.7652 13.796 12.7193 13.5343C12.6895 13.3715 12.6778 13.2195 12.6816 13.0758C14.7833 12.8638 16.8658 12.3365 18.8807 11.4838C19.9731 11.0255 21.0706 10.4564 22.1833 10.1917C23.2238 9.94645 24.2961 9.96344 25.114 10.006C26.2337 10.0642 27.2386 10.2025 28.183 10.4201C28.183 10.4201 28.183 17.9529 28.183 17.9529C28.183 17.9529 26.2739 17.9529 26.2739 17.9529ZM4.24552 6.95749C4.24552 4.98625 5.83682 3.38274 7.79265 3.38274C7.79265 3.38274 24.6351 3.38274 24.6351 3.38274C26.5909 3.38274 28.1819 4.98625 28.1819 6.95749C28.1819 6.95749 28.1819 9.79051 28.1819 9.79051C27.2432 9.58342 26.245 9.4541 25.144 9.39688C24.2865 9.3528 23.1585 9.33518 22.0439 9.59805C20.8679 9.87792 19.7662 10.4509 18.6461 10.9214C16.755 11.7216 14.8034 12.2254 12.8333 12.4449C12.9315 12.2521 13.076 12.079 13.2709 11.9224C13.3673 11.8447 13.4075 11.7154 13.372 11.5961C13.3366 11.4766 13.2325 11.3911 13.1095 11.3798C11.2063 11.206 9.72612 11.5525 8.53612 12.4613C6.87274 12.2912 5.58495 11.9825 4.24558 11.5595C4.24558 11.5595 4.24558 6.95749 4.24558 6.95749C4.24558 6.95749 4.24552 6.95749 4.24552 6.95749ZM4.24552 12.1931C5.37881 12.5448 6.45069 12.8162 7.92158 13.0072C7.04664 13.901 6.60679 14.9605 6.54996 15.8196C6.50165 16.3094 6.57399 16.7827 6.73992 17.2135C6.49819 17.4363 6.25072 17.6831 5.99935 17.9524C5.99935 17.9524 4.24552 17.9524 4.24552 17.9524C4.24552 17.9524 4.24552 12.1931 4.24552 12.1931ZM2.15195 19.9605C2.15195 19.1899 2.77391 18.5632 3.53845 18.5632C3.74145 18.5633 5.56953 18.5644 5.45512 18.5644C4.77033 19.3657 4.07034 20.3086 3.39698 21.3433C2.69959 21.2708 2.15195 20.6823 2.15195 19.9605C2.15195 19.9605 2.15195 19.9605 2.15195 19.9605ZM3.37877 28.6959C2.54918 28.3272 1.77692 27.8471 1.07792 27.2661C1.26609 26.712 1.48138 26.1792 1.71539 25.6558C2.52293 26.42 3.47953 27.0143 4.51978 27.3985C4.05361 27.9763 3.74807 28.3161 3.37877 28.6959C3.37877 28.6959 3.37877 28.6959 3.37877 28.6959ZM0.842806 30.2498C0.584644 30.0894 0.460412 29.3714 0.885679 27.8818C1.51518 28.3814 2.19694 28.805 2.92287 29.1477C1.79299 30.1997 1.10023 30.4099 0.842806 30.2498C0.842806 30.2498 0.842806 30.2498 0.842806 30.2498ZM4.91886 26.8884C3.8185 26.515 2.81353 25.8904 1.98851 25.0674C3.46193 21.9917 5.47898 19.2555 7.0266 17.7823C7.47893 18.4777 8.21246 18.9847 9.09233 19.1432C8.47161 21.1941 6.96544 24.2042 4.91886 26.8884C4.91886 26.8884 4.91886 26.8884 4.91886 26.8884ZM10.1431 29.8187L7.98517 29.8187L10.2593 21.9683L12.4172 21.9683L10.1431 29.8187ZM11.7754 26.3593L13.0474 21.9683L19.3789 21.9683L20.6508 26.3593L11.7754 26.3593ZM24.4414 29.8187L22.2836 29.8187L20.0096 21.9683L22.1674 21.9683L24.4414 29.8187ZM28.8909 21.3577C22.2261 21.3577 15.5694 21.3577 8.90743 21.3577C9.24609 20.5902 9.51574 19.8647 9.70749 19.204C10.4773 19.2137 11.1133 18.9873 11.6541 18.5644C11.6985 18.5644 30.1656 18.5638 28.8909 18.5632C29.6555 18.5632 30.2773 19.1899 30.2773 19.9605C30.2773 20.7311 29.6555 21.3577 28.8909 21.3577C28.8909 21.3577 28.8909 21.3577 28.8909 21.3577Z" fill="#F00C0C" />
    </g>
  </g>
</svg>