<?xml version="1.0" encoding="utf-8"?>
<svg width="39.217" height="22.652" viewBox="0 0 39.217 22.652" fill="none" xmlns="http://www.w3.org/2000/svg">
  <g>
    <path d="M35.6719 0L8.68051 0C6.77523 0 5.1875 1.58773 5.1875 3.49301L5.1875 4.81611C5.1875 5.29243 5.55797 5.6629 6.03429 5.6629C6.51061 5.6629 6.88108 5.29243 6.88108 4.81611L6.88108 3.49301C6.88108 3.33423 6.93401 3.12253 6.98693 2.96376L16.7779 11.3258L7.03985 19.6878C6.98693 19.5291 6.98693 19.3174 6.93401 19.1586L6.93401 17.8355C6.93401 17.3592 6.56354 16.9887 6.08722 16.9887C5.6109 16.9887 5.24043 17.3592 5.24043 17.8355L5.24043 19.1586C5.24043 21.0639 6.82816 22.6516 8.73343 22.6516L35.7248 22.6516C37.6301 22.6516 39.2178 21.0639 39.2178 19.1586L39.2178 3.49301C39.1649 1.58773 37.6301 0 35.6719 0L35.6719 0ZM8.36328 1.79951C8.46913 1.74658 8.57498 1.74658 8.73375 1.74658L35.7251 1.74658C35.831 1.74658 35.9368 1.74658 36.0956 1.79951L22.7587 13.1783C22.4411 13.4429 21.9648 13.4429 21.6472 13.1783L8.36328 1.79951L8.36328 1.79951ZM37.4181 19.1587C37.4181 19.3175 37.3652 19.5292 37.3122 19.6879L27.5742 11.3259L37.3122 2.96387C37.3652 3.12264 37.3652 3.33434 37.4181 3.49312L37.4181 19.1587L37.4181 19.1587ZM2.59375 9.15587C2.59375 8.67955 2.96422 8.30908 3.44054 8.30908L8.68005 8.30908C9.15637 8.30908 9.52684 8.67955 9.52684 9.15587C9.52684 9.63219 9.15637 10.0027 8.68005 10.0027L3.49346 10.0027C3.01715 10.0027 2.59375 9.63219 2.59375 9.15587L2.59375 9.15587ZM35.6705 20.9049L8.67906 20.9049C8.57321 20.9049 8.46736 20.9049 8.30859 20.852L18.0996 12.437L20.4283 14.5011C21.3809 15.3479 22.8628 15.3479 23.8154 14.5011L26.1441 12.437L36.041 20.852C35.9351 20.9049 35.7763 20.9049 35.6705 20.9049L35.6705 20.9049ZM8.67959 14.3954L0.846789 14.3954C0.37047 14.3954 0 13.972 0 13.4957C0 13.0194 0.37047 12.6489 0.846789 12.6489L8.67959 12.6489C9.15591 12.6489 9.52638 13.0194 9.52638 13.4957C9.52638 13.972 9.20883 14.3954 8.67959 14.3954L8.67959 14.3954Z" fill="#F3F3F3" fill-rule="evenodd" />
  </g>
</svg>