<?xml version="1.0" encoding="utf-8"?>
<svg width="16.5" height="20.625" viewBox="0 0 16.5 20.625" fill="none" xmlns="http://www.w3.org/2000/svg">
  <g>
    <path d="M16.5 0L16.5 8.25L0 8.25L0 0L16.5 0Z" fill="#559B38" fill-rule="evenodd" transform="translate(0 12.375)" />
    <path d="M12.375 0C12.375 0.759391 12.9906 1.375 13.75 1.375C13.75 1.375 13.75 4.125 13.75 4.125C12.9906 4.125 12.375 4.74061 12.375 5.5C12.375 5.5 1.375 5.5 1.375 5.5C1.375 4.74061 0.759392 4.125 0 4.125C0 4.125 0 1.375 0 1.375C0.759392 1.375 1.375 0.759392 1.375 0C1.375 0 12.375 0 12.375 0Z" fill="#CCCCCC" fill-rule="evenodd" transform="translate(1.375 13.75)" />
    <path d="M1.375 0C1.375 0.759392 0.759392 1.375 0 1.375C0 1.375 0 4.125 0 4.125C0.489507 4.12673 0.941185 4.38857 1.18594 4.8125C1.18594 4.8125 11 4.8125 11 4.8125C11.5695 4.8125 12.0313 4.35079 12.0313 3.78125C12.0313 3.78125 12.0313 0 12.0313 0C12.0313 0 1.375 0 1.375 0Z" fill="#F2F2F2" fill-rule="evenodd" transform="translate(1.375 13.75)" />
    <path d="M0 2.75C0 1.23122 1.23122 0 2.75 0C4.26878 0 5.5 1.23122 5.5 2.75C5.5 4.26878 4.26878 5.5 2.75 5.5C1.23122 5.5 0 4.26878 0 2.75Z" fill="#559B38" fill-rule="evenodd" transform="translate(5.5 13.75)" />
    <path d="M2.74718 0C1.7652 0.00100708 0.858277 0.525552 0.367725 1.37622C-0.122827 2.22689 -0.122558 3.27458 0.368431 4.125C0.368431 4.125 3.43468 4.125 3.43468 4.125C4.00422 4.125 4.46593 3.66329 4.46593 3.09375C4.46593 3.09375 4.46593 0.605 4.46593 0.605C3.97841 0.213876 3.3722 0.000489235 2.74718 2.86102e-06C2.74718 2.86102e-06 2.74718 0 2.74718 0Z" fill="#6BC148" fill-rule="evenodd" transform="translate(5.503 13.75)" />
    <path d="M1.03127 1.71876C0.841417 1.71876 0.687515 1.56485 0.687515 1.37501C0.687515 1.18516 0.841417 1.03126 1.03127 1.03126C1.22111 1.03126 1.37502 1.18516 1.37502 1.37501C1.37502 1.37501 2.06252 1.37501 2.06252 1.37501C2.06128 0.939026 1.78603 0.550939 1.375 0.405625C1.375 0.405625 1.375 0 1.375 0L0.6875 0C0.6875 0 0.6875 0.405625 0.6875 0.405625C0.218292 0.575879 -0.0616298 1.05773 0.0228949 1.54966C0.107419 2.0416 0.532123 2.40238 1.03125 2.40625C1.2211 2.40625 1.375 2.56015 1.375 2.75C1.375 2.93985 1.2211 3.09375 1.03125 3.09375C0.841402 3.09375 0.6875 2.93985 0.6875 2.75C0.6875 2.75 0 2.75 0 2.75C0.00123215 3.18598 0.276482 3.57407 0.687515 3.71938C0.687515 3.71938 0.687515 4.12501 0.687515 4.12501L1.37502 4.12501C1.37502 4.12501 1.37502 3.71938 1.37502 3.71938C1.84422 3.54913 2.12415 3.06727 2.03962 2.57534C1.9551 2.08341 1.53039 1.72263 1.03127 1.71876C1.03127 1.71876 1.03127 1.71876 1.03127 1.71876Z" fill="#FFFFFF" fill-rule="evenodd" transform="translate(7.219 14.437)" />
    <path d="M0 0.6875C0 0.307804 0.307804 0 0.6875 0C1.0672 0 1.375 0.307804 1.375 0.6875C1.375 1.0672 1.0672 1.375 0.6875 1.375C0.307804 1.375 0 1.0672 0 0.6875Z" fill="#559B38" fill-rule="evenodd" transform="translate(12.375 15.813)" />
    <path d="M0 0.6875C0 0.307804 0.307804 0 0.6875 0C1.0672 0 1.375 0.307804 1.375 0.6875C1.375 1.0672 1.0672 1.375 0.6875 1.375C0.307804 1.375 0 1.0672 0 0.6875Z" fill="#559B38" fill-rule="evenodd" transform="translate(2.75 15.813)" />
    <path d="M1.375 6.1875L1.375 2.0625L0 2.0625L2.0625 0L4.125 2.0625L2.75 2.0625L2.75 6.1875L1.375 6.1875Z" fill="#F3A845" fill-rule="evenodd" transform="translate(11.688 3.438)" />
    <g transform="translate(7.219 3.438)">
      <path d="M0 0L0.6875 0L0.6875 1.375L0 1.375L0 0Z" fill="#EECC61" fill-rule="evenodd" transform="translate(0 3.781)" />
      <path d="M0 0L0.6875 0L0.6875 3.4375L0 3.4375L0 0Z" fill="#EECC61" fill-rule="evenodd" transform="translate(1.375 3.781)" />
      <path d="M1.375 2.0625C1.375 2.0625 1.375 5.15625 1.375 5.15625C1.7547 5.15625 2.0625 4.84845 2.0625 4.46875C2.0625 4.46875 2.0625 0 2.0625 0L0 2.0625L1.375 2.0625Z" fill="#EECC61" fill-rule="evenodd" transform="translate(4.469 0)" />
    </g>
    <path d="M1.375 6.1875L1.375 2.0625L0 2.0625L2.0625 0L4.125 2.0625L2.75 2.0625L2.75 6.1875L1.375 6.1875Z" fill="#F3A845" fill-rule="evenodd" transform="translate(6.188 0)" />
    <path d="M1.375 2.0625C1.375 2.0625 1.375 5.15625 1.375 5.15625C1.7547 5.15625 2.0625 4.84845 2.0625 4.46875C2.0625 4.46875 2.0625 0 2.0625 0L0 2.0625L1.375 2.0625Z" fill="#EECC61" fill-rule="evenodd" transform="translate(6.188 0)" />
    <path d="M1.375 6.1875L1.375 2.0625L0 2.0625L2.0625 0L4.125 2.0625L2.75 2.0625L2.75 6.1875L1.375 6.1875Z" fill="#F3A845" fill-rule="evenodd" transform="translate(0.688 3.438)" />
    <path d="M1.375 2.0625C1.375 2.0625 1.375 5.15625 1.375 5.15625C1.7547 5.15625 2.0625 4.84845 2.0625 4.46875C2.0625 4.46875 2.0625 0 2.0625 0L0 2.0625L1.375 2.0625Z" fill="#EECC61" fill-rule="evenodd" transform="translate(0.688 3.438)" />
  </g>
</svg>