<?xml version="1.0" encoding="utf-8"?>
<svg width="68.399" height="68.399" viewBox="0 0 68.399 68.399" fill="none" xmlns="http://www.w3.org/2000/svg">
  <g>
    <g transform="translate(14.449 14.45)">
      <path d="M13.7671 4.76837e-07C11.3908 -0.000517845 9.05477 0.614207 6.9865 1.78434C4.91822 2.95448 3.18813 4.64016 1.96462 6.6773C0.7411 8.71445 0.0658448 11.0337 0.00457644 13.4092C-0.0566919 15.7848 0.498114 18.1357 1.61499 20.2332L0.112852 24.7396C-0.0115743 25.1127 -0.0296314 25.5131 0.0607047 25.8959C0.151041 26.2787 0.3462 26.6288 0.624309 26.9069C0.902418 27.185 1.25249 27.3801 1.63528 27.4705C2.01807 27.5608 2.41845 27.5428 2.79156 27.4183L7.29797 25.9162C9.14391 26.898 11.1893 27.4464 13.2788 27.5197C15.3683 27.593 17.447 27.1894 19.3573 26.3393C21.2675 25.4893 22.9589 24.2153 24.3033 22.614C25.6476 21.0127 26.6094 19.1261 27.1158 17.0976C27.6221 15.069 27.6597 12.9517 27.2256 10.9065C26.7916 8.86126 25.8973 6.94178 24.6106 5.29377C23.3239 3.64576 21.6787 2.31253 19.7999 1.39527C17.921 0.478022 15.8579 0.000858307 13.7671 4.76837e-07L13.7671 4.76837e-07ZM13.7657 25.4107C11.7183 25.4121 9.7067 24.873 7.93445 23.8477C7.80469 23.7725 7.66042 23.7256 7.5112 23.7104C7.36198 23.6951 7.21122 23.7117 7.0689 23.759L2.11912 25.4107L3.76949 20.461C3.81706 20.3187 3.83387 20.168 3.81881 20.0188C3.80375 19.8696 3.75717 19.7253 3.68214 19.5954C2.39833 17.3758 1.88289 14.7946 2.21577 12.2522C2.54865 9.70983 3.71124 7.34833 5.5232 5.53409C7.33516 3.71984 9.69518 2.55427 12.2372 2.21817C14.7792 1.88208 17.3611 2.39426 19.5823 3.67526C21.8035 4.95626 23.5398 6.93447 24.522 9.30301C25.5042 11.6715 25.6773 14.298 25.0144 16.7749C24.3516 19.2519 22.8899 21.4409 20.856 23.0023C18.8221 24.5637 16.3298 25.4103 13.7657 25.4107L13.7657 25.4107ZM21.6523 15.9929L17.4172 13.8754C17.2505 13.7923 17.0649 13.7547 16.879 13.7663C16.6931 13.7779 16.5135 13.8384 16.3585 13.9415L14.4143 15.2385C13.5218 14.7479 12.7873 14.0135 12.2967 13.121L13.5937 11.1768C13.6969 11.0217 13.7574 10.8422 13.769 10.6563C13.7806 10.4704 13.743 10.2847 13.6599 10.118L11.5423 5.8829C11.4546 5.70564 11.3189 5.55652 11.1507 5.45243C10.9825 5.34834 10.7886 5.29344 10.5908 5.29395C9.18673 5.29395 7.84021 5.8517 6.84742 6.84449C5.85462 7.83729 5.29688 9.18381 5.29688 10.5879C5.30037 13.6756 6.52855 16.6359 8.71194 18.8193C10.8953 21.0027 13.8556 22.2309 16.9434 22.2344C17.6386 22.2344 18.327 22.0975 18.9693 21.8314C19.6116 21.5654 20.1952 21.1754 20.6868 20.6839C21.1783 20.1923 21.5683 19.6087 21.8343 18.9664C22.1004 18.3241 22.2373 17.6357 22.2373 16.9405C22.2374 16.7438 22.1828 16.551 22.0795 16.3836C21.9761 16.2162 21.8282 16.0809 21.6523 15.9929L21.6523 15.9929ZM16.943 20.1166C14.4166 20.1138 11.9945 19.109 10.2081 17.3226C8.42171 15.5362 7.41686 13.114 7.41406 10.5877C7.41385 9.85325 7.66812 9.1415 8.13358 8.57349C8.59904 8.00547 9.24695 7.61629 9.96703 7.47217L11.4864 10.5162L10.1933 12.4405C10.0967 12.5855 10.0373 12.752 10.0205 12.9254C10.0036 13.0988 10.0298 13.2736 10.0967 13.4344C10.8542 15.2349 12.2865 16.6672 14.087 17.4247C14.2483 17.4946 14.4245 17.5232 14.5996 17.5079C14.7748 17.4927 14.9433 17.4341 15.0902 17.3374L17.0238 16.0483L20.0677 17.5676C19.9225 18.2886 19.5316 18.9367 18.9618 19.4016C18.3919 19.8665 17.6784 20.1192 16.943 20.1166L16.943 20.1166Z" fill="#F3F3F3" fill-rule="evenodd" transform="translate(3.227 5.985)" />
    </g>
  </g>
</svg>