<?xml version="1.0" encoding="utf-8"?>
<svg width="143.001" height="11.118" viewBox="0 0 143.001 11.118" fill="none" xmlns="http://www.w3.org/2000/svg">
  <path d="M2.51544 8.76595C2.75427 11.0943 2.75568 11.104 2.75653 11.104L2.75659 11.104L2.76093 11.1035C2.76483 11.1031 2.77075 11.1025 2.77869 11.1017C2.79462 11.1001 2.8186 11.0976 2.85052 11.0944C2.91431 11.0879 3.00989 11.0782 3.13617 11.0655C3.38873 11.04 3.76422 11.0023 4.25452 10.9538C5.23517 10.8566 6.67517 10.7158 8.50995 10.5414C12.1796 10.1926 17.4278 9.70947 23.738 9.17263C36.3612 8.09872 53.2228 6.81086 70.1956 5.95258C87.186 5.09341 104.216 4.66869 117.205 5.30759C123.716 5.62788 129.093 6.21074 132.907 7.10014C134.823 7.54697 136.21 8.04158 137.117 8.53995C137.932 8.98727 138.085 9.28257 138.096 9.30126C138.471 10.6219 139.843 11.3936 141.168 11.0263C142.498 10.6574 143.278 9.27978 142.909 7.94925C142.406 6.13263 140.954 4.94292 139.525 4.15799C138.047 3.34583 136.161 2.72484 134.043 2.2308C129.788 1.23846 124.055 0.638504 117.451 0.313625C104.206 -0.337833 86.9756 0.0976753 69.943 0.958965C52.8928 1.82115 35.9698 3.11396 23.3142 4.19062C16.9851 4.72908 11.7203 5.21371 8.0368 5.56384C6.19501 5.73891 4.74841 5.88036 3.76166 5.9781C3.26825 6.02699 2.88977 6.06493 2.63434 6.09071C2.50659 6.10358 2.40967 6.11343 2.34442 6.12006C2.31183 6.12337 2.28717 6.12589 2.27057 6.12759C2.26227 6.12843 2.25598 6.12907 2.25171 6.12951L2.24689 6.13L2.24689 6.13C2.24573 6.13017 2.39227 6.18073 2.63428 8.54004L2.24512 6.13018C0.871582 6.27108 -0.127625 7.49873 0.0132446 8.87223C0.154114 10.2457 1.38177 11.245 2.75531 11.1041L2.51544 8.76595L2.51544 8.76595Z" fill="#EC1E24" fill-rule="evenodd" />
</svg>