<?xml version="1.0" encoding="utf-8"?>
<svg width="1314" height="212" viewBox="0 0 1314 212" fill="none" xmlns="http://www.w3.org/2000/svg">
  <path d="M1446.85 496.528C1446.14 495.517 1445.37 494.478 1444.64 493.46C1443.67 492.424 1442.64 491.359 1441.63 490.302C1442.55 491.434 1443.51 492.584 1444.4 493.701C1445.21 494.642 1446.05 495.596 1446.85 496.53C1446.85 496.53 1446.85 496.528 1446.85 496.528ZM1449.26 499.981C1449.03 499.641 1448.82 499.31 1448.58 498.968C1448.27 498.605 1447.94 498.226 1447.62 497.859C1448.17 498.568 1448.72 499.278 1449.26 499.981C1449.26 499.981 1449.26 499.981 1449.26 499.981ZM1452.65 503.441C1451.96 502.248 1451.18 501.016 1450.44 499.804C1449 498.207 1447.62 496.636 1446.13 495.019C1447.03 496.281 1447.96 497.554 1448.82 498.798C1450.15 500.366 1451.38 501.894 1452.65 503.441C1452.65 503.441 1452.65 503.441 1452.65 503.441ZM1454.96 507.545C1454.47 506.673 1454 505.815 1453.5 504.937C1452.46 503.673 1451.45 502.418 1450.41 501.149C1450.94 501.925 1451.44 502.687 1451.96 503.458C1453 504.839 1453.96 506.184 1454.96 507.547C1454.96 507.547 1454.96 507.545 1454.96 507.545ZM1456.59 510.458C1456.47 510.237 1456.34 510.014 1456.21 509.793C1456.21 509.793 1455.92 509.388 1455.92 509.388C1456.16 509.749 1456.36 510.098 1456.59 510.458C1456.59 510.458 1456.59 510.458 1456.59 510.458ZM1457.55 509.441C1456.99 508.231 1456.4 507 1455.82 505.773C1454.44 504.203 1452.96 502.589 1451.5 500.984C1452.26 502.254 1453.01 503.521 1453.74 504.773C1455.03 506.337 1456.32 507.905 1457.54 509.44C1457.54 509.44 1457.55 509.441 1457.55 509.441ZM1459.41 513.705C1458.94 512.618 1458.48 511.541 1457.99 510.444C1456.91 509.076 1455.73 507.666 1454.58 506.266C1455.22 507.395 1455.84 508.514 1456.46 509.632C1457.46 510.995 1458.47 512.364 1459.41 513.704C1459.41 513.704 1459.41 513.705 1459.41 513.705ZM1461.29 518.026C1460.88 517.027 1460.4 515.994 1459.97 514.982C1459.26 513.968 1458.49 512.921 1457.73 511.883C1458.28 512.891 1458.82 513.895 1459.35 514.893C1459.99 515.935 1460.67 516.995 1461.3 518.026C1461.3 518.026 1461.29 518.026 1461.29 518.026ZM1462.45 520.961C1462.27 520.517 1462.11 520.083 1461.93 519.637C1461.62 519.115 1461.29 518.584 1460.96 518.054C1461.46 519.025 1461.97 519.999 1462.45 520.96C1462.45 520.96 1462.45 520.961 1462.45 520.961ZM1462.2 515.445C1461.83 514.269 1461.46 513.091 1461.07 511.902C1459.56 510.123 1458.1 508.364 1456.53 506.561C1457.12 507.816 1457.69 509.059 1458.25 510.298C1459.62 512.034 1460.89 513.731 1462.2 515.445C1462.2 515.445 1462.2 515.445 1462.2 515.445ZM1463.45 519.632C1463.12 518.51 1462.79 517.389 1462.44 516.257C1461.2 514.618 1459.99 512.999 1458.7 511.341C1459.23 512.514 1459.73 513.679 1460.23 514.84C1461.35 516.457 1462.37 518.032 1463.45 519.63C1463.45 519.63 1463.45 519.632 1463.45 519.632ZM1464.66 523.823C1464.37 522.76 1464.05 521.68 1463.74 520.606C1462.79 519.181 1461.85 517.761 1460.88 516.325C1461.33 517.392 1461.77 518.456 1462.2 519.511C1463.06 520.964 1463.83 522.383 1464.66 523.823C1464.66 523.823 1464.66 523.823 1464.66 523.823ZM1465.61 527.561C1465.39 526.679 1465.18 525.806 1464.94 524.917C1464.28 523.755 1463.61 522.589 1462.95 521.422C1463.26 522.193 1463.55 522.959 1463.85 523.724C1464.47 525.018 1465.02 526.277 1465.61 527.559C1465.61 527.559 1465.61 527.561 1465.61 527.561ZM1466.41 530.703C1466.29 530.198 1466.15 529.678 1466.02 529.172C1465.86 528.801 1465.68 528.428 1465.51 528.058C1465.84 528.951 1466.1 529.816 1466.41 530.703C1466.41 530.703 1466.41 530.703 1466.41 530.703ZM1466.52 521.119C1466.34 519.987 1466.18 518.861 1465.98 517.717C1464.59 516.019 1463.07 514.264 1461.59 512.527C1461.99 513.737 1462.34 514.925 1462.71 516.122C1464 517.796 1465.31 519.48 1466.52 521.119C1466.52 521.119 1466.52 521.119 1466.52 521.119ZM1467.09 525.072C1466.94 523.963 1466.78 522.849 1466.61 521.73C1465.46 520.162 1464.19 518.54 1462.96 516.935C1463.32 518.121 1463.67 519.304 1464.01 520.477C1465.06 522.016 1466.12 523.565 1467.09 525.072C1467.09 525.072 1467.09 525.072 1467.09 525.072ZM1467.6 528.981C1467.47 527.916 1467.34 526.846 1467.19 525.77C1466.29 524.355 1465.28 522.896 1464.31 521.449C1464.63 522.577 1464.93 523.692 1465.22 524.808C1466.03 526.206 1466.86 527.611 1467.6 528.979C1467.6 528.979 1467.6 528.981 1467.6 528.981ZM1467.99 532.727C1467.9 531.744 1467.8 530.762 1467.68 529.771C1467 528.502 1466.24 527.201 1465.5 525.905C1465.78 526.965 1466.05 528.02 1466.31 529.07C1466.89 530.296 1467.47 531.526 1467.99 532.727C1467.99 532.727 1467.99 532.727 1467.99 532.727ZM1468.36 536.406C1468.29 535.531 1468.19 534.64 1468.1 533.759C1467.66 532.744 1467.19 531.714 1466.72 530.679C1466.94 531.601 1467.14 532.512 1467.34 533.424C1467.69 534.42 1468.05 535.424 1468.36 536.406C1468.36 536.406 1468.36 536.406 1468.36 536.406ZM1470.61 526.869C1470.63 525.794 1470.67 524.736 1470.68 523.652C1469.25 521.83 1467.88 520.032 1466.37 518.18C1466.56 519.336 1466.72 520.468 1466.89 521.614C1468.19 523.393 1469.37 525.119 1470.61 526.869C1470.61 526.869 1470.61 526.869 1470.61 526.869ZM1470.5 530.59C1470.54 529.524 1470.57 528.449 1470.59 527.374C1469.39 525.668 1468.24 523.98 1466.98 522.25C1467.16 523.391 1467.33 524.53 1467.48 525.661C1468.54 527.327 1469.49 528.946 1470.5 530.59C1470.5 530.59 1470.5 530.59 1470.5 530.59ZM1470.33 534.248C1470.38 533.215 1470.45 532.188 1470.49 531.145C1469.53 529.573 1468.59 528.01 1467.59 526.42C1467.73 527.515 1467.85 528.594 1467.97 529.678C1468.79 531.217 1469.54 532.724 1470.33 534.246C1470.33 534.246 1470.33 534.248 1470.33 534.248ZM1474.46 532.338C1474.68 531.325 1474.92 530.328 1475.13 529.308C1473.83 527.583 1472.38 525.794 1470.98 524.031C1470.97 525.125 1470.92 526.193 1470.89 527.28C1472.09 528.971 1473.34 530.683 1474.46 532.338C1474.46 532.338 1474.46 532.338 1474.46 532.338ZM1473.69 535.791C1473.92 534.787 1474.14 533.77 1474.36 532.759C1473.27 531.132 1472.05 529.451 1470.88 527.788C1470.86 528.882 1470.84 529.979 1470.79 531.061C1471.77 532.644 1472.78 534.243 1473.69 535.793C1473.69 535.793 1473.69 535.791 1473.69 535.791ZM1476.14 525.712C1477.78 527.68 1479.27 529.587 1480.82 531.517C1481.23 530.56 1481.64 529.597 1482.05 528.636C1480.29 526.624 1478.61 524.645 1476.75 522.592C1476.55 523.633 1476.35 524.675 1476.15 525.712C1476.15 525.712 1476.14 525.712 1476.14 525.712ZM1470.96 519.718C1472.62 521.626 1474.34 523.56 1475.9 525.424C1476.1 524.393 1476.3 523.358 1476.5 522.32C1474.74 520.379 1472.81 518.37 1470.94 516.383C1470.95 517.498 1470.96 518.609 1470.96 519.718C1470.96 519.718 1470.96 519.718 1470.96 519.718ZM1465.51 513.478C1467.29 515.469 1468.96 517.412 1470.66 519.366C1470.65 518.266 1470.65 517.168 1470.63 516.058C1468.72 514.027 1466.87 512.021 1464.86 509.948C1465.09 511.136 1465.29 512.304 1465.51 513.476C1465.51 513.476 1465.51 513.478 1465.51 513.478ZM1459.82 507.316C1461.61 509.243 1463.43 511.18 1465.12 513.065C1464.93 512.011 1464.76 510.966 1464.54 509.899C1464.54 509.899 1464.54 509.888 1464.54 509.888C1464.54 509.888 1464.54 509.632 1464.54 509.632C1462.65 507.695 1460.65 505.709 1458.66 503.73C1458.66 503.73 1458.74 504.176 1458.74 504.176C1459.13 505.238 1459.46 506.275 1459.82 507.318C1459.82 507.318 1459.82 507.316 1459.82 507.316ZM1453.81 500.923C1455.7 502.896 1457.51 504.836 1459.31 506.774C1459.03 505.936 1458.76 505.107 1458.45 504.255C1458.45 504.255 1458.45 504.247 1458.45 504.247C1458.45 504.247 1458.45 504.233 1458.45 504.233C1458.39 503.939 1458.34 503.646 1458.28 503.352C1456.28 501.359 1454.32 499.384 1452.24 497.356C1452.37 497.736 1452.51 498.115 1452.64 498.495C1453.06 499.316 1453.43 500.116 1453.81 500.922C1453.81 500.922 1453.81 500.923 1453.81 500.923ZM1447.63 494.617C1449.51 496.511 1451.38 498.404 1453.16 500.26C1452.9 499.712 1452.65 499.165 1452.37 498.606C1452.37 498.606 1452.36 498.6 1452.36 498.6C1452.36 498.6 1452.36 498.591 1452.36 498.591C1452.16 498.027 1451.96 497.465 1451.76 496.903C1449.8 495.005 1447.74 493.068 1445.69 491.13C1445.69 491.13 1446.54 492.819 1446.54 492.819C1446.93 493.429 1447.28 494.021 1447.64 494.617C1447.64 494.617 1447.63 494.617 1447.63 494.617ZM1441.14 488.106C1443.04 489.984 1444.9 491.841 1446.73 493.686C1446.58 493.443 1446.44 493.201 1446.28 492.954C1446.28 492.954 1446.28 492.949 1446.28 492.949C1446.28 492.949 1446.28 492.942 1446.28 492.942C1445.86 492.132 1445.46 491.325 1445.05 490.519C1443 488.59 1441 486.68 1438.88 484.722C1439.4 485.528 1439.93 486.335 1440.45 487.146C1440.45 487.146 1440.45 487.146 1440.45 487.146C1440.69 487.471 1440.91 487.788 1441.14 488.106C1441.14 488.106 1441.14 488.106 1441.14 488.106ZM1434.57 481.75C1436.41 483.512 1438.24 485.277 1440.01 487.012C1439.35 485.991 1438.69 484.971 1438.04 483.958C1436.14 482.211 1434.15 480.429 1432.17 478.649C1432.17 478.649 1434.35 481.471 1434.35 481.471C1434.43 481.567 1434.5 481.658 1434.58 481.752C1434.58 481.752 1434.57 481.75 1434.57 481.75ZM1427.84 475.346C1429.62 477.007 1431.35 478.649 1433.05 480.276C1433.05 480.276 1430.94 477.537 1430.94 477.537C1429 475.8 1427.16 474.101 1425.18 472.351C1425.18 472.351 1427.84 475.346 1427.84 475.346C1427.84 475.346 1427.84 475.346 1427.84 475.346ZM1421.66 469.643C1423 470.882 1424.38 472.137 1425.69 473.367C1425.69 473.367 1423.51 470.903 1423.51 470.903C1422.14 469.702 1420.7 468.468 1419.28 467.245C1419.28 467.245 1421.66 469.643 1421.66 469.643C1421.66 469.643 1421.66 469.643 1421.66 469.643ZM1416.05 464.467C1416.3 464.691 1416.52 464.903 1416.76 465.127C1416.76 465.127 1416.38 464.738 1416.38 464.738C1416.18 464.568 1415.99 464.401 1415.79 464.231C1415.79 464.231 1416.05 464.467 1416.05 464.467C1416.05 464.467 1416.05 464.467 1416.05 464.467ZM1427.62 475.534C1427.42 475.349 1427.21 475.156 1427.01 474.969C1427.33 475.283 1427.64 475.596 1427.95 475.911C1427.95 475.911 1427.62 475.534 1427.62 475.534C1427.62 475.534 1427.62 475.534 1427.62 475.534ZM1434.35 481.935C1432.93 480.566 1431.58 479.229 1430.13 477.846C1430.96 478.736 1431.73 479.601 1432.55 480.488C1433.81 481.748 1435.04 482.999 1436.25 484.241C1435.62 483.475 1435.01 482.716 1434.35 481.937C1434.35 481.937 1434.35 481.935 1434.35 481.935ZM1440.9 488.288C1439.4 486.8 1437.81 485.277 1436.23 483.761C1437.2 484.912 1438.11 486.043 1439.05 487.181C1440.5 488.697 1441.97 490.223 1443.39 491.726C1442.57 490.585 1441.77 489.449 1440.9 488.288C1440.9 488.288 1440.9 488.288 1440.9 488.288ZM1447.39 494.791C1445.65 493.016 1443.92 491.252 1442.11 489.45C1443.05 490.741 1443.96 492.01 1444.87 493.283C1446.5 495.027 1448.05 496.736 1449.62 498.455C1448.89 497.238 1448.16 496.025 1447.39 494.791C1447.39 494.791 1447.39 494.791 1447.39 494.791ZM1453.56 501.085C1451.88 499.325 1450.08 497.52 1448.31 495.721C1449.12 497.035 1449.9 498.334 1450.69 499.633C1452.27 501.375 1453.86 503.116 1455.36 504.828C1454.77 503.584 1454.18 502.342 1453.56 501.085C1453.56 501.085 1453.56 501.085 1453.56 501.085ZM1459.55 507.468C1457.79 505.568 1456.05 503.68 1454.21 501.748C1454.85 503.044 1455.46 504.331 1456.07 505.615C1457.7 507.476 1459.24 509.295 1460.8 511.128C1460.39 509.913 1459.98 508.693 1459.55 507.468C1459.55 507.468 1459.55 507.468 1459.55 507.468ZM1465.22 513.611C1463.58 511.777 1461.8 509.886 1460.05 508.009C1460.48 509.261 1460.91 510.512 1461.33 511.753C1462.87 513.556 1464.42 515.363 1465.87 517.126C1465.66 515.96 1465.44 514.784 1465.22 513.611C1465.22 513.611 1465.22 513.611 1465.22 513.611ZM1470.66 519.831C1468.99 517.9 1467.36 515.989 1465.61 514.023C1465.83 515.213 1466.05 516.406 1466.26 517.589C1467.8 519.474 1469.21 521.305 1470.68 523.159C1470.68 522.055 1470.67 520.939 1470.66 519.831C1470.66 519.831 1470.66 519.831 1470.66 519.831ZM1475.82 525.8C1474.29 523.965 1472.59 522.061 1470.96 520.183C1470.97 521.302 1470.99 522.432 1470.98 523.546C1472.41 525.344 1473.88 527.159 1475.21 528.916C1475.42 527.885 1475.61 526.838 1475.82 525.8C1475.82 525.8 1475.82 525.8 1475.82 525.8ZM1480.68 531.838C1479.16 529.932 1477.68 528.047 1476.07 526.104C1475.86 527.145 1475.67 528.197 1475.46 529.232C1476.86 531.091 1478.12 532.89 1479.44 534.716C1479.86 533.762 1480.27 532.797 1480.68 531.838C1480.68 531.838 1480.68 531.838 1480.68 531.838ZM1688.08 536.47C1751.88 502.904 1766.68 456.001 1758.91 405.129C1751.49 356.582 1723.54 304.412 1698.02 256.777C1670.7 205.794 1646.17 160 1652.54 129.339C1658.98 98.3007 1697.07 82.8044 1795.87 93.1734C1795.87 93.1734 1795.87 93.4511 1795.87 93.4511C1697.25 83.0871 1659.25 98.4959 1652.83 129.391C1646.48 159.959 1671 205.711 1698.29 256.651C1723.82 304.306 1751.78 356.498 1759.21 405.089C1766.98 455.954 1752.24 502.859 1688.71 536.47C1688.71 536.47 1688.08 536.47 1688.08 536.47C1688.08 536.47 1688.08 536.47 1688.08 536.47ZM1652.61 536.469C1727.41 499.641 1740.92 446.694 1729.77 390.018C1721.43 347.645 1699.33 303.177 1678.76 261.805C1654.36 212.735 1632.13 168.018 1637.58 136.253C1643.68 100.66 1684.52 81.3706 1795.87 90.5011C1795.87 90.5011 1795.87 90.7787 1795.87 90.7787C1684.71 81.6516 1643.96 100.85 1637.88 136.297C1632.44 167.976 1654.66 212.658 1679.03 261.686C1699.6 303.073 1721.72 347.554 1730.06 389.966C1741.21 446.638 1727.76 499.587 1653.25 536.468C1653.25 536.468 1652.6 536.468 1652.6 536.468C1652.6 536.468 1652.61 536.469 1652.61 536.469ZM1618.67 536.469C1705.53 495.234 1715.23 434.625 1699.4 371.169C1690.7 336.31 1674.31 300.585 1658.78 266.737C1637.32 219.965 1617.51 176.778 1621.89 144.36C1627.37 103.806 1670.67 80.1453 1795.87 87.4871C1795.87 87.4871 1795.87 87.7664 1795.87 87.7664C1670.88 80.428 1627.65 103.991 1622.19 144.395C1617.82 176.738 1637.62 219.893 1659.06 266.628C1674.59 300.486 1690.99 336.224 1699.69 371.105C1715.52 434.563 1705.88 495.172 1619.33 536.469C1619.33 536.469 1618.67 536.469 1618.67 536.469C1618.67 536.469 1618.67 536.469 1618.67 536.469ZM1587.11 536.47C1688.32 488.441 1688.79 416.659 1666.1 344.342C1658.42 319.873 1648.09 295.344 1638.11 271.649C1619.55 227.546 1602.2 186.341 1605.41 153.797C1609.94 107.882 1655.37 79.2589 1795.87 84.1472C1795.87 84.1472 1795.87 84.4265 1795.87 84.4265C1655.58 79.5382 1610.22 108.062 1605.71 153.823C1602.51 186.299 1619.84 227.476 1638.4 271.545C1648.37 295.246 1658.71 319.784 1666.39 344.261C1689.08 416.583 1688.65 488.365 1587.77 536.468C1587.77 536.468 1587.11 536.468 1587.11 536.468C1587.11 536.468 1587.11 536.47 1587.11 536.47ZM1558.72 536.469C1691.41 470.903 1651.91 368.053 1616.79 276.633C1601 235.553 1586.1 196.777 1588.09 164.706C1591.29 113.036 1638.3 78.8161 1795.87 80.4669C1795.87 80.4669 1795.87 80.7462 1795.87 80.7462C1638.53 79.0938 1591.59 113.21 1588.39 164.723C1586.41 196.739 1601.3 235.487 1617.07 276.541C1652.19 367.96 1691.69 470.801 1559.38 536.471C1559.38 536.471 1558.72 536.471 1558.72 536.471C1558.72 536.471 1558.72 536.469 1558.72 536.469ZM1534.17 536.469C1660.06 468.78 1625.7 370.288 1594.82 281.806C1581.65 244.074 1569.12 208.163 1569.9 177.212C1571.35 119.417 1619.21 78.981 1795.87 76.4468C1795.87 76.4468 1795.87 76.7261 1795.87 76.7261C1619.45 79.2553 1571.65 119.58 1570.2 177.219C1569.42 208.121 1581.95 244.012 1595.11 281.72C1625.99 370.203 1660.35 468.687 1534.79 536.471C1534.79 536.471 1534.17 536.471 1534.17 536.471C1534.17 536.471 1534.17 536.469 1534.17 536.469ZM1513.69 536.469C1628.77 466.02 1599.12 372.223 1572.26 287.31C1561.48 253.221 1551.15 220.561 1550.81 191.404C1550.06 127.147 1597.79 79.9568 1795.87 72.085C1795.87 72.085 1795.87 72.3643 1795.87 72.3643C1598.03 80.2243 1550.36 127.302 1551.11 191.401C1551.45 220.519 1561.78 253.159 1572.55 287.229C1599.41 372.145 1629.06 465.936 1514.23 536.466C1514.23 536.466 1513.69 536.466 1513.69 536.466C1513.69 536.466 1513.69 536.469 1513.69 536.469ZM1497.26 536.47C1597.9 462.948 1572.38 374.082 1549.17 293.341C1540.49 263.125 1532.13 234.044 1530.83 207.322C1527.36 136.304 1573.7 81.99 1795.87 67.3872C1795.87 67.3872 1795.87 67.6682 1795.87 67.6682C1573.96 82.2559 1527.67 136.45 1531.13 207.308C1532.43 234.003 1540.79 263.067 1549.46 293.269C1572.67 374.017 1598.19 462.879 1497.74 536.47C1497.74 536.47 1497.26 536.47 1497.26 536.47C1497.26 536.47 1497.26 536.47 1497.26 536.47ZM1467.7 536.47C1467.49 535.485 1467.28 534.497 1467.05 533.503C1465.99 530.336 1464.83 527.119 1463.58 523.854C1462.17 520.958 1460.66 518.008 1459.08 515.025C1456.77 511.293 1454.31 507.486 1451.72 503.624C1449.32 500.425 1446.79 497.169 1444.16 493.871C1440.42 489.558 1436.44 485.14 1432.32 480.665C1428.98 477.273 1425.54 473.835 1421.93 470.326C1421.93 470.326 1421.93 470.326 1421.93 470.326C1421.93 470.326 1421.44 469.833 1421.44 469.833C1419.59 468.117 1417.79 466.421 1415.84 464.667C1415.84 464.667 1415.84 464.667 1415.84 464.667C1415.84 464.667 1408.64 458.063 1408.64 458.063C1399.54 450.357 1390.65 442.841 1382.04 435.559C1213.55 293.044 1150.7 239.881 1174.52 206.634C1188.68 186.871 1233.48 174.219 1304.93 154.041C1381.24 132.487 1487.99 102.341 1620.26 45.7842C1620.26 45.7842 1620.98 45.7842 1620.98 45.7842C1488.41 102.511 1381.45 132.719 1305.01 154.307C1233.63 174.466 1188.87 187.107 1174.77 206.787C1151.1 239.834 1213.9 292.953 1382.24 435.351C1389.06 441.112 1396.04 447.019 1403.23 453.102C1403.23 453.102 1393.64 444.32 1393.64 444.32C1237.12 300.919 1176.96 245.811 1203.23 209.149C1219.61 186.288 1269.61 170.673 1350.82 145.316C1421.48 123.251 1515.79 93.801 1632.13 45.7842C1632.13 45.7842 1632.87 45.7842 1632.87 45.7842C1516.24 93.9558 1421.71 123.476 1350.91 145.582C1269.76 170.921 1219.8 186.523 1203.48 209.306C1177.35 245.774 1237.45 300.838 1393.85 444.121C1398.75 448.611 1403.75 453.188 1408.84 457.854C1408.84 457.854 1409.96 458.8 1409.96 458.8C1411.25 459.897 1412.43 460.947 1413.69 462.029C1408.71 457.021 1403.84 452.114 1399.06 447.307C1259.55 306.967 1203.48 250.56 1232.09 210.628C1251.3 183.817 1308.7 164.511 1404.68 132.23C1467.85 110.983 1547.74 84.1102 1644.45 45.7842C1644.45 45.7842 1645.22 45.7842 1645.22 45.7842C1548.21 84.2498 1468.1 111.197 1404.78 132.492C1308.86 164.754 1251.5 184.049 1232.34 210.785C1203.86 250.531 1259.89 306.892 1399.28 447.116C1404.91 452.786 1410.69 458.593 1416.59 464.539C1418.43 466.12 1420.29 467.708 1422.05 469.26C1414.28 460.501 1406.75 452.042 1399.49 443.87C1281.1 310.763 1230.39 253.753 1261.12 210.871C1284.11 178.774 1352.75 154.672 1472.8 112.513C1524.58 94.3277 1585.94 72.7803 1657.33 45.7842C1657.33 45.7842 1658.13 45.7842 1658.13 45.7842C1586.45 72.9015 1524.86 94.5313 1472.91 112.776C1352.91 154.913 1284.31 179.005 1261.37 211.027C1230.77 253.737 1281.43 310.697 1399.72 443.692C1407.44 452.368 1415.44 461.369 1423.73 470.71C1425.85 472.573 1427.9 474.409 1429.94 476.24C1418.42 461.325 1407.48 447.271 1397.14 433.988C1302.13 311.909 1257.83 254.985 1290.29 209.683C1318.62 170.14 1405.46 139.538 1568.16 82.2036C1599.55 71.1447 1633.75 59.0913 1670.91 45.7859C1670.91 45.7859 1671.75 45.7859 1671.75 45.7859C1634.31 59.1939 1599.86 71.3348 1568.27 82.4661C1405.62 139.78 1318.81 170.37 1290.54 209.839C1258.19 254.98 1302.46 311.851 1397.38 433.824C1408.03 447.498 1419.3 461.988 1431.17 477.352C1433.28 479.252 1435.4 481.153 1437.43 483.016C1422.31 459.643 1408.12 438.233 1395.06 418.547C1323.15 310.115 1285.86 253.89 1319.51 206.919C1353.98 158.808 1462.92 120.504 1685.4 45.7842C1685.4 45.7842 1686.28 45.7842 1686.28 45.7842C1463.34 120.657 1354.22 158.98 1319.76 207.073C1286.22 253.893 1323.47 310.066 1395.31 418.397C1408.53 438.331 1422.93 460.033 1438.27 483.78C1440.45 485.787 1442.55 487.765 1444.65 489.737C1427.49 456.001 1411.08 426.134 1396.4 399.416C1372.54 355.991 1353.25 320.878 1342.75 290.962C1307.27 189.804 1372.33 148.088 1701.12 45.7842C1701.12 45.7842 1702.07 45.7842 1702.07 45.7842C1372.77 148.207 1307.6 189.853 1343.04 290.875C1353.53 320.773 1372.82 355.875 1396.67 399.288C1411.46 426.2 1428 456.306 1445.29 490.348C1447.41 492.342 1449.53 494.339 1451.55 496.291C1435.58 451.439 1418.41 412.88 1403.35 379.077C1389.31 347.544 1377.11 320.151 1369.45 295.645C1337.09 192.113 1385.75 140.165 1718.5 45.7842C1718.5 45.7842 1719.53 45.7842 1719.53 45.7842C1386.17 140.265 1337.41 192.135 1369.74 295.569C1377.39 320.06 1389.59 347.446 1403.63 378.972C1418.75 412.913 1436 451.653 1452.02 496.749C1454.14 498.802 1456.16 500.821 1458.19 502.837C1447.85 447.438 1430.99 400.57 1416.33 359.808C1408.18 337.155 1400.71 316.386 1395.42 297.079C1366.71 192.461 1401.83 130.872 1738.34 45.7859C1738.34 45.7859 1739.48 45.7859 1739.48 45.7859C1402.23 130.947 1367.02 192.463 1395.71 297.008C1401 316.302 1408.47 337.067 1416.62 359.719C1431.32 400.59 1448.23 447.601 1458.56 503.214C1460.58 505.225 1462.62 507.246 1464.54 509.213C1464.71 445.097 1448.45 390.598 1434.24 342.979C1394.67 210.356 1371.03 131.032 1761.88 45.7842C1761.88 45.7842 1763.18 45.7842 1763.18 45.7842C1371.34 131.07 1394.97 210.315 1434.53 342.903C1448.77 390.615 1465.07 445.23 1464.84 509.514C1466.84 511.579 1468.73 513.593 1470.63 515.615C1470.63 515.615 1470.63 515.54 1470.63 515.54C1470.63 515.54 1470.63 515.525 1470.63 515.525C1470.63 515.525 1470.64 515.509 1470.64 515.509C1485.83 445.095 1469.68 383.459 1455.39 328.962C1422.49 203.426 1399.52 115.742 1791.8 45.7842C1791.8 45.7842 1793.42 45.7842 1793.42 45.7842C1399.85 115.732 1422.78 203.364 1455.69 328.896C1469.98 383.417 1486.14 445.08 1470.93 515.552C1470.93 515.681 1470.93 515.811 1470.93 515.94C1472.83 517.954 1474.79 519.991 1476.57 521.956C1476.62 521.697 1476.68 521.441 1476.73 521.179C1476.73 521.179 1476.73 521.162 1476.73 521.162C1476.73 521.162 1476.74 521.148 1476.74 521.148C1510.38 447.11 1493.45 378.738 1478.29 317.492C1473.63 298.654 1469.13 280.49 1466.32 263.034C1451.34 169.958 1484.39 97.227 1795.87 51.1874C1795.87 51.1874 1795.87 51.4701 1795.87 51.4701C1484.69 97.471 1451.67 170.079 1466.62 262.992C1469.43 280.431 1473.92 298.593 1478.58 317.426C1493.76 378.712 1510.69 447.125 1477.02 521.241C1476.96 521.571 1476.89 521.897 1476.83 522.224C1478.7 524.293 1480.41 526.296 1482.18 528.322C1482.4 527.82 1482.62 527.321 1482.83 526.812C1482.83 526.812 1482.83 526.797 1482.83 526.797C1482.83 526.797 1482.84 526.784 1482.84 526.784C1537.69 451.214 1518.91 376.049 1501.92 308.052C1496.35 285.767 1490.98 264.252 1488.44 243.738C1477.9 158.324 1516.66 90.3564 1795.87 56.9356C1795.87 56.9356 1795.87 57.2183 1795.87 57.2183C1516.95 90.6088 1478.22 158.453 1488.74 243.706C1491.27 264.201 1496.65 285.71 1502.21 307.988C1519.22 376.038 1538.01 451.259 1483.1 526.927C1482.87 527.479 1482.64 528.024 1482.4 528.569C1484.13 530.548 1485.91 532.545 1487.53 534.476C1488 533.801 1488.47 533.129 1488.94 532.45C1488.94 532.45 1488.94 532.439 1488.94 532.439C1488.94 532.439 1488.95 532.428 1488.95 532.428C1567.15 457.041 1545.42 374.845 1525.67 300.141C1518.74 273.926 1512.05 248.631 1510 224.871C1503.29 146.809 1546.68 85.357 1795.87 62.3405C1795.87 62.3405 1795.87 62.6216 1795.87 62.6216C1546.95 85.6161 1503.6 146.948 1510.3 224.851C1512.35 248.591 1519.03 273.874 1525.96 300.077C1545.73 374.848 1567.48 457.117 1489.18 532.611C1488.69 533.316 1488.21 534.014 1487.72 534.714C1488.21 535.303 1488.69 535.887 1489.16 536.468C1489.16 536.468 1488.76 536.468 1488.76 536.468C1488.35 535.976 1487.95 535.482 1487.53 534.984C1487.53 534.984 1486.5 536.468 1486.5 536.468L1486.14 536.468C1486.14 536.468 1487.34 534.745 1487.34 534.745C1485.73 532.825 1483.99 530.849 1482.27 528.882C1481.85 529.848 1481.45 530.815 1481.03 531.778C1482.29 533.345 1483.57 534.923 1484.78 536.466C1484.78 536.466 1484.38 536.466 1484.38 536.466C1483.25 535.024 1482.06 533.557 1480.89 532.098C1480.48 533.062 1480.07 534.03 1479.65 534.989C1479.65 534.989 1480.72 536.464 1480.72 536.464L1480.34 536.464C1480.34 536.464 1479.5 535.313 1479.5 535.313C1479.33 535.699 1479.16 536.082 1478.99 536.464C1478.99 536.464 1478.66 536.464 1478.66 536.464C1478.88 535.99 1479.09 535.512 1479.3 535.034C1478 533.237 1476.74 531.455 1475.36 529.628C1475.15 530.656 1474.91 531.665 1474.69 532.687C1475.54 533.962 1476.33 535.214 1477.13 536.466C1477.13 536.466 1476.77 536.466 1476.77 536.466C1476.06 535.356 1475.34 534.242 1474.59 533.111C1474.36 534.136 1474.15 535.167 1473.91 536.183C1473.91 536.183 1474.07 536.466 1474.07 536.466L1473.54 536.466C1473.54 536.466 1473.59 536.241 1473.59 536.241C1472.71 534.723 1471.73 533.161 1470.78 531.613C1470.73 532.675 1470.66 533.715 1470.6 534.768C1470.89 535.334 1471.19 535.901 1471.49 536.466C1471.49 536.466 1471.14 536.466 1471.14 536.466L1470.57 535.359L1470.5 536.466C1470.5 536.466 1470.2 536.466 1470.2 536.466C1470.23 535.924 1470.27 535.381 1470.3 534.836C1469.56 533.397 1468.83 531.961 1468.06 530.506C1468.18 531.566 1468.3 532.623 1468.4 533.673C1468.8 534.61 1469.17 535.537 1469.55 536.466C1469.55 536.466 1469.22 536.466 1469.22 536.466C1468.99 535.897 1468.75 535.327 1468.51 534.755C1468.57 535.329 1468.61 535.897 1468.66 536.466C1468.66 536.466 1468.06 536.466 1468.06 536.466C1467.99 536.263 1467.93 536.057 1467.86 535.85C1467.86 535.85 1467.99 536.466 1467.99 536.466L1467.7 536.466C1467.7 536.466 1467.7 536.47 1467.7 536.47ZM298.039 490.685C297.832 489.701 297.616 488.713 297.394 487.719C296.333 484.552 295.172 481.335 293.916 478.07C292.515 475.174 291.002 472.224 289.419 469.241C287.113 465.508 284.646 461.702 282.055 457.84C279.657 454.641 277.127 451.385 274.498 448.087C270.76 443.774 266.775 439.355 262.659 434.881C259.324 431.489 255.883 428.051 252.271 424.542C252.271 424.542 252.27 424.542 252.27 424.542C252.27 424.542 251.781 424.049 251.781 424.049C249.93 422.333 248.126 420.637 246.183 418.883C246.183 418.883 246.183 418.883 246.183 418.883C246.183 418.883 238.979 412.278 238.979 412.278C229.877 404.573 220.99 397.056 212.382 389.775C43.8937 247.259 -18.958 194.097 4.86154 160.849C19.0215 141.087 63.8174 128.435 135.266 108.257C211.582 86.7029 318.325 56.5567 450.604 1.14441e-05C450.604 1.14441e-05 451.321 1.14441e-05 451.321 1.14441e-05C318.754 56.7267 211.792 86.9351 135.353 108.523C63.9689 128.682 19.2135 141.323 5.11243 161.002C-18.5639 194.05 44.2356 247.168 212.584 389.567C219.395 395.328 226.378 401.235 233.567 407.318C233.567 407.318 223.982 398.536 223.982 398.536C67.4555 255.135 7.30209 200.027 33.5672 163.365C49.9471 140.503 99.9475 124.889 181.156 99.5321C251.822 77.4664 346.131 48.0168 462.473 1.14441e-05C462.473 1.14441e-05 463.214 1.14441e-05 463.214 1.14441e-05C346.578 48.1717 252.049 77.6919 181.252 99.798C100.104 125.137 50.1408 140.739 33.8164 163.521C7.68942 199.99 67.7923 255.054 224.192 398.337C229.094 402.826 234.089 407.404 239.179 412.07C239.179 412.07 240.296 413.015 240.296 413.015C241.591 414.113 242.77 415.163 244.03 416.245C239.055 411.237 234.177 406.33 229.398 401.522C89.8938 261.182 33.8231 204.775 62.4311 164.844C81.639 138.033 139.042 118.727 235.022 86.4455C298.192 65.1992 378.084 38.326 474.791 1.14441e-05C474.791 1.14441e-05 475.557 1.14441e-05 475.557 1.14441e-05C378.553 38.4656 298.438 65.413 235.123 86.708C139.204 118.969 81.8361 138.265 62.6805 165.001C34.2038 204.747 90.229 261.108 229.617 401.332C235.253 407.001 241.025 412.808 246.932 418.755C248.77 420.335 250.626 421.924 252.393 423.475C244.618 414.717 237.094 406.258 229.826 398.086C111.438 264.979 60.7334 207.969 91.4568 165.086C114.453 132.99 183.087 108.888 303.137 66.7288C354.922 48.5435 416.279 26.9961 487.667 0C487.667 0 488.467 0 488.467 0C416.786 27.1173 355.198 48.7471 303.245 66.9913C183.253 109.129 114.652 133.22 91.7095 165.243C61.1107 207.952 111.771 264.913 230.06 397.908C237.778 406.584 245.782 415.585 254.07 424.926C256.187 426.789 258.237 428.624 260.277 430.455C248.758 415.541 237.818 401.487 227.482 388.204C132.47 266.124 88.1674 209.201 120.626 163.898C148.956 124.356 235.797 93.7536 398.503 36.4194C429.885 25.3605 464.094 13.3071 501.249 0.00169373C501.249 0.00169373 502.086 0.00169373 502.086 0.00169373C464.653 13.4097 430.2 25.5507 398.609 36.6819C235.962 93.9959 149.153 124.586 120.875 164.055C88.5347 209.196 132.797 266.067 227.724 388.04C238.366 401.714 249.644 416.204 261.505 431.568C263.62 433.467 265.741 435.369 267.767 437.232C252.654 413.858 238.457 392.449 225.4 372.763C153.49 264.331 116.203 208.105 149.854 161.135C184.321 113.024 293.257 74.7202 515.739 1.14441e-05C515.739 1.14441e-05 516.624 1.14441e-05 516.624 1.14441e-05C293.675 74.8733 184.56 113.196 150.103 161.288C116.56 208.109 153.812 264.282 225.654 372.613C238.874 392.547 253.265 414.249 268.611 437.996C270.787 440.003 272.894 441.98 274.986 443.953C257.835 410.217 241.424 380.35 226.742 353.632C202.881 310.207 183.589 275.093 173.094 245.178C137.607 144.02 202.665 102.304 531.457 1.14441e-05C531.457 1.14441e-05 532.406 1.14441e-05 532.406 1.14441e-05C203.11 102.423 137.942 144.069 173.38 245.09C183.868 274.989 203.157 310.091 227.012 353.504C241.8 380.416 258.342 410.522 275.631 444.563C277.747 446.557 279.869 448.555 281.885 450.507C265.919 405.655 248.746 367.095 233.693 333.293C219.65 301.76 207.45 274.367 199.792 249.861C167.433 146.329 216.094 94.3812 548.841 1.14441e-05C548.841 1.14441e-05 549.867 1.14441e-05 549.867 1.14441e-05C216.505 94.4805 167.753 146.351 200.08 249.785C207.733 274.276 219.931 301.662 233.971 333.188C249.088 367.129 266.339 405.869 282.363 450.964C284.477 453.017 286.503 455.037 288.526 457.053C278.193 401.654 261.335 354.786 246.673 314.024C238.524 291.371 231.054 270.602 225.755 251.295C197.048 146.677 232.174 85.0875 568.676 0.00167465C568.676 0.00167465 569.819 0.00167465 569.819 0.00167465C232.573 85.1632 197.356 146.679 226.045 251.224C231.339 270.518 238.809 291.283 246.957 313.934C261.66 354.806 278.569 401.817 288.9 457.43C290.92 459.44 292.963 461.461 294.876 463.428C295.051 399.313 278.793 344.814 264.582 297.194C225.011 164.571 201.373 85.2474 592.217 1.14441e-05C592.217 1.14441e-05 593.519 1.14441e-05 593.519 1.14441e-05C201.678 85.286 225.311 164.531 264.873 297.119C279.111 344.831 295.407 399.446 295.179 463.73C297.18 465.794 299.067 467.809 300.971 469.831C300.971 469.831 300.971 469.756 300.971 469.756C300.971 469.756 300.971 469.74 300.971 469.74C300.971 469.74 300.975 469.725 300.975 469.725C316.174 399.311 300.018 337.674 285.734 283.177C252.827 157.642 229.863 69.958 622.136 1.14441e-05C622.136 1.14441e-05 623.759 1.14441e-05 623.759 1.14441e-05C230.19 69.9479 253.12 157.58 286.025 283.112C300.316 337.632 316.479 399.296 301.271 469.767C301.275 469.897 301.273 470.026 301.275 470.156C303.175 472.17 305.128 474.206 306.914 476.172C306.964 475.913 307.018 475.657 307.065 475.394C307.065 475.394 307.069 475.378 307.069 475.378C307.069 475.378 307.075 475.364 307.075 475.364C340.719 401.325 323.794 332.954 308.632 271.708C303.968 252.87 299.471 234.706 296.661 217.249C281.681 124.174 314.729 51.4428 626.212 5.40323C626.212 5.40323 626.212 5.68593 626.212 5.68593C315.032 51.6868 282.006 124.295 296.959 217.207C299.767 234.647 304.263 252.809 308.925 271.642C324.097 332.927 341.033 401.341 307.36 475.457C307.299 475.786 307.234 476.113 307.168 476.439C309.039 478.509 310.752 480.512 312.522 482.538C312.738 482.036 312.955 481.536 313.166 481.028C313.166 481.028 313.173 481.013 313.173 481.013C313.173 481.013 313.183 481 313.183 481C368.031 405.43 349.251 330.265 332.261 262.268C326.693 239.983 321.318 218.468 318.785 197.953C308.243 112.54 346.997 44.5722 626.212 11.1514C626.212 11.1514 626.212 11.4341 626.212 11.4341C347.285 44.8246 308.561 112.669 319.085 197.922C321.614 218.417 326.989 239.926 332.554 262.204C349.557 330.253 368.351 405.475 313.442 481.143C313.211 481.695 312.976 482.24 312.741 482.785C314.473 484.764 316.247 486.761 317.865 488.691C318.335 488.017 318.805 487.345 319.275 486.665C319.275 486.665 319.282 486.655 319.282 486.655C319.282 486.655 319.293 486.643 319.293 486.643C397.486 411.257 375.757 329.06 356.006 254.357C349.075 228.142 342.389 202.847 340.344 179.087C333.625 101.025 377.02 39.5728 626.213 16.5564C626.213 16.5564 626.213 16.8374 626.213 16.8374C377.293 39.8319 333.94 101.164 340.644 179.066C342.687 202.806 349.37 228.09 356.298 254.293C376.066 329.064 397.816 411.333 319.521 486.827C319.032 487.532 318.546 488.23 318.057 488.93C318.549 489.519 319.029 490.103 319.504 490.684C319.504 490.684 319.096 490.684 319.096 490.684C318.694 490.192 318.286 489.698 317.87 489.199C317.87 489.199 316.838 490.684 316.838 490.684L316.479 490.684C316.479 490.684 317.677 488.96 317.677 488.96C316.068 487.04 314.327 485.065 312.607 483.098C312.194 484.064 311.785 485.031 311.371 485.994C312.629 487.56 313.912 489.139 315.12 490.682C315.12 490.682 314.719 490.682 314.719 490.682C313.59 489.24 312.403 487.772 311.234 486.314C310.818 487.278 310.405 488.245 309.986 489.204C309.986 489.204 311.061 490.68 311.061 490.68L310.677 490.68C310.677 490.68 309.841 489.529 309.841 489.529C309.671 489.915 309.501 490.298 309.331 490.68C309.331 490.68 309.004 490.68 309.004 490.68C309.216 490.206 309.429 489.728 309.637 489.25C308.34 487.453 307.077 485.671 305.705 483.843C305.487 484.871 305.25 485.881 305.026 486.903C305.878 488.178 306.673 489.43 307.47 490.682C307.47 490.682 307.108 490.682 307.108 490.682C306.398 489.571 305.684 488.457 304.931 487.327C304.704 488.351 304.485 489.383 304.248 490.399C304.248 490.399 304.411 490.682 304.411 490.682L303.875 490.682C303.875 490.682 303.929 490.456 303.929 490.456C303.048 488.939 302.07 487.377 301.12 485.829C301.074 486.891 300.999 487.931 300.941 488.984C301.234 489.549 301.533 490.117 301.827 490.682C301.827 490.682 301.477 490.682 301.477 490.682L300.906 489.575L300.842 490.682C300.842 490.682 300.54 490.682 300.54 490.682C300.574 490.14 300.606 489.597 300.637 489.051C299.9 487.613 299.173 486.177 298.405 484.722C298.523 485.782 298.637 486.839 298.74 487.889C299.136 488.826 299.511 489.753 299.885 490.682C299.885 490.682 299.559 490.682 299.559 490.682C299.326 490.113 299.092 489.543 298.853 488.971C298.905 489.544 298.952 490.113 298.996 490.682C298.996 490.682 298.396 490.682 298.396 490.682C298.332 490.478 298.265 490.273 298.196 490.066C298.196 490.066 298.327 490.682 298.327 490.682L298.039 490.682C298.039 490.682 298.039 490.685 298.039 490.685Z" fill="#808080" transform="translate(-306.602 -45.784)" />
</svg>