<?xml version="1.0" encoding="utf-8"?>
<svg width="372" height="108" viewBox="0 0 372 108" fill="none" xmlns="http://www.w3.org/2000/svg">
  <path d="M396.397 214.033C396.201 213.597 395.99 213.15 395.79 212.711C395.526 212.264 395.242 211.805 394.965 211.349C395.218 211.838 395.481 212.333 395.724 212.815C395.947 213.22 396.178 213.631 396.397 214.034C396.397 214.034 396.397 214.033 396.397 214.033ZM397.058 215.522C396.994 215.375 396.936 215.232 396.871 215.085C396.787 214.929 396.695 214.765 396.607 214.607C396.758 214.913 396.91 215.219 397.058 215.522C397.058 215.522 397.058 215.522 397.058 215.522ZM397.988 217.013C397.797 216.499 397.584 215.968 397.382 215.445C396.986 214.757 396.608 214.08 396.199 213.383C396.447 213.927 396.702 214.476 396.938 215.012C397.301 215.688 397.638 216.346 397.988 217.013C397.988 217.013 397.988 217.013 397.988 217.013ZM398.618 218.782C398.483 218.406 398.356 218.036 398.217 217.658C397.935 217.113 397.658 216.572 397.371 216.025C397.516 216.359 397.654 216.688 397.797 217.02C398.082 217.616 398.344 218.195 398.618 218.783C398.618 218.783 398.618 218.782 398.618 218.782ZM399.065 220.038C399.032 219.943 398.997 219.846 398.963 219.751C398.963 219.751 398.883 219.576 398.883 219.576C398.947 219.732 399.002 219.883 399.065 220.038C399.065 220.038 399.065 220.038 399.065 220.038ZM399.327 219.6C399.176 219.078 399.014 218.547 398.854 218.018C398.477 217.341 398.072 216.646 397.672 215.954C397.88 216.502 398.086 217.048 398.284 217.587C398.637 218.261 398.992 218.937 399.327 219.599C399.327 219.599 399.327 219.6 399.327 219.6ZM399.839 221.438C399.709 220.969 399.584 220.505 399.449 220.032C399.153 219.442 398.832 218.834 398.516 218.231C398.692 218.717 398.862 219.2 399.032 219.681C399.305 220.269 399.581 220.859 399.839 221.437C399.839 221.437 399.839 221.438 399.839 221.438ZM400.354 223.3C400.241 222.87 400.11 222.424 399.991 221.988C399.797 221.551 399.585 221.1 399.377 220.652C399.527 221.087 399.676 221.52 399.821 221.95C399.998 222.399 400.185 222.856 400.355 223.3C400.355 223.3 400.354 223.3 400.354 223.3ZM400.671 224.565C400.622 224.374 400.579 224.187 400.529 223.995C400.445 223.77 400.354 223.54 400.264 223.312C400.4 223.731 400.54 224.151 400.671 224.565C400.671 224.565 400.671 224.565 400.671 224.565ZM400.604 222.188C400.503 221.681 400.401 221.173 400.293 220.66C399.88 219.893 399.48 219.135 399.051 218.358C399.213 218.899 399.368 219.435 399.521 219.969C399.896 220.717 400.245 221.449 400.604 222.188C400.604 222.188 400.604 222.188 400.604 222.188ZM400.945 223.992C400.855 223.508 400.764 223.025 400.669 222.537C400.327 221.831 399.998 221.133 399.645 220.418C399.788 220.924 399.926 221.426 400.063 221.926C400.369 222.624 400.65 223.302 400.945 223.992C400.945 223.992 400.945 223.992 400.945 223.992ZM401.277 225.799C401.197 225.341 401.111 224.875 401.025 224.412C400.764 223.798 400.507 223.186 400.24 222.567C400.364 223.027 400.486 223.485 400.604 223.94C400.838 224.567 401.051 225.178 401.277 225.799C401.277 225.799 401.277 225.799 401.277 225.799ZM401.539 227.41C401.477 227.03 401.419 226.654 401.354 226.271C401.174 225.77 400.991 225.267 400.809 224.764C400.893 225.096 400.973 225.426 401.055 225.756C401.225 226.314 401.375 226.857 401.539 227.41C401.539 227.41 401.539 227.41 401.539 227.41ZM401.757 228.764C401.724 228.547 401.685 228.323 401.65 228.104C401.604 227.945 401.555 227.784 401.51 227.624C401.599 228.009 401.672 228.382 401.757 228.764C401.757 228.764 401.757 228.764 401.757 228.764ZM401.786 224.634C401.738 224.145 401.693 223.66 401.639 223.167C401.258 222.435 400.843 221.679 400.438 220.93C400.546 221.451 400.643 221.964 400.744 222.479C401.097 223.201 401.455 223.927 401.786 224.634C401.786 224.634 401.786 224.634 401.786 224.634ZM401.943 226.337C401.901 225.859 401.857 225.379 401.81 224.897C401.495 224.221 401.147 223.522 400.811 222.83C400.91 223.341 401.007 223.851 401.1 224.356C401.386 225.02 401.677 225.688 401.943 226.337C401.943 226.337 401.943 226.337 401.943 226.337ZM402.081 228.022C402.047 227.563 402.01 227.102 401.97 226.638C401.722 226.028 401.447 225.399 401.18 224.776C401.268 225.262 401.349 225.743 401.431 226.223C401.652 226.826 401.877 227.432 402.082 228.022C402.082 228.022 402.081 228.022 402.081 228.022ZM402.19 229.637C402.163 229.214 402.136 228.79 402.105 228.363C401.918 227.816 401.711 227.255 401.508 226.697C401.584 227.154 401.658 227.608 401.729 228.061C401.887 228.589 402.047 229.119 402.19 229.637C402.19 229.637 402.19 229.637 402.19 229.637ZM402.29 231.223C402.27 230.846 402.242 230.462 402.219 230.082C402.099 229.644 401.97 229.201 401.84 228.754C401.9 229.152 401.955 229.544 402.011 229.937C402.106 230.367 402.204 230.8 402.29 231.223C402.29 231.223 402.29 231.223 402.29 231.223ZM402.906 227.112C402.912 226.649 402.925 226.192 402.928 225.725C402.535 224.94 402.158 224.165 401.746 223.366C401.799 223.865 401.841 224.353 401.889 224.847C402.244 225.614 402.567 226.358 402.906 227.112C402.906 227.112 402.906 227.112 402.906 227.112ZM402.879 228.716C402.889 228.257 402.896 227.793 402.902 227.33C402.574 226.594 402.258 225.867 401.914 225.121C401.961 225.613 402.008 226.104 402.05 226.591C402.34 227.309 402.602 228.007 402.879 228.716C402.879 228.716 402.879 228.716 402.879 228.716ZM402.83 230.293C402.846 229.847 402.863 229.405 402.874 228.955C402.611 228.278 402.354 227.604 402.08 226.918C402.119 227.391 402.151 227.856 402.185 228.323C402.41 228.986 402.615 229.636 402.83 230.292C402.83 230.292 402.83 230.293 402.83 230.293ZM403.96 229.47C404.021 229.033 404.086 228.603 404.144 228.163C403.787 227.42 403.39 226.649 403.009 225.888C403.006 226.36 402.991 226.821 402.984 227.289C403.313 228.018 403.654 228.756 403.96 229.47C403.96 229.47 403.96 229.47 403.96 229.47ZM403.75 230.958C403.814 230.525 403.874 230.087 403.935 229.651C403.636 228.949 403.303 228.225 402.981 227.508C402.974 227.98 402.969 228.452 402.957 228.919C403.225 229.601 403.503 230.291 403.75 230.959C403.75 230.959 403.75 230.958 403.75 230.958ZM404.424 226.613C404.872 227.462 405.28 228.284 405.704 229.116C405.817 228.703 405.929 228.288 406.041 227.874C405.559 227.006 405.099 226.153 404.591 225.268C404.536 225.717 404.481 226.166 404.424 226.613C404.424 226.613 404.424 226.613 404.424 226.613ZM403.002 224.029C403.458 224.852 403.928 225.685 404.355 226.489C404.411 226.045 404.466 225.598 404.521 225.151C404.038 224.315 403.51 223.448 402.996 222.592C403 223.073 403.002 223.551 403.002 224.029C403.002 224.029 403.002 224.029 403.002 224.029ZM401.508 221.339C401.997 222.198 402.455 223.035 402.919 223.877C402.918 223.403 402.918 222.93 402.913 222.451C402.389 221.576 401.882 220.711 401.33 219.818C401.396 220.33 401.45 220.833 401.508 221.339C401.508 221.339 401.508 221.339 401.508 221.339ZM399.949 218.683C400.441 219.514 400.939 220.349 401.404 221.161C401.351 220.707 401.304 220.257 401.244 219.797C401.244 219.797 401.243 219.792 401.243 219.792C401.243 219.792 401.243 219.682 401.243 219.682C400.727 218.847 400.177 217.991 399.633 217.138C399.633 217.138 399.655 217.33 399.655 217.33C399.761 217.788 399.853 218.234 399.949 218.684C399.949 218.684 399.949 218.683 399.949 218.683ZM398.304 215.928C398.821 216.778 399.317 217.614 399.811 218.45C399.734 218.089 399.66 217.731 399.575 217.364C399.575 217.364 399.575 217.36 399.575 217.36C399.575 217.36 399.574 217.355 399.574 217.355C399.559 217.228 399.544 217.102 399.529 216.975C398.981 216.116 398.444 215.264 397.873 214.39C397.91 214.554 397.947 214.717 397.984 214.881C398.097 215.235 398.199 215.58 398.305 215.927C398.305 215.927 398.304 215.928 398.304 215.928ZM396.612 213.209C397.125 214.026 397.637 214.842 398.126 215.642C398.055 215.406 397.985 215.17 397.908 214.929C397.908 214.929 397.907 214.926 397.907 214.926C397.907 214.926 397.906 214.923 397.906 214.923C397.852 214.68 397.797 214.437 397.742 214.195C397.205 213.377 396.642 212.542 396.078 211.706C396.078 211.706 396.313 212.435 396.313 212.435C396.418 212.697 396.514 212.952 396.612 213.209C396.612 213.209 396.612 213.209 396.612 213.209ZM394.833 210.403C395.355 211.212 395.863 212.013 396.364 212.808C396.324 212.704 396.285 212.599 396.242 212.493C396.242 212.493 396.242 212.49 396.242 212.49C396.242 212.49 396.24 212.487 396.24 212.487C396.128 212.139 396.015 211.79 395.903 211.443C395.342 210.612 394.794 209.788 394.215 208.944C394.357 209.292 394.5 209.64 394.644 209.989C394.644 209.989 394.644 209.989 394.644 209.989C394.71 210.129 394.771 210.266 394.833 210.403C394.833 210.403 394.833 210.403 394.833 210.403ZM393.034 207.663C393.536 208.422 394.039 209.183 394.523 209.931C394.343 209.491 394.163 209.051 393.983 208.614C393.463 207.862 392.918 207.093 392.375 206.326C392.375 206.326 392.972 207.542 392.972 207.542C392.994 207.584 393.014 207.623 393.035 207.663C393.035 207.663 393.034 207.663 393.034 207.663ZM391.189 204.902C391.677 205.618 392.151 206.326 392.616 207.028C392.616 207.028 392.037 205.847 392.037 205.847C391.507 205.098 391.001 204.366 390.461 203.611C390.461 203.611 391.189 204.902 391.189 204.902C391.189 204.902 391.189 204.902 391.189 204.902ZM389.497 202.444C389.863 202.978 390.241 203.519 390.602 204.049C390.602 204.049 390.003 202.988 390.003 202.988C389.628 202.47 389.233 201.938 388.844 201.411C388.844 201.411 389.496 202.444 389.496 202.444C389.496 202.444 389.497 202.444 389.497 202.444ZM387.959 200.213C388.027 200.31 388.088 200.401 388.155 200.497C388.155 200.497 388.049 200.33 388.049 200.33C387.995 200.257 387.943 200.185 387.889 200.112C387.889 200.112 387.959 200.213 387.959 200.213C387.959 200.213 387.959 200.213 387.959 200.213ZM391.128 204.983C391.074 204.904 391.015 204.82 390.961 204.74C391.048 204.875 391.134 205.01 391.22 205.146C391.22 205.146 391.128 204.983 391.128 204.983C391.128 204.983 391.128 204.983 391.128 204.983ZM392.971 207.743C392.582 207.152 392.213 206.576 391.814 205.98C392.042 206.364 392.254 206.737 392.479 207.119C392.823 207.662 393.161 208.201 393.492 208.737C393.321 208.407 393.153 208.079 392.972 207.744C392.972 207.744 392.971 207.743 392.971 207.743ZM394.769 210.481C394.356 209.84 393.92 209.183 393.488 208.53C393.753 209.026 394.004 209.513 394.261 210.004C394.658 210.657 395.06 211.315 395.449 211.963C395.225 211.471 395.005 210.982 394.769 210.481C394.769 210.481 394.769 210.481 394.769 210.481ZM396.547 213.285C396.068 212.519 395.595 211.759 395.098 210.982C395.357 211.539 395.605 212.086 395.855 212.635C396.302 213.386 396.727 214.123 397.157 214.864C396.955 214.339 396.757 213.816 396.547 213.285C396.547 213.285 396.547 213.285 396.547 213.285ZM398.236 215.997C397.774 215.239 397.283 214.46 396.797 213.685C397.019 214.252 397.234 214.812 397.448 215.372C397.883 216.122 398.316 216.873 398.73 217.611C398.567 217.075 398.406 216.539 398.236 215.998C398.236 215.998 398.236 215.997 398.236 215.997ZM399.877 218.749C399.394 217.93 398.918 217.116 398.414 216.283C398.588 216.842 398.757 217.397 398.924 217.95C399.371 218.752 399.791 219.536 400.219 220.326C400.108 219.803 399.994 219.277 399.877 218.749C399.877 218.749 399.877 218.749 399.877 218.749ZM401.431 221.397C400.98 220.606 400.492 219.791 400.014 218.982C400.132 219.522 400.25 220.061 400.364 220.596C400.785 221.373 401.211 222.152 401.608 222.912C401.551 222.41 401.491 221.902 401.43 221.397C401.43 221.397 401.431 221.397 401.431 221.397ZM402.92 224.078C402.461 223.246 402.016 222.422 401.535 221.575C401.596 222.088 401.658 222.602 401.715 223.112C402.136 223.924 402.524 224.714 402.926 225.513C402.926 225.037 402.921 224.556 402.92 224.078C402.92 224.078 402.92 224.078 402.92 224.078ZM404.336 226.651C403.917 225.86 403.451 225.039 403.004 224.23C403.005 224.712 403.011 225.2 403.01 225.68C403.401 226.454 403.804 227.237 404.169 227.994C404.226 227.55 404.279 227.099 404.335 226.651C404.335 226.651 404.336 226.651 404.336 226.651ZM405.666 229.254C405.248 228.432 404.844 227.62 404.403 226.782C404.346 227.231 404.293 227.685 404.234 228.131C404.618 228.932 404.964 229.708 405.327 230.495C405.441 230.083 405.553 229.668 405.666 229.254C405.666 229.254 405.666 229.254 405.666 229.254ZM462.489 231.25C479.966 216.782 484.023 196.564 481.893 174.635C479.86 153.708 472.202 131.22 465.21 110.686C457.726 88.7094 451.004 68.9695 452.75 55.7527C454.516 42.3735 464.95 35.6936 492.018 40.1633C492.018 40.1633 492.018 40.283 492.018 40.283C465 35.8155 454.589 42.4576 452.831 55.7752C451.091 68.9521 457.807 88.6738 465.284 110.632C472.279 131.174 479.94 153.672 481.974 174.617C484.104 196.543 480.065 216.762 462.659 231.25C462.659 231.25 462.489 231.25 462.489 231.25C462.489 231.25 462.489 231.25 462.489 231.25ZM452.77 231.25C473.264 215.375 476.965 192.552 473.91 168.121C471.626 149.856 465.57 130.687 459.935 112.854C453.251 91.7015 447.161 72.4259 448.653 58.7333C450.326 43.3905 461.513 35.0757 492.02 39.0115C492.02 39.0115 492.02 39.1312 492.02 39.1312C461.566 35.1968 450.4 43.4724 448.734 58.7521C447.246 72.4077 453.331 91.6682 460.01 112.802C465.646 130.642 471.705 149.817 473.991 168.098C477.046 192.528 473.361 215.352 452.948 231.25C452.948 231.25 452.769 231.25 452.769 231.25C452.769 231.25 452.77 231.25 452.77 231.25ZM443.471 231.25C467.27 213.475 469.925 187.349 465.588 159.996C463.206 144.969 458.715 129.57 454.461 114.979C448.582 94.8181 443.153 76.2017 444.353 62.2277C445.855 44.7465 457.719 34.5473 492.02 37.712C492.02 37.712 492.02 37.8324 492.02 37.8324C457.774 34.6691 445.931 44.8263 444.435 62.2429C443.238 76.1843 448.662 94.7869 454.537 114.932C458.793 129.527 463.285 144.932 465.669 159.968C470.005 187.322 467.364 213.448 443.653 231.25C443.653 231.25 443.471 231.25 443.471 231.25C443.471 231.25 443.471 231.25 443.471 231.25ZM434.824 231.25C462.554 210.547 462.683 179.605 456.466 148.432C454.362 137.884 451.532 127.311 448.799 117.097C443.712 98.086 438.959 80.3241 439.839 66.2957C441.08 46.5036 453.526 34.1652 492.021 36.2724C492.021 36.2724 492.021 36.3928 492.021 36.3928C453.584 34.2856 441.158 46.5812 439.921 66.3066C439.043 80.306 443.793 98.0555 448.876 117.052C451.61 127.269 454.441 137.846 456.545 148.397C462.763 179.572 462.644 210.514 435.006 231.25C435.006 231.25 434.825 231.25 434.825 231.25C434.825 231.25 434.824 231.25 434.824 231.25ZM427.047 231.25C463.399 202.987 452.579 158.653 442.956 119.245C438.631 101.537 434.55 84.8226 435.094 70.998C435.971 48.7251 448.851 33.9742 492.02 34.6858C492.02 34.6858 492.02 34.8062 492.02 34.8062C448.912 34.0939 436.052 48.7998 435.177 71.0052C434.633 84.8059 438.712 101.509 443.033 119.205C452.656 158.613 463.478 202.943 427.228 231.251C427.228 231.251 427.047 231.251 427.047 231.251C427.047 231.251 427.047 231.25 427.047 231.25ZM420.32 231.25C454.811 202.072 445.396 159.616 436.936 121.475C433.329 105.21 429.895 89.7306 430.109 76.3891C430.507 51.4759 443.619 34.0455 492.018 32.9531C492.018 32.9531 492.018 33.0735 492.018 33.0735C443.683 34.1637 430.589 51.5462 430.191 76.392C429.978 89.7124 433.409 105.184 437.015 121.438C445.475 159.58 454.891 202.032 420.488 231.251C420.488 231.251 420.32 231.251 420.32 231.251C420.32 231.251 420.32 231.25 420.32 231.25ZM414.709 231.25C446.239 200.882 438.115 160.45 430.757 123.848C427.804 109.154 424.974 95.075 424.88 82.5068C424.673 54.8082 437.75 34.4662 492.02 31.073C492.02 31.073 492.02 31.1934 492.02 31.1934C437.818 34.5816 424.756 54.8749 424.963 82.5053C425.056 95.0569 427.884 109.127 430.837 123.813C438.195 160.417 446.317 200.846 414.857 231.249C414.857 231.249 414.709 231.249 414.709 231.249C414.709 231.249 414.709 231.25 414.709 231.25ZM410.207 231.25C437.781 199.558 430.789 161.252 424.431 126.448C422.051 113.422 419.761 100.887 419.404 89.368C418.454 58.7549 431.15 35.3425 492.018 29.0479C492.018 29.0479 492.018 29.169 492.018 29.169C431.221 35.4571 418.539 58.818 419.486 89.3622C419.844 100.869 422.132 113.398 424.51 126.416C430.869 161.223 437.86 199.528 410.34 231.25C410.34 231.25 410.207 231.25 410.207 231.25C410.207 231.25 410.207 231.25 410.207 231.25ZM402.11 231.25C402.053 230.826 401.994 230.4 401.933 229.971C401.642 228.606 401.324 227.219 400.98 225.812C400.596 224.564 400.182 223.292 399.748 222.006C399.116 220.397 398.44 218.757 397.73 217.092C397.073 215.713 396.38 214.309 395.66 212.888C394.636 211.029 393.544 209.124 392.416 207.195C391.503 205.733 390.56 204.251 389.571 202.739C389.571 202.739 389.57 202.739 389.57 202.739C389.57 202.739 389.436 202.526 389.436 202.526C388.929 201.786 388.435 201.055 387.902 200.299C387.902 200.299 387.902 200.299 387.902 200.299C387.902 200.299 385.929 197.452 385.929 197.452C383.435 194.131 381 190.891 378.642 187.752C332.481 126.319 315.261 103.403 321.787 89.0712C325.666 80.5526 337.939 75.0986 357.514 66.4009C378.423 57.1097 407.667 44.1149 443.908 19.7356C443.908 19.7356 444.105 19.7356 444.105 19.7356C407.785 44.1882 378.48 57.2098 357.538 66.5154C337.981 75.2052 325.719 80.6541 321.856 89.1372C315.369 103.383 332.574 126.28 378.697 187.662C380.563 190.146 382.477 192.692 384.446 195.314C384.446 195.314 381.82 191.528 381.82 191.528C338.936 129.714 322.456 105.959 329.652 90.1556C334.139 80.3009 347.838 73.5703 370.087 62.6399C389.447 53.1282 415.286 40.4337 447.16 19.7356C447.16 19.7356 447.363 19.7356 447.363 19.7356C415.408 40.5004 389.51 53.2254 370.113 62.7545C347.881 73.6769 334.192 80.4024 329.72 90.2231C322.562 105.943 339.028 129.679 381.878 191.443C383.22 193.378 384.589 195.351 385.984 197.362C385.984 197.362 386.29 197.77 386.29 197.77C386.644 198.243 386.967 198.695 387.313 199.162C385.949 197.003 384.613 194.888 383.304 192.816C345.083 132.321 329.722 108.006 337.559 90.7932C342.822 79.2361 358.549 70.914 384.845 56.9987C402.152 47.8404 424.04 36.2564 450.535 19.7356C450.535 19.7356 450.745 19.7356 450.745 19.7356C424.168 36.3166 402.219 47.9325 384.872 57.1119C358.593 71.0185 342.876 79.3362 337.628 90.8607C329.826 107.994 345.175 132.289 383.364 192.734C384.908 195.177 386.489 197.681 388.108 200.244C388.611 200.925 389.12 201.61 389.604 202.279C387.474 198.503 385.412 194.857 383.421 191.334C350.986 133.957 337.094 109.383 345.512 90.8976C351.812 77.0621 370.616 66.6728 403.506 48.4997C417.694 40.6607 434.504 31.3725 454.063 19.7356C454.063 19.7356 454.282 19.7356 454.282 19.7356C434.643 31.4248 417.77 40.7485 403.536 48.6129C370.661 66.7766 351.866 77.1615 345.581 90.9651C337.198 109.375 351.077 133.929 383.485 191.258C385.6 194.997 387.793 198.877 390.063 202.904C390.643 203.707 391.205 204.498 391.764 205.287C388.608 198.859 385.611 192.8 382.779 187.074C356.748 134.451 344.611 109.914 353.503 90.3855C361.265 73.3403 385.057 60.149 429.634 35.4345C438.232 30.6675 447.604 25.4717 457.784 19.7363C457.784 19.7363 458.013 19.7363 458.013 19.7363C447.757 25.516 438.318 30.7494 429.663 35.5477C385.102 60.2534 361.319 73.4397 353.572 90.453C344.711 109.911 356.838 134.426 382.845 187.004C385.761 192.898 388.851 199.144 392.1 205.767C392.68 206.586 393.261 207.406 393.816 208.208C389.675 198.133 385.786 188.904 382.208 180.419C362.507 133.678 352.291 109.441 361.511 89.1945C370.954 68.4558 400.8 51.9444 461.754 19.7356C461.754 19.7356 461.996 19.7356 461.996 19.7356C400.914 52.0104 371.02 68.5298 361.579 89.2605C352.389 109.443 362.595 133.657 382.278 180.354C385.9 188.947 389.843 198.302 394.047 208.538C394.643 209.403 395.221 210.255 395.794 211.106C391.095 196.564 386.599 183.689 382.576 172.172C376.039 153.453 370.753 138.317 367.878 125.422C358.156 81.8169 375.98 63.8345 466.06 19.7356C466.06 19.7356 466.32 19.7356 466.32 19.7356C376.102 63.886 358.247 81.8379 367.956 125.384C370.83 138.272 376.115 153.403 382.65 172.117C386.702 183.717 391.234 196.695 395.97 211.369C396.55 212.228 397.131 213.089 397.684 213.931C393.31 194.597 388.605 177.976 384.481 163.405C380.633 149.812 377.291 138.004 375.193 127.44C366.327 82.8121 379.659 60.4195 470.823 19.7356C470.823 19.7356 471.104 19.7356 471.104 19.7356C379.772 60.4623 366.415 82.8215 375.271 127.408C377.368 137.965 380.71 149.77 384.557 163.36C388.698 177.99 393.425 194.689 397.815 214.128C398.394 215.013 398.949 215.883 399.503 216.752C396.672 192.872 392.054 172.669 388.037 155.098C385.804 145.334 383.758 136.381 382.306 128.059C374.441 82.9622 384.064 56.4134 476.257 19.7363C476.257 19.7363 476.57 19.7363 476.57 19.7363C384.174 56.446 374.525 82.9629 382.385 128.028C383.836 136.345 385.882 145.296 388.115 155.06C392.143 172.678 396.775 192.943 399.606 216.915C400.159 217.782 400.719 218.653 401.243 219.501C401.291 191.863 396.837 168.371 392.943 147.844C382.102 90.6757 375.626 56.4823 482.706 19.7356C482.706 19.7356 483.063 19.7356 483.063 19.7356C375.709 56.499 382.184 90.6583 393.023 147.811C396.924 168.378 401.388 191.921 401.326 219.631C401.874 220.521 402.391 221.389 402.913 222.261C402.913 222.261 402.913 222.228 402.913 222.228C402.913 222.228 402.913 222.222 402.913 222.222C402.913 222.222 402.914 222.215 402.914 222.215C407.078 191.863 402.652 165.293 398.738 141.802C389.723 87.6887 383.431 49.8917 490.903 19.7356C490.903 19.7356 491.348 19.7356 491.348 19.7356C383.521 49.8873 389.803 87.6618 398.818 141.774C402.734 165.275 407.162 191.856 402.995 222.233C402.996 222.289 402.996 222.345 402.996 222.401C403.517 223.269 404.052 224.147 404.541 224.994C404.555 224.882 404.57 224.772 404.583 224.659C404.583 224.659 404.583 224.652 404.583 224.652C404.583 224.652 404.585 224.646 404.585 224.646C413.803 192.731 409.166 163.259 405.012 136.858C403.734 128.737 402.502 120.908 401.732 113.383C397.628 73.262 406.682 41.9105 492.02 22.0647C492.02 22.0647 492.02 22.1866 492.02 22.1866C406.765 42.0157 397.717 73.3142 401.814 113.365C402.583 120.883 403.815 128.711 405.092 136.83C409.249 163.247 413.889 192.737 404.663 224.686C404.647 224.828 404.629 224.969 404.611 225.109C405.123 226.002 405.593 226.865 406.078 227.738C406.137 227.522 406.196 227.306 406.254 227.087C406.254 227.087 406.256 227.081 406.256 227.081C406.256 227.081 406.259 227.075 406.259 227.075C421.285 194.5 416.14 162.1 411.485 132.789C409.96 123.183 408.487 113.908 407.793 105.065C404.905 68.2468 415.523 38.9489 492.02 24.5425C492.02 24.5425 492.02 24.6644 492.02 24.6644C415.602 39.0577 404.992 68.3027 407.876 105.052C408.569 113.886 410.041 123.158 411.566 132.761C416.224 162.094 421.373 194.519 406.33 227.137C406.266 227.375 406.202 227.61 406.138 227.845C406.612 228.698 407.098 229.559 407.541 230.391C407.67 230.1 407.799 229.81 407.928 229.517C407.928 229.517 407.93 229.513 407.93 229.513C407.93 229.513 407.933 229.508 407.933 229.508C429.355 197.012 423.402 161.58 417.991 129.379C416.092 118.078 414.26 107.175 413.7 96.9326C411.859 63.2832 423.748 36.7938 492.02 26.8724C492.02 26.8724 492.02 26.9935 492.02 26.9935C423.823 36.9055 411.946 63.3434 413.782 96.9239C414.342 107.157 416.173 118.056 418.071 129.351C423.487 161.582 429.446 197.044 407.995 229.587C407.861 229.891 407.728 230.192 407.594 230.494C407.729 230.747 407.86 230.999 407.99 231.249C407.99 231.249 407.879 231.249 407.879 231.249C407.768 231.038 407.657 230.824 407.543 230.61C407.543 230.61 407.26 231.249 407.26 231.249L407.162 231.249C407.162 231.249 407.49 230.507 407.49 230.507C407.049 229.679 406.572 228.827 406.101 227.98C405.988 228.396 405.876 228.813 405.762 229.228C406.107 229.903 406.458 230.584 406.789 231.249C406.789 231.249 406.679 231.249 406.679 231.249C406.37 230.627 406.045 229.995 405.725 229.366C405.611 229.781 405.498 230.198 405.383 230.612C405.383 230.612 405.677 231.248 405.677 231.248L405.572 231.248C405.572 231.248 405.343 230.752 405.343 230.752C405.296 230.918 405.25 231.083 405.203 231.248C405.203 231.248 405.114 231.248 405.114 231.248C405.172 231.043 405.23 230.837 405.287 230.631C404.932 229.857 404.586 229.089 404.21 228.301C404.15 228.744 404.085 229.179 404.024 229.62C404.257 230.169 404.475 230.709 404.693 231.249C404.693 231.249 404.594 231.249 404.594 231.249C404.4 230.77 404.204 230.29 403.998 229.802C403.936 230.244 403.876 230.689 403.811 231.127C403.811 231.127 403.855 231.249 403.855 231.249L403.709 231.249C403.709 231.249 403.723 231.152 403.723 231.152C403.482 230.497 403.214 229.824 402.954 229.157C402.941 229.614 402.92 230.063 402.905 230.517C402.985 230.761 403.067 231.005 403.147 231.249C403.147 231.249 403.051 231.249 403.051 231.249L402.895 230.771L402.878 231.249C402.878 231.249 402.795 231.249 402.795 231.249C402.804 231.015 402.813 230.781 402.821 230.546C402.62 229.926 402.42 229.307 402.21 228.679C402.242 229.136 402.273 229.592 402.302 230.045C402.41 230.449 402.513 230.848 402.615 231.249C402.615 231.249 402.526 231.249 402.526 231.249C402.462 231.004 402.398 230.758 402.333 230.511C402.347 230.758 402.36 231.004 402.372 231.249C402.372 231.249 402.208 231.249 402.208 231.249C402.19 231.161 402.172 231.072 402.153 230.983C402.153 230.983 402.189 231.249 402.189 231.249L402.11 231.249C402.11 231.249 402.11 231.25 402.11 231.25ZM81.6546 211.515C81.5978 211.09 81.5387 210.665 81.4778 210.236C81.1871 208.871 80.8692 207.484 80.5249 206.077C80.141 204.828 79.7266 203.557 79.2928 202.271C78.6611 200.662 77.9851 199.021 77.2754 197.356C76.6182 195.977 75.9251 194.574 75.2048 193.152C74.1808 191.293 73.089 189.388 71.9612 187.46C71.0476 185.997 70.1048 184.515 69.1154 183.003C69.1154 183.003 69.115 183.003 69.115 183.003C69.115 183.003 68.9812 182.79 68.9812 182.79C68.474 182.051 67.9798 181.319 67.4473 180.564C67.4473 180.564 67.4473 180.564 67.4473 180.564C67.4473 180.564 65.4737 177.717 65.4737 177.717C62.9799 174.395 60.5453 171.155 58.1868 168.016C12.0257 106.584 -5.19396 83.6673 1.33192 69.3356C5.21137 60.817 17.4842 55.363 37.0591 46.6653C57.9676 37.3741 87.2123 24.3793 123.453 3.8147e-06C123.453 3.8147e-06 123.65 3.8147e-06 123.65 3.8147e-06C87.33 24.4526 58.0253 37.4742 37.0831 46.7798C17.5257 55.4696 5.26396 60.9185 1.40067 69.4016C-5.08601 83.6469 12.1193 106.544 58.2422 167.926C60.1083 170.41 62.0215 172.956 63.991 175.578C63.991 175.578 61.3649 171.793 61.3649 171.793C18.481 109.978 2.00057 86.2234 9.1965 70.42C13.6841 60.5653 27.3829 53.8347 49.6319 42.9043C68.9922 33.3926 94.8305 20.6981 126.705 3.8147e-06C126.705 3.8147e-06 126.908 3.8147e-06 126.908 3.8147e-06C94.9527 20.7649 69.0545 33.4898 49.6582 43.0189C27.4258 53.9413 13.7372 60.6668 9.26478 70.4875C2.1067 86.2074 18.5732 109.943 61.4225 171.707C62.7654 173.642 64.134 175.615 65.5285 177.627C65.5285 177.627 65.8345 178.034 65.8345 178.034C66.1894 178.507 66.5124 178.96 66.8575 179.426C65.4944 177.268 64.158 175.152 62.8489 173.08C24.6284 112.585 9.2666 88.2704 17.1044 71.0576C22.3668 59.5005 38.0937 51.1784 64.3897 37.2631C81.6965 28.1048 103.585 16.5208 130.08 3.8147e-06C130.08 3.8147e-06 130.29 3.8147e-06 130.29 3.8147e-06C103.713 16.581 81.7639 28.1969 64.4174 37.3763C38.138 51.2829 22.4208 59.6006 17.1727 71.1251C9.37091 88.258 24.7203 112.553 62.9089 172.998C64.4529 175.442 66.0343 177.945 67.6526 180.508C68.1561 181.19 68.6646 181.874 69.1487 182.543C67.0186 178.768 64.9573 175.121 62.9661 171.599C30.5309 114.222 16.6393 89.6471 25.0567 71.162C31.3569 57.3266 50.1607 46.9372 83.0514 28.7641C97.2388 20.9251 114.049 11.6369 133.607 0C133.607 0 133.827 0 133.827 0C114.188 11.6892 97.3145 21.0129 83.0809 28.8773C50.2064 47.041 31.4114 57.4259 25.1259 71.2295C16.7427 89.6398 30.6223 114.193 63.0302 171.522C65.1446 175.262 67.3375 179.142 69.6083 183.168C70.1883 183.971 70.7499 184.763 71.3087 185.552C68.1529 179.123 65.1557 173.065 62.3238 167.339C36.2931 114.715 24.1555 90.1781 33.0482 70.6499C40.8098 53.6047 64.602 40.4134 109.179 15.6989C117.777 10.9319 127.149 5.73614 137.329 0.000728607C137.329 0.000728607 137.558 0.000728607 137.558 0.000728607C127.302 5.78039 117.863 11.0139 109.208 15.8121C64.6472 40.5178 40.8638 53.7041 33.1165 70.7174C24.2561 90.1759 36.3826 114.691 62.3902 167.268C65.3057 173.163 68.3956 179.409 71.6452 186.031C72.2248 186.85 72.8057 187.67 73.3609 188.473C69.2202 178.398 65.3306 169.169 61.7534 160.683C42.0521 113.942 31.8364 89.7058 41.0558 69.4589C50.499 48.7202 80.3445 32.2088 141.298 3.8147e-06C141.298 3.8147e-06 141.541 3.8147e-06 141.541 3.8147e-06C80.4589 32.2748 50.5645 48.7942 41.1241 69.5249C31.9342 89.7073 42.1402 113.921 61.8231 160.618C65.445 169.211 69.3877 178.566 73.592 188.802C74.1882 189.668 74.7655 190.52 75.3386 191.37C70.6396 176.828 66.1437 163.954 62.1212 152.436C55.5838 133.718 50.2983 118.582 47.4229 105.686C37.7005 62.0813 55.5247 44.0989 145.605 3.8147e-06C145.605 3.8147e-06 145.865 3.8147e-06 145.865 3.8147e-06C55.6465 44.1504 37.7924 62.1023 47.5014 105.649C50.3748 118.537 55.6594 133.668 62.195 152.381C66.2466 163.982 70.7785 176.959 75.5154 191.633C76.0949 192.493 76.6764 193.354 77.2287 194.195C72.8546 174.862 68.1496 158.24 64.0256 143.669C60.178 130.076 56.8357 118.268 54.7374 107.705C45.872 63.0765 59.2039 40.6839 150.367 3.8147e-06C150.367 3.8147e-06 150.648 3.8147e-06 150.648 3.8147e-06C59.3165 40.7267 45.9597 63.0859 54.8163 107.672C56.9132 118.229 60.2551 130.034 64.1017 143.624C68.2433 158.254 72.9695 174.954 77.3598 194.393C77.9389 195.277 78.4941 196.148 79.0483 197.017C76.2172 173.137 71.5985 152.934 67.5816 135.363C65.3491 125.598 63.3025 116.646 61.8508 108.323C53.9857 63.2266 63.6094 36.6778 155.802 0.000720978C155.802 0.000720978 156.115 0.000720978 156.115 0.000720978C63.7188 36.7104 54.0702 63.2273 61.9302 108.292C63.3805 116.609 65.4271 125.56 67.6596 135.324C71.6876 152.943 76.3201 173.207 79.1507 197.179C79.704 198.046 80.2637 198.917 80.788 199.765C80.8359 172.128 76.3815 148.635 72.4882 128.109C61.6468 70.9401 55.1707 36.7467 162.251 3.8147e-06C162.251 3.8147e-06 162.608 3.8147e-06 162.608 3.8147e-06C55.2543 36.7634 61.7289 70.9227 72.568 128.076C76.4687 148.643 80.9333 172.185 80.871 199.895C81.4192 200.785 81.936 201.653 82.4579 202.525C82.4579 202.525 82.4579 202.493 82.4579 202.493C82.4579 202.493 82.4579 202.486 82.4579 202.486C82.4579 202.486 82.4589 202.48 82.4589 202.48C86.623 172.127 82.1968 145.558 78.2832 122.066C69.2677 67.9531 62.9763 30.1561 170.448 3.8147e-06C170.448 3.8147e-06 170.893 3.8147e-06 170.893 3.8147e-06C63.0658 30.1517 69.348 67.9262 78.363 122.038C82.2784 145.54 86.7066 172.12 82.5401 202.498C82.541 202.554 82.5405 202.609 82.541 202.665C83.0615 203.534 83.5968 204.411 84.0859 205.258C84.0998 205.147 84.1146 205.036 84.1275 204.923C84.1275 204.923 84.1284 204.916 84.1284 204.916C84.1284 204.916 84.1302 204.91 84.1302 204.91C93.3478 172.995 88.7106 143.523 84.5566 117.122C83.2789 109.002 82.0468 101.172 81.2771 93.6474C77.1729 53.5264 86.2271 22.1749 171.565 2.32911C171.565 2.32911 171.565 2.45097 171.565 2.45097C86.3101 22.2801 77.2619 53.5786 81.3587 93.6293C82.128 101.147 83.3596 108.976 84.6369 117.094C88.7937 143.512 93.4336 173.002 84.2082 204.95C84.1916 205.092 84.1736 205.233 84.1556 205.374C84.6683 206.266 85.1376 207.129 85.6226 208.002C85.6817 207.786 85.7412 207.571 85.7989 207.352C85.7989 207.352 85.8007 207.345 85.8007 207.345C85.8007 207.345 85.8035 207.339 85.8035 207.339C100.83 174.764 95.6851 142.364 91.0304 113.053C89.5048 103.447 88.0323 94.1726 87.3383 85.3297C84.45 48.5113 95.0677 19.2133 171.565 4.80693C171.565 4.80693 171.565 4.92879 171.565 4.92879C95.1466 19.3221 84.5373 48.5671 87.4204 85.316C88.1135 94.1508 89.586 103.422 91.1107 113.025C95.7691 142.359 100.918 174.784 85.8746 207.401C85.8113 207.639 85.7467 207.874 85.6826 208.109C86.157 208.962 86.6429 209.823 87.0863 210.655C87.2151 210.364 87.3438 210.075 87.4726 209.782C87.4726 209.782 87.4744 209.777 87.4744 209.777C87.4744 209.777 87.4777 209.772 87.4777 209.772C108.9 177.276 102.947 141.845 97.536 109.643C95.6371 98.3427 93.8051 87.4391 93.2449 77.197C91.4042 43.5476 103.293 17.0582 171.565 7.13678C171.565 7.13678 171.565 7.25791 171.565 7.25791C103.368 17.1699 91.4905 43.6078 93.3271 77.1883C93.8868 87.4217 95.7179 98.3202 97.6158 109.615C103.032 141.846 108.991 177.309 87.54 209.851C87.4061 210.155 87.2728 210.456 87.1389 210.758C87.2737 211.012 87.4052 211.264 87.5353 211.514C87.5353 211.514 87.4237 211.514 87.4237 211.514C87.3134 211.302 87.2017 211.089 87.0877 210.874C87.0877 210.874 86.8049 211.514 86.8049 211.514L86.7066 211.514C86.7066 211.514 87.0347 210.771 87.0347 210.771C86.594 209.943 86.1169 209.092 85.6457 208.244C85.5326 208.66 85.4205 209.077 85.307 209.492C85.6517 210.168 86.0033 210.848 86.3342 211.513C86.3342 211.513 86.2244 211.513 86.2244 211.513C85.9152 210.891 85.5899 210.259 85.2696 209.63C85.1556 210.046 85.0426 210.463 84.9277 210.876C84.9277 210.876 85.2221 211.512 85.2221 211.512L85.1169 211.512C85.1169 211.512 84.888 211.016 84.888 211.016C84.8414 211.182 84.7948 211.348 84.7482 211.512C84.7482 211.512 84.6587 211.512 84.6587 211.512C84.7168 211.308 84.7749 211.102 84.8322 210.896C84.4768 210.121 84.1308 209.353 83.7547 208.565C83.6951 209.008 83.6301 209.444 83.5687 209.884C83.8022 210.434 84.02 210.973 84.2383 211.513C84.2383 211.513 84.1391 211.513 84.1391 211.513C83.9448 211.034 83.7491 210.554 83.5429 210.067C83.4806 210.509 83.4206 210.953 83.3555 211.391C83.3555 211.391 83.4003 211.513 83.4003 211.513L83.2535 211.513C83.2535 211.513 83.2683 211.416 83.2683 211.416C83.027 210.762 82.7589 210.089 82.4986 209.421C82.4861 209.879 82.4654 210.327 82.4497 210.781C82.53 211.025 82.6116 211.269 82.6924 211.513C82.6924 211.513 82.5964 211.513 82.5964 211.513L82.44 211.036L82.4225 211.513C82.4225 211.513 82.3399 211.513 82.3399 211.513C82.3491 211.28 82.3578 211.045 82.3662 210.81C82.1645 210.19 81.9652 209.571 81.7547 208.944C81.787 209.401 81.8184 209.856 81.8466 210.309C81.955 210.713 82.0579 211.113 82.1604 211.513C82.1604 211.513 82.0708 211.513 82.0708 211.513C82.0072 211.268 81.943 211.022 81.8775 210.775C81.8918 211.023 81.9047 211.268 81.9167 211.513C81.9167 211.513 81.7524 211.513 81.7524 211.513C81.7349 211.425 81.7164 211.337 81.6975 211.248C81.6975 211.248 81.7335 211.513 81.7335 211.513L81.6546 211.513C81.6546 211.513 81.6546 211.515 81.6546 211.515Z" fill="#808080" transform="translate(-84 -19.736)" />
</svg>