<?xml version="1.0" encoding="utf-8"?>
<svg width="141.022" height="31.544" viewBox="0 0 141.022 31.544" fill="none" xmlns="http://www.w3.org/2000/svg">
  <g>
    <path d="M1.53661 0.212701C0.967484 0.352635 0.485626 0.482348 0.472565 0.490866C0.421814 0.545623 0.173492 5.08826 0.0805817 7.72561C-0.138641 14.112 0.0762939 17.064 0.887772 18.624C1.34068 19.5035 2.04617 20.1715 2.89542 20.5441C2.89542 20.5441 3.16689 20.6651 3.16689 20.6651C3.16689 20.6651 3.89565 20.1854 3.89565 20.1854C4.42255 19.8396 4.60979 19.6957 4.55904 19.6692C4.0452 19.382 3.569 19.0642 3.34109 18.8491C2.14642 17.7318 1.88937 16.651 1.89381 12.7725C1.89381 9.7173 2.07082 6.29073 2.46863 1.7257C2.54271 0.814298 2.60358 0.0430755 2.59491 0.012655C2.58624 -0.0277436 2.3002 0.0265267 1.53955 0.214161C1.53955 0.214161 1.53661 0.212701 1.53661 0.212701Z" fill="#FFFFFF" fill-rule="evenodd" transform="translate(30.162 0.036)" />
    <path d="M1.53265 0.248961C0.944839 0.393519 0.458511 0.514471 0.44989 0.522745C0.422089 0.5556 0.234833 3.75267 0.146362 5.69934C-0.00314331 9.02685 -0.0453033 13.2441 0.0534363 14.6938C0.146362 16.0742 0.319153 17.1917 0.548553 17.878C0.963745 19.1518 1.71991 20.0439 2.80292 20.5416C2.80292 20.5416 3.14412 20.6986 3.14412 20.6986L3.88591 20.2243L4.62772 19.7482C4.62772 19.7482 4.26326 19.5458 4.26326 19.5458C3.45612 19.0882 2.9147 18.576 2.56346 17.9364C2.22226 17.3085 2.09161 16.8191 1.95671 15.7035C1.87674 15.0491 1.87674 10.4099 1.95671 8.88473C2.09161 6.28 2.28331 3.55116 2.49809 1.19273C2.5547 0.538807 2.60117 0.00438055 2.60117 0C2.59674 -0.00413718 2.11639 0.111461 1.53265 0.250421C1.53265 0.250421 1.53265 0.248961 1.53265 0.248961Z" fill="#FFFFFF" fill-rule="evenodd" transform="translate(36.305 0)" />
    <path d="M1.88159 0.232655L0 0.466041L0 20.4479L3.54813 20.4479C3.54813 20.4479 3.54813 20.2782 3.54813 20.2782C3.54813 19.3771 3.70187 15.9096 3.7627 15.4708C4.01962 13.4974 4.73819 11.8552 5.78357 10.8469C6.38177 10.278 6.92749 10.0619 7.51553 10.1697C8.13666 10.2767 8.44003 10.7257 8.54156 11.671C8.58395 12.0837 8.56049 12.6045 8.35455 15.8152C8.22833 17.838 8.12064 19.5832 8.12064 19.7C8.12064 19.9697 8.24704 20.2242 8.37347 20.2242C8.70441 20.2157 11.9022 20.0142 11.9211 19.9959C11.9675 19.9516 12.3134 9.95648 12.2755 9.63889C12.1534 8.5805 11.6498 7.77643 10.8704 7.41017C10.2723 7.12689 9.91791 7.05997 9.00778 7.0641C8.12518 7.06824 7.73749 7.13103 7.06537 7.37391C5.79517 7.83094 4.6235 8.91561 3.82074 10.3697C3.82074 10.3697 3.59152 10.7827 3.59152 10.7827C3.59152 10.7827 3.59152 10.3656 3.59152 10.3656C3.59152 9.91194 3.8486 1.66339 3.89508 0.632501C3.92264 0.0311505 3.92264 -0.00511063 3.83832 0.000486726C3.7919 0.0046239 2.9093 0.107567 1.87701 0.232655C1.87701 0.232655 1.88159 0.232655 1.88159 0.232655Z" fill="#FFFFFF" fill-rule="evenodd" transform="translate(121.461 0.031)" />
    <path d="M0.973846 0.111213C0.600586 0.258687 0.231812 0.609605 0.101044 0.937161C-0.109436 1.4796 0.0170288 2.14347 0.40448 2.51581C1.03473 3.13563 2.0143 3.13977 2.65025 2.53382C2.9915 2.20602 3.10735 1.90255 3.0844 1.41292C3.06087 0.969528 2.90718 0.66801 2.55736 0.376471C2.10429 -0.00413704 1.51651 -0.102939 0.975037 0.111213C0.975037 0.111213 0.973846 0.111213 0.973846 0.111213Z" fill="#FFFFFF" fill-rule="evenodd" transform="translate(137.506 0.475)" />
    <path d="M7.0411 0.0637617C5.16406 0.324405 3.52658 1.46287 2.21426 3.41855C1.49127 4.49495 0.916458 5.79135 0.552047 7.16734C-0.0736236 9.54964 -0.181 12.5501 0.299423 14.2551C0.602859 15.3176 1.15306 16.2246 1.8963 16.8657C3.15639 17.9508 5.17279 18.3821 7.8439 18.1343C9.50173 17.983 10.9723 17.6233 12.4559 17.0051C12.8392 16.8474 13.6608 16.4529 13.7581 16.3821C13.7726 16.3736 13.2079 14.7034 13.1788 14.6688C13.1745 14.6644 13.0337 14.736 12.8667 14.835C11.251 15.7764 9.52929 16.1898 7.18048 16.194C6.29785 16.1981 6.04089 16.1857 5.58363 16.1037C3.77772 15.7861 2.87184 14.9424 2.47992 13.224C2.2186 12.0536 2.29846 9.68543 2.65703 7.93102C3.23625 5.10482 4.69229 2.76828 6.35882 1.9698C7.26031 1.53807 8.31424 1.55194 9.00524 2.00995C9.90093 2.5967 10.4192 3.94689 10.5644 6.0554C10.5832 6.32554 10.6152 6.53994 10.6384 6.53994C10.6573 6.53994 11.2408 6.42848 11.9275 6.29366C12.6142 6.1581 13.1919 6.04567 13.2065 6.04567C13.2485 6.04567 13.0758 5.00991 12.9408 4.45333C12.5996 3.08538 12.077 2.05887 11.3396 1.31758C10.2943 0.272325 8.76281 -0.175466 7.03965 0.0623014C7.03965 0.0623014 7.0411 0.0637617 7.0411 0.0637617Z" fill="#FFFFFF" fill-rule="evenodd" transform="translate(0 2.411)" />
    <path d="M5.35681 0.214402C4.33899 0.331946 3.4942 0.435375 3.47986 0.443649C3.47083 0.457765 3.38693 1.22484 3.29236 2.1484C3.19946 3.07196 3.11115 3.91545 3.09634 4.01888C3.09634 4.01888 3.06873 4.21163 3.06873 4.21163C3.06873 4.21163 1.67227 4.21163 1.67227 4.21163C0.869385 4.21163 0.275848 4.22988 0.275848 4.25203C0.275848 4.3007 0.0567627 5.79786 0.0232239 5.97041C0.0232239 5.97041 0 6.09549 0 6.09549L2.90356 6.09549C2.90356 6.09549 2.86984 6.53087 2.86984 6.53087C2.76709 7.92899 2.74356 8.35633 2.72064 9.61549C2.69708 10.5573 2.70581 11.2214 2.74353 11.6743C2.96719 14.3204 3.74255 15.5231 5.50327 15.9441C5.78772 16.011 6.02158 16.0291 6.7402 16.0291C7.68365 16.0249 8.20209 15.9582 9.10187 15.7154C9.82507 15.519 10.9646 15.0653 10.9646 14.9707C10.9646 14.9441 10.8384 14.5353 10.6843 14.0688C10.5305 13.6042 10.4043 13.2129 10.4043 13.2031C10.4043 13.1934 10.2271 13.2657 10.008 13.3613C9.48547 13.5903 8.97137 13.7475 8.51862 13.8045C7.75763 13.9074 7.42102 13.8308 7.06662 13.4769C6.67938 13.0999 6.52521 12.5801 6.43231 11.3643C6.35834 10.3641 6.41797 8.52912 6.58203 6.68516C6.58203 6.68516 6.63867 6.09428 6.63867 6.09428L10.4333 6.09428C10.4333 6.09428 10.5173 5.31868 10.5173 5.31868C10.5597 4.89767 10.6102 4.47032 10.6251 4.37711C10.6251 4.37711 10.6526 4.21163 10.6526 4.21163L6.80554 4.21163C6.80554 4.21163 6.83313 4.06342 6.83313 4.06342C6.8418 3.98627 6.94904 3.10384 7.06662 2.10387C7.18304 1.1034 7.29025 0.218539 7.30499 0.139447C7.31949 0.0365043 7.3092 -0.00389385 7.26721 0.000243187C7.23376 0.0043807 6.37149 0.0990486 5.35376 0.214402C5.35376 0.214402 5.35376 0.214402 5.35376 0.214402C5.35376 0.214402 5.35681 0.214402 5.35681 0.214402Z" fill="#FFFFFF" fill-rule="evenodd" transform="translate(109.231 4.561)" />
    <path d="M4.60822 0.0874963C3.50631 0.312049 2.79203 0.702581 1.96597 1.53664C0.803085 2.70265 0.177362 4.22293 0.0278282 6.23695C-0.0708923 7.52011 0.0975132 8.95531 0.461914 9.97766C0.975847 11.4268 1.9137 12.6291 3.04319 13.2874C4.06525 13.8844 5.4009 14.0406 6.67557 13.7226C7.41308 13.5384 8.14623 13.1075 8.78647 12.4896C10.0887 11.2385 10.8132 9.56062 10.9525 7.47966C11.195 3.937 9.76642 1.14611 7.26499 0.263232C6.50426 -0.00595379 5.41106 -0.0770874 4.60822 0.0888882C4.60822 0.0888882 4.60822 0.0874963 4.60822 0.0874963ZM6.43914 1.82225C7.37264 2.13189 8.17983 3.02034 8.5965 4.18635C8.90428 5.03854 9.02187 5.94513 8.98413 7.08324C8.91444 9.008 8.38599 10.4153 7.36828 11.3888C6.76579 11.9677 6.23444 12.1964 5.49113 12.1964C4.22081 12.1964 3.19004 11.407 2.53529 9.93969C2.13314 9.0331 1.96619 7.98843 2.00829 6.65645C2.04603 5.47649 2.22315 4.68288 2.62385 3.86277C2.91856 3.26163 3.19295 2.88923 3.64155 2.47639C4.04369 2.10817 4.49084 1.84875 4.91622 1.74972C5.21528 1.67859 6.12991 1.72322 6.43769 1.82086C6.43769 1.82086 6.43914 1.82225 6.43914 1.82225Z" fill="#FFFFFF" fill-rule="evenodd" transform="translate(16.109 6.711)" />
    <path d="M4.81811 0.0939364C3.32857 0.466336 2.096 1.55145 1.18137 3.30465C0.340786 4.91 -0.0700684 6.91565 0.00977707 9.01893C0.070755 10.754 0.536777 11.8893 1.56029 12.8085C2.36313 13.5309 3.40406 13.8894 4.69761 13.8894C6.42959 13.8894 8.32999 13.464 10.1549 12.669C10.1549 12.669 10.6732 12.4402 10.6732 12.4402C10.6732 12.4402 10.4438 11.8084 10.4438 11.8084C10.3175 11.4583 10.2057 11.1487 10.1912 11.118C10.1767 11.0776 10.0983 11.0957 9.90228 11.1808C8.30967 11.8809 7.0771 12.1808 5.66305 12.2171C4.92119 12.2394 4.77601 12.231 4.41596 12.1459C3.80476 12.0065 3.43019 11.8182 3.03822 11.4416C2.46911 10.9032 2.18456 10.1989 2.08149 9.07749C2.03067 8.53493 2.07278 7.47633 2.16569 6.924C2.16569 6.924 2.19908 6.75803 2.19908 6.75803L10.4104 6.75803C10.4104 6.75803 10.3828 6.31868 10.3828 6.31868C10.2609 4.65893 9.95745 3.42598 9.39706 2.34086C8.89764 1.37151 8.27628 0.725745 7.4836 0.344977C6.94208 0.0841599 6.64737 0.0213943 5.89679 0.00465775C5.32769 -0.00929022 5.18686 0.00465775 4.81811 0.093924C4.81811 0.093924 4.81811 0.0939364 4.81811 0.0939364ZM6.23722 1.53756C6.45644 1.60032 6.55952 1.66727 6.81213 1.90996C7.14894 2.23354 7.33913 2.55154 7.53077 3.10246C7.72676 3.66315 7.92711 4.72177 7.92711 5.19738C7.92711 5.19738 7.92711 5.36753 7.92711 5.36753L5.23404 5.35917L2.53516 5.34522C2.53516 5.34522 2.54967 5.21132 2.54967 5.21132C2.74131 3.50694 3.91726 1.86114 5.17742 1.53756C5.51859 1.44829 5.91928 1.45248 6.23722 1.53756C6.23722 1.53756 6.23722 1.53756 6.23722 1.53756Z" fill="#FFFFFF" fill-rule="evenodd" transform="translate(41.875 6.723)" />
    <path d="M4.96176 0.0671587C3.77129 0.273583 2.77682 0.842638 1.96381 1.77991C0.895298 3.00868 0.259415 4.69493 0.0503578 6.83448C-0.0236855 7.60578 -0.0149765 9.19858 0.0692291 9.82621C0.349426 11.9393 1.24083 13.2838 2.6839 13.7636C3.53756 14.0467 4.83546 13.9337 5.7225 13.5083C6.36709 13.1945 7.04798 12.6157 7.52852 11.9699C7.78984 11.6199 8.21522 10.8486 8.42428 10.3548C8.51284 10.1526 8.59269 9.97823 8.61156 9.96428C8.65802 9.91965 8.64495 13.3647 8.59269 14.189C8.4054 17.1584 7.76662 18.0692 5.86187 18.0692C4.77448 18.0692 3.70452 17.6828 2.61712 16.899C2.61712 16.899 2.19756 16.5991 2.19756 16.5991C2.19756 16.5991 1.74459 17.164 1.74459 17.164C1.49779 17.4778 1.20308 17.846 1.09129 17.9897C1.09129 17.9897 0.890945 18.2407 0.890945 18.2407C0.890945 18.2407 1.3018 18.528 1.3018 18.528C1.86655 18.9269 2.10464 19.0664 2.67374 19.3216C3.28494 19.5992 3.81775 19.7526 4.53203 19.8502C5.4423 19.9758 6.71697 19.8461 7.51545 19.5448C9.36358 18.8404 10.1998 17.3118 10.5178 14.0551C10.6063 13.1624 10.602 6.24169 10.5178 5.35323C10.1809 1.90401 9.15888 0.414424 6.89989 0.0601568C6.3816 -0.0207367 5.42923 -0.0207367 4.96175 0.0643411C4.96175 0.0643411 4.96176 0.0671587 4.96176 0.0671587ZM6.32965 1.63198C6.77826 1.74356 7.00619 1.87467 7.36187 2.2108C8.10373 2.91933 8.35635 3.80779 8.26343 5.3992C8.15165 7.45785 7.63771 9.01858 6.56339 10.6016C6.20915 11.126 5.45713 11.8485 5.06079 12.0508C4.25795 12.4538 3.43624 12.3688 2.88456 11.822C2.4316 11.3785 2.1427 10.6295 1.97865 9.48581C1.88573 8.8261 1.87557 7.06872 1.95977 6.49826C2.20222 4.86501 2.72486 3.646 3.59449 2.65433C4.34651 1.80214 5.41068 1.40324 6.32965 1.63198C6.32965 1.63198 6.32965 1.63198 6.32965 1.63198Z" fill="#FFFFFF" fill-rule="evenodd" transform="translate(55.027 6.713)" />
    <path d="M4.90765 0.0892606C3.56765 0.384947 2.41057 1.29572 1.49014 2.77973C0.617615 4.18843 0.154488 5.82028 0.0238342 7.9417C-0.092308 9.89295 0.211113 11.1887 1.04154 12.2654C1.87778 13.3505 3.11906 13.9029 4.71167 13.9029C6.06038 13.9029 7.6951 13.6072 9.07285 13.1134C9.79149 12.8582 10.6785 12.4593 10.6597 12.4049C10.6509 12.3784 10.5435 12.0729 10.4172 11.7271C10.2909 11.3812 10.1878 11.0952 10.1835 11.0897C10.1791 11.0813 9.93666 11.1789 9.64195 11.3044C8.94219 11.6099 7.90126 11.9363 7.14923 12.0897C6.60336 12.2013 6.44366 12.2152 5.56242 12.2152C4.65651 12.2194 4.55343 12.211 4.23259 12.1162C3.6722 11.946 3.3499 11.7661 3.01453 11.4341C2.64578 11.0715 2.4164 10.6489 2.23928 10.0171C2.11298 9.58611 2.11298 9.53729 2.11298 8.40755C2.11733 7.76597 2.1362 7.13833 2.15943 7.01699C2.15943 7.01699 2.20153 6.79243 2.20153 6.79243L6.30574 6.77849L10.41 6.77012C10.41 6.77012 10.3766 6.24151 10.3766 6.24151C10.3621 5.95 10.3069 5.44789 10.2546 5.12431C9.82053 2.27205 8.61555 0.549535 6.73402 0.0878687C6.25348 -0.0292897 5.44048 -0.0292897 4.90912 0.0878687C4.90912 0.0878687 4.90765 0.0892606 4.90765 0.0892606ZM6.31712 1.577C6.98059 1.81411 7.48436 2.6133 7.75004 3.85602C7.80666 4.12939 7.9649 5.21451 7.9649 5.34561C7.9649 5.36375 6.74104 5.38188 5.25296 5.38188C5.25296 5.38188 2.54102 5.38188 2.54102 5.38188C2.54102 5.38188 2.5744 5.12664 2.5744 5.12664C2.65861 4.48506 2.93444 3.70539 3.29304 3.12239C3.53985 2.70954 4.12927 2.09585 4.48351 1.86711C5.05843 1.50448 5.78576 1.38732 6.31857 1.5798C6.31857 1.5798 6.31712 1.577 6.31712 1.577Z" fill="#FFFFFF" fill-rule="evenodd" transform="translate(68.539 6.709)" />
    <path d="M5.61723 0.0367713C4.76794 0.144166 3.62392 0.543066 2.99384 0.95591C2.06905 1.56541 1.31265 2.46224 0.739197 3.62964C0.49675 4.13175 0.113472 5.14573 0.155571 5.18618C0.202026 5.22663 3.13901 5.99374 3.17676 5.97143C3.19998 5.95748 3.2145 5.90866 3.2145 5.85985C3.2145 5.81104 3.27113 5.54185 3.33646 5.26848C3.76183 3.4832 4.41079 2.4204 5.31525 2.01732C5.53448 1.91829 5.63755 1.90016 6.01502 1.90016C6.53767 1.90016 6.79463 1.995 7.07048 2.2865C7.55103 2.80256 7.68169 3.56968 7.72815 6.18901C7.74266 7.04957 7.74266 7.74973 7.72815 7.74973C7.70927 7.74973 7.53651 7.70092 7.34487 7.63816C6.75253 7.44568 6.02374 7.30621 5.38349 7.26576C3.41777 7.13605 1.96597 7.57957 0.897446 8.62424C0.239777 9.27001 -0.0462189 10.005 0.00604248 10.9298C0.0524979 11.7778 0.31382 12.3608 0.878571 12.9117C1.16312 13.1851 1.32137 13.2925 1.6727 13.464C2.27955 13.7513 2.71799 13.8504 3.52664 13.8811C5.21217 13.948 6.58993 13.5003 7.66717 12.5268C7.79347 12.4152 7.9009 12.3301 7.90961 12.3343C7.91397 12.3426 7.95607 12.7513 7.99817 13.2451C8.03592 13.7346 8.07802 14.1419 8.08237 14.1461C8.09689 14.1544 11.5144 13.8141 11.7002 13.7834C11.8164 13.7611 11.8498 13.7388 11.8309 13.6802C11.8164 13.6398 11.7656 13.2716 11.7148 12.8643C11.4912 11.0972 11.4346 10.1236 11.3838 7.07888C11.3184 3.25727 11.2676 2.84443 10.7261 1.88066C10.1192 0.795545 9.21332 0.234858 7.76588 0.0423813C7.34631 -0.0162001 6.09051 -0.0120158 5.61868 0.0423813C5.61868 0.0423813 5.61723 0.0367713 5.61723 0.0367713ZM6.66956 9.11504C7.03396 9.22244 7.31416 9.37028 7.55225 9.57252C7.55225 9.57252 7.76276 9.75244 7.76276 9.75244C7.76276 9.75244 7.70614 9.99513 7.70614 9.99513C7.5145 10.8111 6.81474 11.5154 5.90011 11.8069C5.57346 11.9143 5.47038 11.9282 5.08275 11.9101C4.56882 11.8878 4.33072 11.8027 4.00842 11.5294C3.68611 11.256 3.56997 10.9868 3.57433 10.5516C3.57869 9.69525 4.04617 9.22383 5.06387 9.04948C5.4094 8.98672 6.37049 9.03135 6.66956 9.11643C6.66956 9.11643 6.66956 9.11504 6.66956 9.11504Z" fill="#FFFFFF" fill-rule="evenodd" transform="translate(96.117 6.721)" />
    <path d="M1.90515 0.339982C0.864258 0.520316 0.00915527 0.676557 0.000579834 0.686291C-0.00802612 0.690672 0.0802612 3.53464 0.196655 6.9975C0.312531 10.4611 0.407196 13.3725 0.407196 13.4615C0.407196 13.4615 0.407196 13.6312 0.407196 13.6312L3.90858 13.6312C3.90858 13.6312 3.90858 6.814 3.90858 6.814C3.90858 1.38645 3.8943 -0.00413704 3.85182 0C3.81856 0.00413704 2.9417 0.157214 1.90515 0.339982C1.90515 0.339982 1.90515 0.339982 1.90515 0.339982Z" fill="#FFFFFF" fill-rule="evenodd" transform="translate(137.113 6.713)" />
    <path d="M4.84857 0.0170355C3.75101 0.13385 2.94818 0.330732 2.46762 0.600622C2.39362 0.644915 2.25296 0.707703 2.16425 0.739583C1.91754 0.834739 1.32806 1.2779 0.982727 1.63589C0.664581 1.96492 0.283081 2.61422 0.161011 3.0272C0.123138 3.13891 0.0766602 3.28809 0.0491333 3.35915C-0.0305481 3.56139 -0.00756836 4.70909 0.0766602 5.00113C0.277222 5.68717 0.529724 6.1189 0.972473 6.53116C1.34982 6.88087 1.40207 6.92103 1.70996 7.08286C1.832 7.1459 2.02777 7.25006 2.14819 7.3126C2.37759 7.4338 2.53589 7.45594 2.53589 7.37101C2.53589 7.26393 3.02667 6.17877 3.06287 6.20091C3.08621 6.21479 3.09042 6.33063 3.07745 6.45596C3.04398 6.70273 3.07312 6.76114 3.36627 7.06486C3.42743 7.12789 3.53027 7.27658 3.59564 7.40167C3.74524 7.68495 3.72632 7.67108 3.85257 7.58566C4.09058 7.42406 4.41736 7.55937 4.45929 7.82853C4.46829 7.91347 4.50577 7.94559 4.61343 7.96214C4.70633 7.97601 4.77744 8.02906 4.82391 8.1196C4.86588 8.1909 4.96899 8.3228 5.05328 8.40336C5.18384 8.52869 5.20709 8.57347 5.17944 8.69515C5.11868 9.00812 5.1228 9.01785 5.24484 9.01785C5.34802 9.01785 5.36081 8.99984 5.3522 8.88425C5.34802 8.80783 5.30573 8.65135 5.26791 8.53015C5.18817 8.30601 5.21158 8.19382 5.30573 8.34641C5.33328 8.39508 5.39865 8.55668 5.4451 8.70489C5.55252 9.03586 5.59467 9.08453 5.75708 9.08453C5.99097 9.08453 6.00989 9.00398 5.87338 8.54694C5.80804 8.31842 5.76611 8.12106 5.78049 8.10694C5.82693 8.06241 5.8923 8.18822 5.99097 8.52431C6.04193 8.69515 6.10278 8.86478 6.1217 8.90104C6.17825 8.99571 6.32642 9.03464 6.45264 8.99011C6.57886 8.94144 6.57468 8.87329 6.41486 8.30455C6.36407 8.10694 6.31616 7.92734 6.31616 7.90106C6.32068 7.80614 6.45554 8.02614 6.45554 8.12519C6.45554 8.18409 6.47443 8.2369 6.49335 8.25077C6.51227 8.26561 6.55869 8.37269 6.59201 8.49365C6.68042 8.79955 6.75027 8.88011 6.89987 8.84409C6.96506 8.82584 7.03473 8.77303 7.05365 8.72314C7.08694 8.64161 7.03027 8.15707 6.94635 7.79933C6.89987 7.60658 6.27841 6.92809 5.9939 6.7626C5.56842 6.52021 5.55981 6.51607 5.2186 6.67353C4.98059 6.77647 4.87323 6.803 4.73804 6.78474C4.55093 6.75286 4.35492 6.57862 4.35492 6.43917C4.35492 6.39463 4.47696 6.24691 4.62048 6.10771C4.76572 5.97288 4.87323 5.84609 4.85431 5.8293C4.83545 5.81251 4.71494 5.78038 4.57849 5.76237C4.31293 5.72197 3.53314 5.4348 3.42584 5.33722C3.37488 5.29244 3.36914 5.25228 3.40692 5.17562C3.57959 4.8208 3.57959 4.79403 3.41141 4.60055C2.97736 4.11699 3.13556 3.40783 3.78433 2.91891C4.02686 2.73371 4.21426 2.66289 4.82104 2.52782C5.16638 2.45092 6.57162 2.45092 6.96808 2.52782C7.13629 2.56384 7.37881 2.60862 7.50504 2.63515C8.01477 2.73371 8.38763 2.86415 9.09756 3.19196C9.43875 3.34942 9.73761 3.38836 9.80292 3.28663C9.8494 3.21581 10.256 2.28202 10.4097 1.88826C10.4475 1.78872 10.5215 1.61375 10.5738 1.50107C10.6305 1.37987 10.654 1.2543 10.6391 1.20124C10.6058 1.10658 10.3867 0.932327 10.1906 0.847394C9.4491 0.528586 8.62277 0.267944 8.06696 0.182523C7.83759 0.142125 7.5108 0.093452 7.34393 0.0657082C6.96649 0.00730085 5.28555 -0.0233631 4.84698 0.0211725C4.84698 0.0211725 4.84857 0.0170355 4.84857 0.0170355Z" fill="#FFFFFF" fill-rule="evenodd" transform="translate(82.512 6.822)" />
    <path d="M5.0882 0.352148C4.87772 0.555113 4.70499 0.74299 4.70499 0.769517C4.70499 0.7958 4.77478 0.854694 4.85886 0.899473C5.05481 0.998279 5.17682 0.970292 5.49335 0.769517C5.62396 0.684583 5.74005 0.630313 5.75449 0.648321C5.76331 0.666574 5.91275 0.751265 6.08551 0.832548C6.30481 0.935734 6.49197 1.07469 6.71999 1.30346C7.23385 1.81963 7.33541 1.97636 7.32238 2.20463C7.31365 2.37012 7.38769 2.71716 7.43414 2.71716C7.43856 2.71716 7.54153 2.67676 7.66351 2.62249C7.78551 2.57357 7.92046 2.54534 7.97134 2.5597C8.0743 2.59183 8.07003 2.6405 7.92486 3.05714C7.92486 3.05714 7.84066 3.28128 7.84066 3.28128C7.84066 3.28128 7.97997 3.43898 7.97997 3.43898C8.42855 3.95101 8.4605 4.41267 8.0787 4.96389C7.88711 5.24133 7.27166 5.52509 6.59359 5.63631C6.23373 5.6952 4.60052 5.66892 4.3291 5.59615C4.24048 5.57376 4.04889 5.52923 3.90952 5.49735C3.14447 5.33454 2.42432 5.07511 1.75217 4.7254C1.04675 4.35695 0.921783 4.3752 0.738861 4.87336C0.688324 5.00697 0.543152 5.31653 0.416595 5.56403C0.290375 5.8108 0.159637 6.09188 0.12796 6.19118C0.0959167 6.29047 0.0479736 6.39755 0.0202942 6.42432C-0.0491638 6.51412 0.0667419 6.73437 0.258636 6.85556C0.477814 6.98941 1.45746 7.44231 1.74802 7.54185C2.21542 7.69395 3.21405 7.92831 3.95599 8.0478C4.12448 8.07433 4.58167 8.11886 4.97351 8.14661C6.11749 8.22716 7.23238 8.10621 8.33428 7.77888C8.93237 7.59879 8.94112 7.59466 9.51006 7.27658C10.4959 6.72001 11.1199 5.9483 11.4292 4.88991C11.5322 4.54409 11.5178 3.35136 11.406 3.01114C11.1721 2.28811 10.757 1.71547 10.1691 1.31465C9.80035 1.05936 9.06728 0.695778 8.92794 0.695778C8.84823 0.695778 8.80599 0.758322 8.69421 1.08589C8.52593 1.56629 8.45614 1.70574 8.41836 1.64295C8.39953 1.61642 8.39953 1.49961 8.41836 1.37768C8.4519 1.12653 8.5259 1.16693 7.74197 0.982946C7.1961 0.857615 6.92031 0.705512 6.72005 0.422236C6.58936 0.237523 6.55154 0.224868 5.94034 0.090045C5.76334 0.0496464 5.58054 0.00924778 5.54407 0.000973701C5.49762 -0.0128984 5.32495 0.121925 5.08685 0.350687C5.08685 0.350687 5.0882 0.352148 5.0882 0.352148Z" fill="#FFFFFF" fill-rule="evenodd" transform="translate(82.301 12.515)" />
    <path d="M0.0936279 0.09056C-0.041626 0.2208 -0.0285034 0.396078 0.121185 0.453286C0.275017 0.507574 0.420097 0.467163 0.420097 0.368326C0.420097 0.291885 0.256065 0 0.209656 0C0.195129 0 0.144287 0.040411 0.0936279 0.0890989C0.0936279 0.0890989 0.0936279 0.09056 0.0936279 0.09056Z" fill="#FFFFFF" fill-rule="evenodd" transform="translate(85.656 14.154)" />
    <path d="M0.285217 0.0693703C-0.0181885 0.243162 -0.0879517 0.456386 0.116608 0.585634C0.224213 0.648433 0.247375 0.648433 0.392647 0.581496C0.635048 0.47026 0.752602 0.349287 0.752602 0.194481C0.752602 0.0956583 0.725105 0.051115 0.630653 0.02069C0.525124 -0.0182552 0.410042 -0.00219059 0.285217 0.0693703C0.285217 0.0693703 0.285217 0.0693703 0.285217 0.0693703Z" fill="#FFFFFF" fill-rule="evenodd" transform="translate(86.07 14.493)" />
    <path d="M0.223671 0.137746C0.0464478 0.249207 0 0.305182 0 0.403988C0 0.543194 0.12616 0.672421 0.261513 0.672421C0.383156 0.672421 0.699722 0.359452 0.699722 0.236552C0.699722 0.165732 0.527115 -0.00535393 0.457161 0.000243187C0.448555 0.000243187 0.345314 0.062789 0.223671 0.139206C0.223671 0.139206 0.223671 0.137746 0.223671 0.137746Z" fill="#FFFFFF" fill-rule="evenodd" transform="translate(86.541 14.873)" />
    <path d="M0.143257 0.0851812C0.0124817 0.161601 -0.0108643 0.202002 0.00387573 0.318822C0.018219 0.439779 0.0371399 0.457789 0.172157 0.470445C0.260841 0.47872 0.37693 0.452191 0.443802 0.412034C0.542679 0.353624 0.55983 0.309087 0.546707 0.174256C0.532364 0.0350456 0.513443 0.00876141 0.416031 0.000243187C0.350868 -0.00389385 0.228737 0.0323687 0.14463 0.0851812C0.14463 0.0851812 0.143257 0.0851812 0.143257 0.0851812Z" fill="#FFFFFF" fill-rule="evenodd" transform="translate(87.016 15.334)" />
    <path d="M3.03421 0.0275002C1.67972 0.259666 0.518433 1.70913 0.107239 3.6694C0.0189209 4.10015 0.00460815 4.32355 0 5.14076C0 6.24002 0.0378723 6.44177 0.349823 7.04774C0.686462 7.69824 1.15271 8.09298 1.85236 8.303C2.88867 8.61645 4.48001 8.41008 6.03015 7.75665C6.03015 7.75665 6.50214 7.55393 6.50214 7.55393C6.50214 7.55393 6.34384 7.11905 6.34384 7.11905C6.25555 6.88152 6.17123 6.66177 6.16266 6.63549C6.14771 6.59509 6.0174 6.63549 5.73709 6.75644C4.91129 7.12464 4.12152 7.29475 3.26773 7.29475C2.26471 7.29475 1.6998 6.89126 1.4429 5.99301C1.33105 5.59463 1.327 4.39583 1.4429 3.79449C1.68549 2.49932 2.2601 1.49351 2.95569 1.15329C3.33307 0.969065 3.69727 0.978798 3.94559 1.17982C4.24487 1.41685 4.3942 1.88873 4.44501 2.72613C4.45944 3.01817 4.48712 3.25544 4.50183 3.25544C4.51611 3.25958 4.86188 3.1929 5.26685 3.11162C5.26685 3.11162 5.99976 2.9639 5.99976 2.9639C5.99976 2.9639 5.99976 2.80133 5.99976 2.80133C5.99976 2.71226 5.96652 2.46184 5.93039 2.24111C5.71991 1.06154 5.19693 0.375019 4.31433 0.110973C3.97763 0.0121689 3.3623 -0.0323677 3.03549 0.0260391C3.03549 0.0260391 3.03421 0.0275002 3.03421 0.0275002Z" fill="#FFFFFF" fill-rule="evenodd" transform="translate(114.947 23.097)" />
    <path d="M2.95644 0.0271664C1.81243 0.193142 0.887642 0.960255 0.375153 2.16672C-0.170715 3.46244 -0.115547 5.37744 0.505821 6.57552C0.767143 7.07763 0.935555 7.30637 1.32318 7.6704C1.88792 8.20459 2.64866 8.48632 3.39634 8.43751C3.87253 8.40124 4.13385 8.34267 4.49825 8.18646C5.53047 7.73735 6.34203 6.60342 6.62657 5.20448C6.7253 4.72887 6.71077 3.37457 6.6077 2.89477C6.50026 2.42335 6.26653 1.81803 6.05746 1.47352C5.85712 1.14157 5.22124 0.526489 4.91782 0.366091C4.35743 0.0704041 3.58217 -0.0648918 2.95645 0.0299587C2.95645 0.0299587 2.95644 0.0271664 2.95644 0.0271664ZM4.04484 1.30201C4.18421 1.36478 4.39908 1.5168 4.53555 1.65209C5.03931 2.14583 5.30644 2.86274 5.34854 3.83627C5.40517 5.14594 5.08723 6.17247 4.43392 6.79592C4.06517 7.14601 3.80384 7.25759 3.33201 7.26177C2.99519 7.26177 2.92986 7.24783 2.66418 7.10974C2.12702 6.83637 1.71181 6.24918 1.47808 5.42768C1.39388 5.12222 1.37936 4.94788 1.375 4.26167C1.375 3.57963 1.38951 3.39552 1.47372 3.09566C1.75391 2.06354 2.34189 1.36478 3.06052 1.18904C3.32185 1.13046 3.76028 1.18067 4.04629 1.30062C4.04629 1.30062 4.04484 1.30201 4.04484 1.30201Z" fill="#FFFFFF" fill-rule="evenodd" transform="translate(122.402 23.101)" />
    <path d="M0.735474 0.125092C0.427551 0.196154 0.132751 0.264297 0.0777283 0.273302C-0.0151978 0.295448 -0.0209045 0.305183 0.0398865 0.690434C0.244598 2.009 0.269287 2.52007 0.26355 5.44534C0.26355 5.44534 0.258911 8.28495 0.258911 8.28495L1.44501 8.28495C1.44501 8.28495 1.47281 7.32949 1.47281 7.32949C1.50629 6.28082 1.58884 5.51762 1.76733 4.74664C2.04315 3.55487 2.58899 2.43611 3.11157 1.99391C3.59653 1.58043 4.15686 1.5943 4.30206 2.02019C4.44724 2.44024 4.45581 2.69773 4.4516 5.24505C4.4516 5.24505 4.44299 7.83789 4.44299 7.83789L5.55922 7.83789C5.55922 7.83789 5.58675 7.33095 5.58675 7.33095C5.60567 7.05838 5.63756 6.33558 5.66072 5.73008C5.71165 4.57214 5.78725 4.01094 5.94972 3.53126C6.22551 2.7116 6.82204 1.93112 7.39259 1.64297C7.55083 1.56242 7.67711 1.54003 7.93852 1.53589C8.2563 1.53589 8.28835 1.54441 8.39565 1.66122C8.60616 1.89851 8.61513 1.99391 8.58311 4.80918C8.56416 6.26208 8.54091 7.6135 8.52632 7.80163C8.52632 7.80163 8.49879 8.15159 8.49879 8.15159C8.49879 8.15159 9.13307 8.15159 9.13307 8.15159C9.60951 8.15159 9.76753 8.13747 9.76753 8.09318C9.76332 8.06665 9.82411 6.64393 9.89412 4.935C10.0335 1.477 10.0335 1.41445 9.75874 0.916521C9.4875 0.432465 9.01723 0.202969 8.29692 0.207106C7.32146 0.211487 6.43468 0.697491 5.85103 1.54441C5.85103 1.54441 5.71611 1.73667 5.71611 1.73667C5.71611 1.73667 5.66518 1.52202 5.66518 1.52202C5.52 0.97493 5.23982 0.598684 4.86243 0.436357C4.17139 0.153078 3.29901 0.377949 2.62109 1.01971C2.29016 1.33317 2.11716 1.56242 1.80383 2.08688C1.6875 2.28863 1.59335 2.39985 1.58026 2.36383C1.57156 2.32756 1.54694 2.09539 1.53381 1.84789C1.50629 1.39498 1.38409 0.394741 1.3291 0.138962C1.3291 0.138962 1.29584 0 1.29584 0L0.735474 0.125092C0.735474 0.125092 0.735474 0.125092 0.735474 0.125092Z" fill="#FFFFFF" fill-rule="evenodd" transform="translate(131.02 23.138)" />
    <path d="M0.489197 0.0936909C0.373108 0.156233 0.217957 0.290319 0.139343 0.393988C0.0131836 0.568714 0 0.618845 0 0.932039C0 1.24572 0.0143127 1.30461 0.130768 1.47034C0.560303 2.09405 1.49396 2.03978 1.85373 1.3674C2.07739 0.950291 1.93805 0.430004 1.52734 0.156233C1.36322 0.0450211 1.27032 0.0172787 1.0134 0.00462341C0.752014 -0.00924683 0.667725 0.00462341 0.490784 0.0936909C0.490784 0.0936909 0.489197 0.0936909 0.489197 0.0936909Z" fill="#FFFFFF" fill-rule="evenodd" transform="translate(111.354 29.543)" />
  </g>
</svg>