<?xml version="1.0" encoding="utf-8"?>
<svg width="101.775" height="89.823" viewBox="0 0 101.775 89.823" fill="none" xmlns="http://www.w3.org/2000/svg">
  <g>
    <g transform="translate(3.635 6.859)">
      <path d="M1.81731 3.60714C2.82097 3.60714 3.63461 2.79966 3.63461 1.80357C3.63461 0.807487 2.82097 0 1.81731 0C0.813637 0 0 0.807487 0 1.80357C0.00115204 2.79919 0.814114 3.60601 1.81731 3.60714C1.81731 3.60714 1.81731 3.60714 1.81731 3.60714ZM1.81686 0.901855C2.31869 0.901855 2.72551 1.3056 2.72551 1.80364C2.72551 2.30168 2.31869 2.70543 1.81686 2.70543C1.31502 2.70543 0.908203 2.30168 0.908203 1.80364C0.908661 1.30587 1.31516 0.902382 1.81679 0.901855C1.81679 0.901855 1.81686 0.901855 1.81686 0.901855Z" fill="#282529" transform="translate(33.924 9.018)" />
      <path d="M1.21153 0C0.542427 0 0 0.538326 0 1.20238C0 1.86644 0.542427 2.40476 1.21153 2.40476C1.88065 2.40476 2.42307 1.86644 2.42307 1.20238C2.42234 0.5387 1.88039 0.000793457 1.2116 0C1.2116 0 1.21153 0 1.21153 0ZM1.21124 1.80346C0.876678 1.80346 0.605469 1.53429 0.605469 1.20226C0.605469 0.870235 0.876678 0.601074 1.21124 0.601074C1.5458 0.601074 1.817 0.870235 1.817 1.20226C1.81667 1.53414 1.54567 1.80312 1.21124 1.80346C1.21124 1.80346 1.21124 1.80346 1.21124 1.80346Z" fill="#282529" transform="translate(91.049 32.464)" />
      <path d="M1.21154 0C0.542423 0 0 0.538324 0 1.20238C0 1.86644 0.542423 2.40476 1.21154 2.40476C1.88065 2.40476 2.42307 1.86644 2.42307 1.20238C2.42234 0.5387 1.88039 0.000792929 1.2116 0C1.2116 0 1.21154 0 1.21154 0ZM1.21124 1.80346C0.876682 1.80346 0.605469 1.53429 0.605469 1.20226C0.605469 0.870237 0.876682 0.601074 1.21124 0.601074C1.54579 0.601074 1.81701 0.870237 1.81701 1.20226C1.81668 1.53414 1.54567 1.80312 1.21125 1.80346C1.21125 1.80346 1.21124 1.80346 1.21124 1.80346Z" fill="#282529" transform="translate(60.576 0)" />
      <path d="M1.21153 0C0.542427 0 0 0.538325 0 1.20238C0 1.86644 0.542427 2.40476 1.21153 2.40476C1.88065 2.40476 2.42307 1.86644 2.42307 1.20238C2.42234 0.538701 1.88039 0.000792503 1.2116 0C1.2116 0 1.21153 0 1.21153 0ZM1.21124 1.80346C0.876678 1.80346 0.605469 1.53429 0.605469 1.20226C0.605469 0.870236 0.876678 0.601074 1.21124 0.601074C1.5458 0.601074 1.817 0.870236 1.817 1.20226C1.81667 1.53414 1.54567 1.80312 1.21124 1.80346C1.21124 1.80346 1.21124 1.80346 1.21124 1.80346Z" fill="#282529" transform="translate(78.949 5.411)" />
      <path d="M2.42307 1.20238C2.42307 0.538324 1.88065 0 1.21154 0C0.542423 0 0 0.538324 0 1.20238C0 1.86644 0.542423 2.40476 1.21154 2.40476C1.88033 2.404 2.42231 1.86612 2.42307 1.20238C2.42307 1.20238 2.42307 1.20238 2.42307 1.20238ZM0.605469 1.20226C0.605469 0.870237 0.87668 0.601074 1.21124 0.601074C1.54579 0.601074 1.81701 0.870237 1.81701 1.20226C1.81701 1.53429 1.54579 1.80346 1.21124 1.80346C0.876819 1.80313 0.605803 1.53415 0.605469 1.20226C0.605469 1.20226 0.605469 1.20226 0.605469 1.20226Z" fill="#282529" transform="translate(0 22.996)" />
    </g>
    <path d="M1.9337 1.49516L2.83451 0.319839L2.26567 0L1.68777 1.3166L1.66836 1.3166L1.08075 0.00901794L0.502209 0.33847L1.39335 1.48615L1.39335 1.50478L0 1.32622L0 1.9659L1.40302 1.78734L1.40302 1.80597L0.502209 2.95305L1.04258 3.29211L1.65927 1.96588L1.67745 1.96588L2.24629 3.2825L2.84362 2.94403L1.9337 1.81499L1.9337 1.79636L3.3646 1.9659L3.3646 1.32622L1.9337 1.5144L1.9337 1.49516Z" fill="#EC1E24" fill-rule="evenodd" transform="translate(15.719 16.035)" />
    <path d="M0.807529 1.04005L0.288963 1.70076L0.600361 1.89615L0.955357 1.13203L0.966259 1.13203L1.29339 1.89073L1.63748 1.69595L1.11345 1.04547L1.11345 1.03465L1.93735 1.13203L1.93735 0.764114L1.11345 0.87233L1.11345 0.861496L1.63201 0.18457L1.30487 0L0.971687 0.758698L0.960777 0.758698L0.622753 0.00541687L0.288963 0.195389L0.802685 0.856094L0.802685 0.866913L0 0.764114L0 1.13203L0.807529 1.02924L0.807529 1.04005Z" fill="#EC1E24" fill-rule="evenodd" transform="translate(31.744 0)" />
    <path d="M3.30038 1.92802L3.30038 1.30098L1.89677 1.48555L1.89677 1.4669L2.78062 0.313828L2.22266 0L1.65565 1.29135L1.63622 1.29135L1.06073 0.00901794L0.492523 0.332458L1.36729 1.45789L1.36729 1.47653L0 1.30098L0 1.92802L1.37637 1.75307L1.37637 1.77171L0.492523 2.89714L1.02256 3.2296L1.62778 1.92802L1.64534 1.92802L2.2033 3.21999L2.78969 2.88812L1.89677 1.78073L1.89677 1.76208L3.30038 1.92802Z" fill="#EC1E24" fill-rule="evenodd" transform="translate(92.248 0.282)" />
    <path d="M1.63629 1.2655L2.39838 0.270538L1.91735 0L1.42846 1.11401L1.41209 1.11401L0.914742 0.0078125L0.425255 0.286163L1.17947 1.25769L1.17947 1.27333L0 1.12183L0 1.6635L1.18734 1.51199L1.18734 1.52823L0.425255 2.49855L0.881996 2.78532L1.40422 1.6635L1.41995 1.6635L1.90102 2.77751L2.40624 2.49074L1.63629 1.53604L1.63629 1.51982L2.84724 1.6635L2.84724 1.12183L1.63629 1.28114L1.63629 1.2655Z" fill="#EC1E24" fill-rule="evenodd" transform="translate(64.607 21.889)" />
    <path d="M0 1.20238C0 0.53833 0.542459 0 1.21161 0C1.88074 0 2.42319 0.53833 2.42319 1.20238C2.42319 1.86642 1.88074 2.40475 1.21161 2.40475C0.542459 2.40475 0 1.86642 0 1.20238Z" fill="#282529" fill-rule="evenodd" transform="translate(0 79.002)" />
    <path d="M3.02899 0C3.02899 0 1.21159 0 1.21159 0C0.542459 0 0 0.53833 0 1.20238C0 1.86642 0.542459 2.40475 1.21159 2.40475C1.21159 2.40475 3.02899 2.40475 3.02899 2.40475C3.69812 2.40475 4.24058 1.86642 4.24058 1.20238C4.24058 0.53833 3.69812 0 3.02899 0C3.02899 0 3.02899 0 3.02899 0Z" fill="#282529" fill-rule="evenodd" transform="translate(3.635 79.002)" />
    <path d="M3.02901 0C3.02901 0 1.21158 0 1.21158 0C0.54248 0 0 0.53833 0 1.20238C0 1.86642 0.54248 2.40475 1.21158 2.40475C1.21158 2.40475 3.02901 2.40475 3.02901 2.40475C3.6981 2.40475 4.24059 1.86642 4.24059 1.20238C4.24059 0.53833 3.6981 0 3.02901 0C3.02901 0 3.02901 0 3.02901 0Z" fill="#282529" fill-rule="evenodd" transform="translate(93.898 79.002)" />
    <path d="M0 1.20238C0 0.53833 0.54248 0 1.21159 0C1.88072 0 2.4232 0.53833 2.4232 1.20238C2.4232 1.86642 1.88072 2.40475 1.21159 2.40475C0.54248 2.40475 0 1.86642 0 1.20238Z" fill="#282529" fill-rule="evenodd" transform="translate(99.352 79.002)" />
    <path d="M6.15119 0C6.15119 0 1.11839 0 1.11839 0C0.486778 0.0502319 0 0.573563 0 1.20238C0 1.83121 0.486778 2.35452 1.1184 2.40475C1.1184 2.40475 6.15121 2.40475 6.15121 2.40475C6.78281 2.35452 7.26959 1.83119 7.26959 1.20238C7.26959 0.573547 6.78281 0.0502319 6.15119 0C6.15119 0 6.15119 0 6.15119 0Z" fill="#EC1E24" fill-rule="evenodd" transform="translate(65.426 83.812)" />
    <path d="M6.1512 0C6.1512 0 1.11841 0 1.11841 0C0.486763 0.0502319 0 0.573563 0 1.20238C0 1.83121 0.486763 2.35452 1.11841 2.40475C1.11841 2.40475 6.1512 2.40475 6.1512 2.40475C6.78284 2.35452 7.2696 1.83119 7.2696 1.20238C7.2696 0.573547 6.78284 0.0502319 6.1512 0C6.1512 0 6.1512 0 6.1512 0Z" fill="#EC1E24" fill-rule="evenodd" transform="translate(29.078 83.812)" />
    <path d="M25.4435 0C25.4435 0 1.21158 0 1.21158 0C0.542458 0 0 0.53833 0 1.20238C0 1.86644 0.542458 2.40475 1.21158 2.40475C1.21158 2.40475 10.868 2.40475 10.868 2.40475L10.868 3.60715C10.868 3.60715 6.05798 3.60715 6.05798 3.60715C5.38883 3.60715 4.84639 4.14546 4.84639 4.80952C4.84639 5.47357 5.38883 6.0119 6.05798 6.0119C6.05798 6.0119 21.2029 6.0119 21.2029 6.0119C21.8721 6.0119 22.4145 5.47357 22.4145 4.80952C22.4145 4.14546 21.8721 3.60715 21.2029 3.60715C21.2029 3.60715 15.7871 3.60715 15.7871 3.60715L15.7871 2.40475C15.7871 2.40475 25.4435 2.40475 25.4435 2.40475C26.1127 2.40475 26.6551 1.86644 26.6551 1.20238C26.6551 0.53833 26.1127 0 25.4435 0C25.4435 0 25.4435 0 25.4435 0Z" fill="#EC1E24" fill-rule="evenodd" transform="translate(37.559 83.812)" />
    <path d="M0 1.20238C0 0.53833 0.542459 0 1.21161 0C1.88074 0 2.42319 0.53833 2.42319 1.20238C2.42319 1.86642 1.88074 2.40475 1.21161 2.40475C0.542459 2.40475 0 1.86642 0 1.20238Z" fill="#282529" fill-rule="evenodd" transform="translate(0 79.002)" />
    <path d="M3.02899 0C3.02899 0 1.21159 0 1.21159 0C0.542459 0 0 0.53833 0 1.20238C0 1.86642 0.542459 2.40475 1.21159 2.40475C1.21159 2.40475 3.02899 2.40475 3.02899 2.40475C3.69812 2.40475 4.24058 1.86642 4.24058 1.20238C4.24058 0.53833 3.69812 0 3.02899 0C3.02899 0 3.02899 0 3.02899 0Z" fill="#282529" fill-rule="evenodd" transform="translate(3.635 79.002)" />
    <path d="M3.02901 0C3.02901 0 1.21158 0 1.21158 0C0.54248 0 0 0.53833 0 1.20238C0 1.86642 0.54248 2.40475 1.21158 2.40475C1.21158 2.40475 3.02901 2.40475 3.02901 2.40475C3.6981 2.40475 4.24059 1.86642 4.24059 1.20238C4.24059 0.53833 3.6981 0 3.02901 0C3.02901 0 3.02901 0 3.02901 0Z" fill="#282529" fill-rule="evenodd" transform="translate(93.898 79.002)" />
    <path d="M0 1.20238C0 0.53833 0.54248 0 1.21159 0C1.88072 0 2.4232 0.53833 2.4232 1.20238C2.4232 1.86642 1.88072 2.40475 1.21159 2.40475C0.54248 2.40475 0 1.86642 0 1.20238Z" fill="#282529" fill-rule="evenodd" transform="translate(99.352 79.002)" />
    <path d="M6.15119 0C6.15119 0 1.11839 0 1.11839 0C0.486778 0.0502319 0 0.573563 0 1.20238C0 1.83121 0.486778 2.35452 1.1184 2.40475C1.1184 2.40475 6.15121 2.40475 6.15121 2.40475C6.78281 2.35452 7.26959 1.83119 7.26959 1.20238C7.26959 0.573547 6.78281 0.0502319 6.15119 0C6.15119 0 6.15119 0 6.15119 0Z" fill="#EC1E24" fill-rule="evenodd" transform="translate(65.426 83.812)" />
    <path d="M6.1512 0C6.1512 0 1.11841 0 1.11841 0C0.486763 0.0502319 0 0.573563 0 1.20238C0 1.83121 0.486763 2.35452 1.11841 2.40475C1.11841 2.40475 6.1512 2.40475 6.1512 2.40475C6.78284 2.35452 7.2696 1.83119 7.2696 1.20238C7.2696 0.573547 6.78284 0.0502319 6.1512 0C6.1512 0 6.1512 0 6.1512 0Z" fill="#EC1E24" fill-rule="evenodd" transform="translate(29.078 83.812)" />
    <path d="M25.4435 0C25.4435 0 1.21158 0 1.21158 0C0.542458 0 0 0.53833 0 1.20238C0 1.86644 0.542458 2.40475 1.21158 2.40475C1.21158 2.40475 10.868 2.40475 10.868 2.40475L10.868 3.60715C10.868 3.60715 6.05798 3.60715 6.05798 3.60715C5.38883 3.60715 4.84639 4.14546 4.84639 4.80952C4.84639 5.47357 5.38883 6.0119 6.05798 6.0119C6.05798 6.0119 21.2029 6.0119 21.2029 6.0119C21.8721 6.0119 22.4145 5.47357 22.4145 4.80952C22.4145 4.14546 21.8721 3.60715 21.2029 3.60715C21.2029 3.60715 15.7871 3.60715 15.7871 3.60715L15.7871 2.40475C15.7871 2.40475 25.4435 2.40475 25.4435 2.40475C26.1127 2.40475 26.6551 1.86644 26.6551 1.20238C26.6551 0.53833 26.1127 0 25.4435 0C25.4435 0 25.4435 0 25.4435 0Z" fill="#EC1E24" fill-rule="evenodd" transform="translate(37.559 83.812)" />
    <path d="M1.21159 2.40475C1.21159 2.40475 10.6787 2.40475 10.6787 2.40475C11.3478 2.40475 11.8903 1.86642 11.8903 1.20238C11.8903 0.53833 11.3478 0 10.6787 0C10.6787 0 1.21159 0 1.21159 0C0.542473 0 0 0.53833 0 1.20238C0 1.86642 0.542473 2.40475 1.21159 2.40475C1.21159 2.40475 1.21159 2.40475 1.21159 2.40475Z" fill="#EC1E24" fill-rule="evenodd" transform="translate(51.973 74.094)" />
    <path d="M12.7218 0C12.7218 0 1.21158 0 1.21158 0C0.542484 0 0 0.53833 0 1.20238C0 1.86642 0.542484 2.40475 1.21158 2.40475C1.21158 2.40475 12.7218 2.40475 12.7218 2.40475C13.3909 2.40475 13.9333 1.86642 13.9333 1.20238C13.9333 0.53833 13.3909 0 12.7218 0C12.7218 0 12.7218 0 12.7218 0Z" fill="#EC1E24" fill-rule="evenodd" transform="translate(61.033 38.272)" />
    <path d="M9.69276 19.2381L32.0709 19.2381L32.0709 16.8333C32.0709 16.8333 9.69276 16.8333 9.69276 16.8333C5.67788 16.8333 2.42319 13.6034 2.42319 9.61905C2.42319 5.6347 5.67788 2.40475 9.69276 2.40475C9.69276 2.40475 67.8493 2.40475 67.8493 2.40475C71.8642 2.40475 75.1188 5.6347 75.1188 9.61905C75.1188 13.6034 71.8642 16.8333 67.8493 16.8333C67.8493 16.8333 45.3984 16.8333 45.3984 16.8333L45.3984 19.2381C45.3984 19.2381 67.8493 19.2381 67.8493 19.2381C73.2025 19.2381 77.5421 14.9315 77.5421 9.61905C77.5421 4.30659 73.2025 0 67.8493 0C67.8493 0 9.69276 0 9.69276 0C4.33959 0 0 4.30659 0 9.61905C0 14.9315 4.33959 19.2381 9.69276 19.2381C9.69276 19.2381 9.69276 19.2381 9.69276 19.2381Z" fill="#282529" fill-rule="evenodd" transform="translate(12.115 29.805)" />
    <path d="M0.514999 0C0.356361 0.778275 0.181053 1.59265 0 2.40475C0 2.40475 9.04549 2.40475 9.04549 2.40475C9.71458 2.40475 10.2571 1.86642 10.2571 1.20238C10.2571 0.53833 9.71458 0 9.04549 0C9.04549 0 0.514999 0 0.514999 0Z" fill="#282529" fill-rule="evenodd" transform="translate(74.555 66.077)" />
    <path d="M14.1387 1.20238C14.1387 0.538391 13.5963 6.10352e-05 12.9272 0C12.9272 0 0.247231 0 0.247231 0C0.236374 0.401596 0.217857 0.763596 0.188293 1.05087C0.148453 1.43697 0.0834732 1.89565 0 2.40475C0 2.40475 12.9272 2.40475 12.9272 2.40475C13.5963 2.40472 14.1387 1.86642 14.1388 1.20238C14.1388 1.20238 14.1387 1.20238 14.1387 1.20238Z" fill="#EC1E24" fill-rule="evenodd" transform="translate(75.52 61.267)" />
    <path d="M9.12669 2.40475C9.79579 2.40475 10.3383 1.86642 10.3383 1.20238C10.3383 0.53833 9.79579 0 9.12669 0C9.12669 0 0 0 0 0C0.000274658 0.015564 0.00257111 0.0307922 0.00273132 0.0463867C0.0215378 0.477432 0.0575409 1.39337 0.0782471 2.40475C0.0782471 2.40475 9.12669 2.40475 9.12669 2.40475Z" fill="#282529" fill-rule="evenodd" transform="translate(75.686 56.458)" />
    <path d="M63.6054 6.41349C63.6025 3.75877 61.4347 1.60714 58.7595 1.60396C58.7595 1.60396 36.141 1.60407 36.141 1.60407C33.6504 -0.534649 29.9554 -0.534695 27.4648 1.60396C27.4648 1.60396 4.84615 1.60396 4.84615 1.60396C2.16969 1.60396 0 3.75726 0 6.41349C0 9.06972 2.16969 11.223 4.84615 11.223C4.84615 11.223 25.1078 11.223 25.1078 11.223C25.1192 10.4332 25.2739 9.65178 25.5647 8.91641C25.5526 8.8843 25.544 8.85061 25.5324 8.81829C25.5324 8.81829 4.84612 8.81829 4.84612 8.81829C3.5079 8.81829 2.42305 7.74164 2.42305 6.41353C2.42305 5.08541 3.5079 4.00877 4.84612 4.00877C4.84612 4.00877 25.68 4.00816 25.68 4.00816C25.1519 5.17604 24.9979 6.47668 25.2387 7.73427C25.2785 7.95865 25.6339 8.74096 25.5647 8.91643C25.9875 7.84454 26.6839 6.9002 27.5855 6.17611C27.8116 4.02238 29.6479 2.39069 31.8297 2.4049C34.0116 2.41912 35.8262 4.07459 36.0237 6.23107C36.0741 6.78239 36.7101 7.0889 37.0681 7.42804C37.4967 7.87596 37.816 8.41553 38.0014 9.00521C38.2702 9.71478 38.4136 10.4651 38.4252 11.2231C38.4252 11.2231 58.7595 11.2231 58.7595 11.2231C61.4347 11.2201 63.6026 9.06851 63.6056 6.41353C63.6056 6.41353 63.6054 6.41349 63.6054 6.41349ZM38.0724 8.81849C38.6445 7.25538 38.5921 5.53422 37.9258 4.0083C37.9258 4.0083 37.9261 4.00896 37.9261 4.00896C37.9261 4.00896 58.7597 4.00896 58.7597 4.00896C60.0979 4.00896 61.1828 5.08561 61.1828 6.41373C61.1828 7.74184 60.0979 8.81849 58.7597 8.81849C58.7597 8.81849 38.0724 8.81849 38.0724 8.81849Z" fill="#282529" transform="translate(19.082 33.011)" />
    <path d="M82.2154 38.8838C82.2154 38.8838 59.2275 38.8838 59.2275 38.8838C60.4103 37.7228 61.1994 36.225 61.4852 34.5985C61.6851 33.811 63.8841 25.1057 64.2051 21.9555C64.3505 20.5727 64.193 16.8273 64.1748 16.4546C64.1832 15.1631 63.5845 13.9416 62.5557 13.1508C61.5268 12.3601 60.1854 12.0904 58.9276 12.4215C58.1694 12.6046 57.4794 12.9983 56.9385 13.5564C56.1468 12.7297 55.05 12.2586 53.9009 12.2519C52.7517 12.2451 51.6494 12.7032 50.8479 13.5205C49.5861 12.2307 47.6348 11.8856 46.0018 12.6636C46.0018 12.6636 46.0018 4.20833 46.0018 4.20833C46.0018 1.88413 44.1033 0 41.7614 0C39.4195 0 37.5211 1.88414 37.5211 4.20833C37.5211 4.20833 37.5211 20.5066 37.5211 20.5066C37.5211 20.5066 31.2756 14.3083 31.2756 14.3083C29.6677 12.6396 27.0054 12.568 25.3088 14.1479C23.6123 15.7277 23.5149 18.3691 25.0907 20.0677C25.0907 20.0677 37.7694 38.1395 37.7694 38.1395C37.787 38.1605 37.8032 38.1826 37.8179 38.2057C38.0109 38.443 38.2172 38.6694 38.4358 38.8838C38.4358 38.8838 1.38013 38.8838 1.38013 38.8838C0.909578 38.8228 0.445985 39.0377 0.191136 39.435C-0.0637121 39.8323 -0.0637121 40.3401 0.191135 40.7374C0.445984 41.1347 0.909577 41.3496 1.38013 41.2886C1.38013 41.2886 82.2154 41.2886 82.2154 41.2886C82.686 41.3496 83.1496 41.1347 83.4044 40.7374C83.6593 40.3401 83.6593 39.8323 83.4044 39.435C83.1496 39.0377 82.686 38.8228 82.2154 38.8838C82.2154 38.8838 82.2154 38.8838 82.2154 38.8838ZM26.8908 18.4566C26.2067 17.7605 26.1882 16.6559 26.8484 15.9376C27.6251 15.2354 28.8212 15.2645 29.5623 16.0037C29.5623 16.0037 37.8795 24.258 37.8795 24.258C38.2831 24.6177 38.8714 24.6856 39.3474 24.4273C39.915 24.1106 39.9451 23.3817 39.9451 22.8032C39.9451 22.8032 39.9451 4.20835 39.9451 4.20835C39.948 3.21354 40.7599 2.40773 41.7624 2.40479C42.759 2.42149 43.5629 3.21927 43.5797 4.20835C43.5797 4.20835 43.5797 21.0442 43.5797 21.0442C43.5797 22.5687 46.0027 22.6005 46.0028 21.0417C46.0028 21.0417 46.0028 16.4598 46.0028 16.4598C46.0191 15.5176 46.764 14.747 47.7118 14.6918C48.2087 14.6518 48.6998 14.8204 49.0657 15.1564C49.4317 15.4925 49.639 15.9653 49.6374 16.4601C49.6374 16.4601 49.6374 21.0442 49.6374 21.0442C49.6374 22.5877 52.0604 22.5991 52.0604 21.0442C52.0604 21.0442 52.0604 16.4601 52.0604 16.4601C52.0604 15.4641 52.8741 14.6566 53.8777 14.6566C54.8814 14.6566 55.695 15.4641 55.695 16.4601C55.695 16.4601 55.695 21.0442 55.695 21.0442C55.695 22.5659 58.1181 22.6009 58.1182 21.0417C58.1182 21.0417 58.1182 16.6109 58.1182 16.6109C58.1081 15.5613 58.9449 14.696 60.0021 14.663C60.994 14.704 61.7714 15.5236 61.7528 16.5087C61.8012 17.6089 61.9042 20.687 61.7952 21.709C61.4802 24.769 59.1479 33.9612 59.1237 34.0514C59.1237 34.0514 59.1056 34.1416 59.1056 34.1416C58.652 36.8267 56.3061 38.791 53.5628 38.7828C53.5628 38.7828 44.0946 38.7828 44.0946 38.7828C42.402 38.7887 40.7979 38.0325 39.7331 36.7267C39.7331 36.7267 26.9403 18.5063 26.8908 18.4566C26.8908 18.4566 26.8908 18.4566 26.8908 18.4566Z" fill="#282529" transform="translate(9.088 40.118)" />
  </g>
</svg>