<?xml version="1.0" encoding="utf-8"?>
<svg width="103" height="24" viewBox="0 0 103 24" fill="none" xmlns="http://www.w3.org/2000/svg">
  <g>
    <path d="M1.1212 0.160509C0.705976 0.265399 0.354332 0.362945 0.344797 0.369238C0.307726 0.410146 0.126602 3.82639 0.0587883 5.80985C-0.101143 10.6127 0.0556221 12.8322 0.647728 14.0059C0.978199 14.6667 1.49296 15.1691 2.11259 15.4492C2.11259 15.4492 2.31066 15.5404 2.31066 15.5404C2.31066 15.5404 2.84239 15.1796 2.84239 15.1796C3.22688 14.9195 3.36353 14.8114 3.32645 14.7915C2.95149 14.5754 2.60408 14.3363 2.43777 14.1748C1.56607 13.3346 1.37857 12.5217 1.38176 9.60474C1.38176 7.30766 1.51097 4.73053 1.8012 1.2975C1.85521 0.612576 1.8997 0.0325378 1.89335 0.00946204C1.887 -0.0209568 1.67832 0.0199516 1.12331 0.161553C1.12331 0.161553 1.1212 0.160509 1.1212 0.160509Z" fill="#EC1E24" fill-rule="evenodd" transform="translate(21.81 0)" />
    <path d="M1.11831 0.187832C0.68935 0.295868 0.334507 0.387121 0.328156 0.393414C0.30802 0.41754 0.171371 2.8216 0.106768 4.28585C-0.00233269 6.78851 -0.0330257 9.95931 0.03899 11.0491C0.106768 12.0875 0.232828 12.9277 0.400185 13.4437C0.7031 14.4014 1.25494 15.0727 2.04512 15.4471C2.04512 15.4471 2.29403 15.5656 2.29403 15.5656L2.83529 15.208L3.37653 14.8503C3.37653 14.8503 3.11067 14.6982 3.11067 14.6982C2.52175 14.3542 2.12668 13.9692 1.87034 13.4878C1.62141 13.0158 1.52608 12.6476 1.4276 11.8085C1.36934 11.3166 1.36934 7.82796 1.4276 6.68152C1.52608 4.7222 1.66592 2.67056 1.82267 0.896885C1.864 0.404954 1.89788 0.00322926 1.89788 8.27086e-05C1.8947 -0.00306384 1.54411 0.0839928 1.11831 0.188882C1.11831 0.188882 1.11831 0.187832 1.11831 0.187832Z" fill="#EC1E24" fill-rule="evenodd" transform="translate(26.707 0)" />
    <path d="M1.37268 0.175511L0 0.350677L0 15.3771L2.5887 15.3771C2.5887 15.3771 2.5887 15.2491 2.5887 15.2491C2.5887 14.5716 2.70096 11.964 2.74546 11.6336C2.93292 10.1494 3.45718 8.91488 4.21986 8.15653C4.65625 7.72858 5.05452 7.566 5.48348 7.64677C5.93678 7.72753 6.15825 8.06528 6.23235 8.77642C6.26312 9.0869 6.24616 9.47813 6.09569 11.8927C6.0035 13.4136 5.92517 14.7257 5.92517 14.8138C5.92517 15.0163 6.01733 15.2082 6.10949 15.2082C6.35099 15.2019 8.68445 15.0498 8.69818 15.0362C8.73212 15.0026 8.98416 7.48734 8.95657 7.24819C8.8676 6.45208 8.50008 5.84792 7.93127 5.57206C7.49489 5.35913 7.23649 5.30878 6.5724 5.31193C5.92838 5.31508 5.64555 5.36228 5.1552 5.54479C4.22836 5.88882 3.37356 6.70486 2.78777 7.79781C2.78777 7.79781 2.62051 8.10828 2.62051 8.10828C2.62051 8.10828 2.62051 7.79466 2.62051 7.79466C2.62051 7.45377 2.80791 1.25063 2.84187 0.475492C2.86197 0.0234201 2.86197 -0.00385208 2.80049 0.000344382C2.76665 0.00349093 2.12263 0.0811079 1.36957 0.175511C1.36957 0.175511 1.37268 0.175511 1.37268 0.175511Z" fill="#EC1E24" fill-rule="evenodd" transform="translate(88.576 0)" />
    <path d="M0.710411 0.0839092C0.438057 0.195091 0.169067 0.458365 0.0737305 0.704855C-0.0798111 1.11287 0.0123825 1.61215 0.295143 1.8922C0.754776 2.35791 1.46974 2.36106 1.93368 1.90584C2.18254 1.65935 2.2673 1.43069 2.25032 1.06253C2.23342 0.728981 2.12112 0.502419 1.86591 0.283201C1.53541 -0.0031473 1.10643 -0.0776178 0.711357 0.0839124C0.711357 0.0839124 0.710411 0.0839092 0.710411 0.0839092Z" fill="#EC1E24" fill-rule="evenodd" transform="translate(100.148 0.451)" />
    <path d="M5.13745 0.0480796C3.7679 0.244222 2.57311 1.10012 1.61559 2.57066C1.08811 3.38041 0.668666 4.35483 0.402806 5.39009C-0.0537109 7.18159 -0.132092 9.43776 0.218504 10.7195C0.439878 11.5188 0.841317 12.2005 1.38363 12.683C2.30302 13.4991 3.77425 13.8232 5.72319 13.6375C6.9328 13.5232 8.00577 13.2526 9.08828 12.7879C9.36791 12.6694 9.96741 12.3726 10.0384 12.3191C10.049 12.3128 9.63695 11.0573 9.61577 11.031C9.61258 11.0279 9.50984 11.0814 9.38803 11.1558C8.20914 11.8638 6.95292 12.1743 5.23913 12.1775C4.59514 12.1806 4.40766 12.1712 4.07401 12.1103C2.75636 11.8712 2.09541 11.2366 1.80943 9.94438C1.61877 9.06435 1.67703 7.28333 1.93865 5.96383C2.36127 3.83877 3.42365 2.08187 4.63962 1.48086C5.29739 1.15675 6.06637 1.16724 6.57055 1.51128C7.22408 1.95286 7.60221 2.96819 7.70813 4.55412C7.72191 4.75655 7.74521 4.91808 7.76216 4.91808C7.77592 4.91808 8.20172 4.83417 8.70273 4.73243C9.20373 4.63069 9.6253 4.54678 9.63589 4.54678C9.66661 4.54678 9.54056 3.76745 9.44206 3.34894C9.19314 2.31998 8.81183 1.54799 8.27375 0.991029C7.51112 0.20541 6.39366 -0.132333 5.13639 0.0470265C5.13639 0.0470265 5.13745 0.0480796 5.13745 0.0480796Z" fill="#EC1E24" fill-rule="evenodd" transform="translate(0 1.805)" />
    <path d="M3.90842 0.161757C3.16595 0.249864 2.54948 0.32748 2.53887 0.333776C2.53254 0.344266 2.47105 0.921157 2.40225 1.61552C2.33455 2.30989 2.26989 2.94447 2.25933 3.02209C2.25933 3.02209 2.23918 3.16683 2.23918 3.16683C2.23918 3.16683 1.22019 3.16683 1.22019 3.16683C0.634468 3.16683 0.201225 3.18047 0.201225 3.19725C0.201225 3.23397 0.0413284 4.36047 0.0169067 4.48949C0.0169067 4.48949 0 4.58389 0 4.58389L2.11836 4.58389C2.11836 4.58389 2.09403 4.91114 2.09403 4.91114C2.01884 5.96318 2.00191 6.28414 1.98495 7.23129C1.968 7.93929 1.97434 8.43856 2.00191 8.77945C2.16498 10.7692 2.73058 11.6733 4.01544 11.9901C4.22298 12.0405 4.39354 12.0541 4.91786 12.0541C5.60638 12.0509 5.98454 12.0006 6.6412 11.8181C7.16866 11.6702 8.00016 11.3293 8.00016 11.258C8.00016 11.238 7.908 10.9307 7.79574 10.5804C7.68345 10.2301 7.59132 9.93637 7.59132 9.92903C7.59132 9.92168 7.46202 9.97623 7.30215 10.0476C6.92085 10.2196 6.54585 10.3381 6.21542 10.3811C5.66037 10.4587 5.41467 10.401 5.15627 10.1346C4.87342 9.85141 4.76113 9.46017 4.69333 8.54554C4.63933 7.79348 4.68272 6.41419 4.8025 5.02756C4.8025 5.02756 4.84373 4.58283 4.84373 4.58283L7.61251 4.58283C7.61251 4.58283 7.67392 3.99964 7.67392 3.99964C7.70469 3.68288 7.74176 3.36192 7.75236 3.29164C7.75236 3.29164 7.77251 3.16682 7.77251 3.16682L4.9655 3.16682C4.9655 3.16682 4.9856 3.05564 4.9856 3.05564C4.99203 2.99795 5.07044 2.334 5.15627 1.58195C5.241 0.82989 5.31932 0.164894 5.32983 0.10511C5.34045 0.0274918 5.33306 -0.00292683 5.30231 0.000219822C5.27802 0.00336647 4.64887 0.0746911 3.9063 0.16175C3.9063 0.16175 3.9063 0.16175 3.9063 0.16175C3.9063 0.16175 3.90842 0.161757 3.90842 0.161757Z" fill="#EC1E24" fill-rule="evenodd" transform="translate(79.674 3.611)" />
    <path d="M3.36164 0.065793C2.55781 0.234645 2.03675 0.528306 1.43415 1.15548C0.58584 2.03226 0.129384 3.17543 0.0203009 4.68987C-0.0517149 5.65475 0.0711355 6.73395 0.336961 7.5027C0.711867 8.59239 1.39602 9.49644 2.21997 9.99146C2.96555 10.4403 3.93989 10.5578 4.86974 10.3187C5.40774 10.1802 5.94257 9.85617 6.40962 9.39155C7.35959 8.4508 7.88807 7.18911 7.98973 5.62433C8.1666 2.96043 7.12448 0.861814 5.29972 0.197937C4.74477 -0.00447702 3.9473 -0.0579658 3.36164 0.0668392C3.36164 0.0668392 3.36164 0.065793 3.36164 0.065793ZM4.6971 1.37041C5.37808 1.60324 5.96692 2.27132 6.27087 3.1481C6.49539 3.7889 6.58117 4.47061 6.55364 5.32642C6.5028 6.77373 6.11731 7.83196 5.3749 8.56401C4.93539 8.99925 4.54778 9.17125 4.00554 9.17125C3.07886 9.17125 2.32693 8.57764 1.84929 7.47432C1.55593 6.79261 1.43414 6.00708 1.46485 5.00549C1.49239 4.11822 1.62159 3.52146 1.91389 2.90478C2.12888 2.45275 2.32905 2.17273 2.65629 1.86229C2.94965 1.58541 3.27585 1.39034 3.58615 1.31588C3.80432 1.26239 4.47153 1.29595 4.69605 1.36936C4.69605 1.36936 4.6971 1.37041 4.6971 1.37041Z" fill="#EC1E24" fill-rule="evenodd" transform="translate(11.573 5.416)" />
    <path d="M3.51475 0.0706358C2.42815 0.350662 1.52901 1.16661 0.861797 2.48493C0.248598 3.69208 -0.051115 5.20023 0.00713348 6.78179C0.0516148 8.08647 0.391573 8.94018 1.13821 9.63132C1.72387 10.1746 2.48322 10.4441 3.42684 10.4441C4.6903 10.4441 6.07662 10.1243 7.40785 9.52645C7.40785 9.52645 7.78594 9.35444 7.78594 9.35444C7.78594 9.35444 7.61861 8.87934 7.61861 8.87934C7.52648 8.6161 7.44493 8.38327 7.43434 8.3602C7.42375 8.32978 7.36656 8.34342 7.22359 8.40739C6.06179 8.93388 5.16265 9.15937 4.13112 9.18664C3.58994 9.20341 3.48403 9.19712 3.22139 9.13315C2.77552 9.02827 2.50228 8.88669 2.21634 8.60351C1.80118 8.19868 1.59361 7.66905 1.51842 6.82583C1.48135 6.41785 1.51206 5.62183 1.57984 5.20651C1.57984 5.20651 1.6042 5.0817 1.6042 5.0817L7.59426 5.0817C7.59426 5.0817 7.57413 4.75134 7.57413 4.75134C7.48517 3.50329 7.26383 2.57616 6.85503 1.76021C6.49071 1.03131 6.03743 0.545724 5.45918 0.259406C5.06415 0.0632839 4.84916 0.0160875 4.30163 0.00350237C3.88648 -0.00698614 3.78375 0.00350237 3.51475 0.0706263C3.51475 0.0706263 3.51475 0.0706358 3.51475 0.0706358ZM4.54757 1.15601C4.70749 1.2032 4.78269 1.25354 4.96696 1.43603C5.21266 1.67935 5.3514 1.91847 5.4912 2.33274C5.63417 2.75435 5.78032 3.55037 5.78032 3.90801C5.78032 3.90801 5.78032 4.03596 5.78032 4.03596L3.81576 4.02967L1.84696 4.01918C1.84696 4.01918 1.85756 3.9185 1.85756 3.9185C1.99735 2.63688 2.8552 1.39932 3.77446 1.15601C4.02334 1.08888 4.31564 1.09203 4.54757 1.15601C4.54757 1.15601 4.54757 1.15601 4.54757 1.15601Z" fill="#EC1E24" fill-rule="evenodd" transform="translate(30.712 5.416)" />
    <path d="M3.61954 0.0504999C2.75111 0.205721 2.02565 0.633622 1.43258 1.3384C0.653111 2.26238 0.18924 3.53036 0.0367355 5.13919C-0.0172806 5.71916 -0.0109253 6.91687 0.0505028 7.38882C0.254902 8.97773 0.905167 9.98875 1.95787 10.3495C2.5806 10.5624 3.52741 10.4775 4.17449 10.1576C4.64472 9.92163 5.14142 9.48638 5.49197 9.00079C5.6826 8.73755 5.9929 8.15758 6.14541 7.7863C6.21001 7.63423 6.26826 7.50313 6.28203 7.49265C6.31592 7.45908 6.30639 10.0496 6.26826 10.6694C6.13164 12.9023 5.66566 13.5871 4.27617 13.5871C3.48293 13.5871 2.7024 13.2966 1.90916 12.7072C1.90916 12.7072 1.60309 12.4817 1.60309 12.4817C1.60309 12.4817 1.27266 12.9064 1.27266 12.9064C1.09262 13.1424 0.877632 13.4193 0.796085 13.5273C0.796085 13.5273 0.649933 13.7161 0.649933 13.7161C0.649933 13.7161 0.949646 13.9322 0.949646 13.9322C1.36162 14.2321 1.53531 14.337 1.95046 14.5289C2.39632 14.7376 2.785 14.853 3.30606 14.9264C3.97009 15.0208 4.89995 14.9232 5.48243 14.6967C6.83062 14.1671 7.44064 13.0176 7.67257 10.5687C7.73717 9.89749 7.734 4.69344 7.67257 4.02536C7.42687 1.43172 6.68129 0.311626 5.03339 0.0452352C4.6553 -0.0155931 3.96056 -0.0155931 3.61954 0.0483813C3.61954 0.0483813 3.61954 0.0504999 3.61954 0.0504999ZM4.61938 1.22675C4.94663 1.31065 5.1129 1.40923 5.37237 1.66199C5.91355 2.19477 6.09783 2.86285 6.03005 4.05951C5.94851 5.60751 5.57359 6.7811 4.78989 7.97146C4.53148 8.3658 3.98288 8.90907 3.69376 9.06114C3.10809 9.36424 2.50866 9.30027 2.10622 8.88914C1.77579 8.55563 1.56504 7.99244 1.44537 7.13243C1.37758 6.63636 1.37017 5.3149 1.4316 4.88594C1.60846 3.65782 1.98972 2.74118 2.6241 1.9955C3.1727 1.3547 3.94899 1.05474 4.61938 1.22675C4.61938 1.22675 4.61938 1.22675 4.61938 1.22675Z" fill="#EC1E24" fill-rule="evenodd" transform="translate(40.059 5.416)" />
    <path d="M3.58006 0.0671196C2.60255 0.289461 1.75848 0.974314 1.08704 2.09022C0.450539 3.14949 0.112698 4.37656 0.0173874 5.97176C-0.067337 7.439 0.154003 8.41332 0.759789 9.22298C1.36981 10.0389 2.27531 10.4542 3.4371 10.4542C4.42096 10.4542 5.61347 10.2319 6.61852 9.86064C7.14275 9.66871 7.78984 9.36876 7.77607 9.32786C7.76971 9.30793 7.69135 9.07825 7.59921 8.81815C7.50707 8.55806 7.43187 8.34305 7.4287 8.33886C7.42552 8.33256 7.24866 8.40598 7.03367 8.50037C6.5232 8.73005 5.76386 8.97547 5.21527 9.09083C4.81706 9.17473 4.70057 9.18522 4.05771 9.18522C3.39686 9.18837 3.32167 9.18207 3.08762 9.11076C2.67882 8.98281 2.44371 8.84751 2.19906 8.5979C1.93007 8.32522 1.76273 8.00744 1.63352 7.53234C1.54139 7.20827 1.54139 7.17156 1.54139 6.32205C1.54456 5.83962 1.55833 5.36766 1.57528 5.27642C1.57528 5.27642 1.60598 5.10757 1.60598 5.10757L4.59995 5.09708L7.59392 5.09079C7.59392 5.09079 7.56956 4.6933 7.56956 4.6933C7.55898 4.4741 7.51873 4.09654 7.4806 3.85322C7.16394 1.70846 6.28492 0.413222 4.91238 0.0660729C4.56183 -0.0220242 3.96875 -0.0220242 3.58113 0.0660729C3.58113 0.0660729 3.58006 0.0671196 3.58006 0.0671196ZM4.60794 1.18545C5.09194 1.36375 5.45943 1.9647 5.65324 2.89916C5.69454 3.10472 5.80998 3.92067 5.80998 4.01926C5.80998 4.03289 4.91719 4.04653 3.83165 4.04653C3.83165 4.04653 1.85332 4.04653 1.85332 4.04653C1.85332 4.04653 1.87768 3.8546 1.87768 3.8546C1.93911 3.37216 2.14032 2.78589 2.40192 2.3475C2.58196 2.03707 3.01194 1.5756 3.27035 1.4036C3.68974 1.13092 4.22033 1.04282 4.609 1.18755C4.609 1.18755 4.60794 1.18545 4.60794 1.18545Z" fill="#EC1E24" fill-rule="evenodd" transform="translate(49.852 5.416)" />
    <path d="M4.09767 0.0276504C3.47813 0.108405 2.64359 0.408359 2.18395 0.718797C1.50933 1.17711 0.957558 1.85148 0.53923 2.72931C0.362366 3.10687 0.0827789 3.86934 0.113487 3.89975C0.147377 3.93017 2.28985 4.507 2.31739 4.49022C2.33433 4.47973 2.34492 4.44302 2.34492 4.40631C2.34492 4.36961 2.38623 4.16719 2.43389 3.96163C2.74419 2.61919 3.2176 1.82002 3.87739 1.51692C4.03731 1.44246 4.1125 1.42883 4.38786 1.42883C4.76911 1.42883 4.95657 1.50014 5.15779 1.71934C5.50834 2.10739 5.60366 2.68422 5.63755 4.65383C5.64814 5.30093 5.64814 5.82741 5.63755 5.82741C5.62378 5.82741 5.49775 5.79071 5.35796 5.74351C4.92586 5.59878 4.39422 5.4939 3.92716 5.46349C2.4932 5.36595 1.43414 5.69946 0.654671 6.485C0.174911 6.97059 -0.0337143 7.5233 0.00440979 8.21864C0.0382996 8.8563 0.228928 9.29469 0.6409 9.70896C0.84848 9.91452 0.963913 9.99528 1.22021 10.1243C1.66289 10.3403 1.98273 10.4148 2.57262 10.4379C3.80219 10.4882 4.80724 10.1516 5.59306 9.4195C5.6852 9.33559 5.76357 9.27162 5.76993 9.27476C5.7731 9.28106 5.80382 9.58835 5.83453 9.95962C5.86206 10.3277 5.89278 10.634 5.89595 10.6371C5.90654 10.6434 8.39957 10.3875 8.53513 10.3645C8.61985 10.3477 8.64421 10.3309 8.63045 10.2868C8.61986 10.2564 8.58279 9.97956 8.54572 9.67331C8.38263 8.34451 8.34132 7.61245 8.30425 5.32297C8.25659 2.44931 8.21953 2.13887 7.82449 1.41416C7.38181 0.59821 6.72095 0.176601 5.66507 0.0318689C5.359 -0.0121813 4.44292 -0.00903511 4.09872 0.0318689C4.09872 0.0318689 4.09767 0.0276504 4.09767 0.0276504ZM4.86456 6.85368C5.13039 6.93444 5.33478 7.04561 5.50847 7.19768C5.50847 7.19768 5.66203 7.33297 5.66203 7.33297C5.66203 7.33297 5.62073 7.51546 5.62073 7.51546C5.48093 8.12899 4.97047 8.65863 4.30326 8.87782C4.06497 8.95858 3.98978 8.96907 3.70701 8.95543C3.3321 8.93865 3.15842 8.87467 2.9233 8.66912C2.68819 8.46356 2.60346 8.26114 2.60664 7.93392C2.60983 7.28997 2.95084 6.93548 3.69324 6.80438C3.9453 6.75718 4.64639 6.79075 4.86456 6.85472C4.86456 6.85472 4.86456 6.85368 4.86456 6.85368Z" fill="#EC1E24" fill-rule="evenodd" transform="translate(70.327 5.416)" />
    <path d="M1.39012 0.25594C0.630722 0.391248 0.0067749 0.508725 0.000434875 0.516068C-0.00588989 0.519213 0.0587311 2.65791 0.143456 5.2623C0.228195 7.8667 0.297104 10.0557 0.297104 10.1229C0.297104 10.1229 0.297104 10.2508 0.297104 10.2508L2.85181 10.2508C2.85181 10.2508 2.85181 5.12384 2.85181 5.12384C2.85181 1.04261 2.84119 -0.00313854 2.81047 6.67572e-06C2.78613 0.00315475 2.14642 0.118533 1.39012 0.255937C1.39012 0.255937 1.39012 0.25594 1.39012 0.25594Z" fill="#EC1E24" fill-rule="evenodd" transform="translate(100.148 5.416)" />
    <path d="M3.53761 0.0128608C2.73686 0.100965 2.15113 0.24886 1.80053 0.451297C1.7465 0.48486 1.64376 0.532059 1.57915 0.556187C1.39907 0.62751 0.969017 0.961056 0.716957 1.23062C0.485008 1.47711 0.206448 1.9659 0.11742 2.27637C0.0898628 2.36028 0.0559807 2.47251 0.0358772 2.526C-0.0223618 2.67809 -0.00542831 3.54133 0.0559807 3.76055C0.202198 4.27661 0.386475 4.60071 0.709564 4.91118C0.984917 5.17446 1.02306 5.20487 1.24763 5.32654C1.33656 5.37374 1.47958 5.45136 1.56748 5.49857C1.73483 5.58982 1.85029 5.6066 1.85029 5.54262C1.85029 5.46186 2.20828 4.64582 2.23479 4.6626C2.25172 4.67308 2.2549 4.76014 2.24536 4.85454C2.22103 5.04019 2.24218 5.08425 2.45613 5.31291C2.50067 5.36011 2.57581 5.47129 2.62349 5.56569C2.73263 5.77862 2.71882 5.76812 2.81099 5.70414C2.98471 5.58247 3.22306 5.68421 3.25375 5.88665C3.26008 5.95063 3.28762 5.97476 3.36603 5.98734C3.4338 5.99783 3.48571 6.03769 3.51962 6.10587C3.55036 6.15936 3.62551 6.25796 3.68696 6.3188C3.78231 6.4132 3.79924 6.44676 3.77914 6.53802C3.73464 6.77402 3.73779 6.78136 3.82678 6.78136C3.902 6.78136 3.91152 6.76773 3.90515 6.68067C3.90199 6.62298 3.87123 6.5055 3.84371 6.41425C3.78544 6.24538 3.8024 6.16147 3.87123 6.2758C3.89138 6.3125 3.93906 6.43418 3.97294 6.54536C4.05134 6.795 4.08204 6.83171 4.20069 6.83171C4.3712 6.83171 4.38498 6.77087 4.28543 6.42684C4.23776 6.25482 4.20702 6.10692 4.21762 6.09643C4.25153 6.06287 4.29919 6.15727 4.3712 6.41005C4.40828 6.53801 4.45279 6.66598 4.46655 6.69325C4.50784 6.76458 4.61592 6.79395 4.70802 6.76038C4.8002 6.72368 4.79704 6.67227 4.68048 6.24433C4.64344 6.09644 4.60847 5.96113 4.60847 5.9412C4.61168 5.86988 4.71014 6.0356 4.71014 6.11007C4.71014 6.15412 4.72393 6.19398 4.73769 6.20447C4.75146 6.21496 4.78536 6.29573 4.80974 6.38698C4.87434 6.61668 4.92518 6.67752 5.03429 6.65025C5.08193 6.63661 5.13281 6.59675 5.14658 6.559C5.17096 6.49816 5.1296 6.1342 5.06816 5.86463C5.03429 5.71988 4.58095 5.21012 4.37332 5.08531C4.06297 4.9028 4.05666 4.89965 3.80772 5.01818C3.634 5.09579 3.55561 5.11572 3.45712 5.10208C3.3205 5.07796 3.17751 4.94685 3.17751 4.84196C3.17751 4.80839 3.26644 4.69721 3.37134 4.59232C3.47724 4.49163 3.55561 4.39618 3.54184 4.38359C3.52808 4.37101 3.4402 4.34688 3.34058 4.33325C3.14676 4.30282 2.57796 4.08676 2.4996 4.01334C2.46254 3.97977 2.4583 3.94935 2.48583 3.89166C2.61187 3.62525 2.61187 3.60531 2.48903 3.45952C2.17233 3.09556 2.28779 2.56272 2.76124 2.19456C2.93813 2.0561 3.07475 2.00261 3.51746 1.90087C3.76962 1.84318 4.79489 1.84318 5.08405 1.90087C5.20692 1.92814 5.38382 1.9617 5.47598 1.98163C5.84774 2.0561 6.11995 2.15365 6.63792 2.40014C6.88683 2.51866 7.10503 2.54803 7.15269 2.47146C7.18655 2.41797 7.48315 1.71626 7.59544 1.41942C7.62299 1.34495 7.67701 1.21384 7.71512 1.12888C7.75643 1.03763 7.77338 0.94323 7.76279 0.903372C7.73845 0.832049 7.57846 0.700936 7.43548 0.636951C6.89423 0.397806 6.29154 0.201663 5.88587 0.137677C5.71853 0.107258 5.48019 0.0705471 5.35841 0.0495725C5.08298 0.00551701 3.85647 -0.0175581 3.53653 0.0160055C3.53653 0.0160055 3.53761 0.0128608 3.53761 0.0128608Z" fill="#EC1E24" fill-rule="evenodd" transform="translate(60.091 5.416)" />
    <path d="M3.7125 0.265059C3.55895 0.41715 3.43291 0.558748 3.43291 0.578677C3.43291 0.598607 3.48373 0.642657 3.54514 0.676224C3.68814 0.750694 3.77715 0.729717 4.00807 0.578677C4.10337 0.514696 4.18813 0.473788 4.19872 0.487424C4.20505 0.50106 4.31416 0.565042 4.44016 0.625879C4.60014 0.703495 4.73677 0.808385 4.90307 0.980405C5.27805 1.36849 5.35215 1.48597 5.34262 1.65799C5.33628 1.78281 5.3903 2.04293 5.42421 2.04293C5.4274 2.04293 5.50257 2.01251 5.59157 1.9716C5.68053 1.9349 5.77904 1.91392 5.81611 1.9244C5.89131 1.94853 5.88811 1.98524 5.78223 2.29886C5.78223 2.29886 5.72076 2.46773 5.72076 2.46773C5.72076 2.46773 5.82246 2.58625 5.82246 2.58625C6.14978 2.9712 6.17307 3.31838 5.89448 3.73269C5.75467 3.94142 5.30554 4.15435 4.81093 4.23826C4.54828 4.28231 3.35664 4.26238 3.15855 4.20784C3.09399 4.19106 2.95417 4.1575 2.85244 4.13337C2.29423 4.0117 1.76889 3.8166 1.2785 3.55333C0.76371 3.27642 0.672607 3.29006 0.539139 3.66451C0.502087 3.76521 0.396172 3.99806 0.303993 4.18371C0.211884 4.36937 0.116535 4.58124 0.0932388 4.65571C0.0699387 4.73019 0.0349998 4.81095 0.0148735 4.83088C-0.0359612 4.89801 0.0487938 5.06373 0.188591 5.15498C0.348495 5.25568 1.06349 5.59657 1.2753 5.67104C1.61638 5.78537 2.34509 5.96159 2.88635 6.05179C3.00923 6.07172 3.34288 6.10528 3.62889 6.12626C4.46351 6.1871 5.27699 6.09585 6.08092 5.84935C6.51734 5.71405 6.52368 5.7109 6.93887 5.47175C7.65805 5.05325 8.11357 4.47321 8.33914 3.6771C8.41435 3.41698 8.40373 2.52017 8.32219 2.26425C8.15168 1.72093 7.8487 1.28983 7.41978 0.988798C7.1507 0.79685 6.6158 0.523089 6.51414 0.523089C6.45589 0.523089 6.42515 0.57029 6.34362 0.816778C6.22073 1.1776 6.1699 1.28248 6.14236 1.23528C6.12859 1.21535 6.12859 1.12725 6.14236 1.036C6.16673 0.847196 6.22073 0.877613 5.64878 0.739161C5.25053 0.64476 5.04929 0.530432 4.90309 0.317506C4.80774 0.179054 4.7802 0.169613 4.3343 0.0678701C4.20509 0.0374508 4.0716 0.00703526 4.04517 0.000739098C4.01127 -0.00974941 3.88518 0.0919924 3.71149 0.264013C3.71149 0.264013 3.7125 0.265059 3.7125 0.265059Z" fill="#EC1E24" fill-rule="evenodd" transform="translate(60.091 9.478)" />
    <path d="M0.0681953 0.0681772C-0.030323 0.16573 -0.0207901 0.29789 0.0883141 0.340889C0.200592 0.381799 0.306507 0.351375 0.306507 0.276906C0.306507 0.21922 0.186829 0 0.15292 0C0.142334 0 0.105236 0.0304222 0.0681953 0.0671329C0.0681953 0.0671329 0.0681953 0.0681772 0.0681953 0.0681772Z" fill="#EC1E24" fill-rule="evenodd" transform="translate(62.318 10.832)" />
    <path d="M0.208046 0.0522642C-0.013298 0.183374 -0.0641937 0.342807 0.0851517 0.440353C0.16357 0.487554 0.180508 0.487554 0.286423 0.437202C0.463306 0.353292 0.549122 0.262044 0.549122 0.146659C0.549122 0.0721855 0.528969 0.0386229 0.46014 0.0155497C0.383205 -0.0138187 0.299122 -0.00158691 0.208046 0.0522594C0.208046 0.0522594 0.208046 0.0522642 0.208046 0.0522642Z" fill="#EC1E24" fill-rule="evenodd" transform="translate(62.762 11.283)" />
    <path d="M0.16312 0.103942C0.0339203 0.187852 0 0.228763 0 0.303235C0 0.408124 0.0921326 0.505671 0.190651 0.505671C0.279583 0.505671 0.510509 0.269667 0.510509 0.178416C0.510509 0.124919 0.384468 -0.00409031 0.333626 9.91821e-05C0.327259 9.91821e-05 0.252079 0.0472994 0.163124 0.104993C0.163124 0.104993 0.16312 0.103942 0.16312 0.103942Z" fill="#EC1E24" fill-rule="evenodd" transform="translate(63.201 11.283)" />
    <path d="M0.104465 0.0642281C0.00911713 0.121914 -0.00780106 0.152338 0.00275421 0.239393C0.0133438 0.330643 0.0271339 0.344279 0.125629 0.353726C0.190231 0.360016 0.274994 0.34009 0.323689 0.30967C0.395737 0.265622 0.40847 0.232059 0.398949 0.131362C0.388359 0.0264702 0.374565 0.00654221 0.303596 0.000246048C0.255913 -0.00289822 0.166931 0.0243692 0.105549 0.0642281C0.105549 0.0642281 0.104465 0.0642281 0.104465 0.0642281Z" fill="#EC1E24" fill-rule="evenodd" transform="translate(63.65 11.735)" />
    <path d="M2.2138 0.0207462C1.22556 0.195911 0.378075 1.28571 0.0784454 2.7594C0.0138016 3.08351 0.00318146 3.25133 0 3.86598C0 4.69251 0.0275269 4.84459 0.255241 5.29982C0.501068 5.7886 0.841026 6.08544 1.35156 6.24382C2.10786 6.47982 3.26872 6.32458 4.4 5.83266C4.4 5.83266 4.74423 5.68057 4.74423 5.68057C4.74423 5.68057 4.62874 5.35331 4.62874 5.35331C4.56417 5.17499 4.50274 5.00927 4.49641 4.98935C4.4858 4.95893 4.39046 4.98935 4.18603 5.0806C3.58327 5.35751 3.00717 5.48546 2.38426 5.48546C1.65233 5.48546 1.24035 5.18235 1.05285 4.50685C0.971237 4.20687 0.968155 3.30587 1.05285 2.8538C1.22973 1.87938 1.64919 1.12313 2.1566 0.867199C2.43197 0.728743 2.69786 0.736086 2.87893 0.887127C3.0971 1.06544 3.20625 1.41996 3.24331 2.05035C3.25393 2.26957 3.27402 2.44788 3.28465 2.44788C3.2952 2.45103 3.54725 2.40068 3.84275 2.33984C3.84275 2.33984 4.37774 2.22866 4.37774 2.22866C4.37774 2.22866 4.37774 2.10699 4.37774 2.10699C4.37774 2.03986 4.35339 1.85106 4.32691 1.68533C4.17336 0.797968 3.79207 0.281916 3.14798 0.0836735C2.90228 0.00919914 2.45317 -0.0243645 2.21478 0.0196896C2.21478 0.0196896 2.2138 0.0207462 2.2138 0.0207462Z" fill="#EC1E24" fill-rule="evenodd" transform="translate(83.681 17.601)" />
    <path d="M2.15667 0.0204277C1.32214 0.145233 0.647514 0.722063 0.273666 1.62926C-0.124535 2.60358 -0.0842896 4.04356 0.368988 4.94446C0.559616 5.32202 0.682472 5.49402 0.965233 5.76775C1.3772 6.16943 1.93215 6.38128 2.47756 6.34458C2.82494 6.31731 3.01556 6.27326 3.28139 6.1558C4.03438 5.81809 4.62639 4.96544 4.83396 3.9135C4.90598 3.55587 4.89539 2.5375 4.82019 2.17672C4.74182 1.82223 4.57131 1.36707 4.41881 1.10801C4.27266 0.858402 3.80879 0.395893 3.58746 0.275282C3.17867 0.0529404 2.61313 -0.0487957 2.15668 0.0225277C2.15668 0.0225277 2.15667 0.0204277 2.15667 0.0204277ZM2.94826 0.978754C3.04993 1.02595 3.20667 1.14026 3.30621 1.242C3.67371 1.61326 3.86858 2.15234 3.89928 2.88439C3.94059 3.86919 3.70866 4.64109 3.23208 5.1099C2.96308 5.37314 2.77245 5.45704 2.42825 5.46019C2.18256 5.46019 2.1349 5.44971 1.94109 5.34587C1.54924 5.14031 1.24635 4.69878 1.07585 4.08104C1.01442 3.85136 1.00384 3.72026 1.00066 3.20426C1.00066 2.69141 1.01125 2.55297 1.07267 2.32748C1.27707 1.55138 1.70598 1.02595 2.23022 0.893803C2.42085 0.849756 2.74068 0.88751 2.94931 0.977703C2.94931 0.977703 2.94826 0.978754 2.94826 0.978754Z" fill="#EC1E24" fill-rule="evenodd" transform="translate(89.469 17.601)" />
    <path d="M0.536545 0.0943909C0.311966 0.147886 0.0969543 0.199276 0.0566559 0.205574C-0.0110855 0.222349 -0.0152512 0.229696 0.0291214 0.51919C0.178497 1.51039 0.196495 1.89534 0.192299 4.09487C0.192299 4.09487 0.189056 6.23041 0.189056 6.23041L1.0545 6.23041C1.0545 6.23041 1.07465 5.51192 1.07465 5.51192C1.09898 4.72315 1.15936 4.14941 1.2896 3.56937C1.49083 2.67257 1.88905 1.83241 2.27046 1.49886C2.62424 1.18838 3.0331 1.19887 3.13903 1.51879C3.24497 1.83555 3.25132 2.02855 3.24812 3.94382C3.24812 3.94382 3.24178 5.89371 3.24178 5.89371L4.05636 5.89371C4.05636 5.89371 4.07642 5.51297 4.07642 5.51297C4.09013 5.30738 4.11351 4.76406 4.13041 4.30884C4.16748 3.43826 4.22256 3.01661 4.34125 2.65579C4.54248 2.03904 4.97777 1.45166 5.39412 1.23559C5.50962 1.17475 5.60164 1.15798 5.79234 1.15482C6.02428 1.15482 6.04764 1.16112 6.12601 1.24923C6.27956 1.42754 6.28596 1.49886 6.26265 3.61658C6.24891 4.70952 6.23193 5.72485 6.22132 5.86645C6.22132 5.86645 6.20123 6.12972 6.20123 6.12972C6.20123 6.12972 6.66402 6.12972 6.66402 6.12972C7.01148 6.12972 7.12695 6.11924 7.12695 6.08567C7.12375 6.06574 7.16825 4.99587 7.21912 3.71098C7.32079 1.11078 7.32079 1.06358 7.12057 0.689121C6.92254 0.325159 6.57939 0.153137 6.05397 0.156282C5.34216 0.159433 4.69502 0.524446 4.26922 1.16113C4.26922 1.16113 4.17072 1.30587 4.17072 1.30587C4.17072 1.30587 4.13361 1.14434 4.13361 1.14434C4.02779 0.733181 3.82324 0.44998 3.54788 0.328304C3.04369 0.115374 2.4071 0.284252 1.91241 0.766739C1.67094 1.00274 1.54483 1.17476 1.3161 1.56914C1.23131 1.72124 1.16246 1.80515 1.15293 1.77788C1.14659 1.7506 1.12859 1.57544 1.11909 1.38978C1.099 1.04889 1.00998 0.296839 0.969795 0.104887C0.969795 0.104887 0.945381 0 0.945381 0L0.536545 0.0944004C0.536545 0.0944004 0.536545 0.0943909 0.536545 0.0943909Z" fill="#EC1E24" fill-rule="evenodd" transform="translate(95.701 17.601)" />
    <path d="M0.356964 0.0706387C0.272133 0.117832 0.158882 0.218525 0.101669 0.29615C0.00953674 0.427259 0 0.465014 0 0.701015C0 0.937019 0.0106125 0.981068 0.0953445 1.1059C0.40889 1.57474 1.08994 1.53384 1.35253 1.02828C1.51569 0.714653 1.41402 0.323423 1.11427 0.117832C0.994576 0.0339298 0.926773 0.0129395 0.73925 0.00349808C0.548561 -0.00697899 0.487259 0.00349808 0.357971 0.0706387C0.357971 0.0706387 0.356964 0.0706387 0.356964 0.0706387Z" fill="#EC1E24" fill-rule="evenodd" transform="translate(81.454 22.566)" />
  </g>
</svg>